<svg version="1.1" viewBox="0.0 0.0 264.0 367.0" fill="none" stroke="none" stroke-linecap="square" stroke-miterlimit="10" width="264" height="367" xmlns:xlink="http://www.w3.org/1999/xlink" xmlns="http://www.w3.org/2000/svg"><path fill="#ffffff" d="M0 0L264.0 0L264.0 367.0L0 367.0L0 0Z" fill-rule="nonzero"/><path stroke="#000000" stroke-width="1.0" stroke-linecap="butt" stroke-opacity="0.0" d="M35.5 305.5L242.5 305.5" fill-rule="nonzero"/><path stroke="#000000" stroke-width="1.0" stroke-linecap="butt" stroke-opacity="0.0" d="M35.5 261.5L242.5 261.5" fill-rule="nonzero"/><path stroke="#000000" stroke-width="1.0" stroke-linecap="butt" stroke-opacity="0.0" d="M35.5 218.5L242.5 218.5" fill-rule="nonzero"/><path stroke="#000000" stroke-width="1.0" stroke-linecap="butt" stroke-opacity="0.0" d="M35.5 175.5L242.5 175.5" fill-rule="nonzero"/><path stroke="#000000" stroke-width="1.0" stroke-linecap="butt" stroke-opacity="0.0" d="M35.5 132.5L242.5 132.5" fill-rule="nonzero"/><path stroke="#eeeeee" stroke-width="1.0" stroke-linecap="butt" d="M69.77705 135.31578L69.77705 151.31578" fill-rule="nonzero"/><path stroke="#000000" stroke-width="1.0" stroke-linecap="butt" d="M242.5 326.5L35.5 326.5" fill-rule="nonzero"/><clipPath id="id_0"><path d="M35.31373 110.45541L242.09361 110.45541L242.09361 326.87692L35.31373 326.87692L35.31373 110.45541Z" clip-rule="nonzero"/></clipPath><path stroke="#5f9dd6" stroke-width="2.0" stroke-linecap="butt" clip-path="url(#id_0)" d="M35.31373 167.89368L52.545387 174.64603L69.77705 151.31578L87.008705 150.92622L104.24036 154.25911L121.472015 191.09406L138.70367 188.28058L155.93533 191.39705L173.16699 187.9343L190.39865 188.32387L207.63031 185.55367L224.86195 204.85846L242.09361 195.03293" fill-rule="nonzero"/><path stroke="#073763" stroke-width="2.0" stroke-linecap="butt" stroke-opacity="0.7019608" clip-path="url(#id_0)" d="M0 151.45346L242.09361 200.13953" fill-rule="nonzero"/><path fill="#5f9dd6" clip-path="url(#id_0)" d="M35.31373 167.89368C35.31373 167.89368 35.31373 167.89368 35.31373 167.89368C35.31373 167.89368 35.31373 167.89368 35.31373 167.89368C35.31373 167.89368 35.31373 167.89368 35.31373 167.89368C35.31373 167.89368 35.31373 167.89368 35.31373 167.89368Z" fill-rule="nonzero"/><path fill="#5f9dd6" clip-path="url(#id_0)" d="M52.545387 174.64603C52.545387 174.64603 52.545387 174.64603 52.545387 174.64603C52.545387 174.64603 52.545387 174.64603 52.545387 174.64603C52.545387 174.64603 52.545387 174.64603 52.545387 174.64603C52.545387 174.64603 52.545387 174.64603 52.545387 174.64603Z" fill-rule="nonzero"/><path fill="#5f9dd6" clip-path="url(#id_0)" d="M69.77705 151.31578C69.77705 151.31578 69.77705 151.31578 69.77705 151.31578C69.77705 151.31578 69.77705 151.31578 69.77705 151.31578C69.77705 151.31578 69.77705 151.31578 69.77705 151.31578C69.77705 151.31578 69.77705 151.31578 69.77705 151.31578Z" fill-rule="nonzero"/><path fill="#5f9dd6" clip-path="url(#id_0)" d="M87.008705 150.92622C87.008705 150.92622 87.008705 150.92622 87.008705 150.92622C87.008705 150.92622 87.008705 150.92622 87.008705 150.92622C87.008705 150.92622 87.008705 150.92622 87.008705 150.92622C87.008705 150.92622 87.008705 150.92622 87.008705 150.92622Z" fill-rule="nonzero"/><path fill="#5f9dd6" clip-path="url(#id_0)" d="M104.24036 154.25911C104.24036 154.25911 104.24036 154.25911 104.24036 154.25911C104.24036 154.25911 104.24036 154.25911 104.24036 154.25911C104.24036 154.25911 104.24036 154.25911 104.24036 154.25911C104.24036 154.25911 104.24036 154.25911 104.24036 154.25911Z" fill-rule="nonzero"/><path fill="#5f9dd6" clip-path="url(#id_0)" d="M121.472015 191.09406C121.472015 191.09406 121.472015 191.09406 121.472015 191.09406C121.472015 191.09406 121.472015 191.09406 121.472015 191.09406C121.472015 191.09406 121.472015 191.09406 121.472015 191.09406C121.472015 191.09406 121.472015 191.09406 121.472015 191.09406Z" fill-rule="nonzero"/><path fill="#5f9dd6" clip-path="url(#id_0)" d="M138.70367 188.28058C138.70367 188.28058 138.70367 188.28058 138.70367 188.28058C138.70367 188.28058 138.70367 188.28058 138.70367 188.28058C138.70367 188.28058 138.70367 188.28058 138.70367 188.28058C138.70367 188.28058 138.70367 188.28058 138.70367 188.28058Z" fill-rule="nonzero"/><path fill="#5f9dd6" clip-path="url(#id_0)" d="M155.93533 191.39705C155.93533 191.39705 155.93533 191.39705 155.93533 191.39705C155.93533 191.39705 155.93533 191.39705 155.93533 191.39705C155.93533 191.39705 155.93533 191.39705 155.93533 191.39705C155.93533 191.39705 155.93533 191.39705 155.93533 191.39705Z" fill-rule="nonzero"/><path fill="#5f9dd6" clip-path="url(#id_0)" d="M173.16699 187.9343C173.16699 187.9343 173.16699 187.9343 173.16699 187.9343C173.16699 187.9343 173.16699 187.9343 173.16699 187.9343C173.16699 187.9343 173.16699 187.9343 173.16699 187.9343C173.16699 187.9343 173.16699 187.9343 173.16699 187.9343Z" fill-rule="nonzero"/><path fill="#5f9dd6" clip-path="url(#id_0)" d="M190.39865 188.32387C190.39865 188.32387 190.39865 188.32387 190.39865 188.32387C190.39865 188.32387 190.39865 188.32387 190.39865 188.32387C190.39865 188.32387 190.39865 188.32387 190.39865 188.32387C190.39865 188.32387 190.39865 188.32387 190.39865 188.32387Z" fill-rule="nonzero"/><path fill="#5f9dd6" clip-path="url(#id_0)" d="M207.63031 185.55367C207.63031 185.55367 207.63031 185.55367 207.63031 185.55367C207.63031 185.55367 207.63031 185.55367 207.63031 185.55367C207.63031 185.55367 207.63031 185.55367 207.63031 185.55367C207.63031 185.55367 207.63031 185.55367 207.63031 185.55367Z" fill-rule="nonzero"/><path fill="#5f9dd6" clip-path="url(#id_0)" d="M224.86195 204.85846C224.86195 204.85846 224.86195 204.85846 224.86195 204.85846C224.86195 204.85846 224.86195 204.85846 224.86195 204.85846C224.86195 204.85846 224.86195 204.85846 224.86195 204.85846C224.86195 204.85846 224.86195 204.85846 224.86195 204.85846Z" fill-rule="nonzero"/><path fill="#5f9dd6" clip-path="url(#id_0)" d="M242.09361 195.03293C242.09361 195.03293 242.09361 195.03293 242.09361 195.03293C242.09361 195.03293 242.09361 195.03293 242.09361 195.03293C242.09361 195.03293 242.09361 195.03293 242.09361 195.03293C242.09361 195.03293 242.09361 195.03293 242.09361 195.03293Z" fill-rule="nonzero"/><path stroke="#000000" stroke-width="1.0" stroke-linecap="butt" d="M35.5 332.5L35.5 320.5" fill-rule="nonzero"/><path stroke="#000000" stroke-width="1.0" stroke-linecap="butt" d="M242.5 332.5L242.5 320.5" fill-rule="nonzero"/><path stroke="#ffffff" stroke-width="3.0" stroke-linejoin="round" stroke-linecap="round" d="M63.558296 130.4564L64.7458 130.4564L64.7458 131.3314L63.558296 131.3314L63.558296 133.31578L62.48017 133.31578L62.48017 131.3314L58.589546 131.3314L58.589546 130.69078L62.402046 124.78453L63.558296 124.78453L63.558296 130.4564ZM59.82392 130.4564L62.48017 130.4564L62.48017 126.268906L62.339546 126.50328L59.82392 130.4564ZM69.54267 133.31578L68.46455 133.31578L68.46455 126.09703L66.27705 126.893906L66.27705 125.90953L69.38642 124.737656L69.54267 124.737656L69.54267 133.31578ZM72.88642 126.425156Q72.88642 125.65953 73.3708 125.15953Q73.8708 124.65953 74.63642 124.65953Q75.41767 124.65953 75.90205 125.15953Q76.38642 125.65953 76.38642 126.456406L76.38642 126.87828Q76.38642 127.643906 75.88642 128.1439Q75.40205 128.62828 74.65205 128.62828Q73.88642 128.62828 73.38642 128.1439Q72.88642 127.643906 72.88642 126.831406L72.88642 126.425156ZM73.69892 126.87828Q73.69892 127.331406 73.94892 127.62828Q74.21455 127.925156 74.65205 127.925156Q75.07392 127.925156 75.32392 127.643906Q75.57392 127.34703 75.57392 126.84703L75.57392 126.425156Q75.57392 125.97203 75.32392 125.675156Q75.07392 125.362656 74.63642 125.362656Q74.19892 125.362656 73.94892 125.675156Q73.69892 125.97203 73.69892 126.44078L73.69892 126.87828ZM77.04267 131.22203Q77.04267 130.4564 77.52705 129.97203Q78.02705 129.47203 78.79267 129.47203Q79.5583 129.47203 80.04267 129.97203Q80.54267 130.4564 80.54267 131.2689L80.54267 131.67516Q80.54267 132.44078 80.0583 132.94078Q79.57392 133.44078 78.8083 133.44078Q78.04267 133.44078 77.54267 132.9564Q77.04267 132.4564 77.04267 131.6439L77.04267 131.22203ZM77.85517 131.67516Q77.85517 132.1439 78.10517 132.44078Q78.3708 132.73766 78.8083 132.73766Q79.23017 132.73766 79.48017 132.4564Q79.73017 132.15953 79.73017 131.65953L79.73017 131.22203Q79.73017 130.75328 79.46455 130.47203Q79.21455 130.17516 78.79267 130.17516Q78.3708 130.17516 78.10517 130.47203Q77.85517 130.75328 77.85517 131.25328L77.85517 131.67516ZM74.90205 132.67516L74.27705 132.28453L78.44892 125.612656L79.0583 126.00328L74.90205 132.67516Z" fill-rule="nonzero"/><path fill="#5f9dd6" d="M63.558296 130.4564L64.7458 130.4564L64.7458 131.3314L63.558296 131.3314L63.558296 133.31578L62.48017 133.31578L62.48017 131.3314L58.589546 131.3314L58.589546 130.69078L62.402046 124.78453L63.558296 124.78453L63.558296 130.4564ZM59.82392 130.4564L62.48017 130.4564L62.48017 126.268906L62.339546 126.50328L59.82392 130.4564ZM69.54267 133.31578L68.46455 133.31578L68.46455 126.09703L66.27705 126.893906L66.27705 125.90953L69.38642 124.737656L69.54267 124.737656L69.54267 133.31578ZM72.88642 126.425156Q72.88642 125.65953 73.3708 125.15953Q73.8708 124.65953 74.63642 124.65953Q75.41767 124.65953 75.90205 125.15953Q76.38642 125.65953 76.38642 126.456406L76.38642 126.87828Q76.38642 127.643906 75.88642 128.1439Q75.40205 128.62828 74.65205 128.62828Q73.88642 128.62828 73.38642 128.1439Q72.88642 127.643906 72.88642 126.831406L72.88642 126.425156ZM73.69892 126.87828Q73.69892 127.331406 73.94892 127.62828Q74.21455 127.925156 74.65205 127.925156Q75.07392 127.925156 75.32392 127.643906Q75.57392 127.34703 75.57392 126.84703L75.57392 126.425156Q75.57392 125.97203 75.32392 125.675156Q75.07392 125.362656 74.63642 125.362656Q74.19892 125.362656 73.94892 125.675156Q73.69892 125.97203 73.69892 126.44078L73.69892 126.87828ZM77.04267 131.22203Q77.04267 130.4564 77.52705 129.97203Q78.02705 129.47203 78.79267 129.47203Q79.5583 129.47203 80.04267 129.97203Q80.54267 130.4564 80.54267 131.2689L80.54267 131.67516Q80.54267 132.44078 80.0583 132.94078Q79.57392 133.44078 78.8083 133.44078Q78.04267 133.44078 77.54267 132.9564Q77.04267 132.4564 77.04267 131.6439L77.04267 131.22203ZM77.85517 131.67516Q77.85517 132.1439 78.10517 132.44078Q78.3708 132.73766 78.8083 132.73766Q79.23017 132.73766 79.48017 132.4564Q79.73017 132.15953 79.73017 131.65953L79.73017 131.22203Q79.73017 130.75328 79.46455 130.47203Q79.21455 130.17516 78.79267 130.17516Q78.3708 130.17516 78.10517 130.47203Q77.85517 130.75328 77.85517 131.25328L77.85517 131.67516ZM74.90205 132.67516L74.27705 132.28453L78.44892 125.612656L79.0583 126.00328L74.90205 132.67516Z" fill-rule="nonzero"/><path stroke="#ffffff" stroke-width="3.0" stroke-linejoin="round" stroke-linecap="round" d="M220.69269 223.25847L215.09894 223.25847L215.09894 222.47722L218.05206 219.19597Q218.70831 218.44597 218.95831 217.99284Q219.20831 217.5241 219.20831 217.0241Q219.20831 216.35222 218.80206 215.93034Q218.41144 215.49284 217.72394 215.49284Q216.92706 215.49284 216.47394 215.9616Q216.02081 216.41472 216.02081 217.24284L214.94269 217.24284Q214.94269 216.05534 215.69269 215.3366Q216.45831 214.60222 217.72394 214.60222Q218.92706 214.60222 219.61456 215.22722Q220.30206 215.85222 220.30206 216.8991Q220.30206 218.1491 218.69269 219.8991L216.41144 222.36784L220.69269 222.36784L220.69269 223.25847ZM227.28644 216.94597Q227.28644 217.5866 226.94269 218.0866Q226.59894 218.5866 226.03644 218.86784Q226.69269 219.1491 227.08331 219.7116Q227.47394 220.25847 227.47394 220.9616Q227.47394 222.05534 226.72394 222.72722Q225.98956 223.38347 224.77081 223.38347Q223.53644 223.38347 222.78644 222.72722Q222.05206 222.05534 222.05206 220.9616Q222.05206 220.25847 222.42706 219.7116Q222.80206 219.1491 223.47394 218.86784Q222.91144 218.5866 222.58331 218.0866Q222.25519 217.5866 222.25519 216.94597Q222.25519 215.86784 222.94269 215.24284Q223.63019 214.60222 224.77081 214.60222Q225.89581 214.60222 226.58331 215.24284Q227.28644 215.86784 227.28644 216.94597ZM226.39581 220.93034Q226.39581 220.2116 225.94269 219.7741Q225.48956 219.32097 224.75519 219.32097Q224.02081 219.32097 223.56769 219.7741Q223.13019 220.2116 223.13019 220.94597Q223.13019 221.66472 223.56769 222.0866Q224.00519 222.49284 224.77081 222.49284Q225.52081 222.49284 225.95831 222.07097Q226.39581 221.6491 226.39581 220.93034ZM224.77081 215.49284Q224.13019 215.49284 223.72394 215.8991Q223.33331 216.28972 223.33331 216.97722Q223.33331 217.61784 223.72394 218.0241Q224.11456 218.43034 224.75519 218.43034Q225.41144 218.43034 225.80206 218.0241Q226.19269 217.61784 226.19269 216.97722Q226.19269 216.32097 225.78644 215.91472Q225.38019 215.49284 224.77081 215.49284ZM229.00519 216.36784Q229.00519 215.60222 229.48956 215.10222Q229.98956 214.60222 230.75519 214.60222Q231.53644 214.60222 232.02081 215.10222Q232.50519 215.60222 232.50519 216.3991L232.50519 216.82097Q232.50519 217.5866 232.00519 218.0866Q231.52081 218.57097 230.77081 218.57097Q230.00519 218.57097 229.50519 218.0866Q229.00519 217.5866 229.00519 216.7741L229.00519 216.36784ZM229.81769 216.82097Q229.81769 217.2741 230.06769 217.57097Q230.33331 217.86784 230.77081 217.86784Q231.19269 217.86784 231.44269 217.5866Q231.69269 217.28972 231.69269 216.78972L231.69269 216.36784Q231.69269 215.91472 231.44269 215.61784Q231.19269 215.30534 230.75519 215.30534Q230.31769 215.30534 230.06769 215.61784Q229.81769 215.91472 229.81769 216.38347L229.81769 216.82097ZM233.16144 221.16472Q233.16144 220.3991 233.64581 219.91472Q234.14581 219.41472 234.91144 219.41472Q235.67706 219.41472 236.16144 219.91472Q236.66144 220.3991 236.66144 221.2116L236.66144 221.61784Q236.66144 222.38347 236.17706 222.88347Q235.69269 223.38347 234.92706 223.38347Q234.16144 223.38347 233.66144 222.8991Q233.16144 222.3991 233.16144 221.5866L233.16144 221.16472ZM233.97394 221.61784Q233.97394 222.0866 234.22394 222.38347Q234.48956 222.68034 234.92706 222.68034Q235.34894 222.68034 235.59894 222.3991Q235.84894 222.10222 235.84894 221.60222L235.84894 221.16472Q235.84894 220.69597 235.58331 220.41472Q235.33331 220.11784 234.91144 220.11784Q234.48956 220.11784 234.22394 220.41472Q233.97394 220.69597 233.97394 221.19597L233.97394 221.61784ZM231.02081 222.61784L230.39581 222.22722L234.56769 215.55534L235.17706 215.94597L231.02081 222.61784Z" fill-rule="nonzero"/><path fill="#5f9dd6" d="M220.69269 223.25847L215.09894 223.25847L215.09894 222.47722L218.05206 219.19597Q218.70831 218.44597 218.95831 217.99284Q219.20831 217.5241 219.20831 217.0241Q219.20831 216.35222 218.80206 215.93034Q218.41144 215.49284 217.72394 215.49284Q216.92706 215.49284 216.47394 215.9616Q216.02081 216.41472 216.02081 217.24284L214.94269 217.24284Q214.94269 216.05534 215.69269 215.3366Q216.45831 214.60222 217.72394 214.60222Q218.92706 214.60222 219.61456 215.22722Q220.30206 215.85222 220.30206 216.8991Q220.30206 218.1491 218.69269 219.8991L216.41144 222.36784L220.69269 222.36784L220.69269 223.25847ZM227.28644 216.94597Q227.28644 217.5866 226.94269 218.0866Q226.59894 218.5866 226.03644 218.86784Q226.69269 219.1491 227.08331 219.7116Q227.47394 220.25847 227.47394 220.9616Q227.47394 222.05534 226.72394 222.72722Q225.98956 223.38347 224.77081 223.38347Q223.53644 223.38347 222.78644 222.72722Q222.05206 222.05534 222.05206 220.9616Q222.05206 220.25847 222.42706 219.7116Q222.80206 219.1491 223.47394 218.86784Q222.91144 218.5866 222.58331 218.0866Q222.25519 217.5866 222.25519 216.94597Q222.25519 215.86784 222.94269 215.24284Q223.63019 214.60222 224.77081 214.60222Q225.89581 214.60222 226.58331 215.24284Q227.28644 215.86784 227.28644 216.94597ZM226.39581 220.93034Q226.39581 220.2116 225.94269 219.7741Q225.48956 219.32097 224.75519 219.32097Q224.02081 219.32097 223.56769 219.7741Q223.13019 220.2116 223.13019 220.94597Q223.13019 221.66472 223.56769 222.0866Q224.00519 222.49284 224.77081 222.49284Q225.52081 222.49284 225.95831 222.07097Q226.39581 221.6491 226.39581 220.93034ZM224.77081 215.49284Q224.13019 215.49284 223.72394 215.8991Q223.33331 216.28972 223.33331 216.97722Q223.33331 217.61784 223.72394 218.0241Q224.11456 218.43034 224.75519 218.43034Q225.41144 218.43034 225.80206 218.0241Q226.19269 217.61784 226.19269 216.97722Q226.19269 216.32097 225.78644 215.91472Q225.38019 215.49284 224.77081 215.49284ZM229.00519 216.36784Q229.00519 215.60222 229.48956 215.10222Q229.98956 214.60222 230.75519 214.60222Q231.53644 214.60222 232.02081 215.10222Q232.50519 215.60222 232.50519 216.3991L232.50519 216.82097Q232.50519 217.5866 232.00519 218.0866Q231.52081 218.57097 230.77081 218.57097Q230.00519 218.57097 229.50519 218.0866Q229.00519 217.5866 229.00519 216.7741L229.00519 216.36784ZM229.81769 216.82097Q229.81769 217.2741 230.06769 217.57097Q230.33331 217.86784 230.77081 217.86784Q231.19269 217.86784 231.44269 217.5866Q231.69269 217.28972 231.69269 216.78972L231.69269 216.36784Q231.69269 215.91472 231.44269 215.61784Q231.19269 215.30534 230.75519 215.30534Q230.31769 215.30534 230.06769 215.61784Q229.81769 215.91472 229.81769 216.38347L229.81769 216.82097ZM233.16144 221.16472Q233.16144 220.3991 233.64581 219.91472Q234.14581 219.41472 234.91144 219.41472Q235.67706 219.41472 236.16144 219.91472Q236.66144 220.3991 236.66144 221.2116L236.66144 221.61784Q236.66144 222.38347 236.17706 222.88347Q235.69269 223.38347 234.92706 223.38347Q234.16144 223.38347 233.66144 222.8991Q233.16144 222.3991 233.16144 221.5866L233.16144 221.16472ZM233.97394 221.61784Q233.97394 222.0866 234.22394 222.38347Q234.48956 222.68034 234.92706 222.68034Q235.34894 222.68034 235.59894 222.3991Q235.84894 222.10222 235.84894 221.60222L235.84894 221.16472Q235.84894 220.69597 235.58331 220.41472Q235.33331 220.11784 234.91144 220.11784Q234.48956 220.11784 234.22394 220.41472Q233.97394 220.69597 233.97394 221.19597L233.97394 221.61784ZM231.02081 222.61784L230.39581 222.22722L234.56769 215.55534L235.17706 215.94597L231.02081 222.61784Z" fill-rule="nonzero"/><path fill="#ffffff" d="M24.56373 326.75192Q24.56373 326.00192 24.71998 325.53317Q24.87623 325.06442 25.18873 324.81442Q25.50123 324.56442 25.96998 324.56442Q26.31373 324.56442 26.56373 324.70505Q26.829355 324.84567 27.00123 325.1113Q27.173105 325.3613 27.266855 325.75192Q27.360605 326.12692 27.360605 326.75192Q27.360605 327.51755 27.204355 327.9863Q27.048105 328.43942 26.735605 328.70505Q26.43873 328.95505 25.96998 328.95505Q25.34498 328.95505 24.985605 328.50192Q24.56373 327.97067 24.56373 326.75192ZM25.110605 326.75192Q25.110605 327.81442 25.34498 328.1738Q25.59498 328.51755 25.96998 328.51755Q26.329355 328.51755 26.579355 328.1738Q26.829355 327.81442 26.829355 326.75192Q26.829355 325.70505 26.579355 325.3613Q26.329355 325.00192 25.954355 325.00192Q25.59498 325.00192 25.37623 325.31442Q25.110605 325.70505 25.110605 326.75192ZM27.65748 325.6113Q27.65748 325.15817 27.891855 324.83005Q28.12623 324.50192 28.56373 324.50192Q28.96998 324.50192 29.235605 324.7988Q29.50123 325.08005 29.50123 325.64255Q29.50123 326.18942 29.235605 326.4863Q28.96998 326.78317 28.56373 326.78317Q28.18873 326.78317 27.923105 326.50192Q27.65748 326.20505 27.65748 325.6113ZM28.579355 324.87692Q28.37623 324.87692 28.25123 325.0488Q28.12623 325.20505 28.12623 325.65817Q28.12623 326.08005 28.25123 326.25192Q28.391855 326.40817 28.579355 326.40817Q28.78248 326.40817 28.90748 326.25192Q29.03248 326.08005 29.03248 325.62692Q29.03248 325.20505 28.90748 325.0488Q28.78248 324.87692 28.579355 324.87692ZM28.579355 329.03317L30.93873 324.50192L31.360605 324.50192L29.016855 329.03317L28.579355 329.03317ZM30.43873 327.8613Q30.43873 327.40817 30.673105 327.09567Q30.90748 326.76755 31.34498 326.76755Q31.75123 326.76755 32.016853 327.06442Q32.28248 327.34567 32.28248 327.90817Q32.28248 328.43942 32.016853 328.7363Q31.75123 329.03317 31.34498 329.03317Q30.954355 329.03317 30.68873 328.75192Q30.43873 328.45505 30.43873 327.8613ZM31.360605 327.12692Q31.15748 327.12692 31.03248 327.2988Q30.90748 327.47067 30.90748 327.9238Q30.90748 328.33005 31.03248 328.50192Q31.15748 328.6738 31.360605 328.6738Q31.56373 328.6738 31.68873 328.50192Q31.81373 328.33005 31.81373 327.87692Q31.81373 327.47067 31.68873 327.2988Q31.56373 327.12692 31.360605 327.12692Z" fill-rule="nonzero"/><path fill="#ffffff" d="M23.548105 285.59262L23.016855 285.59262L23.016855 282.23325Q22.829355 282.42075 22.516855 282.60825Q22.21998 282.78012 21.96998 282.87387L21.96998 282.35825Q22.40748 282.15512 22.735605 281.85825Q23.079355 281.56137 23.204355 281.28012L23.548105 281.28012L23.548105 285.59262ZM24.56373 283.46762Q24.56373 282.71762 24.71998 282.24887Q24.87623 281.78012 25.18873 281.53012Q25.50123 281.28012 25.96998 281.28012Q26.31373 281.28012 26.56373 281.42075Q26.829355 281.56137 27.00123 281.827Q27.173105 282.077 27.266855 282.46762Q27.360605 282.84262 27.360605 283.46762Q27.360605 284.23325 27.204355 284.702Q27.048105 285.15512 26.735605 285.42075Q26.43873 285.67075 25.96998 285.67075Q25.34498 285.67075 24.985605 285.21762Q24.56373 284.68637 24.56373 283.46762ZM25.110605 283.46762Q25.110605 284.53012 25.34498 284.8895Q25.59498 285.23325 25.96998 285.23325Q26.329355 285.23325 26.579355 284.8895Q26.829355 284.53012 26.829355 283.46762Q26.829355 282.42075 26.579355 282.077Q26.329355 281.71762 25.954355 281.71762Q25.59498 281.71762 25.37623 282.03012Q25.110605 282.42075 25.110605 283.46762ZM27.65748 282.327Q27.65748 281.87387 27.891855 281.54575Q28.12623 281.21762 28.56373 281.21762Q28.96998 281.21762 29.235605 281.5145Q29.50123 281.79575 29.50123 282.35825Q29.50123 282.90512 29.235605 283.202Q28.96998 283.49887 28.56373 283.49887Q28.18873 283.49887 27.923105 283.21762Q27.65748 282.92075 27.65748 282.327ZM28.579355 281.59262Q28.37623 281.59262 28.25123 281.7645Q28.12623 281.92075 28.12623 282.37387Q28.12623 282.79575 28.25123 282.96762Q28.391855 283.12387 28.579355 283.12387Q28.78248 283.12387 28.90748 282.96762Q29.03248 282.79575 29.03248 282.34262Q29.03248 281.92075 28.90748 281.7645Q28.78248 281.59262 28.579355 281.59262ZM28.579355 285.74887L30.93873 281.21762L31.360605 281.21762L29.016855 285.74887L28.579355 285.74887ZM30.43873 284.577Q30.43873 284.12387 30.673105 283.81137Q30.90748 283.48325 31.34498 283.48325Q31.75123 283.48325 32.016853 283.78012Q32.28248 284.06137 32.28248 284.62387Q32.28248 285.15512 32.016853 285.452Q31.75123 285.74887 31.34498 285.74887Q30.954355 285.74887 30.68873 285.46762Q30.43873 285.17075 30.43873 284.577ZM31.360605 283.84262Q31.15748 283.84262 31.03248 284.0145Q30.90748 284.18637 30.90748 284.6395Q30.90748 285.04575 31.03248 285.21762Q31.15748 285.3895 31.360605 285.3895Q31.56373 285.3895 31.68873 285.21762Q31.81373 285.04575 31.81373 284.59262Q31.81373 284.18637 31.68873 284.0145Q31.56373 283.84262 31.360605 283.84262Z" fill-rule="nonzero"/><path fill="#ffffff" d="M24.329355 241.8083L24.329355 242.3083L21.50123 242.3083Q21.485605 242.1208 21.56373 241.94893Q21.673105 241.65205 21.90748 241.3708Q22.141855 241.08955 22.59498 240.71455Q23.298105 240.15205 23.53248 239.82393Q23.78248 239.48018 23.78248 239.1833Q23.78248 238.85518 23.56373 238.65205Q23.34498 238.4333 22.985605 238.4333Q22.59498 238.4333 22.360605 238.66768Q22.141855 238.88643 22.141855 239.29268L21.59498 239.23018Q21.65748 238.63643 22.016855 238.32393Q22.37623 237.9958 22.985605 237.9958Q23.610605 237.9958 23.96998 238.33955Q24.329355 238.6833 24.329355 239.1833Q24.329355 239.44893 24.21998 239.69893Q24.110605 239.94893 23.860605 240.23018Q23.62623 240.4958 23.06373 240.98018Q22.579355 241.3708 22.43873 241.51143Q22.31373 241.65205 22.235605 241.8083L24.329355 241.8083ZM24.56373 240.1833Q24.56373 239.4333 24.71998 238.96455Q24.87623 238.4958 25.18873 238.2458Q25.50123 237.9958 25.96998 237.9958Q26.31373 237.9958 26.56373 238.13643Q26.829355 238.27705 27.00123 238.54268Q27.173105 238.79268 27.266855 239.1833Q27.360605 239.5583 27.360605 240.1833Q27.360605 240.94893 27.204355 241.41768Q27.048105 241.8708 26.735605 242.13643Q26.43873 242.38643 25.96998 242.38643Q25.34498 242.38643 24.985605 241.9333Q24.56373 241.40205 24.56373 240.1833ZM25.110605 240.1833Q25.110605 241.2458 25.34498 241.60518Q25.59498 241.94893 25.96998 241.94893Q26.329355 241.94893 26.579355 241.60518Q26.829355 241.2458 26.829355 240.1833Q26.829355 239.13643 26.579355 238.79268Q26.329355 238.4333 25.954355 238.4333Q25.59498 238.4333 25.37623 238.7458Q25.110605 239.13643 25.110605 240.1833ZM27.65748 239.04268Q27.65748 238.58955 27.891855 238.26143Q28.12623 237.9333 28.56373 237.9333Q28.96998 237.9333 29.235605 238.23018Q29.50123 238.51143 29.50123 239.07393Q29.50123 239.6208 29.235605 239.91768Q28.96998 240.21455 28.56373 240.21455Q28.18873 240.21455 27.923105 239.9333Q27.65748 239.63643 27.65748 239.04268ZM28.579355 238.3083Q28.37623 238.3083 28.25123 238.48018Q28.12623 238.63643 28.12623 239.08955Q28.12623 239.51143 28.25123 239.6833Q28.391855 239.83955 28.579355 239.83955Q28.78248 239.83955 28.90748 239.6833Q29.03248 239.51143 29.03248 239.0583Q29.03248 238.63643 28.90748 238.48018Q28.78248 238.3083 28.579355 238.3083ZM28.579355 242.46455L30.93873 237.9333L31.360605 237.9333L29.016855 242.46455L28.579355 242.46455ZM30.43873 241.29268Q30.43873 240.83955 30.673105 240.52705Q30.90748 240.19893 31.34498 240.19893Q31.75123 240.19893 32.016853 240.4958Q32.28248 240.77705 32.28248 241.33955Q32.28248 241.8708 32.016853 242.16768Q31.75123 242.46455 31.34498 242.46455Q30.954355 242.46455 30.68873 242.1833Q30.43873 241.88643 30.43873 241.29268ZM31.360605 240.5583Q31.15748 240.5583 31.03248 240.73018Q30.90748 240.90205 30.90748 241.35518Q30.90748 241.76143 31.03248 241.9333Q31.15748 242.10518 31.360605 242.10518Q31.56373 242.10518 31.68873 241.9333Q31.81373 241.76143 31.81373 241.3083Q31.81373 240.90205 31.68873 240.73018Q31.56373 240.5583 31.360605 240.5583Z" fill-rule="nonzero"/><path fill="#ffffff" d="M21.56373 197.88338L22.09498 197.82088Q22.18873 198.274 22.40748 198.47713Q22.62623 198.66463 22.93873 198.66463Q23.31373 198.66463 23.56373 198.41463Q23.81373 198.149 23.81373 197.774Q23.81373 197.399 23.579355 197.16463Q23.34498 196.93025 22.985605 196.93025Q22.829355 196.93025 22.610605 196.99275L22.65748 196.524Q22.71998 196.53963 22.75123 196.53963Q23.079355 196.53963 23.34498 196.36775Q23.62623 196.18025 23.62623 195.82088Q23.62623 195.524 23.423105 195.3365Q23.235605 195.149 22.923105 195.149Q22.610605 195.149 22.40748 195.3365Q22.204355 195.524 22.141855 195.91463L21.62623 195.82088Q21.71998 195.28963 22.06373 195.00838Q22.40748 194.7115 22.90748 194.7115Q23.266855 194.7115 23.56373 194.86775Q23.860605 195.00838 24.016855 195.274Q24.173105 195.53963 24.173105 195.82088Q24.173105 196.10213 24.016855 196.3365Q23.87623 196.55525 23.579355 196.69588Q23.954355 196.78963 24.15748 197.07088Q24.37623 197.3365 24.37623 197.75838Q24.37623 198.32088 23.96998 198.7115Q23.56373 199.10213 22.93873 199.10213Q22.360605 199.10213 21.985605 198.774Q21.62623 198.43025 21.56373 197.88338ZM24.56373 196.899Q24.56373 196.149 24.71998 195.68025Q24.87623 195.2115 25.18873 194.9615Q25.50123 194.7115 25.96998 194.7115Q26.31373 194.7115 26.56373 194.85213Q26.829355 194.99275 27.00123 195.25838Q27.173105 195.50838 27.266855 195.899Q27.360605 196.274 27.360605 196.899Q27.360605 197.66463 27.204355 198.13338Q27.048105 198.5865 26.735605 198.85213Q26.43873 199.10213 25.96998 199.10213Q25.34498 199.10213 24.985605 198.649Q24.56373 198.11775 24.56373 196.899ZM25.110605 196.899Q25.110605 197.9615 25.34498 198.32088Q25.59498 198.66463 25.96998 198.66463Q26.329355 198.66463 26.579355 198.32088Q26.829355 197.9615 26.829355 196.899Q26.829355 195.85213 26.579355 195.50838Q26.329355 195.149 25.954355 195.149Q25.59498 195.149 25.37623 195.4615Q25.110605 195.85213 25.110605 196.899ZM27.65748 195.75838Q27.65748 195.30525 27.891855 194.97713Q28.12623 194.649 28.56373 194.649Q28.96998 194.649 29.235605 194.94588Q29.50123 195.22713 29.50123 195.78963Q29.50123 196.3365 29.235605 196.63338Q28.96998 196.93025 28.56373 196.93025Q28.18873 196.93025 27.923105 196.649Q27.65748 196.35213 27.65748 195.75838ZM28.579355 195.024Q28.37623 195.024 28.25123 195.19588Q28.12623 195.35213 28.12623 195.80525Q28.12623 196.22713 28.25123 196.399Q28.391855 196.55525 28.579355 196.55525Q28.78248 196.55525 28.90748 196.399Q29.03248 196.22713 29.03248 195.774Q29.03248 195.35213 28.90748 195.19588Q28.78248 195.024 28.579355 195.024ZM28.579355 199.18025L30.93873 194.649L31.360605 194.649L29.016855 199.18025L28.579355 199.18025ZM30.43873 198.00838Q30.43873 197.55525 30.673105 197.24275Q30.90748 196.91463 31.34498 196.91463Q31.75123 196.91463 32.016853 197.2115Q32.28248 197.49275 32.28248 198.05525Q32.28248 198.5865 32.016853 198.88338Q31.75123 199.18025 31.34498 199.18025Q30.954355 199.18025 30.68873 198.899Q30.43873 198.60213 30.43873 198.00838ZM31.360605 197.274Q31.15748 197.274 31.03248 197.44588Q30.90748 197.61775 30.90748 198.07088Q30.90748 198.47713 31.03248 198.649Q31.15748 198.82088 31.360605 198.82088Q31.56373 198.82088 31.68873 198.649Q31.81373 198.47713 31.81373 198.024Q31.81373 197.61775 31.68873 197.44588Q31.56373 197.274 31.360605 197.274Z" fill-rule="nonzero"/><path fill="#ffffff" d="M23.25123 155.7397L23.25123 154.70845L21.391855 154.70845L21.391855 154.22408L23.34498 151.44283L23.78248 151.44283L23.78248 154.22408L24.360605 154.22408L24.360605 154.70845L23.78248 154.70845L23.78248 155.7397L23.25123 155.7397ZM23.25123 154.22408L23.25123 152.28658L21.90748 154.22408L23.25123 154.22408ZM24.56373 153.6147Q24.56373 152.8647 24.71998 152.39595Q24.87623 151.9272 25.18873 151.6772Q25.50123 151.4272 25.96998 151.4272Q26.31373 151.4272 26.56373 151.56783Q26.829355 151.70845 27.00123 151.97408Q27.173105 152.22408 27.266855 152.6147Q27.360605 152.9897 27.360605 153.6147Q27.360605 154.38033 27.204355 154.84908Q27.048105 155.3022 26.735605 155.56783Q26.43873 155.81783 25.96998 155.81783Q25.34498 155.81783 24.985605 155.3647Q24.56373 154.83345 24.56373 153.6147ZM25.110605 153.6147Q25.110605 154.6772 25.34498 155.03658Q25.59498 155.38033 25.96998 155.38033Q26.329355 155.38033 26.579355 155.03658Q26.829355 154.6772 26.829355 153.6147Q26.829355 152.56783 26.579355 152.22408Q26.329355 151.8647 25.954355 151.8647Q25.59498 151.8647 25.37623 152.1772Q25.110605 152.56783 25.110605 153.6147ZM27.65748 152.47408Q27.65748 152.02095 27.891855 151.69283Q28.12623 151.3647 28.56373 151.3647Q28.96998 151.3647 29.235605 151.66158Q29.50123 151.94283 29.50123 152.50533Q29.50123 153.0522 29.235605 153.34908Q28.96998 153.64595 28.56373 153.64595Q28.18873 153.64595 27.923105 153.3647Q27.65748 153.06783 27.65748 152.47408ZM28.579355 151.7397Q28.37623 151.7397 28.25123 151.91158Q28.12623 152.06783 28.12623 152.52095Q28.12623 152.94283 28.25123 153.1147Q28.391855 153.27095 28.579355 153.27095Q28.78248 153.27095 28.90748 153.1147Q29.03248 152.94283 29.03248 152.4897Q29.03248 152.06783 28.90748 151.91158Q28.78248 151.7397 28.579355 151.7397ZM28.579355 155.89595L30.93873 151.3647L31.360605 151.3647L29.016855 155.89595L28.579355 155.89595ZM30.43873 154.72408Q30.43873 154.27095 30.673105 153.95845Q30.90748 153.63033 31.34498 153.63033Q31.75123 153.63033 32.016853 153.9272Q32.28248 154.20845 32.28248 154.77095Q32.28248 155.3022 32.016853 155.59908Q31.75123 155.89595 31.34498 155.89595Q30.954355 155.89595 30.68873 155.6147Q30.43873 155.31783 30.43873 154.72408ZM31.360605 153.9897Q31.15748 153.9897 31.03248 154.16158Q30.90748 154.33345 30.90748 154.78658Q30.90748 155.19283 31.03248 155.3647Q31.15748 155.53658 31.360605 155.53658Q31.56373 155.53658 31.68873 155.3647Q31.81373 155.19283 31.81373 154.7397Q31.81373 154.33345 31.68873 154.16158Q31.56373 153.9897 31.360605 153.9897Z" fill-rule="nonzero"/><path fill="#ffffff" d="M21.56373 111.33041L22.110605 111.28353Q22.173105 111.68978 22.391855 111.89291Q22.62623 112.09603 22.93873 112.09603Q23.329355 112.09603 23.579355 111.81478Q23.84498 111.51791 23.84498 111.04916Q23.84498 110.59603 23.59498 110.34603Q23.34498 110.08041 22.93873 110.08041Q22.673105 110.08041 22.46998 110.18978Q22.266855 110.29916 22.15748 110.48666L21.65748 110.42416L22.079355 108.22103L24.204355 108.22103L24.204355 108.72103L22.50123 108.72103L22.266855 109.87728Q22.65748 109.61166 23.079355 109.61166Q23.641855 109.61166 24.016855 110.00228Q24.40748 110.39291 24.40748 111.00228Q24.40748 111.58041 24.06373 112.00228Q23.65748 112.53353 22.93873 112.53353Q22.360605 112.53353 21.985605 112.20541Q21.610605 111.87728 21.56373 111.33041ZM24.56373 110.33041Q24.56373 109.58041 24.71998 109.11166Q24.87623 108.64291 25.18873 108.39291Q25.50123 108.14291 25.96998 108.14291Q26.31373 108.14291 26.56373 108.28353Q26.829355 108.42416 27.00123 108.68978Q27.173105 108.93978 27.266855 109.33041Q27.360605 109.70541 27.360605 110.33041Q27.360605 111.09603 27.204355 111.56478Q27.048105 112.01791 26.735605 112.28353Q26.43873 112.53353 25.96998 112.53353Q25.34498 112.53353 24.985605 112.08041Q24.56373 111.54916 24.56373 110.33041ZM25.110605 110.33041Q25.110605 111.39291 25.34498 111.75228Q25.59498 112.09603 25.96998 112.09603Q26.329355 112.09603 26.579355 111.75228Q26.829355 111.39291 26.829355 110.33041Q26.829355 109.28353 26.579355 108.93978Q26.329355 108.58041 25.954355 108.58041Q25.59498 108.58041 25.37623 108.89291Q25.110605 109.28353 25.110605 110.33041ZM27.65748 109.18978Q27.65748 108.73666 27.891855 108.40853Q28.12623 108.08041 28.56373 108.08041Q28.96998 108.08041 29.235605 108.37728Q29.50123 108.65853 29.50123 109.22103Q29.50123 109.76791 29.235605 110.06478Q28.96998 110.36166 28.56373 110.36166Q28.18873 110.36166 27.923105 110.08041Q27.65748 109.78353 27.65748 109.18978ZM28.579355 108.45541Q28.37623 108.45541 28.25123 108.62728Q28.12623 108.78353 28.12623 109.23666Q28.12623 109.65853 28.25123 109.83041Q28.391855 109.98666 28.579355 109.98666Q28.78248 109.98666 28.90748 109.83041Q29.03248 109.65853 29.03248 109.20541Q29.03248 108.78353 28.90748 108.62728Q28.78248 108.45541 28.579355 108.45541ZM28.579355 112.61166L30.93873 108.08041L31.360605 108.08041L29.016855 112.61166L28.579355 112.61166ZM30.43873 111.43978Q30.43873 110.98666 30.673105 110.67416Q30.90748 110.34603 31.34498 110.34603Q31.75123 110.34603 32.016853 110.64291Q32.28248 110.92416 32.28248 111.48666Q32.28248 112.01791 32.016853 112.31478Q31.75123 112.61166 31.34498 112.61166Q30.954355 112.61166 30.68873 112.33041Q30.43873 112.03353 30.43873 111.43978ZM31.360605 110.70541Q31.15748 110.70541 31.03248 110.87728Q30.90748 111.04916 30.90748 111.50228Q30.90748 111.90853 31.03248 112.08041Q31.15748 112.25228 31.360605 112.25228Q31.56373 112.25228 31.68873 112.08041Q31.81373 111.90853 31.81373 111.45541Q31.81373 111.04916 31.68873 110.87728Q31.56373 110.70541 31.360605 110.70541Z" fill-rule="nonzero"/><path fill="#000000" d="M27.360605 348.8613L27.360605 349.87692L21.673105 349.87692Q21.673105 349.50192 21.798105 349.14255Q22.016855 348.56442 22.485605 348.00192Q22.96998 347.43942 23.87623 346.70505Q25.28248 345.5488 25.766855 344.87692Q26.266855 344.20505 26.266855 343.6113Q26.266855 342.9863 25.81373 342.56442Q25.360605 342.12692 24.641855 342.12692Q23.87623 342.12692 23.423105 342.58005Q22.96998 343.03317 22.954355 343.84567L21.87623 343.7363Q21.985605 342.51755 22.704355 341.89255Q23.43873 341.25192 24.673105 341.25192Q25.90748 341.25192 26.62623 341.93942Q27.34498 342.62692 27.34498 343.64255Q27.34498 344.15817 27.12623 344.65817Q26.923105 345.14255 26.423105 345.70505Q25.93873 346.25192 24.81373 347.20505Q23.860605 348.00192 23.579355 348.2988Q23.31373 348.58005 23.141855 348.8613L27.360605 348.8613ZM28.81373 345.64255Q28.81373 344.1113 29.12623 343.18942Q29.43873 342.25192 30.048105 341.75192Q30.673105 341.25192 31.610605 341.25192Q32.298103 341.25192 32.81373 341.53317Q33.34498 341.81442 33.68873 342.34567Q34.03248 342.8613 34.21998 343.6113Q34.40748 344.3613 34.40748 345.64255Q34.40748 347.15817 34.09498 348.08005Q33.798103 349.00192 33.173103 349.51755Q32.56373 350.01755 31.610605 350.01755Q30.37623 350.01755 29.65748 349.12692Q28.81373 348.06442 28.81373 345.64255ZM29.891855 345.64255Q29.891855 347.75192 30.391855 348.45505Q30.891855 349.15817 31.610605 349.15817Q32.34498 349.15817 32.829353 348.45505Q33.329353 347.75192 33.329353 345.64255Q33.329353 343.51755 32.829353 342.83005Q32.34498 342.12692 31.59498 342.12692Q30.87623 342.12692 30.43873 342.7363Q29.891855 343.51755 29.891855 345.64255ZM39.78248 349.87692L38.735603 349.87692L38.735603 343.15817Q38.34498 343.51755 37.71998 343.89255Q37.110603 344.25192 36.62623 344.4238L36.62623 343.40817Q37.50123 342.9863 38.15748 342.40817Q38.829353 341.81442 39.110603 341.25192L39.78248 341.25192L39.78248 349.87692ZM42.81373 345.64255Q42.81373 344.1113 43.12623 343.18942Q43.43873 342.25192 44.048103 341.75192Q44.673103 341.25192 45.610603 341.25192Q46.298103 341.25192 46.81373 341.53317Q47.34498 341.81442 47.68873 342.34567Q48.03248 342.8613 48.21998 343.6113Q48.40748 344.3613 48.40748 345.64255Q48.40748 347.15817 48.09498 348.08005Q47.798103 349.00192 47.173103 349.51755Q46.56373 350.01755 45.610603 350.01755Q44.37623 350.01755 43.65748 349.12692Q42.81373 348.06442 42.81373 345.64255ZM43.891853 345.64255Q43.891853 347.75192 44.391853 348.45505Q44.891853 349.15817 45.610603 349.15817Q46.34498 349.15817 46.829353 348.45505Q47.329353 347.75192 47.329353 345.64255Q47.329353 343.51755 46.829353 342.83005Q46.34498 342.12692 45.59498 342.12692Q44.87623 342.12692 44.43873 342.7363Q43.891853 343.51755 43.891853 345.64255Z" fill-rule="nonzero"/><path fill="#000000" d="M234.14049 348.8613L234.14049 349.87692L228.45299 349.87692Q228.45299 349.50192 228.57799 349.14255Q228.79674 348.56442 229.26549 348.00192Q229.74986 347.43942 230.65611 346.70505Q232.06236 345.5488 232.54674 344.87692Q233.04674 344.20505 233.04674 343.6113Q233.04674 342.9863 232.59361 342.56442Q232.14049 342.12692 231.42174 342.12692Q230.65611 342.12692 230.20299 342.58005Q229.74986 343.03317 229.73424 343.84567L228.65611 343.7363Q228.76549 342.51755 229.48424 341.89255Q230.21861 341.25192 231.45299 341.25192Q232.68736 341.25192 233.40611 341.93942Q234.12486 342.62692 234.12486 343.64255Q234.12486 344.15817 233.90611 344.65817Q233.70299 345.14255 233.20299 345.70505Q232.71861 346.25192 231.59361 347.20505Q230.64049 348.00192 230.35924 348.2988Q230.09361 348.58005 229.92174 348.8613L234.14049 348.8613ZM235.59361 345.64255Q235.59361 344.1113 235.90611 343.18942Q236.21861 342.25192 236.82799 341.75192Q237.45299 341.25192 238.39049 341.25192Q239.07799 341.25192 239.59361 341.53317Q240.12486 341.81442 240.46861 342.34567Q240.81236 342.8613 240.99986 343.6113Q241.18736 344.3613 241.18736 345.64255Q241.18736 347.15817 240.87486 348.08005Q240.57799 349.00192 239.95299 349.51755Q239.34361 350.01755 238.39049 350.01755Q237.15611 350.01755 236.43736 349.12692Q235.59361 348.06442 235.59361 345.64255ZM236.67174 345.64255Q236.67174 347.75192 237.17174 348.45505Q237.67174 349.15817 238.39049 349.15817Q239.12486 349.15817 239.60924 348.45505Q240.10924 347.75192 240.10924 345.64255Q240.10924 343.51755 239.60924 342.83005Q239.12486 342.12692 238.37486 342.12692Q237.65611 342.12692 237.21861 342.7363Q236.67174 343.51755 236.67174 345.64255ZM248.14049 348.8613L248.14049 349.87692L242.45299 349.87692Q242.45299 349.50192 242.57799 349.14255Q242.79674 348.56442 243.26549 348.00192Q243.74986 347.43942 244.65611 346.70505Q246.06236 345.5488 246.54674 344.87692Q247.04674 344.20505 247.04674 343.6113Q247.04674 342.9863 246.59361 342.56442Q246.14049 342.12692 245.42174 342.12692Q244.65611 342.12692 244.20299 342.58005Q243.74986 343.03317 243.73424 343.84567L242.65611 343.7363Q242.76549 342.51755 243.48424 341.89255Q244.21861 341.25192 245.45299 341.25192Q246.68736 341.25192 247.40611 341.93942Q248.12486 342.62692 248.12486 343.64255Q248.12486 344.15817 247.90611 344.65817Q247.70299 345.14255 247.20299 345.70505Q246.71861 346.25192 245.59361 347.20505Q244.64049 348.00192 244.35924 348.2988Q244.09361 348.58005 243.92174 348.8613L248.14049 348.8613ZM255.14049 348.8613L255.14049 349.87692L249.45299 349.87692Q249.45299 349.50192 249.57799 349.14255Q249.79674 348.56442 250.26549 348.00192Q250.74986 347.43942 251.65611 346.70505Q253.06236 345.5488 253.54674 344.87692Q254.04674 344.20505 254.04674 343.6113Q254.04674 342.9863 253.59361 342.56442Q253.14049 342.12692 252.42174 342.12692Q251.65611 342.12692 251.20299 342.58005Q250.74986 343.03317 250.73424 343.84567L249.65611 343.7363Q249.76549 342.51755 250.48424 341.89255Q251.21861 341.25192 252.45299 341.25192Q253.68736 341.25192 254.40611 341.93942Q255.12486 342.62692 255.12486 343.64255Q255.12486 344.15817 254.90611 344.65817Q254.70299 345.14255 254.20299 345.70505Q253.71861 346.25192 252.59361 347.20505Q251.64049 348.00192 251.35924 348.2988Q251.09361 348.58005 250.92174 348.8613L255.14049 348.8613Z" fill-rule="nonzero"/><path stroke="#5f9dd6" stroke-width="4.0" stroke-linecap="butt" d="M13.869192 49.0L25.869192 49.0" fill-rule="nonzero"/><path fill="#1a1a1a" d="M33.853565 53.0L37.15044 44.40625L38.36919 44.40625L41.884815 53.0L40.603565 53.0L39.58794 50.390625L36.009815 50.390625L35.05669 53.0L33.853565 53.0ZM36.33794 49.46875L39.24419 49.46875L38.353565 47.09375Q37.93169 46.015625 37.74419 45.3125Q37.572315 46.140625 37.27544 46.953125L36.33794 49.46875ZM45.697315 53.0L45.697315 52.21875Q45.103565 53.140625 43.96294 53.140625Q43.21294 53.140625 42.58794 52.734375Q41.96294 52.3125 41.61919 51.578125Q41.27544 50.84375 41.27544 49.890625Q41.27544 48.96875 41.58794 48.203125Q41.90044 47.4375 42.52544 47.046875Q43.15044 46.640625 43.916065 46.640625Q44.478565 46.640625 44.916065 46.875Q45.353565 47.109375 45.634815 47.484375L45.634815 44.40625L46.68169 44.40625L46.68169 53.0L45.697315 53.0ZM42.36919 49.890625Q42.36919 51.09375 42.86919 51.6875Q43.36919 52.265625 44.05669 52.265625Q44.74419 52.265625 45.228565 51.703125Q45.71294 51.140625 45.71294 49.984375Q45.71294 48.703125 45.21294 48.109375Q44.728565 47.515625 44.009815 47.515625Q43.30669 47.515625 42.83794 48.09375Q42.36919 48.65625 42.36919 49.890625ZM48.65044 45.640625L48.65044 44.40625L49.71294 44.40625L49.71294 45.640625L48.65044 45.640625ZM47.322315 55.421875L47.509815 54.515625Q47.83794 54.59375 48.009815 54.59375Q48.33794 54.59375 48.49419 54.375Q48.65044 54.171875 48.65044 53.3125L48.65044 46.78125L49.71294 46.78125L49.71294 53.34375Q49.71294 54.484375 49.416065 54.9375Q49.02544 55.53125 48.15044 55.53125Q47.71294 55.53125 47.322315 55.421875ZM51.27544 49.890625Q51.27544 48.15625 52.228565 47.328125Q53.02544 46.640625 54.18169 46.640625Q55.46294 46.640625 56.27544 47.484375Q57.103565 48.3125 57.103565 49.796875Q57.103565 51.0 56.74419 51.6875Q56.384815 52.375 55.68169 52.765625Q54.99419 53.140625 54.18169 53.140625Q52.884815 53.140625 52.072315 52.3125Q51.27544 51.46875 51.27544 49.890625ZM52.353565 49.890625Q52.353565 51.078125 52.86919 51.671875Q53.40044 52.265625 54.18169 52.265625Q54.978565 52.265625 55.49419 51.671875Q56.009815 51.078125 56.009815 49.859375Q56.009815 48.703125 55.478565 48.109375Q54.96294 47.515625 54.18169 47.515625Q53.40044 47.515625 52.86919 48.109375Q52.353565 48.6875 52.353565 49.890625ZM62.74419 53.0L62.74419 52.078125Q62.009815 53.140625 60.759815 53.140625Q60.21294 53.140625 59.728565 52.9375Q59.259815 52.71875 59.02544 52.40625Q58.791065 52.078125 58.697315 51.609375Q58.634815 51.3125 58.634815 50.625L58.634815 46.78125L59.697315 46.78125L59.697315 50.234375Q59.697315 51.046875 59.759815 51.34375Q59.853565 51.75 60.166065 52.0Q60.49419 52.234375 60.978565 52.234375Q61.447315 52.234375 61.853565 52.0Q62.27544 51.75 62.447315 51.328125Q62.634815 50.90625 62.634815 50.109375L62.634815 46.78125L63.68169 46.78125L63.68169 53.0L62.74419 53.0ZM65.65044 53.0L65.65044 46.78125L66.60356 46.78125L66.60356 47.71875Q66.96294 47.0625 67.25981 46.859375Q67.57231 46.640625 67.94731 46.640625Q68.47856 46.640625 69.02544 46.96875L68.66606 47.953125Q68.27544 47.71875 67.90044 47.71875Q67.54106 47.71875 67.25981 47.9375Q66.99419 48.140625 66.88481 48.515625Q66.69731 49.078125 66.69731 49.734375L66.69731 53.0L65.65044 53.0ZM69.66606 53.0L69.66606 46.78125L70.60356 46.78125L70.60356 47.65625Q71.29106 46.640625 72.58794 46.640625Q73.15044 46.640625 73.61919 46.84375Q74.10356 47.046875 74.33794 47.375Q74.57231 47.703125 74.66606 48.140625Q74.71294 48.4375 74.71294 49.171875L74.71294 53.0L73.66606 53.0L73.66606 49.21875Q73.66606 48.5625 73.54106 48.25Q73.41606 47.9375 73.10356 47.75Q72.79106 47.546875 72.36919 47.546875Q71.69731 47.546875 71.19731 47.984375Q70.71294 48.40625 70.71294 49.59375L70.71294 53.0L69.66606 53.0ZM76.66606 53.0L76.66606 46.78125L77.60356 46.78125L77.60356 47.65625Q77.90044 47.1875 78.38481 46.921875Q78.86919 46.640625 79.49419 46.640625Q80.18169 46.640625 80.61919 46.921875Q81.07231 47.203125 81.24419 47.71875Q81.99419 46.640625 83.16606 46.640625Q84.10356 46.640625 84.58794 47.15625Q85.08794 47.65625 85.08794 48.734375L85.08794 53.0L84.04106 53.0L84.04106 49.078125Q84.04106 48.453125 83.93169 48.171875Q83.83794 47.890625 83.57231 47.71875Q83.30669 47.546875 82.93169 47.546875Q82.27544 47.546875 81.83794 47.984375Q81.41606 48.421875 81.41606 49.390625L81.41606 53.0L80.35356 53.0L80.35356 48.953125Q80.35356 48.25 80.08794 47.90625Q79.83794 47.546875 79.25981 47.546875Q78.80669 47.546875 78.43169 47.78125Q78.05669 48.015625 77.88481 48.46875Q77.71294 48.921875 77.71294 49.765625L77.71294 53.0L76.66606 53.0ZM91.91606 51.0L93.00981 51.125Q92.75981 52.078125 92.05669 52.609375Q91.35356 53.140625 90.27544 53.140625Q88.91606 53.140625 88.10356 52.296875Q87.30669 51.453125 87.30669 49.9375Q87.30669 48.375 88.11919 47.515625Q88.93169 46.640625 90.21294 46.640625Q91.46294 46.640625 92.24419 47.484375Q93.04106 48.328125 93.04106 49.875Q93.04106 49.96875 93.04106 50.15625L88.40044 50.15625Q88.46294 51.1875 88.97856 51.734375Q89.49419 52.265625 90.27544 52.265625Q90.85356 52.265625 91.25981 51.96875Q91.68169 51.65625 91.91606 51.0ZM88.46294 49.296875L91.93169 49.296875Q91.86919 48.5 91.54106 48.109375Q91.02544 47.5 90.22856 47.5Q89.49419 47.5 88.99419 47.984375Q88.50981 48.46875 88.46294 49.296875ZM94.66606 53.0L94.66606 46.78125L95.60356 46.78125L95.60356 47.65625Q96.29106 46.640625 97.58794 46.640625Q98.15044 46.640625 98.61919 46.84375Q99.10356 47.046875 99.33794 47.375Q99.57231 47.703125 99.66606 48.140625Q99.71294 48.4375 99.71294 49.171875L99.71294 53.0L98.66606 53.0L98.66606 49.21875Q98.66606 48.5625 98.54106 48.25Q98.41606 47.9375 98.10356 47.75Q97.79106 47.546875 97.36919 47.546875Q96.69731 47.546875 96.19731 47.984375Q95.71294 48.40625 95.71294 49.59375L95.71294 53.0L94.66606 53.0ZM103.96294 52.0625L104.11919 52.984375Q103.66606 53.078125 103.32231 53.078125Q102.74419 53.078125 102.43169 52.90625Q102.11919 52.71875 101.97856 52.421875Q101.85356 52.125 101.85356 51.171875L101.85356 47.59375L101.08794 47.59375L101.08794 46.78125L101.85356 46.78125L101.85356 45.234375L102.90044 44.609375L102.90044 46.78125L103.96294 46.78125L103.96294 47.59375L102.90044 47.59375L102.90044 51.234375Q102.90044 51.6875 102.94731 51.8125Q103.00981 51.9375 103.13481 52.015625Q103.25981 52.09375 103.49419 52.09375Q103.68169 52.09375 103.96294 52.0625ZM107.65044 53.0L107.65044 46.78125L108.60356 46.78125L108.60356 47.71875Q108.96294 47.0625 109.25981 46.859375Q109.57231 46.640625 109.94731 46.640625Q110.47856 46.640625 111.02544 46.96875L110.66606 47.953125Q110.27544 47.71875 109.90044 47.71875Q109.54106 47.71875 109.25981 47.9375Q108.99419 48.140625 108.88481 48.515625Q108.69731 49.078125 108.69731 49.734375L108.69731 53.0L107.65044 53.0ZM115.72856 52.234375Q115.13481 52.734375 114.58794 52.9375Q114.05669 53.140625 113.43169 53.140625Q112.40044 53.140625 111.85356 52.640625Q111.30669 52.140625 111.30669 51.359375Q111.30669 50.90625 111.50981 50.53125Q111.71294 50.140625 112.05669 49.921875Q112.40044 49.6875 112.82231 49.578125Q113.11919 49.484375 113.75981 49.40625Q115.02544 49.265625 115.63481 49.046875Q115.63481 48.828125 115.63481 48.78125Q115.63481 48.125 115.33794 47.859375Q114.93169 47.515625 114.13481 47.515625Q113.40044 47.515625 113.04106 47.78125Q112.68169 48.03125 112.50981 48.6875L111.47856 48.546875Q111.61919 47.890625 111.94731 47.484375Q112.27544 47.078125 112.88481 46.859375Q113.49419 46.640625 114.29106 46.640625Q115.08794 46.640625 115.58794 46.828125Q116.08794 47.015625 116.32231 47.296875Q116.55669 47.578125 116.65044 48.015625Q116.69731 48.28125 116.69731 48.984375L116.69731 50.390625Q116.69731 51.859375 116.75981 52.25Q116.83794 52.640625 117.04106 53.0L115.93169 53.0Q115.77544 52.671875 115.72856 52.234375ZM115.63481 49.875Q115.05669 50.109375 113.91606 50.28125Q113.25981 50.375 112.99419 50.5Q112.72856 50.609375 112.57231 50.828125Q112.43169 51.046875 112.43169 51.328125Q112.43169 51.75 112.74419 52.03125Q113.07231 52.3125 113.68169 52.3125Q114.29106 52.3125 114.75981 52.046875Q115.24419 51.78125 115.46294 51.3125Q115.63481 50.953125 115.63481 50.265625L115.63481 49.875ZM120.96294 52.0625L121.11919 52.984375Q120.66606 53.078125 120.32231 53.078125Q119.74419 53.078125 119.43169 52.90625Q119.11919 52.71875 118.97856 52.421875Q118.85356 52.125 118.85356 51.171875L118.85356 47.59375L118.08794 47.59375L118.08794 46.78125L118.85356 46.78125L118.85356 45.234375L119.90044 44.609375L119.90044 46.78125L120.96294 46.78125L120.96294 47.59375L119.90044 47.59375L119.90044 51.234375Q119.90044 51.6875 119.94731 51.8125Q120.00981 51.9375 120.13481 52.015625Q120.25981 52.09375 120.49419 52.09375Q120.68169 52.09375 120.96294 52.0625ZM125.91606 51.0L127.00981 51.125Q126.75981 52.078125 126.05669 52.609375Q125.35356 53.140625 124.27544 53.140625Q122.91606 53.140625 122.10356 52.296875Q121.30669 51.453125 121.30669 49.9375Q121.30669 48.375 122.11919 47.515625Q122.93169 46.640625 124.21294 46.640625Q125.46294 46.640625 126.24419 47.484375Q127.04106 48.328125 127.04106 49.875Q127.04106 49.96875 127.04106 50.15625L122.40044 50.15625Q122.46294 51.1875 122.97856 51.734375Q123.49419 52.265625 124.27544 52.265625Q124.85356 52.265625 125.25981 51.96875Q125.68169 51.65625 125.91606 51.0ZM122.46294 49.296875L125.93169 49.296875Q125.86919 48.5 125.54106 48.109375Q125.02544 47.5 124.22856 47.5Q123.49419 47.5 122.99419 47.984375Q122.50981 48.46875 122.46294 49.296875ZM131.66606 55.390625L131.66606 46.78125L132.61919 46.78125L132.61919 47.578125Q132.96294 47.109375 133.38481 46.875Q133.82231 46.640625 134.43169 46.640625Q135.22856 46.640625 135.83794 47.046875Q136.44731 47.453125 136.74419 48.203125Q137.05669 48.953125 137.05669 49.84375Q137.05669 50.796875 136.71294 51.5625Q136.38481 52.328125 135.72856 52.734375Q135.07231 53.140625 134.35356 53.140625Q133.82231 53.140625 133.40044 52.921875Q132.97856 52.6875 132.71294 52.359375L132.71294 55.390625L131.66606 55.390625ZM132.61919 49.921875Q132.61919 51.125 133.10356 51.703125Q133.58794 52.265625 134.27544 52.265625Q134.97856 52.265625 135.47856 51.671875Q135.97856 51.078125 135.97856 49.828125Q135.97856 48.640625 135.49419 48.0625Q135.00981 47.46875 134.32231 47.46875Q133.65044 47.46875 133.13481 48.09375Q132.61919 48.71875 132.61919 49.921875ZM142.91606 51.0L144.00981 51.125Q143.75981 52.078125 143.05669 52.609375Q142.35356 53.140625 141.27544 53.140625Q139.91606 53.140625 139.10356 52.296875Q138.30669 51.453125 138.30669 49.9375Q138.30669 48.375 139.11919 47.515625Q139.93169 46.640625 141.21294 46.640625Q142.46294 46.640625 143.24419 47.484375Q144.04106 48.328125 144.04106 49.875Q144.04106 49.96875 144.04106 50.15625L139.40044 50.15625Q139.46294 51.1875 139.97856 51.734375Q140.49419 52.265625 141.27544 52.265625Q141.85356 52.265625 142.25981 51.96875Q142.68169 51.65625 142.91606 51.0ZM139.46294 49.296875L142.93169 49.296875Q142.86919 48.5 142.54106 48.109375Q142.02544 47.5 141.22856 47.5Q140.49419 47.5 139.99419 47.984375Q139.50981 48.46875 139.46294 49.296875ZM145.65044 53.0L145.65044 46.78125L146.60356 46.78125L146.60356 47.71875Q146.96294 47.0625 147.25981 46.859375Q147.57231 46.640625 147.94731 46.640625Q148.47856 46.640625 149.02544 46.96875L148.66606 47.953125Q148.27544 47.71875 147.90044 47.71875Q147.54106 47.71875 147.25981 47.9375Q146.99419 48.140625 146.88481 48.515625Q146.69731 49.078125 146.69731 49.734375L146.69731 53.0L145.65044 53.0ZM149.66606 45.625L149.66606 44.40625L150.72856 44.40625L150.72856 45.625L149.66606 45.625ZM149.66606 53.0L149.66606 46.78125L150.72856 46.78125L150.72856 53.0L149.66606 53.0ZM152.27544 49.890625Q152.27544 48.15625 153.22856 47.328125Q154.02544 46.640625 155.18169 46.640625Q156.46294 46.640625 157.27544 47.484375Q158.10356 48.3125 158.10356 49.796875Q158.10356 51.0 157.74419 51.6875Q157.38481 52.375 156.68169 52.765625Q155.99419 53.140625 155.18169 53.140625Q153.88481 53.140625 153.07231 52.3125Q152.27544 51.46875 152.27544 49.890625ZM153.35356 49.890625Q153.35356 51.078125 153.86919 51.671875Q154.40044 52.265625 155.18169 52.265625Q155.97856 52.265625 156.49419 51.671875Q157.00981 51.078125 157.00981 49.859375Q157.00981 48.703125 156.47856 48.109375Q155.96294 47.515625 155.18169 47.515625Q154.40044 47.515625 153.86919 48.109375Q153.35356 48.6875 153.35356 49.890625ZM163.69731 53.0L163.69731 52.21875Q163.10356 53.140625 161.96294 53.140625Q161.21294 53.140625 160.58794 52.734375Q159.96294 52.3125 159.61919 51.578125Q159.27544 50.84375 159.27544 49.890625Q159.27544 48.96875 159.58794 48.203125Q159.90044 47.4375 160.52544 47.046875Q161.15044 46.640625 161.91606 46.640625Q162.47856 46.640625 162.91606 46.875Q163.35356 47.109375 163.63481 47.484375L163.63481 44.40625L164.68169 44.40625L164.68169 53.0L163.69731 53.0ZM160.36919 49.890625Q160.36919 51.09375 160.86919 51.6875Q161.36919 52.265625 162.05669 52.265625Q162.74419 52.265625 163.22856 51.703125Q163.71294 51.140625 163.71294 49.984375Q163.71294 48.703125 163.21294 48.109375Q162.72856 47.515625 162.00981 47.515625Q161.30669 47.515625 160.83794 48.09375Q160.36919 48.65625 160.36919 49.890625ZM174.91606 51.984375L174.91606 53.0L169.22856 53.0Q169.22856 52.625 169.35356 52.265625Q169.57231 51.6875 170.04106 51.125Q170.52544 50.5625 171.43169 49.828125Q172.83794 48.671875 173.32231 48.0Q173.82231 47.328125 173.82231 46.734375Q173.82231 46.109375 173.36919 45.6875Q172.91606 45.25 172.19731 45.25Q171.43169 45.25 170.97856 45.703125Q170.52544 46.15625 170.50981 46.96875L169.43169 46.859375Q169.54106 45.640625 170.25981 45.015625Q170.99419 44.375 172.22856 44.375Q173.46294 44.375 174.18169 45.0625Q174.90044 45.75 174.90044 46.765625Q174.90044 47.28125 174.68169 47.78125Q174.47856 48.265625 173.97856 48.828125Q173.49419 49.375 172.36919 50.328125Q171.41606 51.125 171.13481 51.421875Q170.86919 51.703125 170.69731 51.984375L174.91606 51.984375ZM176.36919 48.765625Q176.36919 47.234375 176.68169 46.3125Q176.99419 45.375 177.60356 44.875Q178.22856 44.375 179.16606 44.375Q179.85356 44.375 180.36919 44.65625Q180.90044 44.9375 181.24419 45.46875Q181.58794 45.984375 181.77544 46.734375Q181.96294 47.484375 181.96294 48.765625Q181.96294 50.28125 181.65044 51.203125Q181.35356 52.125 180.72856 52.640625Q180.11919 53.140625 179.16606 53.140625Q177.93169 53.140625 177.21294 52.25Q176.36919 51.1875 176.36919 48.765625ZM177.44731 48.765625Q177.44731 50.875 177.94731 51.578125Q178.44731 52.28125 179.16606 52.28125Q179.90044 52.28125 180.38481 51.578125Q180.88481 50.875 180.88481 48.765625Q180.88481 46.640625 180.38481 45.953125Q179.90044 45.25 179.15044 45.25Q178.43169 45.25 177.99419 45.859375Q177.44731 46.640625 177.44731 48.765625ZM187.33794 53.0L186.29106 53.0L186.29106 46.28125Q185.90044 46.640625 185.27544 47.015625Q184.66606 47.375 184.18169 47.546875L184.18169 46.53125Q185.05669 46.109375 185.71294 45.53125Q186.38481 44.9375 186.66606 44.375L187.33794 44.375L187.33794 53.0ZM190.36919 48.765625Q190.36919 47.234375 190.68169 46.3125Q190.99419 45.375 191.60356 44.875Q192.22856 44.375 193.16606 44.375Q193.85356 44.375 194.36919 44.65625Q194.90044 44.9375 195.24419 45.46875Q195.58794 45.984375 195.77544 46.734375Q195.96294 47.484375 195.96294 48.765625Q195.96294 50.28125 195.65044 51.203125Q195.35356 52.125 194.72856 52.640625Q194.11919 53.140625 193.16606 53.140625Q191.93169 53.140625 191.21294 52.25Q190.36919 51.1875 190.36919 48.765625ZM191.44731 48.765625Q191.44731 50.875 191.94731 51.578125Q192.44731 52.28125 193.16606 52.28125Q193.90044 52.28125 194.38481 51.578125Q194.88481 50.875 194.88481 48.765625Q194.88481 46.640625 194.38481 45.953125Q193.90044 45.25 193.15044 45.25Q192.43169 45.25 191.99419 45.859375Q191.44731 46.640625 191.44731 48.765625ZM200.24419 50.421875L200.24419 49.359375L203.49419 49.359375L203.49419 50.421875L200.24419 50.421875ZM212.91606 51.984375L212.91606 53.0L207.22856 53.0Q207.22856 52.625 207.35356 52.265625Q207.57231 51.6875 208.04106 51.125Q208.52544 50.5625 209.43169 49.828125Q210.83794 48.671875 211.32231 48.0Q211.82231 47.328125 211.82231 46.734375Q211.82231 46.109375 211.36919 45.6875Q210.91606 45.25 210.19731 45.25Q209.43169 45.25 208.97856 45.703125Q208.52544 46.15625 208.50981 46.96875L207.43169 46.859375Q207.54106 45.640625 208.25981 45.015625Q208.99419 44.375 210.22856 44.375Q211.46294 44.375 212.18169 45.0625Q212.90044 45.75 212.90044 46.765625Q212.90044 47.28125 212.68169 47.78125Q212.47856 48.265625 211.97856 48.828125Q211.49419 49.375 210.36919 50.328125Q209.41606 51.125 209.13481 51.421875Q208.86919 51.703125 208.69731 51.984375L212.91606 51.984375ZM214.36919 48.765625Q214.36919 47.234375 214.68169 46.3125Q214.99419 45.375 215.60356 44.875Q216.22856 44.375 217.16606 44.375Q217.85356 44.375 218.36919 44.65625Q218.90044 44.9375 219.24419 45.46875Q219.58794 45.984375 219.77544 46.734375Q219.96294 47.484375 219.96294 48.765625Q219.96294 50.28125 219.65044 51.203125Q219.35356 52.125 218.72856 52.640625Q218.11919 53.140625 217.16606 53.140625Q215.93169 53.140625 215.21294 52.25Q214.36919 51.1875 214.36919 48.765625ZM215.44731 48.765625Q215.44731 50.875 215.94731 51.578125Q216.44731 52.28125 217.16606 52.28125Q217.90044 52.28125 218.38481 51.578125Q218.88481 50.875 218.88481 48.765625Q218.88481 46.640625 218.38481 45.953125Q217.90044 45.25 217.15044 45.25Q216.43169 45.25 215.99419 45.859375Q215.44731 46.640625 215.44731 48.765625ZM226.91606 51.984375L226.91606 53.0L221.22856 53.0Q221.22856 52.625 221.35356 52.265625Q221.57231 51.6875 222.04106 51.125Q222.52544 50.5625 223.43169 49.828125Q224.83794 48.671875 225.32231 48.0Q225.82231 47.328125 225.82231 46.734375Q225.82231 46.109375 225.36919 45.6875Q224.91606 45.25 224.19731 45.25Q223.43169 45.25 222.97856 45.703125Q222.52544 46.15625 222.50981 46.96875L221.43169 46.859375Q221.54106 45.640625 222.25981 45.015625Q222.99419 44.375 224.22856 44.375Q225.46294 44.375 226.18169 45.0625Q226.90044 45.75 226.90044 46.765625Q226.90044 47.28125 226.68169 47.78125Q226.47856 48.265625 225.97856 48.828125Q225.49419 49.375 224.36919 50.328125Q223.41606 51.125 223.13481 51.421875Q222.86919 51.703125 222.69731 51.984375L226.91606 51.984375ZM233.91606 51.984375L233.91606 53.0L228.22856 53.0Q228.22856 52.625 228.35356 52.265625Q228.57231 51.6875 229.04106 51.125Q229.52544 50.5625 230.43169 49.828125Q231.83794 48.671875 232.32231 48.0Q232.82231 47.328125 232.82231 46.734375Q232.82231 46.109375 232.36919 45.6875Q231.91606 45.25 231.19731 45.25Q230.43169 45.25 229.97856 45.703125Q229.52544 46.15625 229.50981 46.96875L228.43169 46.859375Q228.54106 45.640625 229.25981 45.015625Q229.99419 44.375 231.22856 44.375Q232.46294 44.375 233.18169 45.0625Q233.90044 45.75 233.90044 46.765625Q233.90044 47.28125 233.68169 47.78125Q233.47856 48.265625 232.97856 48.828125Q232.49419 49.375 231.36919 50.328125Q230.41606 51.125 230.13481 51.421875Q229.86919 51.703125 229.69731 51.984375L233.91606 51.984375Z" fill-rule="nonzero"/><path stroke="#073763" stroke-width="4.0" stroke-linecap="butt" stroke-opacity="0.7019608" d="M21.669191 67.0L33.669193 67.0" fill-rule="nonzero"/><path fill="#1a1a1a" d="M44.77857 71.0L44.77857 63.421875L41.950443 63.421875L41.950443 62.40625L48.762943 62.40625L48.762943 63.421875L45.919193 63.421875L45.919193 71.0L44.77857 71.0ZM49.450443 71.0L49.450443 64.78125L50.40357 64.78125L50.40357 65.71875Q50.762943 65.0625 51.05982 64.859375Q51.37232 64.640625 51.74732 64.640625Q52.27857 64.640625 52.825443 64.96875L52.46607 65.953125Q52.075443 65.71875 51.700443 65.71875Q51.34107 65.71875 51.05982 65.9375Q50.794193 66.140625 50.68482 66.515625Q50.49732 67.078125 50.49732 67.734375L50.49732 71.0L49.450443 71.0ZM57.71607 69.0L58.80982 69.125Q58.55982 70.078125 57.856693 70.609375Q57.15357 71.140625 56.075443 71.140625Q54.71607 71.140625 53.90357 70.296875Q53.106693 69.453125 53.106693 67.9375Q53.106693 66.375 53.919193 65.515625Q54.731693 64.640625 56.012943 64.640625Q57.262943 64.640625 58.044193 65.484375Q58.84107 66.328125 58.84107 67.875Q58.84107 67.96875 58.84107 68.15625L54.200443 68.15625Q54.262943 69.1875 54.77857 69.734375Q55.294193 70.265625 56.075443 70.265625Q56.65357 70.265625 57.05982 69.96875Q57.481693 69.65625 57.71607 69.0ZM54.262943 67.296875L57.731693 67.296875Q57.669193 66.5 57.34107 66.109375Q56.825443 65.5 56.02857 65.5Q55.294193 65.5 54.794193 65.984375Q54.30982 66.46875 54.262943 67.296875ZM60.46607 71.0L60.46607 64.78125L61.40357 64.78125L61.40357 65.65625Q62.09107 64.640625 63.387943 64.640625Q63.950443 64.640625 64.41919 64.84375Q64.903564 65.046875 65.13794 65.375Q65.372314 65.703125 65.466064 66.140625Q65.51294 66.4375 65.51294 67.171875L65.51294 71.0L64.466064 71.0L64.466064 67.21875Q64.466064 66.5625 64.341064 66.25Q64.216064 65.9375 63.90357 65.75Q63.59107 65.546875 63.169193 65.546875Q62.49732 65.546875 61.99732 65.984375Q61.512943 66.40625 61.512943 67.59375L61.512943 71.0L60.46607 71.0ZM71.497314 71.0L71.497314 70.21875Q70.903564 71.140625 69.76294 71.140625Q69.01294 71.140625 68.38794 70.734375Q67.76294 70.3125 67.41919 69.578125Q67.07544 68.84375 67.07544 67.890625Q67.07544 66.96875 67.38794 66.203125Q67.70044 65.4375 68.32544 65.046875Q68.95044 64.640625 69.716064 64.640625Q70.278564 64.640625 70.716064 64.875Q71.153564 65.109375 71.434814 65.484375L71.434814 62.40625L72.48169 62.40625L72.48169 71.0L71.497314 71.0ZM68.16919 67.890625Q68.16919 69.09375 68.66919 69.6875Q69.16919 70.265625 69.85669 70.265625Q70.54419 70.265625 71.028564 69.703125Q71.51294 69.140625 71.51294 67.984375Q71.51294 66.703125 71.01294 66.109375Q70.528564 65.515625 69.809814 65.515625Q69.10669 65.515625 68.63794 66.09375Q68.16919 66.65625 68.16919 67.890625ZM77.07544 67.890625Q77.07544 66.15625 78.028564 65.328125Q78.82544 64.640625 79.98169 64.640625Q81.26294 64.640625 82.07544 65.484375Q82.903564 66.3125 82.903564 67.796875Q82.903564 69.0 82.54419 69.6875Q82.184814 70.375 81.48169 70.765625Q80.79419 71.140625 79.98169 71.140625Q78.684814 71.140625 77.872314 70.3125Q77.07544 69.46875 77.07544 67.890625ZM78.153564 67.890625Q78.153564 69.078125 78.66919 69.671875Q79.20044 70.265625 79.98169 70.265625Q80.778564 70.265625 81.29419 69.671875Q81.809814 69.078125 81.809814 67.859375Q81.809814 66.703125 81.278564 66.109375Q80.76294 65.515625 79.98169 65.515625Q79.20044 65.515625 78.66919 66.109375Q78.153564 66.6875 78.153564 67.890625ZM84.716064 71.0L84.716064 65.59375L83.778564 65.59375L83.778564 64.78125L84.716064 64.78125L84.716064 64.109375Q84.716064 63.484375 84.82544 63.1875Q84.98169 62.765625 85.35669 62.515625Q85.747314 62.265625 86.434814 62.265625Q86.88794 62.265625 87.41919 62.375L87.26294 63.28125Q86.934814 63.234375 86.63794 63.234375Q86.153564 63.234375 85.95044 63.4375Q85.76294 63.640625 85.76294 64.203125L85.76294 64.78125L86.98169 64.78125L86.98169 65.59375L85.76294 65.59375L85.76294 71.0L84.716064 71.0ZM94.528564 70.234375Q93.934814 70.734375 93.38794 70.9375Q92.85669 71.140625 92.23169 71.140625Q91.20044 71.140625 90.653564 70.640625Q90.10669 70.140625 90.10669 69.359375Q90.10669 68.90625 90.309814 68.53125Q90.51294 68.140625 90.85669 67.921875Q91.20044 67.6875 91.622314 67.578125Q91.91919 67.484375 92.559814 67.40625Q93.82544 67.265625 94.434814 67.046875Q94.434814 66.828125 94.434814 66.78125Q94.434814 66.125 94.13794 65.859375Q93.73169 65.515625 92.934814 65.515625Q92.20044 65.515625 91.841064 65.78125Q91.48169 66.03125 91.309814 66.6875L90.278564 66.546875Q90.41919 65.890625 90.747314 65.484375Q91.07544 65.078125 91.684814 64.859375Q92.29419 64.640625 93.091064 64.640625Q93.88794 64.640625 94.38794 64.828125Q94.88794 65.015625 95.122314 65.296875Q95.35669 65.578125 95.45044 66.015625Q95.497314 66.28125 95.497314 66.984375L95.497314 68.390625Q95.497314 69.859375 95.559814 70.25Q95.63794 70.640625 95.841064 71.0L94.73169 71.0Q94.57544 70.671875 94.528564 70.234375ZM94.434814 67.875Q93.85669 68.109375 92.716064 68.28125Q92.059814 68.375 91.79419 68.5Q91.528564 68.609375 91.372314 68.828125Q91.23169 69.046875 91.23169 69.328125Q91.23169 69.75 91.54419 70.03125Q91.872314 70.3125 92.48169 70.3125Q93.091064 70.3125 93.559814 70.046875Q94.04419 69.78125 94.26294 69.3125Q94.434814 68.953125 94.434814 68.265625L94.434814 67.875ZM101.497314 71.0L101.497314 70.21875Q100.903564 71.140625 99.76294 71.140625Q99.01294 71.140625 98.38794 70.734375Q97.76294 70.3125 97.41919 69.578125Q97.07544 68.84375 97.07544 67.890625Q97.07544 66.96875 97.38794 66.203125Q97.70044 65.4375 98.32544 65.046875Q98.95044 64.640625 99.716064 64.640625Q100.278564 64.640625 100.716064 64.875Q101.153564 65.109375 101.434814 65.484375L101.434814 62.40625L102.48169 62.40625L102.48169 71.0L101.497314 71.0ZM98.16919 67.890625Q98.16919 69.09375 98.66919 69.6875Q99.16919 70.265625 99.85669 70.265625Q100.54419 70.265625 101.028564 69.703125Q101.51294 69.140625 101.51294 67.984375Q101.51294 66.703125 101.01294 66.109375Q100.528564 65.515625 99.809814 65.515625Q99.10669 65.515625 98.63794 66.09375Q98.16919 66.65625 98.16919 67.890625ZM104.45044 63.640625L104.45044 62.40625L105.51294 62.40625L105.51294 63.640625L104.45044 63.640625ZM103.122314 73.421875L103.309814 72.515625Q103.63794 72.59375 103.809814 72.59375Q104.13794 72.59375 104.29419 72.375Q104.45044 72.171875 104.45044 71.3125L104.45044 64.78125L105.51294 64.78125L105.51294 71.34375Q105.51294 72.484375 105.216064 72.9375Q104.82544 73.53125 103.95044 73.53125Q103.51294 73.53125 103.122314 73.421875ZM107.07544 67.890625Q107.07544 66.15625 108.028564 65.328125Q108.82544 64.640625 109.98169 64.640625Q111.26294 64.640625 112.07544 65.484375Q112.903564 66.3125 112.903564 67.796875Q112.903564 69.0 112.54419 69.6875Q112.184814 70.375 111.48169 70.765625Q110.79419 71.140625 109.98169 71.140625Q108.684814 71.140625 107.872314 70.3125Q107.07544 69.46875 107.07544 67.890625ZM108.153564 67.890625Q108.153564 69.078125 108.66919 69.671875Q109.20044 70.265625 109.98169 70.265625Q110.778564 70.265625 111.29419 69.671875Q111.809814 69.078125 111.809814 67.859375Q111.809814 66.703125 111.278564 66.109375Q110.76294 65.515625 109.98169 65.515625Q109.20044 65.515625 108.66919 66.109375Q108.153564 66.6875 108.153564 67.890625ZM118.54419 71.0L118.54419 70.078125Q117.809814 71.140625 116.559814 71.140625Q116.01294 71.140625 115.528564 70.9375Q115.059814 70.71875 114.82544 70.40625Q114.591064 70.078125 114.497314 69.609375Q114.434814 69.3125 114.434814 68.625L114.434814 64.78125L115.497314 64.78125L115.497314 68.234375Q115.497314 69.046875 115.559814 69.34375Q115.653564 69.75 115.966064 70.0Q116.29419 70.234375 116.778564 70.234375Q117.247314 70.234375 117.653564 70.0Q118.07544 69.75 118.247314 69.328125Q118.434814 68.90625 118.434814 68.109375L118.434814 64.78125L119.48169 64.78125L119.48169 71.0L118.54419 71.0ZM121.45044 71.0L121.45044 64.78125L122.403564 64.78125L122.403564 65.71875Q122.76294 65.0625 123.059814 64.859375Q123.372314 64.640625 123.747314 64.640625Q124.278564 64.640625 124.82544 64.96875L124.466064 65.953125Q124.07544 65.71875 123.70044 65.71875Q123.341064 65.71875 123.059814 65.9375Q122.79419 66.140625 122.684814 66.515625Q122.497314 67.078125 122.497314 67.734375L122.497314 71.0L121.45044 71.0ZM125.466064 71.0L125.466064 64.78125L126.403564 64.78125L126.403564 65.65625Q127.091064 64.640625 128.38794 64.640625Q128.95044 64.640625 129.41919 64.84375Q129.90356 65.046875 130.13794 65.375Q130.37231 65.703125 130.46606 66.140625Q130.51294 66.4375 130.51294 67.171875L130.51294 71.0L129.46606 71.0L129.46606 67.21875Q129.46606 66.5625 129.34106 66.25Q129.21606 65.9375 128.90356 65.75Q128.59106 65.546875 128.16919 65.546875Q127.497314 65.546875 126.997314 65.984375Q126.51294 66.40625 126.51294 67.59375L126.51294 71.0L125.466064 71.0ZM132.46606 71.0L132.46606 64.78125L133.40356 64.78125L133.40356 65.65625Q133.70044 65.1875 134.18481 64.921875Q134.66919 64.640625 135.29419 64.640625Q135.98169 64.640625 136.41919 64.921875Q136.87231 65.203125 137.04419 65.71875Q137.79419 64.640625 138.96606 64.640625Q139.90356 64.640625 140.38794 65.15625Q140.88794 65.65625 140.88794 66.734375L140.88794 71.0L139.84106 71.0L139.84106 67.078125Q139.84106 66.453125 139.73169 66.171875Q139.63794 65.890625 139.37231 65.71875Q139.10669 65.546875 138.73169 65.546875Q138.07544 65.546875 137.63794 65.984375Q137.21606 66.421875 137.21606 67.390625L137.21606 71.0L136.15356 71.0L136.15356 66.953125Q136.15356 66.25 135.88794 65.90625Q135.63794 65.546875 135.05981 65.546875Q134.60669 65.546875 134.23169 65.78125Q133.85669 66.015625 133.68481 66.46875Q133.51294 66.921875 133.51294 67.765625L133.51294 71.0L132.46606 71.0ZM147.71606 69.0L148.80981 69.125Q148.55981 70.078125 147.85669 70.609375Q147.15356 71.140625 146.07544 71.140625Q144.71606 71.140625 143.90356 70.296875Q143.10669 69.453125 143.10669 67.9375Q143.10669 66.375 143.91919 65.515625Q144.73169 64.640625 146.01294 64.640625Q147.26294 64.640625 148.04419 65.484375Q148.84106 66.328125 148.84106 67.875Q148.84106 67.96875 148.84106 68.15625L144.20044 68.15625Q144.26294 69.1875 144.77856 69.734375Q145.29419 70.265625 146.07544 70.265625Q146.65356 70.265625 147.05981 69.96875Q147.48169 69.65625 147.71606 69.0ZM144.26294 67.296875L147.73169 67.296875Q147.66919 66.5 147.34106 66.109375Q146.82544 65.5 146.02856 65.5Q145.29419 65.5 144.79419 65.984375Q144.30981 66.46875 144.26294 67.296875ZM150.46606 71.0L150.46606 64.78125L151.40356 64.78125L151.40356 65.65625Q152.09106 64.640625 153.38794 64.640625Q153.95044 64.640625 154.41919 64.84375Q154.90356 65.046875 155.13794 65.375Q155.37231 65.703125 155.46606 66.140625Q155.51294 66.4375 155.51294 67.171875L155.51294 71.0L154.46606 71.0L154.46606 67.21875Q154.46606 66.5625 154.34106 66.25Q154.21606 65.9375 153.90356 65.75Q153.59106 65.546875 153.16919 65.546875Q152.49731 65.546875 151.99731 65.984375Q151.51294 66.40625 151.51294 67.59375L151.51294 71.0L150.46606 71.0ZM159.76294 70.0625L159.91919 70.984375Q159.46606 71.078125 159.12231 71.078125Q158.54419 71.078125 158.23169 70.90625Q157.91919 70.71875 157.77856 70.421875Q157.65356 70.125 157.65356 69.171875L157.65356 65.59375L156.88794 65.59375L156.88794 64.78125L157.65356 64.78125L157.65356 63.234375L158.70044 62.609375L158.70044 64.78125L159.76294 64.78125L159.76294 65.59375L158.70044 65.59375L158.70044 69.234375Q158.70044 69.6875 158.74731 69.8125Q158.80981 69.9375 158.93481 70.015625Q159.05981 70.09375 159.29419 70.09375Q159.48169 70.09375 159.76294 70.0625ZM163.45044 71.0L163.45044 64.78125L164.40356 64.78125L164.40356 65.71875Q164.76294 65.0625 165.05981 64.859375Q165.37231 64.640625 165.74731 64.640625Q166.27856 64.640625 166.82544 64.96875L166.46606 65.953125Q166.07544 65.71875 165.70044 65.71875Q165.34106 65.71875 165.05981 65.9375Q164.79419 66.140625 164.68481 66.515625Q164.49731 67.078125 164.49731 67.734375L164.49731 71.0L163.45044 71.0ZM171.52856 70.234375Q170.93481 70.734375 170.38794 70.9375Q169.85669 71.140625 169.23169 71.140625Q168.20044 71.140625 167.65356 70.640625Q167.10669 70.140625 167.10669 69.359375Q167.10669 68.90625 167.30981 68.53125Q167.51294 68.140625 167.85669 67.921875Q168.20044 67.6875 168.62231 67.578125Q168.91919 67.484375 169.55981 67.40625Q170.82544 67.265625 171.43481 67.046875Q171.43481 66.828125 171.43481 66.78125Q171.43481 66.125 171.13794 65.859375Q170.73169 65.515625 169.93481 65.515625Q169.20044 65.515625 168.84106 65.78125Q168.48169 66.03125 168.30981 66.6875L167.27856 66.546875Q167.41919 65.890625 167.74731 65.484375Q168.07544 65.078125 168.68481 64.859375Q169.29419 64.640625 170.09106 64.640625Q170.88794 64.640625 171.38794 64.828125Q171.88794 65.015625 172.12231 65.296875Q172.35669 65.578125 172.45044 66.015625Q172.49731 66.28125 172.49731 66.984375L172.49731 68.390625Q172.49731 69.859375 172.55981 70.25Q172.63794 70.640625 172.84106 71.0L171.73169 71.0Q171.57544 70.671875 171.52856 70.234375ZM171.43481 67.875Q170.85669 68.109375 169.71606 68.28125Q169.05981 68.375 168.79419 68.5Q168.52856 68.609375 168.37231 68.828125Q168.23169 69.046875 168.23169 69.328125Q168.23169 69.75 168.54419 70.03125Q168.87231 70.3125 169.48169 70.3125Q170.09106 70.3125 170.55981 70.046875Q171.04419 69.78125 171.26294 69.3125Q171.43481 68.953125 171.43481 68.265625L171.43481 67.875ZM176.76294 70.0625L176.91919 70.984375Q176.46606 71.078125 176.12231 71.078125Q175.54419 71.078125 175.23169 70.90625Q174.91919 70.71875 174.77856 70.421875Q174.65356 70.125 174.65356 69.171875L174.65356 65.59375L173.88794 65.59375L173.88794 64.78125L174.65356 64.78125L174.65356 63.234375L175.70044 62.609375L175.70044 64.78125L176.76294 64.78125L176.76294 65.59375L175.70044 65.59375L175.70044 69.234375Q175.70044 69.6875 175.74731 69.8125Q175.80981 69.9375 175.93481 70.015625Q176.05981 70.09375 176.29419 70.09375Q176.48169 70.09375 176.76294 70.0625ZM181.71606 69.0L182.80981 69.125Q182.55981 70.078125 181.85669 70.609375Q181.15356 71.140625 180.07544 71.140625Q178.71606 71.140625 177.90356 70.296875Q177.10669 69.453125 177.10669 67.9375Q177.10669 66.375 177.91919 65.515625Q178.73169 64.640625 180.01294 64.640625Q181.26294 64.640625 182.04419 65.484375Q182.84106 66.328125 182.84106 67.875Q182.84106 67.96875 182.84106 68.15625L178.20044 68.15625Q178.26294 69.1875 178.77856 69.734375Q179.29419 70.265625 180.07544 70.265625Q180.65356 70.265625 181.05981 69.96875Q181.48169 69.65625 181.71606 69.0ZM178.26294 67.296875L181.73169 67.296875Q181.66919 66.5 181.34106 66.109375Q180.82544 65.5 180.02856 65.5Q179.29419 65.5 178.79419 65.984375Q178.30981 66.46875 178.26294 67.296875ZM187.60669 71.0L187.60669 62.40625L191.41919 62.40625Q192.57544 62.40625 193.16919 62.640625Q193.76294 62.875 194.12231 63.46875Q194.48169 64.046875 194.48169 64.75Q194.48169 65.671875 193.88794 66.296875Q193.29419 66.921875 192.05981 67.09375Q192.51294 67.3125 192.74731 67.515625Q193.24731 67.96875 193.68481 68.65625L195.18481 71.0L193.74731 71.0L192.62231 69.21875Q192.12231 68.4375 191.79419 68.03125Q191.48169 67.625 191.21606 67.46875Q190.96606 67.296875 190.70044 67.21875Q190.51294 67.1875 190.07544 67.1875L188.74731 67.1875L188.74731 71.0L187.60669 71.0ZM188.74731 66.203125L191.20044 66.203125Q191.96606 66.203125 192.40356 66.046875Q192.85669 65.875 193.07544 65.53125Q193.30981 65.171875 193.30981 64.75Q193.30981 64.140625 192.85669 63.75Q192.41919 63.359375 191.46606 63.359375L188.74731 63.359375L188.74731 66.203125ZM195.80981 66.703125Q195.85669 66.375 196.09106 66.03125Q196.46606 65.53125 197.30981 64.921875Q198.15356 64.3125 198.30981 64.125Q198.52856 63.890625 198.52856 63.640625Q198.52856 63.359375 198.30981 63.1875Q198.10669 63.0 197.71606 63.0Q197.32544 63.0 197.13794 63.140625Q196.95044 63.265625 196.82544 63.65625L195.93481 63.5625Q196.10669 62.921875 196.52856 62.609375Q196.95044 62.296875 197.73169 62.296875Q198.62231 62.296875 199.02856 62.65625Q199.45044 63.0 199.45044 63.5Q199.45044 63.984375 199.09106 64.421875Q198.84106 64.75 197.90356 65.421875Q197.40356 65.78125 197.20044 66.0L199.46606 66.0L199.46606 66.703125L195.80981 66.703125ZM209.01294 65.953125L203.34106 65.953125L203.34106 64.96875L209.01294 64.96875L209.01294 65.953125ZM209.01294 68.5625L203.34106 68.5625L203.34106 67.578125L209.01294 67.578125L209.01294 68.5625ZM213.16919 66.765625Q213.16919 65.234375 213.48169 64.3125Q213.79419 63.375 214.40356 62.875Q215.02856 62.375 215.96606 62.375Q216.65356 62.375 217.16919 62.65625Q217.70044 62.9375 218.04419 63.46875Q218.38794 63.984375 218.57544 64.734375Q218.76294 65.484375 218.76294 66.765625Q218.76294 68.28125 218.45044 69.203125Q218.15356 70.125 217.52856 70.640625Q216.91919 71.140625 215.96606 71.140625Q214.73169 71.140625 214.01294 70.25Q213.16919 69.1875 213.16919 66.765625ZM214.24731 66.765625Q214.24731 68.875 214.74731 69.578125Q215.24731 70.28125 215.96606 70.28125Q216.70044 70.28125 217.18481 69.578125Q217.68481 68.875 217.68481 66.765625Q217.68481 64.640625 217.18481 63.953125Q216.70044 63.25 215.95044 63.25Q215.23169 63.25 214.79419 63.859375Q214.24731 64.640625 214.24731 66.765625ZM220.73169 71.0L220.73169 69.796875L221.93481 69.796875L221.93481 71.0Q221.93481 71.65625 221.70044 72.0625Q221.46606 72.484375 220.96606 72.703125L220.66919 72.25Q220.99731 72.109375 221.15356 71.8125Q221.30981 71.53125 221.34106 71.0L220.73169 71.0ZM223.16919 68.75L224.27856 68.65625Q224.40356 69.46875 224.84106 69.875Q225.29419 70.28125 225.93481 70.28125Q226.68481 70.28125 227.21606 69.703125Q227.74731 69.125 227.74731 68.1875Q227.74731 67.28125 227.23169 66.765625Q226.73169 66.234375 225.90356 66.234375Q225.40356 66.234375 224.98169 66.46875Q224.57544 66.703125 224.34106 67.0625L223.35669 66.9375L224.18481 62.53125L228.46606 62.53125L228.46606 63.53125L225.02856 63.53125L224.57544 65.84375Q225.34106 65.296875 226.18481 65.296875Q227.30981 65.296875 228.07544 66.078125Q228.85669 66.859375 228.85669 68.09375Q228.85669 69.25 228.18481 70.109375Q227.35669 71.140625 225.93481 71.140625Q224.76294 71.140625 224.01294 70.484375Q223.27856 69.828125 223.16919 68.75ZM230.23169 63.53125L230.23169 62.515625L235.79419 62.515625L235.79419 63.34375Q234.98169 64.21875 234.16919 65.671875Q233.37231 67.109375 232.93481 68.640625Q232.60669 69.71875 232.52856 71.0L231.43481 71.0Q231.45044 69.984375 231.82544 68.546875Q232.21606 67.109375 232.91919 65.78125Q233.63794 64.453125 234.45044 63.53125L230.23169 63.53125ZM241.13794 71.0L240.09106 71.0L240.09106 64.28125Q239.70044 64.640625 239.07544 65.015625Q238.46606 65.375 237.98169 65.546875L237.98169 64.53125Q238.85669 64.109375 239.51294 63.53125Q240.18481 62.9375 240.46606 62.375L241.13794 62.375L241.13794 71.0Z" fill-rule="nonzero"/><path fill="#757575" d="M13.16875 32.2L18.66875 17.8875L20.715626 17.8875L26.575 32.2L24.41875 32.2L22.746876 27.85625L16.7625 27.85625L15.184375 32.2L13.16875 32.2ZM17.309376 26.325L22.153126 26.325L20.66875 22.35625Q19.98125 20.54375 19.653126 19.3875Q19.371876 20.7625 18.871876 22.121876L17.309376 26.325ZM34.246876 32.2L34.246876 30.8875Q33.2625 32.434376 31.340626 32.434376Q30.10625 32.434376 29.059376 31.746876Q28.028126 31.059376 27.45 29.840626Q26.8875 28.621876 26.8875 27.028126Q26.8875 25.465626 27.403126 24.2Q27.91875 22.934376 28.95 22.2625Q29.996876 21.590626 31.2625 21.590626Q32.2 21.590626 32.934376 21.996876Q33.66875 22.3875 34.1375 23.0125L34.1375 17.8875L35.871876 17.8875L35.871876 32.2L34.246876 32.2ZM28.684376 27.028126Q28.684376 29.0125 29.528126 29.996876Q30.371876 30.98125 31.5125 30.98125Q32.66875 30.98125 33.465626 30.04375Q34.278126 29.10625 34.278126 27.16875Q34.278126 25.04375 33.45 24.04375Q32.6375 23.04375 31.434376 23.04375Q30.2625 23.04375 29.465626 24.0125Q28.684376 24.965626 28.684376 27.028126ZM38.5125 19.91875L38.5125 17.8875L40.2625 17.8875L40.2625 19.91875L38.5125 19.91875ZM36.278126 36.23125L36.60625 34.73125Q37.1375 34.871876 37.45 34.871876Q37.98125 34.871876 38.246876 34.5125Q38.5125 34.153126 38.5125 32.73125L38.5125 21.825L40.2625 21.825L40.2625 32.7625Q40.2625 34.684376 39.7625 35.434376Q39.1375 36.403126 37.653126 36.403126Q36.95 36.403126 36.278126 36.23125ZM41.871876 27.0125Q41.871876 24.1375 43.465626 22.746876Q44.809376 21.590626 46.73125 21.590626Q48.871876 21.590626 50.215626 22.996876Q51.575 24.403126 51.575 26.871876Q51.575 28.871876 50.98125 30.028126Q50.3875 31.16875 49.23125 31.809376Q48.090626 32.434376 46.73125 32.434376Q44.54375 32.434376 43.2 31.04375Q41.871876 29.6375 41.871876 27.0125ZM43.66875 27.0125Q43.66875 29.0125 44.528126 29.996876Q45.403126 30.98125 46.73125 30.98125Q48.04375 30.98125 48.903126 29.996876Q49.778126 28.996876 49.778126 26.95Q49.778126 25.028126 48.903126 24.04375Q48.028126 23.04375 46.73125 23.04375Q45.403126 23.04375 44.528126 24.04375Q43.66875 25.028126 43.66875 27.0125ZM60.309376 32.2L60.309376 30.66875Q59.10625 32.434376 57.028126 32.434376Q56.10625 32.434376 55.309376 32.090626Q54.5125 31.73125 54.121876 31.2Q53.746876 30.66875 53.590626 29.8875Q53.48125 29.371876 53.48125 28.246876L53.48125 21.825L55.23125 21.825L55.23125 27.575Q55.23125 28.95 55.340626 29.434376Q55.5125 30.121876 56.04375 30.528126Q56.590626 30.91875 57.371876 30.91875Q58.16875 30.91875 58.85625 30.5125Q59.559376 30.10625 59.840626 29.41875Q60.1375 28.715626 60.1375 27.3875L60.1375 21.825L61.8875 21.825L61.8875 32.2L60.309376 32.2ZM63.496876 32.2L63.496876 21.825L65.075 21.825L65.075 23.403126Q65.68437 22.29375 66.2 21.95Q66.71562 21.590626 67.325 21.590626Q68.21562 21.590626 69.1375 22.153126L68.52812 23.79375Q67.8875 23.403126 67.24687 23.403126Q66.66875 23.403126 66.2 23.7625Q65.74687 24.10625 65.54375 24.715626Q65.2625 25.653126 65.2625 26.7625L65.2625 32.2L63.496876 32.2ZM70.5125 32.2L70.5125 21.825L72.10625 21.825L72.10625 23.309376Q73.24687 21.590626 75.40312 21.590626Q76.34062 21.590626 77.12187 21.934376Q77.91875 22.2625 78.30937 22.809376Q78.7 23.35625 78.85625 24.10625Q78.95 24.60625 78.95 25.825L78.95 32.2L77.18437 32.2L77.18437 25.8875Q77.18437 24.809376 76.98125 24.278126Q76.77812 23.746876 76.24687 23.434376Q75.73125 23.121876 75.02812 23.121876Q73.90312 23.121876 73.09062 23.840626Q72.27812 24.54375 72.27812 26.528126L72.27812 32.2L70.5125 32.2ZM80.5125 32.2L80.5125 21.825L82.09062 21.825L82.09062 23.278126Q82.575 22.528126 83.3875 22.059376Q84.2 21.590626 85.23125 21.590626Q86.3875 21.590626 87.12187 22.075Q87.85625 22.54375 88.16875 23.403126Q89.40312 21.590626 91.37187 21.590626Q92.91875 21.590626 93.74687 22.45Q94.575 23.309376 94.575 25.075L94.575 32.2L92.825 32.2L92.825 25.66875Q92.825 24.60625 92.65312 24.153126Q92.48125 23.684376 92.02812 23.403126Q91.59062 23.121876 90.98125 23.121876Q89.8875 23.121876 89.15312 23.85625Q88.43437 24.575 88.43437 26.16875L88.43437 32.2L86.68437 32.2L86.68437 25.465626Q86.68437 24.29375 86.24687 23.715626Q85.825 23.121876 84.84062 23.121876Q84.10625 23.121876 83.46562 23.5125Q82.84062 23.903126 82.55937 24.653126Q82.27812 25.403126 82.27812 26.825L82.27812 32.2L80.5125 32.2ZM103.62187 28.85625L105.43437 29.090626Q105.0125 30.66875 103.84062 31.559376Q102.68437 32.434376 100.87187 32.434376Q98.60625 32.434376 97.2625 31.04375Q95.93437 29.6375 95.93437 27.10625Q95.93437 24.48125 97.27812 23.04375Q98.62187 21.590626 100.77812 21.590626Q102.85625 21.590626 104.16875 23.0125Q105.49687 24.41875 105.49687 26.996876Q105.49687 27.153126 105.48125 27.465626L97.74687 27.465626Q97.84062 29.16875 98.71562 30.075Q99.59062 30.98125 100.8875 30.98125Q101.85625 30.98125 102.52812 30.48125Q103.21562 29.965626 103.62187 28.85625ZM97.84062 26.0125L103.6375 26.0125Q103.52812 24.715626 102.98125 24.059376Q102.1375 23.04375 100.79375 23.04375Q99.59062 23.04375 98.7625 23.85625Q97.93437 24.653126 97.84062 26.0125ZM107.5125 32.2L107.5125 21.825L109.10625 21.825L109.10625 23.309376Q110.24687 21.590626 112.40312 21.590626Q113.34062 21.590626 114.12187 21.934376Q114.91875 22.2625 115.30937 22.809376Q115.7 23.35625 115.85625 24.10625Q115.95 24.60625 115.95 25.825L115.95 32.2L114.18437 32.2L114.18437 25.8875Q114.18437 24.809376 113.98125 24.278126Q113.77812 23.746876 113.24687 23.434376Q112.73125 23.121876 112.02812 23.121876Q110.90312 23.121876 110.09062 23.840626Q109.27812 24.54375 109.27812 26.528126L109.27812 32.2L107.5125 32.2ZM121.35625 30.621876L121.60625 32.184376Q120.87187 32.340626 120.27812 32.340626Q119.325 32.340626 118.79375 32.04375Q118.27812 31.73125 118.05937 31.246876Q117.84062 30.746876 117.84062 29.16875L117.84062 23.2L116.55937 23.2L116.55937 21.825L117.84062 21.825L117.84062 19.2625L119.59062 18.2L119.59062 21.825L121.35625 21.825L121.35625 23.2L119.59062 23.2L119.59062 29.2625Q119.59062 30.0125 119.68437 30.23125Q119.77812 30.434376 119.98125 30.575Q120.2 30.7 120.59062 30.7Q120.87187 30.7 121.35625 30.621876ZM129.49687 32.2L129.49687 21.825L131.075 21.825L131.075 23.403126Q131.68437 22.29375 132.2 21.95Q132.71562 21.590626 133.325 21.590626Q134.21562 21.590626 135.1375 22.153126L134.52812 23.79375Q133.8875 23.403126 133.24687 23.403126Q132.66875 23.403126 132.2 23.7625Q131.74687 24.10625 131.54375 24.715626Q131.2625 25.653126 131.2625 26.7625L131.2625 32.2L129.49687 32.2ZM143.29375 30.91875Q142.30937 31.746876 141.40312 32.090626Q140.49687 32.434376 139.46562 32.434376Q137.7625 32.434376 136.84062 31.60625Q135.91875 30.7625 135.91875 29.465626Q135.91875 28.7 136.2625 28.075Q136.62187 27.45 137.18437 27.075Q137.74687 26.684376 138.45 26.48125Q138.96562 26.35625 140.0125 26.215626Q142.1375 25.965626 143.1375 25.621876Q143.15312 25.2625 143.15312 25.153126Q143.15312 24.090626 142.65312 23.6375Q141.98125 23.04375 140.65312 23.04375Q139.40312 23.04375 138.80937 23.48125Q138.23125 23.91875 137.95 25.028126L136.23125 24.79375Q136.46562 23.684376 136.99687 23.0125Q137.52812 22.325 138.54375 21.965626Q139.55937 21.590626 140.90312 21.590626Q142.23125 21.590626 143.05937 21.903126Q143.8875 22.215626 144.27812 22.7Q144.66875 23.16875 144.825 23.8875Q144.91875 24.340626 144.91875 25.5125L144.91875 27.85625Q144.91875 30.309376 145.02812 30.965626Q145.1375 31.60625 145.48125 32.2L143.6375 32.2Q143.37187 31.653126 143.29375 30.91875ZM143.1375 26.996876Q142.18437 27.3875 140.2625 27.653126Q139.18437 27.809376 138.73125 28.0125Q138.29375 28.2 138.04375 28.575Q137.79375 28.95 137.79375 29.41875Q137.79375 30.121876 138.325 30.590626Q138.85625 31.059376 139.8875 31.059376Q140.90312 31.059376 141.68437 30.621876Q142.48125 30.16875 142.85625 29.403126Q143.1375 28.79375 143.1375 27.6375L143.1375 26.996876ZM151.35625 30.621876L151.60625 32.184376Q150.87187 32.340626 150.27812 32.340626Q149.325 32.340626 148.79375 32.04375Q148.27812 31.73125 148.05937 31.246876Q147.84062 30.746876 147.84062 29.16875L147.84062 23.2L146.55937 23.2L146.55937 21.825L147.84062 21.825L147.84062 19.2625L149.59062 18.2L149.59062 21.825L151.35625 21.825L151.35625 23.2L149.59062 23.2L149.59062 29.2625Q149.59062 30.0125 149.68437 30.23125Q149.77812 30.434376 149.98125 30.575Q150.2 30.7 150.59062 30.7Q150.87187 30.7 151.35625 30.621876ZM160.62187 28.85625L162.43437 29.090626Q162.0125 30.66875 160.84062 31.559376Q159.68437 32.434376 157.87187 32.434376Q155.60625 32.434376 154.2625 31.04375Q152.93437 29.6375 152.93437 27.10625Q152.93437 24.48125 154.27812 23.04375Q155.62187 21.590626 157.77812 21.590626Q159.85625 21.590626 161.16875 23.0125Q162.49687 24.41875 162.49687 26.996876Q162.49687 27.153126 162.48125 27.465626L154.74687 27.465626Q154.84062 29.16875 155.71562 30.075Q156.59062 30.98125 157.8875 30.98125Q158.85625 30.98125 159.52812 30.48125Q160.21562 29.965626 160.62187 28.85625ZM154.84062 26.0125L160.6375 26.0125Q160.52812 24.715626 159.98125 24.059376Q159.1375 23.04375 157.79375 23.04375Q156.59062 23.04375 155.7625 23.85625Q154.93437 24.653126 154.84062 26.0125ZM174.35625 30.621876L174.60625 32.184376Q173.87187 32.340626 173.27812 32.340626Q172.325 32.340626 171.79375 32.04375Q171.27812 31.73125 171.05937 31.246876Q170.84062 30.746876 170.84062 29.16875L170.84062 23.2L169.55937 23.2L169.55937 21.825L170.84062 21.825L170.84062 19.2625L172.59062 18.2L172.59062 21.825L174.35625 21.825L174.35625 23.2L172.59062 23.2L172.59062 29.2625Q172.59062 30.0125 172.68437 30.23125Q172.77812 30.434376 172.98125 30.575Q173.2 30.7 173.59062 30.7Q173.87187 30.7 174.35625 30.621876ZM176.49687 32.2L176.49687 21.825L178.075 21.825L178.075 23.403126Q178.68437 22.29375 179.2 21.95Q179.71562 21.590626 180.325 21.590626Q181.21562 21.590626 182.1375 22.153126L181.52812 23.79375Q180.8875 23.403126 180.24687 23.403126Q179.66875 23.403126 179.2 23.7625Q178.74687 24.10625 178.54375 24.715626Q178.2625 25.653126 178.2625 26.7625L178.2625 32.2L176.49687 32.2ZM190.62187 28.85625L192.43437 29.090626Q192.0125 30.66875 190.84062 31.559376Q189.68437 32.434376 187.87187 32.434376Q185.60625 32.434376 184.2625 31.04375Q182.93437 29.6375 182.93437 27.10625Q182.93437 24.48125 184.27812 23.04375Q185.62187 21.590626 187.77812 21.590626Q189.85625 21.590626 191.16875 23.0125Q192.49687 24.41875 192.49687 26.996876Q192.49687 27.153126 192.48125 27.465626L184.74687 27.465626Q184.84062 29.16875 185.71562 30.075Q186.59062 30.98125 187.8875 30.98125Q188.85625 30.98125 189.52812 30.48125Q190.21562 29.965626 190.62187 28.85625ZM184.84062 26.0125L190.6375 26.0125Q190.52812 24.715626 189.98125 24.059376Q189.1375 23.04375 187.79375 23.04375Q186.59062 23.04375 185.7625 23.85625Q184.93437 24.653126 184.84062 26.0125ZM194.5125 32.2L194.5125 21.825L196.10625 21.825L196.10625 23.309376Q197.24687 21.590626 199.40312 21.590626Q200.34062 21.590626 201.12187 21.934376Q201.91875 22.2625 202.30937 22.809376Q202.7 23.35625 202.85625 24.10625Q202.95 24.60625 202.95 25.825L202.95 32.2L201.18437 32.2L201.18437 25.8875Q201.18437 24.809376 200.98125 24.278126Q200.77812 23.746876 200.24687 23.434376Q199.73125 23.121876 199.02812 23.121876Q197.90312 23.121876 197.09062 23.840626Q196.27812 24.54375 196.27812 26.528126L196.27812 32.2L194.5125 32.2ZM211.24687 32.2L211.24687 30.8875Q210.2625 32.434376 208.34062 32.434376Q207.10625 32.434376 206.05937 31.746876Q205.02812 31.059376 204.45 29.840626Q203.8875 28.621876 203.8875 27.028126Q203.8875 25.465626 204.40312 24.2Q204.91875 22.934376 205.95 22.2625Q206.99687 21.590626 208.2625 21.590626Q209.2 21.590626 209.93437 21.996876Q210.66875 22.3875 211.1375 23.0125L211.1375 17.8875L212.87187 17.8875L212.87187 32.2L211.24687 32.2ZM205.68437 27.028126Q205.68437 29.0125 206.52812 29.996876Q207.37187 30.98125 208.5125 30.98125Q209.66875 30.98125 210.46562 30.04375Q211.27812 29.10625 211.27812 27.16875Q211.27812 25.04375 210.45 24.04375Q209.6375 23.04375 208.43437 23.04375Q207.2625 23.04375 206.46562 24.0125Q205.68437 24.965626 205.68437 27.028126Z" fill-rule="nonzero"/></svg>