<svg version="1.1" viewBox="0.0 0.0 426.0 371.0" fill="none" stroke="none" stroke-linecap="square" stroke-miterlimit="10" width="426" height="371" xmlns:xlink="http://www.w3.org/1999/xlink" xmlns="http://www.w3.org/2000/svg"><path fill="#ffffff" d="M0 0L426.0 0L426.0 371.0L0 371.0L0 0Z" fill-rule="nonzero"/><path fill="#2b69a2" d="M119.35468 310.25677C86.77687 273.42227 78.81834 220.9109 99.01869 176.07744C119.21905 131.24396 163.82588 102.416664 213.0 102.416664L213.0 227.43333Z" fill-rule="nonzero"/><path fill="#f4c7c3" d="M213.0 102.416664C270.53372 102.416664 320.639 141.68286 334.3922 197.54858C348.14542 253.41429 321.9951 311.45337 271.03668 338.16232C220.07828 364.8713 157.47073 353.35312 119.35468 310.25677L213.0 227.43333Z" fill-rule="nonzero"/><path fill="#1a1a1a" d="M25.675 164.64523L25.89375 164.73898L26.846874 168.64523L26.503124 168.73898L25.675 165.33273L23.58125 169.83273Q24.440624 170.27023 24.878124 171.02023Q25.33125 171.75461 25.33125 172.61398Q25.33125 173.41086 24.925 174.14523Q24.534374 174.86398 23.8 175.27023Q23.065624 175.67648 22.26875 175.67648Q21.471874 175.67648 20.7375 175.27023Q20.003124 174.86398 19.596874 174.14523Q19.20625 173.41086 19.20625 172.61398Q19.20625 171.33273 20.096874 170.44211Q21.003124 169.55148 22.284374 169.55148Q22.7375 169.55148 23.253124 169.70773L25.3625 165.19211L22.221874 166.73898L22.08125 166.42648L25.675 164.64523ZM22.26875 169.86398Q21.58125 169.86398 20.909374 170.22336Q20.253124 170.56711 19.878124 171.23898Q19.51875 171.89523 19.51875 172.61398Q19.51875 173.75461 20.315624 174.55148Q21.128124 175.36398 22.26875 175.36398Q23.409374 175.36398 24.20625 174.55148Q25.01875 173.75461 25.01875 172.61398Q25.01875 171.89523 24.64375 171.23898Q24.284374 170.56711 23.6125 170.22336Q22.95625 169.86398 22.26875 169.86398ZM28.440624 174.14523L28.440624 165.55148L30.159374 165.55148L32.190624 171.62961Q32.471874 172.48898 32.596874 172.91086Q32.7375 172.44211 33.05 171.53586L35.1125 165.55148L36.64375 165.55148L36.64375 174.14523L35.55 174.14523L35.55 166.95773L33.05 174.14523L32.01875 174.14523L29.534374 166.83273L29.534374 174.14523L28.440624 174.14523ZM41.409374 173.37961Q40.815624 173.87961 40.26875 174.08273Q39.7375 174.28586 39.1125 174.28586Q38.08125 174.28586 37.534374 173.78586Q36.9875 173.28586 36.9875 172.50461Q36.9875 172.05148 37.190624 171.67648Q37.39375 171.28586 37.7375 171.06711Q38.08125 170.83273 38.503124 170.72336Q38.8 170.62961 39.440624 170.55148Q40.70625 170.41086 41.315624 170.19211Q41.315624 169.97336 41.315624 169.92648Q41.315624 169.27023 41.01875 169.00461Q40.6125 168.66086 39.815624 168.66086Q39.08125 168.66086 38.721874 168.92648Q38.3625 169.17648 38.190624 169.83273L37.159374 169.69211Q37.3 169.03586 37.628124 168.62961Q37.95625 168.22336 38.565624 168.00461Q39.175 167.78586 39.971874 167.78586Q40.76875 167.78586 41.26875 167.97336Q41.76875 168.16086 42.003124 168.44211Q42.2375 168.72336 42.33125 169.16086Q42.378124 169.42648 42.378124 170.12961L42.378124 171.53586Q42.378124 173.00461 42.440624 173.39523Q42.51875 173.78586 42.721874 174.14523L41.6125 174.14523Q41.45625 173.81711 41.409374 173.37961ZM41.315624 171.02023Q40.7375 171.25461 39.596874 171.42648Q38.940624 171.52023 38.675 171.64523Q38.409374 171.75461 38.253124 171.97336Q38.1125 172.19211 38.1125 172.47336Q38.1125 172.89523 38.425 173.17648Q38.753124 173.45773 39.3625 173.45773Q39.971874 173.45773 40.440624 173.19211Q40.925 172.92648 41.14375 172.45773Q41.315624 172.09836 41.315624 171.41086L41.315624 171.02023ZM44.315624 174.14523L44.315624 165.55148L45.378124 165.55148L45.378124 174.14523L44.315624 174.14523ZM51.596874 172.14523L52.690624 172.27023Q52.440624 173.22336 51.7375 173.75461Q51.034374 174.28586 49.95625 174.28586Q48.596874 174.28586 47.784374 173.44211Q46.9875 172.59836 46.9875 171.08273Q46.9875 169.52023 47.8 168.66086Q48.6125 167.78586 49.89375 167.78586Q51.14375 167.78586 51.925 168.62961Q52.721874 169.47336 52.721874 171.02023Q52.721874 171.11398 52.721874 171.30148L48.08125 171.30148Q48.14375 172.33273 48.659374 172.87961Q49.175 173.41086 49.95625 173.41086Q50.534374 173.41086 50.940624 173.11398Q51.3625 172.80148 51.596874 172.14523ZM48.14375 170.44211L51.6125 170.44211Q51.55 169.64523 51.221874 169.25461Q50.70625 168.64523 49.909374 168.64523Q49.175 168.64523 48.675 169.12961Q48.190624 169.61398 48.14375 170.44211Z" fill-rule="nonzero"/><path fill="#9e9e9e" d="M19.05 188.87961L20.1125 188.73898Q20.284374 189.62961 20.721874 190.03586Q21.159374 190.42648 21.784374 190.42648Q22.534374 190.42648 23.05 189.91086Q23.565624 189.39523 23.565624 188.62961Q23.565624 187.91086 23.08125 187.44211Q22.6125 186.95773 21.878124 186.95773Q21.58125 186.95773 21.128124 187.08273L21.253124 186.14523Q21.3625 186.16086 21.425 186.16086Q22.096874 186.16086 22.628124 185.81711Q23.175 185.45773 23.175 184.72336Q23.175 184.14523 22.784374 183.77023Q22.39375 183.37961 21.76875 183.37961Q21.159374 183.37961 20.7375 183.77023Q20.33125 184.16086 20.221874 184.92648L19.159374 184.73898Q19.346874 183.69211 20.034374 183.11398Q20.721874 182.52023 21.7375 182.52023Q22.440624 182.52023 23.034374 182.83273Q23.628124 183.12961 23.940624 183.64523Q24.253124 184.16086 24.253124 184.75461Q24.253124 185.30148 23.95625 185.77023Q23.659374 186.22336 23.08125 186.48898Q23.83125 186.66086 24.253124 187.22336Q24.675 187.77023 24.675 188.61398Q24.675 189.73898 23.846874 190.52023Q23.034374 191.30148 21.784374 191.30148Q20.659374 191.30148 19.909374 190.62961Q19.159374 189.94211 19.05 188.87961ZM31.51875 184.66086L30.471874 184.73898Q30.33125 184.11398 30.08125 183.83273Q29.64375 183.37961 29.01875 183.37961Q28.51875 183.37961 28.128124 183.66086Q27.64375 184.03586 27.346874 184.73898Q27.065624 185.42648 27.05 186.70773Q27.425 186.12961 27.971874 185.84836Q28.534374 185.56711 29.14375 185.56711Q30.190624 185.56711 30.925 186.34836Q31.675 187.12961 31.675 188.34836Q31.675 189.16086 31.315624 189.86398Q30.971874 190.55148 30.3625 190.92648Q29.753124 191.28586 28.9875 191.28586Q27.659374 191.28586 26.83125 190.31711Q26.003124 189.34836 26.003124 187.12961Q26.003124 184.62961 26.925 183.50461Q27.721874 182.52023 29.08125 182.52023Q30.096874 182.52023 30.7375 183.09836Q31.39375 183.66086 31.51875 184.66086ZM27.221874 188.36398Q27.221874 188.91086 27.440624 189.41086Q27.675 189.89523 28.08125 190.16086Q28.503124 190.42648 28.971874 190.42648Q29.628124 190.42648 30.1125 189.89523Q30.596874 189.34836 30.596874 188.42648Q30.596874 187.53586 30.1125 187.02023Q29.64375 186.50461 28.925 186.50461Q28.20625 186.50461 27.70625 187.02023Q27.221874 187.53586 27.221874 188.36398ZM33.6125 191.14523L33.6125 189.94211L34.815624 189.94211L34.815624 191.14523Q34.815624 191.80148 34.58125 192.20773Q34.346874 192.62961 33.846874 192.84836L33.55 192.39523Q33.878124 192.25461 34.034374 191.95773Q34.190624 191.67648 34.221874 191.14523L33.6125 191.14523ZM36.05 188.89523L37.159374 188.80148Q37.284374 189.61398 37.721874 190.02023Q38.175 190.42648 38.815624 190.42648Q39.565624 190.42648 40.096874 189.84836Q40.628124 189.27023 40.628124 188.33273Q40.628124 187.42648 40.1125 186.91086Q39.6125 186.37961 38.784374 186.37961Q38.284374 186.37961 37.8625 186.61398Q37.45625 186.84836 37.221874 187.20773L36.2375 187.08273L37.065624 182.67648L41.346874 182.67648L41.346874 183.67648L37.909374 183.67648L37.45625 185.98898Q38.221874 185.44211 39.065624 185.44211Q40.190624 185.44211 40.95625 186.22336Q41.7375 187.00461 41.7375 188.23898Q41.7375 189.39523 41.065624 190.25461Q40.2375 191.28586 38.815624 191.28586Q37.64375 191.28586 36.89375 190.62961Q36.159374 189.97336 36.05 188.89523ZM43.253124 184.61398Q43.253124 183.69211 43.70625 183.05148Q44.175 182.41086 45.05 182.41086Q45.8625 182.41086 46.39375 182.98898Q46.925 183.56711 46.925 184.67648Q46.925 185.77023 46.378124 186.36398Q45.846874 186.94211 45.065624 186.94211Q44.284374 186.94211 43.76875 186.36398Q43.253124 185.78586 43.253124 184.61398ZM45.08125 183.12961Q44.690624 183.12961 44.425 183.47336Q44.175 183.81711 44.175 184.72336Q44.175 185.55148 44.425 185.89523Q44.690624 186.22336 45.08125 186.22336Q45.4875 186.22336 45.7375 185.87961Q46.003124 185.53586 46.003124 184.64523Q46.003124 183.80148 45.7375 183.47336Q45.471874 183.12961 45.08125 183.12961ZM45.08125 191.45773L49.784374 182.41086L50.64375 182.41086L45.95625 191.45773L45.08125 191.45773ZM48.8 189.12961Q48.8 188.20773 49.253124 187.56711Q49.721874 186.92648 50.6125 186.92648Q51.425 186.92648 51.95625 187.50461Q52.4875 188.06711 52.4875 189.19211Q52.4875 190.28586 51.940624 190.87961Q51.409374 191.45773 50.6125 191.45773Q49.846874 191.45773 49.315624 190.87961Q48.8 190.30148 48.8 189.12961ZM50.64375 187.64523Q50.2375 187.64523 49.971874 187.98898Q49.721874 188.33273 49.721874 189.23898Q49.721874 190.05148 49.9875 190.39523Q50.253124 190.73898 50.64375 190.73898Q51.034374 190.73898 51.3 190.39523Q51.565624 190.05148 51.565624 189.14523Q51.565624 188.31711 51.3 187.98898Q51.034374 187.64523 50.64375 187.64523Z" fill-rule="nonzero"/><path stroke="#757575" stroke-width="1.0" stroke-linecap="butt" d="M18.55 178.64523L81.98333 178.64523L104.71776 178.64523" fill-rule="nonzero"/><path fill="#9e9e9e" d="M106.71776 178.64523C106.71776 177.54066 105.82233 176.64523 104.71776 176.64523C103.61319 176.64523 102.71776 177.54066 102.71776 178.64523C102.71776 179.7498 103.61319 180.64523 104.71776 180.64523C105.82233 180.64523 106.71776 179.7498 106.71776 178.64523" fill-rule="nonzero"/><path fill="#1a1a1a" d="M361.1219 269.0183L361.1219 271.3777L363.8094 271.3777L363.8094 271.72144L361.1219 271.72144L361.1219 274.29956L360.7625 274.29956L360.7625 271.72144L358.075 271.72144L358.075 271.3777L360.7625 271.3777L360.7625 269.0183Q360.16876 269.0183 359.45 268.6433Q358.73126 268.2527 358.3094 267.5183Q357.8875 266.78394 357.8875 265.9558Q357.8875 265.15894 358.29376 264.4402Q358.7 263.7058 359.41876 263.29956Q360.15314 262.8933 360.95 262.8933Q361.7469 262.8933 362.46564 263.29956Q363.2 263.7058 363.60626 264.4402Q364.0125 265.15894 364.0125 265.9558Q364.0125 267.1902 363.16876 268.0808Q362.34064 268.9558 361.1219 269.0183ZM360.95 263.22144Q360.2469 263.22144 359.59064 263.5808Q358.9344 263.92456 358.5594 264.59644Q358.2 265.2527 358.2 265.97144Q358.2 267.11206 358.9969 267.92456Q359.8094 268.72144 360.95 268.72144Q362.09064 268.72144 362.8875 267.92456Q363.7 267.11206 363.7 265.97144Q363.7 265.2527 363.325 264.59644Q362.96564 263.92456 362.29376 263.5808Q361.6375 263.22144 360.95 263.22144ZM366.4344 271.72144L366.4344 263.1277L372.23126 263.1277L372.23126 264.1433L367.575 264.1433L367.575 266.79956L371.60626 266.79956L371.60626 267.8152L367.575 267.8152L367.575 271.72144L366.4344 271.72144ZM377.4969 269.72144L378.59064 269.84644Q378.34064 270.79956 377.6375 271.3308Q376.9344 271.86206 375.85626 271.86206Q374.4969 271.86206 373.6844 271.0183Q372.8875 270.17456 372.8875 268.65894Q372.8875 267.09644 373.7 266.23706Q374.5125 265.36206 375.79376 265.36206Q377.04376 265.36206 377.825 266.2058Q378.6219 267.04956 378.6219 268.59644Q378.6219 268.6902 378.6219 268.8777L373.98126 268.8777Q374.04376 269.90894 374.5594 270.4558Q375.075 270.98706 375.85626 270.98706Q376.4344 270.98706 376.84064 270.6902Q377.2625 270.3777 377.4969 269.72144ZM374.04376 268.0183L377.5125 268.0183Q377.45 267.22144 377.1219 266.8308Q376.60626 266.22144 375.8094 266.22144Q375.075 266.22144 374.575 266.7058Q374.09064 267.1902 374.04376 268.0183ZM380.2469 271.72144L380.2469 265.5027L381.1844 265.5027L381.1844 266.3777Q381.48126 265.90894 381.96564 265.6433Q382.45 265.36206 383.075 265.36206Q383.7625 265.36206 384.2 265.6433Q384.65314 265.92456 384.825 266.4402Q385.575 265.36206 386.7469 265.36206Q387.6844 265.36206 388.16876 265.8777Q388.66876 266.3777 388.66876 267.4558L388.66876 271.72144L387.6219 271.72144L387.6219 267.79956Q387.6219 267.17456 387.5125 266.8933Q387.41876 266.61206 387.15314 266.4402Q386.8875 266.2683 386.5125 266.2683Q385.85626 266.2683 385.41876 266.7058Q384.9969 267.1433 384.9969 268.11206L384.9969 271.72144L383.9344 271.72144L383.9344 267.67456Q383.9344 266.97144 383.66876 266.6277Q383.41876 266.2683 382.84064 266.2683Q382.3875 266.2683 382.0125 266.5027Q381.6375 266.73706 381.46564 267.1902Q381.29376 267.6433 381.29376 268.48706L381.29376 271.72144L380.2469 271.72144ZM395.3094 270.9558Q394.71564 271.4558 394.16876 271.65894Q393.6375 271.86206 393.0125 271.86206Q391.98126 271.86206 391.4344 271.36206Q390.8875 270.86206 390.8875 270.0808Q390.8875 269.6277 391.09064 269.2527Q391.29376 268.86206 391.6375 268.6433Q391.98126 268.40894 392.40314 268.29956Q392.7 268.2058 393.34064 268.1277Q394.60626 267.98706 395.21564 267.7683Q395.21564 267.54956 395.21564 267.5027Q395.21564 266.84644 394.91876 266.5808Q394.5125 266.23706 393.71564 266.23706Q392.98126 266.23706 392.6219 266.5027Q392.2625 266.7527 392.09064 267.40894L391.0594 267.2683Q391.2 266.61206 391.52814 266.2058Q391.85626 265.79956 392.46564 265.5808Q393.075 265.36206 393.8719 265.36206Q394.66876 265.36206 395.16876 265.54956Q395.66876 265.73706 395.90314 266.0183Q396.1375 266.29956 396.23126 266.73706Q396.27814 267.0027 396.27814 267.7058L396.27814 269.11206Q396.27814 270.5808 396.34064 270.97144Q396.41876 271.36206 396.6219 271.72144L395.5125 271.72144Q395.35626 271.3933 395.3094 270.9558ZM395.21564 268.59644Q394.6375 268.8308 393.4969 269.0027Q392.84064 269.09644 392.575 269.22144Q392.3094 269.3308 392.15314 269.54956Q392.0125 269.7683 392.0125 270.04956Q392.0125 270.47144 392.325 270.7527Q392.65314 271.03394 393.2625 271.03394Q393.8719 271.03394 394.34064 270.7683Q394.825 270.5027 395.04376 270.03394Q395.21564 269.67456 395.21564 268.98706L395.21564 268.59644ZM398.21564 271.72144L398.21564 263.1277L399.27814 263.1277L399.27814 271.72144L398.21564 271.72144ZM405.4969 269.72144L406.59064 269.84644Q406.34064 270.79956 405.6375 271.3308Q404.9344 271.86206 403.85626 271.86206Q402.4969 271.86206 401.6844 271.0183Q400.8875 270.17456 400.8875 268.65894Q400.8875 267.09644 401.7 266.23706Q402.5125 265.36206 403.79376 265.36206Q405.04376 265.36206 405.825 266.2058Q406.6219 267.04956 406.6219 268.59644Q406.6219 268.6902 406.6219 268.8777L401.98126 268.8777Q402.04376 269.90894 402.5594 270.4558Q403.075 270.98706 403.85626 270.98706Q404.4344 270.98706 404.84064 270.6902Q405.2625 270.3777 405.4969 269.72144ZM402.04376 268.0183L405.5125 268.0183Q405.45 267.22144 405.1219 266.8308Q404.60626 266.22144 403.8094 266.22144Q403.075 266.22144 402.575 266.7058Q402.09064 267.1902 402.04376 268.0183Z" fill-rule="nonzero"/><path fill="#9e9e9e" d="M378.41876 282.23706L377.3719 282.3152Q377.23126 281.6902 376.98126 281.40894Q376.54376 280.9558 375.91876 280.9558Q375.41876 280.9558 375.02814 281.23706Q374.54376 281.61206 374.2469 282.3152Q373.96564 283.0027 373.95 284.28394Q374.325 283.7058 374.8719 283.42456Q375.4344 283.1433 376.04376 283.1433Q377.09064 283.1433 377.825 283.92456Q378.575 284.7058 378.575 285.92456Q378.575 286.73706 378.21564 287.4402Q377.8719 288.1277 377.2625 288.5027Q376.65314 288.86206 375.8875 288.86206Q374.5594 288.86206 373.73126 287.8933Q372.90314 286.92456 372.90314 284.7058Q372.90314 282.2058 373.825 281.0808Q374.6219 280.09644 375.98126 280.09644Q376.9969 280.09644 377.6375 280.67456Q378.29376 281.23706 378.41876 282.23706ZM374.1219 285.9402Q374.1219 286.48706 374.34064 286.98706Q374.575 287.47144 374.98126 287.73706Q375.40314 288.0027 375.8719 288.0027Q376.52814 288.0027 377.0125 287.47144Q377.4969 286.92456 377.4969 286.0027Q377.4969 285.11206 377.0125 284.59644Q376.54376 284.0808 375.825 284.0808Q375.10626 284.0808 374.60626 284.59644Q374.1219 285.11206 374.1219 285.9402ZM379.95 286.4558L381.0125 286.3152Q381.1844 287.2058 381.6219 287.61206Q382.0594 288.0027 382.6844 288.0027Q383.4344 288.0027 383.95 287.48706Q384.46564 286.97144 384.46564 286.2058Q384.46564 285.48706 383.98126 285.0183Q383.5125 284.53394 382.77814 284.53394Q382.48126 284.53394 382.02814 284.65894L382.15314 283.72144Q382.2625 283.73706 382.325 283.73706Q382.9969 283.73706 383.52814 283.3933Q384.075 283.03394 384.075 282.29956Q384.075 281.72144 383.6844 281.34644Q383.29376 280.9558 382.66876 280.9558Q382.0594 280.9558 381.6375 281.34644Q381.23126 281.73706 381.1219 282.5027L380.0594 282.3152Q380.2469 281.2683 380.9344 280.6902Q381.6219 280.09644 382.6375 280.09644Q383.34064 280.09644 383.9344 280.40894Q384.52814 280.7058 384.84064 281.22144Q385.15314 281.73706 385.15314 282.3308Q385.15314 282.8777 384.85626 283.34644Q384.5594 283.79956 383.98126 284.0652Q384.73126 284.23706 385.15314 284.79956Q385.575 285.34644 385.575 286.1902Q385.575 287.3152 384.7469 288.09644Q383.9344 288.8777 382.6844 288.8777Q381.5594 288.8777 380.8094 288.2058Q380.0594 287.5183 379.95 286.4558ZM387.5125 288.72144L387.5125 287.5183L388.71564 287.5183L388.71564 288.72144Q388.71564 289.3777 388.48126 289.78394Q388.2469 290.2058 387.7469 290.42456L387.45 289.97144Q387.77814 289.8308 387.9344 289.53394Q388.09064 289.2527 388.1219 288.72144L387.5125 288.72144ZM389.95 286.47144L391.0594 286.3777Q391.1844 287.1902 391.6219 287.59644Q392.075 288.0027 392.71564 288.0027Q393.46564 288.0027 393.9969 287.42456Q394.52814 286.84644 394.52814 285.90894Q394.52814 285.0027 394.0125 284.48706Q393.5125 283.9558 392.6844 283.9558Q392.1844 283.9558 391.7625 284.1902Q391.35626 284.42456 391.1219 284.78394L390.1375 284.65894L390.96564 280.2527L395.2469 280.2527L395.2469 281.2527L391.8094 281.2527L391.35626 283.5652Q392.1219 283.0183 392.96564 283.0183Q394.09064 283.0183 394.85626 283.79956Q395.6375 284.5808 395.6375 285.8152Q395.6375 286.97144 394.96564 287.8308Q394.1375 288.86206 392.71564 288.86206Q391.54376 288.86206 390.79376 288.2058Q390.0594 287.54956 389.95 286.47144ZM397.15314 282.1902Q397.15314 281.2683 397.60626 280.6277Q398.075 279.98706 398.95 279.98706Q399.7625 279.98706 400.29376 280.5652Q400.825 281.1433 400.825 282.2527Q400.825 283.34644 400.27814 283.9402Q399.7469 284.5183 398.96564 284.5183Q398.1844 284.5183 397.66876 283.9402Q397.15314 283.36206 397.15314 282.1902ZM398.98126 280.7058Q398.59064 280.7058 398.325 281.04956Q398.075 281.3933 398.075 282.29956Q398.075 283.1277 398.325 283.47144Q398.59064 283.79956 398.98126 283.79956Q399.3875 283.79956 399.6375 283.4558Q399.90314 283.11206 399.90314 282.22144Q399.90314 281.3777 399.6375 281.04956Q399.3719 280.7058 398.98126 280.7058ZM398.98126 289.03394L403.6844 279.98706L404.54376 279.98706L399.85626 289.03394L398.98126 289.03394ZM402.7 286.7058Q402.7 285.78394 403.15314 285.1433Q403.6219 284.5027 404.5125 284.5027Q405.325 284.5027 405.85626 285.0808Q406.3875 285.6433 406.3875 286.7683Q406.3875 287.86206 405.84064 288.4558Q405.3094 289.03394 404.5125 289.03394Q403.7469 289.03394 403.21564 288.4558Q402.7 287.8777 402.7 286.7058ZM404.54376 285.22144Q404.1375 285.22144 403.8719 285.5652Q403.6219 285.90894 403.6219 286.8152Q403.6219 287.6277 403.8875 287.97144Q404.15314 288.3152 404.54376 288.3152Q404.9344 288.3152 405.2 287.97144Q405.46564 287.6277 405.46564 286.72144Q405.46564 285.8933 405.2 285.5652Q404.9344 285.22144 404.54376 285.22144Z" fill-rule="nonzero"/><path stroke="#757575" stroke-width="1.0" stroke-linecap="butt" d="M407.45 276.22144L344.01666 276.22144L321.28226 276.22144" fill-rule="nonzero"/><path fill="#9e9e9e" d="M323.28226 276.22144C323.28226 275.11688 322.3868 274.22144 321.28226 274.22144C320.17767 274.22144 319.28226 275.11688 319.28226 276.22144C319.28226 277.32602 320.17767 278.22144 321.28226 278.22144C322.3868 278.22144 323.28226 277.32602 323.28226 276.22144" fill-rule="nonzero"/><path fill="#999999" d="M18.534374 87.05L22.378124 77.03438L23.8 77.03438L27.909374 87.05L26.39375 87.05L25.221874 84.01875L21.034374 84.01875L19.940624 87.05L18.534374 87.05ZM21.425 82.94063L24.815624 82.94063L23.76875 80.15938Q23.3 78.89375 23.065624 78.08125Q22.878124 79.05 22.51875 79.9875L21.425 82.94063ZM30.4875 87.05L27.721874 79.78438L29.034374 79.78438L30.58125 84.14375Q30.83125 84.84688 31.05 85.59688Q31.221874 85.01875 31.503124 84.22188L33.128124 79.78438L34.39375 79.78438L31.64375 87.05L30.4875 87.05ZM40.440624 84.70625L41.721874 84.8625Q41.409374 85.9875 40.596874 86.6125Q39.784374 87.22188 38.51875 87.22188Q36.925 87.22188 35.9875 86.2375Q35.065624 85.25313 35.065624 83.4875Q35.065624 81.64375 36.003124 80.64375Q36.95625 79.62813 38.45625 79.62813Q39.909374 79.62813 40.83125 80.62813Q41.753124 81.6125 41.753124 83.40938Q41.753124 83.51875 41.753124 83.7375L36.33125 83.7375Q36.409374 84.925 37.003124 85.56563Q37.6125 86.20625 38.534374 86.20625Q39.20625 86.20625 39.675 85.84688Q40.159374 85.4875 40.440624 84.70625ZM36.409374 82.72188L40.45625 82.72188Q40.378124 81.8 39.9875 81.34688Q39.409374 80.64375 38.471874 80.64375Q37.6125 80.64375 37.034374 81.20625Q36.471874 81.76875 36.409374 82.72188ZM43.45625 87.05L43.45625 79.78438L44.565624 79.78438L44.565624 80.89375Q44.9875 80.1125 45.346874 79.87813Q45.70625 79.62813 46.14375 79.62813Q46.76875 79.62813 47.409374 80.01875L46.9875 81.15938Q46.534374 80.89375 46.08125 80.89375Q45.675 80.89375 45.346874 81.14375Q45.034374 81.37813 44.89375 81.81563Q44.690624 82.47188 44.690624 83.25313L44.690624 87.05L43.45625 87.05ZM53.20625 86.15938Q52.534374 86.7375 51.89375 86.9875Q51.26875 87.22188 50.534374 87.22188Q49.346874 87.22188 48.690624 86.64375Q48.05 86.05 48.05 85.12813Q48.05 84.59688 48.284374 84.15938Q48.534374 83.72188 48.925 83.45625Q49.33125 83.19063 49.815624 83.05Q50.175 82.95625 50.909374 82.8625Q52.409374 82.69063 53.1125 82.44063Q53.1125 82.19063 53.1125 82.12813Q53.1125 81.3625 52.76875 81.06563Q52.3 80.64375 51.3625 80.64375Q50.503124 80.64375 50.08125 80.95625Q49.675 81.25313 49.471874 82.01875L48.26875 81.8625Q48.425 81.08125 48.8 80.6125Q49.190624 80.14375 49.89375 79.89375Q50.6125 79.62813 51.55 79.62813Q52.471874 79.62813 53.05 79.84688Q53.628124 80.06563 53.89375 80.39375Q54.175 80.72188 54.284374 81.2375Q54.346874 81.55 54.346874 82.3625L54.346874 84.00313Q54.346874 85.72188 54.425 86.175Q54.503124 86.62813 54.7375 87.05L53.45625 87.05Q53.26875 86.65938 53.20625 86.15938ZM53.1125 83.40938Q52.440624 83.675 51.096874 83.87813Q50.346874 83.9875 50.01875 84.12813Q49.70625 84.25313 49.534374 84.51875Q49.3625 84.78438 49.3625 85.09688Q49.3625 85.59688 49.7375 85.925Q50.1125 86.25313 50.83125 86.25313Q51.55 86.25313 52.096874 85.94063Q52.64375 85.62813 52.909374 85.08125Q53.1125 84.675 53.1125 83.8625L53.1125 83.40938ZM56.253124 87.65938L57.440624 87.83125Q57.51875 88.37813 57.8625 88.64375Q58.315624 88.97188 59.1125 88.97188Q59.971874 88.97188 60.425 88.62813Q60.89375 88.3 61.065624 87.675Q61.159374 87.3 61.14375 86.09688Q60.346874 87.05 59.14375 87.05Q57.64375 87.05 56.815624 85.97188Q56.003124 84.89375 56.003124 83.37813Q56.003124 82.34688 56.378124 81.47188Q56.753124 80.58125 57.45625 80.1125Q58.175 79.62813 59.14375 79.62813Q60.425 79.62813 61.26875 80.65938L61.26875 79.78438L62.39375 79.78438L62.39375 86.06563Q62.39375 87.76875 62.05 88.47188Q61.70625 89.175 60.95625 89.58125Q60.20625 90.00313 59.1125 90.00313Q57.815624 90.00313 57.01875 89.40938Q56.221874 88.83125 56.253124 87.65938ZM57.26875 83.28438Q57.26875 84.72188 57.83125 85.37813Q58.39375 86.03438 59.253124 86.03438Q60.096874 86.03438 60.675 85.37813Q61.253124 84.72188 61.253124 83.33125Q61.253124 82.00313 60.659374 81.33125Q60.065624 80.64375 59.2375 80.64375Q58.409374 80.64375 57.83125 81.31563Q57.26875 81.97188 57.26875 83.28438ZM69.44063 84.70625L70.72188 84.8625Q70.40938 85.9875 69.59688 86.6125Q68.78438 87.22188 67.51875 87.22188Q65.925 87.22188 64.9875 86.2375Q64.06563 85.25313 64.06563 83.4875Q64.06563 81.64375 65.00313 80.64375Q65.95625 79.62813 67.45625 79.62813Q68.90938 79.62813 69.83125 80.62813Q70.75313 81.6125 70.75313 83.40938Q70.75313 83.51875 70.75313 83.7375L65.33125 83.7375Q65.40938 84.925 66.00313 85.56563Q66.6125 86.20625 67.53438 86.20625Q68.20625 86.20625 68.675 85.84688Q69.15938 85.4875 69.44063 84.70625ZM65.40938 82.72188L69.45625 82.72188Q69.37813 81.8 68.9875 81.34688Q68.40938 80.64375 67.47188 80.64375Q66.6125 80.64375 66.03438 81.20625Q65.47188 81.76875 65.40938 82.72188ZM76.01875 83.425Q76.01875 81.40938 77.14375 80.425Q78.06563 79.62813 79.425 79.62813Q80.90938 79.62813 81.8625 80.6125Q82.81563 81.58125 82.81563 83.31563Q82.81563 84.72188 82.39375 85.53438Q81.97188 86.33125 81.15938 86.78438Q80.3625 87.22188 79.425 87.22188Q77.89375 87.22188 76.95625 86.2375Q76.01875 85.25313 76.01875 83.425ZM77.28438 83.425Q77.28438 84.81563 77.89375 85.51875Q78.50313 86.20625 79.425 86.20625Q80.33125 86.20625 80.94063 85.50313Q81.55 84.8 81.55 83.37813Q81.55 82.03438 80.94063 81.34688Q80.33125 80.64375 79.425 80.64375Q78.50313 80.64375 77.89375 81.33125Q77.28438 82.01875 77.28438 83.425ZM84.47188 87.05L84.47188 79.78438L85.58125 79.78438L85.58125 80.81563Q86.37813 79.62813 87.89375 79.62813Q88.55 79.62813 89.09688 79.8625Q89.64375 80.09688 89.90938 80.4875Q90.19063 80.8625 90.3 81.39375Q90.37813 81.7375 90.37813 82.58125L90.37813 87.05L89.14375 87.05L89.14375 82.62813Q89.14375 81.87813 89.00313 81.51875Q88.8625 81.14375 88.4875 80.925Q88.12813 80.69063 87.62813 80.69063Q86.84688 80.69063 86.26875 81.19063Q85.70625 81.69063 85.70625 83.08125L85.70625 87.05L84.47188 87.05ZM99.15938 85.95625L99.33125 87.03438Q98.81563 87.14375 98.40938 87.14375Q97.7375 87.14375 97.3625 86.94063Q97.00313 86.72188 96.84688 86.37813Q96.70625 86.03438 96.70625 84.925L96.70625 80.75313L95.8 80.75313L95.8 79.78438L96.70625 79.78438L96.70625 77.9875L97.925 77.25313L97.925 79.78438L99.15938 79.78438L99.15938 80.75313L97.925 80.75313L97.925 84.9875Q97.925 85.51875 97.9875 85.675Q98.05 85.81563 98.19063 85.90938Q98.34688 86.00313 98.6125 86.00313Q98.83125 86.00313 99.15938 85.95625ZM100.47188 87.05L100.47188 77.03438L101.70625 77.03438L101.70625 80.62813Q102.56563 79.62813 103.87813 79.62813Q104.69063 79.62813 105.28438 79.95625Q105.87813 80.26875 106.12813 80.83125Q106.39375 81.37813 106.39375 82.45625L106.39375 87.05L105.15938 87.05L105.15938 82.45625Q105.15938 81.51875 104.75313 81.1125Q104.3625 80.69063 103.62813 80.69063Q103.08125 80.69063 102.59688 80.97188Q102.1125 81.25313 101.90938 81.7375Q101.70625 82.22188 101.70625 83.08125L101.70625 87.05L100.47188 87.05ZM113.44063 84.70625L114.72188 84.8625Q114.40938 85.9875 113.59688 86.6125Q112.78438 87.22188 111.51875 87.22188Q109.925 87.22188 108.9875 86.2375Q108.06563 85.25313 108.06563 83.4875Q108.06563 81.64375 109.00313 80.64375Q109.95625 79.62813 111.45625 79.62813Q112.90938 79.62813 113.83125 80.62813Q114.75313 81.6125 114.75313 83.40938Q114.75313 83.51875 114.75313 83.7375L109.33125 83.7375Q109.40938 84.925 110.00313 85.56563Q110.6125 86.20625 111.53438 86.20625Q112.20625 86.20625 112.675 85.84688Q113.15938 85.4875 113.44063 84.70625ZM109.40938 82.72188L113.45625 82.72188Q113.37813 81.8 112.9875 81.34688Q112.40938 80.64375 111.47188 80.64375Q110.6125 80.64375 110.03438 81.20625Q109.47188 81.76875 109.40938 82.72188ZM120.47188 89.83125L120.47188 79.78438L121.59688 79.78438L121.59688 80.7375Q121.9875 80.175 122.4875 79.90938Q122.9875 79.62813 123.70625 79.62813Q124.62813 79.62813 125.33125 80.1125Q126.05 80.58125 126.40938 81.45625Q126.76875 82.33125 126.76875 83.3625Q126.76875 84.47188 126.3625 85.37813Q125.97188 86.26875 125.20625 86.75313Q124.45625 87.22188 123.6125 87.22188Q123.00313 87.22188 122.50313 86.95625Q122.01875 86.69063 121.70625 86.3L121.70625 89.83125L120.47188 89.83125ZM121.58125 83.45625Q121.58125 84.8625 122.14375 85.53438Q122.72188 86.20625 123.53438 86.20625Q124.34688 86.20625 124.925 85.51875Q125.51875 84.81563 125.51875 83.3625Q125.51875 81.97188 124.94063 81.28438Q124.37813 80.59688 123.58125 80.59688Q122.8 80.59688 122.19063 81.33125Q121.58125 82.06563 121.58125 83.45625ZM133.44063 84.70625L134.72188 84.8625Q134.40938 85.9875 133.59688 86.6125Q132.78438 87.22188 131.51875 87.22188Q129.925 87.22188 128.9875 86.2375Q128.06563 85.25313 128.06563 83.4875Q128.06563 81.64375 129.00313 80.64375Q129.95625 79.62813 131.45625 79.62813Q132.90938 79.62813 133.83125 80.62813Q134.75313 81.6125 134.75313 83.40938Q134.75313 83.51875 134.75313 83.7375L129.33125 83.7375Q129.40938 84.925 130.00313 85.56563Q130.6125 86.20625 131.53438 86.20625Q132.20625 86.20625 132.675 85.84688Q133.15938 85.4875 133.44063 84.70625ZM129.40938 82.72188L133.45625 82.72188Q133.37813 81.8 132.9875 81.34688Q132.40938 80.64375 131.47188 80.64375Q130.6125 80.64375 130.03438 81.20625Q129.47188 81.76875 129.40938 82.72188ZM136.45625 87.05L136.45625 79.78438L137.56563 79.78438L137.56563 80.89375Q137.9875 80.1125 138.34688 79.87813Q138.70625 79.62813 139.14375 79.62813Q139.76875 79.62813 140.40938 80.01875L139.9875 81.15938Q139.53438 80.89375 139.08125 80.89375Q138.675 80.89375 138.34688 81.14375Q138.03438 81.37813 137.89375 81.81563Q137.69063 82.47188 137.69063 83.25313L137.69063 87.05L136.45625 87.05ZM141.4875 78.44063L141.4875 77.03438L142.70625 77.03438L142.70625 78.44063L141.4875 78.44063ZM141.4875 87.05L141.4875 79.78438L142.70625 79.78438L142.70625 87.05L141.4875 87.05ZM144.01875 83.425Q144.01875 81.40938 145.14375 80.425Q146.06563 79.62813 147.425 79.62813Q148.90938 79.62813 149.8625 80.6125Q150.81563 81.58125 150.81563 83.31563Q150.81563 84.72188 150.39375 85.53438Q149.97188 86.33125 149.15938 86.78438Q148.3625 87.22188 147.425 87.22188Q145.89375 87.22188 144.95625 86.2375Q144.01875 85.25313 144.01875 83.425ZM145.28438 83.425Q145.28438 84.81563 145.89375 85.51875Q146.50313 86.20625 147.425 86.20625Q148.33125 86.20625 148.94063 85.50313Q149.55 84.8 149.55 83.37813Q149.55 82.03438 148.94063 81.34688Q148.33125 80.64375 147.425 80.64375Q146.50313 80.64375 145.89375 81.33125Q145.28438 82.01875 145.28438 83.425ZM157.19063 87.05L157.19063 86.12813Q156.4875 87.22188 155.15938 87.22188Q154.28438 87.22188 153.55 86.7375Q152.83125 86.25313 152.425 85.39375Q152.03438 84.53438 152.03438 83.425Q152.03438 82.34688 152.39375 81.45625Q152.75313 80.56563 153.47188 80.09688Q154.20625 79.62813 155.09688 79.62813Q155.75313 79.62813 156.26875 79.90938Q156.78438 80.175 157.09688 80.62813L157.09688 77.03438L158.33125 77.03438L158.33125 87.05L157.19063 87.05ZM153.3 83.425Q153.3 84.81563 153.87813 85.51875Q154.47188 86.20625 155.26875 86.20625Q156.08125 86.20625 156.64375 85.55Q157.20625 84.87813 157.20625 83.53438Q157.20625 82.03438 156.62813 81.34688Q156.05 80.64375 155.22188 80.64375Q154.39375 80.64375 153.84688 81.31563Q153.3 81.9875 153.3 83.425ZM164.01875 83.425Q164.01875 81.40938 165.14375 80.425Q166.06563 79.62813 167.425 79.62813Q168.90938 79.62813 169.8625 80.6125Q170.81563 81.58125 170.81563 83.31563Q170.81563 84.72188 170.39375 85.53438Q169.97188 86.33125 169.15938 86.78438Q168.3625 87.22188 167.425 87.22188Q165.89375 87.22188 164.95625 86.2375Q164.01875 85.25313 164.01875 83.425ZM165.28438 83.425Q165.28438 84.81563 165.89375 85.51875Q166.50313 86.20625 167.425 86.20625Q168.33125 86.20625 168.94063 85.50313Q169.55 84.8 169.55 83.37813Q169.55 82.03438 168.94063 81.34688Q168.33125 80.64375 167.425 80.64375Q166.50313 80.64375 165.89375 81.33125Q165.28438 82.01875 165.28438 83.425ZM172.76875 87.05L172.76875 80.75313L171.675 80.75313L171.675 79.78438L172.76875 79.78438L172.76875 79.01875Q172.76875 78.28438 172.89375 77.925Q173.08125 77.45625 173.51875 77.15938Q173.97188 76.8625 174.78438 76.8625Q175.3 76.8625 175.925 76.9875L175.7375 78.05Q175.3625 77.9875 175.01875 77.9875Q174.45625 77.9875 174.22188 78.22188Q173.9875 78.45625 173.9875 79.1125L173.9875 79.78438L175.40938 79.78438L175.40938 80.75313L173.9875 80.75313L173.9875 87.05L172.76875 87.05ZM186.59688 85.8625L186.59688 87.05L179.97188 87.05Q179.95625 86.6125 180.1125 86.19063Q180.37813 85.51875 180.925 84.8625Q181.4875 84.20625 182.53438 83.34688Q184.175 82.00313 184.7375 81.22188Q185.31563 80.44063 185.31563 79.7375Q185.31563 79.00313 184.78438 78.50313Q184.26875 78.00313 183.44063 78.00313Q182.55 78.00313 182.00313 78.53438Q181.47188 79.06563 181.47188 80.01875L180.20625 79.87813Q180.33125 78.47188 181.175 77.7375Q182.03438 76.9875 183.45625 76.9875Q184.90938 76.9875 185.7375 77.78438Q186.58125 78.58125 186.58125 79.76875Q186.58125 80.37813 186.33125 80.95625Q186.09688 81.53438 185.51875 82.175Q184.95625 82.81563 183.62813 83.94063Q182.51875 84.8625 182.20625 85.20625Q181.89375 85.53438 181.69063 85.8625L186.59688 85.8625ZM188.12813 82.1125Q188.12813 80.33125 188.4875 79.25313Q188.8625 78.15938 189.58125 77.58125Q190.3 76.9875 191.39375 76.9875Q192.20625 76.9875 192.81563 77.31563Q193.425 77.64375 193.81563 78.25313Q194.22188 78.8625 194.44063 79.7375Q194.65938 80.6125 194.65938 82.1125Q194.65938 83.87813 194.3 84.95625Q193.94063 86.03438 193.22188 86.62813Q192.50313 87.22188 191.39375 87.22188Q189.95625 87.22188 189.12813 86.175Q188.12813 84.925 188.12813 82.1125ZM189.39375 82.1125Q189.39375 84.58125 189.97188 85.39375Q190.55 86.20625 191.39375 86.20625Q192.25313 86.20625 192.83125 85.39375Q193.40938 84.56563 193.40938 82.1125Q193.40938 79.62813 192.83125 78.81563Q192.25313 78.00313 191.37813 78.00313Q190.53438 78.00313 190.03438 78.72188Q189.39375 79.64375 189.39375 82.1125ZM200.76875 87.05L199.53438 87.05L199.53438 79.20625Q199.09688 79.62813 198.3625 80.06563Q197.64375 80.4875 197.08125 80.69063L197.08125 79.50313Q198.1125 79.01875 198.87813 78.33125Q199.65938 77.64375 199.97188 76.9875L200.76875 76.9875L200.76875 87.05ZM204.12813 82.1125Q204.12813 80.33125 204.4875 79.25313Q204.8625 78.15938 205.58125 77.58125Q206.3 76.9875 207.39375 76.9875Q208.20625 76.9875 208.81563 77.31563Q209.425 77.64375 209.81563 78.25313Q210.22188 78.8625 210.44063 79.7375Q210.65938 80.6125 210.65938 82.1125Q210.65938 83.87813 210.3 84.95625Q209.94063 86.03438 209.22188 86.62813Q208.50313 87.22188 207.39375 87.22188Q205.95625 87.22188 205.12813 86.175Q204.12813 84.925 204.12813 82.1125ZM205.39375 82.1125Q205.39375 84.58125 205.97188 85.39375Q206.55 86.20625 207.39375 86.20625Q208.25313 86.20625 208.83125 85.39375Q209.40938 84.56563 209.40938 82.1125Q209.40938 79.62813 208.83125 78.81563Q208.25313 78.00313 207.37813 78.00313Q206.53438 78.00313 206.03438 78.72188Q205.39375 79.64375 205.39375 82.1125ZM215.9875 84.03438L215.9875 82.8L219.76875 82.8L219.76875 84.03438L215.9875 84.03438ZM231.59688 85.8625L231.59688 87.05L224.97188 87.05Q224.95625 86.6125 225.1125 86.19063Q225.37813 85.51875 225.925 84.8625Q226.4875 84.20625 227.53438 83.34688Q229.175 82.00313 229.7375 81.22188Q230.31563 80.44063 230.31563 79.7375Q230.31563 79.00313 229.78438 78.50313Q229.26875 78.00313 228.44063 78.00313Q227.55 78.00313 227.00313 78.53438Q226.47188 79.06563 226.47188 80.01875L225.20625 79.87813Q225.33125 78.47188 226.175 77.7375Q227.03438 76.9875 228.45625 76.9875Q229.90938 76.9875 230.7375 77.78438Q231.58125 78.58125 231.58125 79.76875Q231.58125 80.37813 231.33125 80.95625Q231.09688 81.53438 230.51875 82.175Q229.95625 82.81563 228.62813 83.94063Q227.51875 84.8625 227.20625 85.20625Q226.89375 85.53438 226.69063 85.8625L231.59688 85.8625ZM233.12813 82.1125Q233.12813 80.33125 233.4875 79.25313Q233.8625 78.15938 234.58125 77.58125Q235.3 76.9875 236.39375 76.9875Q237.20625 76.9875 237.81563 77.31563Q238.425 77.64375 238.81563 78.25313Q239.22188 78.8625 239.44063 79.7375Q239.65938 80.6125 239.65938 82.1125Q239.65938 83.87813 239.3 84.95625Q238.94063 86.03438 238.22188 86.62813Q237.50313 87.22188 236.39375 87.22188Q234.95625 87.22188 234.12813 86.175Q233.12813 84.925 233.12813 82.1125ZM234.39375 82.1125Q234.39375 84.58125 234.97188 85.39375Q235.55 86.20625 236.39375 86.20625Q237.25313 86.20625 237.83125 85.39375Q238.40938 84.56563 238.40938 82.1125Q238.40938 79.62813 237.83125 78.81563Q237.25313 78.00313 236.37813 78.00313Q235.53438 78.00313 235.03438 78.72188Q234.39375 79.64375 234.39375 82.1125ZM247.59688 85.8625L247.59688 87.05L240.97188 87.05Q240.95625 86.6125 241.1125 86.19063Q241.37813 85.51875 241.925 84.8625Q242.4875 84.20625 243.53438 83.34688Q245.175 82.00313 245.7375 81.22188Q246.31563 80.44063 246.31563 79.7375Q246.31563 79.00313 245.78438 78.50313Q245.26875 78.00313 244.44063 78.00313Q243.55 78.00313 243.00313 78.53438Q242.47188 79.06563 242.47188 80.01875L241.20625 79.87813Q241.33125 78.47188 242.175 77.7375Q243.03438 76.9875 244.45625 76.9875Q245.90938 76.9875 246.7375 77.78438Q247.58125 78.58125 247.58125 79.76875Q247.58125 80.37813 247.33125 80.95625Q247.09688 81.53438 246.51875 82.175Q245.95625 82.81563 244.62813 83.94063Q243.51875 84.8625 243.20625 85.20625Q242.89375 85.53438 242.69063 85.8625L247.59688 85.8625ZM255.59688 85.8625L255.59688 87.05L248.97188 87.05Q248.95625 86.6125 249.1125 86.19063Q249.37813 85.51875 249.925 84.8625Q250.4875 84.20625 251.53438 83.34688Q253.175 82.00313 253.7375 81.22188Q254.31563 80.44063 254.31563 79.7375Q254.31563 79.00313 253.78438 78.50313Q253.26875 78.00313 252.44063 78.00313Q251.55 78.00313 251.00313 78.53438Q250.47188 79.06563 250.47188 80.01875L249.20625 79.87813Q249.33125 78.47188 250.175 77.7375Q251.03438 76.9875 252.45625 76.9875Q253.90938 76.9875 254.7375 77.78438Q255.58125 78.58125 255.58125 79.76875Q255.58125 80.37813 255.33125 80.95625Q255.09688 81.53438 254.51875 82.175Q253.95625 82.81563 252.62813 83.94063Q251.51875 84.8625 251.20625 85.20625Q250.89375 85.53438 250.69063 85.8625L255.59688 85.8625Z" fill-rule="nonzero"/><path fill="#757575" d="M12.42925 37.55L17.929249 23.2375L19.976124 23.2375L25.835499 37.55L23.679249 37.55L22.007374 33.20625L16.022999 33.20625L14.444875 37.55L12.42925 37.55ZM16.569874 31.675L21.413624 31.675L19.929249 27.70625Q19.241749 25.89375 18.913624 24.7375Q18.632374 26.1125 18.132374 27.471874L16.569874 31.675ZM29.663624 37.55L25.710499 27.175L27.569874 27.175L29.804249 33.39375Q30.163624 34.39375 30.460499 35.471874Q30.694874 34.659374 31.116749 33.503124L33.413624 27.175L35.226124 27.175L31.304249 37.55L29.663624 37.55ZM42.882374 34.20625L44.694874 34.440624Q44.273 36.01875 43.101124 36.909374Q41.944874 37.784374 40.132374 37.784374Q37.86675 37.784374 36.523 36.39375Q35.194874 34.9875 35.194874 32.45625Q35.194874 29.83125 36.538624 28.39375Q37.882374 26.940624 40.038624 26.940624Q42.11675 26.940624 43.42925 28.3625Q44.757374 29.76875 44.757374 32.346874Q44.757374 32.503124 44.74175 32.815624L37.007374 32.815624Q37.101124 34.51875 37.976124 35.425Q38.851124 36.33125 40.148 36.33125Q41.11675 36.33125 41.788624 35.83125Q42.476124 35.315624 42.882374 34.20625ZM37.101124 31.3625L42.898 31.3625Q42.788624 30.065624 42.24175 29.409374Q41.398 28.39375 40.05425 28.39375Q38.851124 28.39375 38.023 29.20625Q37.194874 30.003124 37.101124 31.3625ZM46.757374 37.55L46.757374 27.175L48.3355 27.175L48.3355 28.753124Q48.944874 27.64375 49.4605 27.3Q49.976124 26.940624 50.5855 26.940624Q51.476124 26.940624 52.398 27.503124L51.788624 29.14375Q51.148 28.753124 50.507374 28.753124Q49.92925 28.753124 49.4605 29.1125Q49.007374 29.45625 48.80425 30.065624Q48.523 31.003124 48.523 32.1125L48.523 37.55L46.757374 37.55ZM60.55425 36.26875Q59.569874 37.096874 58.663624 37.440624Q57.757374 37.784374 56.726124 37.784374Q55.023 37.784374 54.101124 36.95625Q53.17925 36.1125 53.17925 34.815624Q53.17925 34.05 53.523 33.425Q53.882374 32.8 54.444874 32.425Q55.007374 32.034374 55.7105 31.83125Q56.226124 31.70625 57.273 31.565624Q59.398 31.315624 60.398 30.971874Q60.413624 30.6125 60.413624 30.503124Q60.413624 29.440624 59.913624 28.9875Q59.24175 28.39375 57.913624 28.39375Q56.663624 28.39375 56.069874 28.83125Q55.49175 29.26875 55.2105 30.378124L53.49175 30.14375Q53.726124 29.034374 54.257374 28.3625Q54.788624 27.675 55.80425 27.315624Q56.819874 26.940624 58.163624 26.940624Q59.49175 26.940624 60.319874 27.253124Q61.148 27.565624 61.538624 28.05Q61.92925 28.51875 62.0855 29.2375Q62.17925 29.690624 62.17925 30.8625L62.17925 33.20625Q62.17925 35.659374 62.288624 36.315624Q62.398 36.95625 62.74175 37.55L60.898 37.55Q60.632374 37.003124 60.55425 36.26875ZM60.398 32.346874Q59.444874 32.7375 57.523 33.003124Q56.444874 33.159374 55.99175 33.3625Q55.55425 33.55 55.30425 33.925Q55.05425 34.3 55.05425 34.76875Q55.05425 35.471874 55.5855 35.940624Q56.11675 36.409374 57.148 36.409374Q58.163624 36.409374 58.944874 35.971874Q59.74175 35.51875 60.11675 34.753124Q60.398 34.14375 60.398 32.9875L60.398 32.346874ZM64.460495 38.409374L66.16362 38.659374Q66.272995 39.45625 66.75737 39.815624Q67.41362 40.3 68.554245 40.3Q69.772995 40.3 70.429245 39.815624Q71.10112 39.33125 71.335495 38.45625Q71.47612 37.909374 71.460495 36.190624Q70.304245 37.55 68.585495 37.55Q66.44487 37.55 65.272995 36.003124Q64.10112 34.45625 64.10112 32.3Q64.10112 30.815624 64.63237 29.565624Q65.179245 28.315624 66.19487 27.628124Q67.22612 26.940624 68.60112 26.940624Q70.429245 26.940624 71.63237 28.425L71.63237 27.175L73.241745 27.175L73.241745 36.14375Q73.241745 38.565624 72.741745 39.565624Q72.25737 40.58125 71.179245 41.159374Q70.116745 41.753124 68.554245 41.753124Q66.710495 41.753124 65.554245 40.925Q64.41362 40.096874 64.460495 38.409374ZM65.91362 32.175Q65.91362 34.221874 66.72612 35.159374Q67.53862 36.096874 68.75737 36.096874Q69.960495 36.096874 70.772995 35.159374Q71.60112 34.221874 71.60112 32.2375Q71.60112 30.33125 70.75737 29.3625Q69.91362 28.39375 68.72612 28.39375Q67.554245 28.39375 66.72612 29.346874Q65.91362 30.3 65.91362 32.175ZM82.88238 34.20625L84.69488 34.440624Q84.273 36.01875 83.10113 36.909374Q81.94488 37.784374 80.13238 37.784374Q77.86675 37.784374 76.523 36.39375Q75.19488 34.9875 75.19488 32.45625Q75.19488 29.83125 76.53863 28.39375Q77.88238 26.940624 80.03863 26.940624Q82.11675 26.940624 83.42925 28.3625Q84.75738 29.76875 84.75738 32.346874Q84.75738 32.503124 84.74175 32.815624L77.00738 32.815624Q77.10113 34.51875 77.97613 35.425Q78.85113 36.33125 80.148 36.33125Q81.11675 36.33125 81.78863 35.83125Q82.47613 35.315624 82.88238 34.20625ZM77.10113 31.3625L82.898 31.3625Q82.78863 30.065624 82.24175 29.409374Q81.398 28.39375 80.05425 28.39375Q78.85113 28.39375 78.023 29.20625Q77.19488 30.003124 77.10113 31.3625ZM99.50738 37.55L99.50738 36.2375Q98.523 37.784374 96.60113 37.784374Q95.36675 37.784374 94.31988 37.096874Q93.28863 36.409374 92.7105 35.190624Q92.148 33.971874 92.148 32.378124Q92.148 30.815624 92.66363 29.55Q93.17925 28.284374 94.2105 27.6125Q95.25738 26.940624 96.523 26.940624Q97.4605 26.940624 98.19488 27.346874Q98.92925 27.7375 99.398 28.3625L99.398 23.2375L101.13238 23.2375L101.13238 37.55L99.50738 37.55ZM93.94488 32.378124Q93.94488 34.3625 94.78863 35.346874Q95.63238 36.33125 96.773 36.33125Q97.92925 36.33125 98.72613 35.39375Q99.53863 34.45625 99.53863 32.51875Q99.53863 30.39375 98.7105 29.39375Q97.898 28.39375 96.69488 28.39375Q95.523 28.39375 94.72613 29.3625Q93.94488 30.315624 93.94488 32.378124ZM103.78863 25.253124L103.78863 23.2375L105.55425 23.2375L105.55425 25.253124L103.78863 25.253124ZM103.78863 37.55L103.78863 27.175L105.55425 27.175L105.55425 37.55L103.78863 37.55ZM107.06988 34.45625L108.81988 34.175Q108.9605 35.221874 109.63238 35.784374Q110.30425 36.33125 111.50738 36.33125Q112.7105 36.33125 113.28863 35.846874Q113.88238 35.346874 113.88238 34.690624Q113.88238 34.096874 113.36675 33.753124Q113.00738 33.51875 111.56988 33.159374Q109.63238 32.659374 108.88238 32.315624Q108.148 31.95625 107.75738 31.33125Q107.36675 30.690624 107.36675 29.925Q107.36675 29.2375 107.67925 28.64375Q108.00738 28.05 108.55425 27.659374Q108.9605 27.3625 109.66363 27.159374Q110.38238 26.940624 111.19488 26.940624Q112.41363 26.940624 113.3355 27.3Q114.25738 27.64375 114.69488 28.253124Q115.13238 28.846874 115.30425 29.846874L113.5855 30.08125Q113.4605 29.284374 112.898 28.846874Q112.3355 28.39375 111.31988 28.39375Q110.10113 28.39375 109.5855 28.8Q109.06988 29.190624 109.06988 29.721874Q109.06988 30.065624 109.28863 30.346874Q109.49175 30.628124 109.9605 30.815624Q110.22613 30.909374 111.50738 31.253124Q113.38238 31.753124 114.11675 32.08125Q114.85113 32.39375 115.273 33.003124Q115.69488 33.596874 115.69488 34.503124Q115.69488 35.378124 115.17925 36.159374Q114.66363 36.940624 113.69488 37.3625Q112.72613 37.784374 111.50738 37.784374Q109.49175 37.784374 108.42925 36.940624Q107.36675 36.096874 107.06988 34.45625ZM121.61675 35.971874L121.86675 37.534374Q121.13238 37.690624 120.53863 37.690624Q119.5855 37.690624 119.05425 37.39375Q118.53863 37.08125 118.31988 36.596874Q118.10113 36.096874 118.10113 34.51875L118.10113 28.55L116.81988 28.55L116.81988 27.175L118.10113 27.175L118.10113 24.6125L119.85113 23.55L119.85113 27.175L121.61675 27.175L121.61675 28.55L119.85113 28.55L119.85113 34.6125Q119.85113 35.3625 119.94488 35.58125Q120.03863 35.784374 120.24175 35.925Q120.4605 36.05 120.85113 36.05Q121.13238 36.05 121.61675 35.971874ZM123.75738 37.55L123.75738 27.175L125.3355 27.175L125.3355 28.753124Q125.94488 27.64375 126.4605 27.3Q126.97613 26.940624 127.5855 26.940624Q128.47614 26.940624 129.39801 27.503124L128.78864 29.14375Q128.14801 28.753124 127.50738 28.753124Q126.92925 28.753124 126.4605 29.1125Q126.00738 29.45625 125.80425 30.065624Q125.523 31.003124 125.523 32.1125L125.523 37.55L123.75738 37.55ZM130.78862 25.253124L130.78862 23.2375L132.55424 23.2375L132.55424 25.253124L130.78862 25.253124ZM130.78862 37.55L130.78862 27.175L132.55424 27.175L132.55424 37.55L130.78862 37.55ZM136.398 37.55L134.773 37.55L134.773 23.2375L136.523 23.2375L136.523 28.346874Q137.648 26.940624 139.36674 26.940624Q140.31987 26.940624 141.17924 27.33125Q142.03862 27.721874 142.5855 28.425Q143.13237 29.1125 143.44487 30.096874Q143.75737 31.08125 143.75737 32.20625Q143.75737 34.878124 142.44487 36.33125Q141.13237 37.784374 139.28862 37.784374Q137.44487 37.784374 136.398 36.253124L136.398 37.55ZM136.38237 32.284374Q136.38237 34.14375 136.88237 34.9875Q137.72612 36.33125 139.13237 36.33125Q140.28862 36.33125 141.11674 35.33125Q141.9605 34.33125 141.9605 32.346874Q141.9605 30.315624 141.148 29.3625Q140.35112 28.39375 139.2105 28.39375Q138.05424 28.39375 137.2105 29.39375Q136.38237 30.39375 136.38237 32.284374ZM152.56987 37.55L152.56987 36.01875Q151.36674 37.784374 149.28862 37.784374Q148.36674 37.784374 147.56987 37.440624Q146.773 37.08125 146.38237 36.55Q146.00737 36.01875 145.85112 35.2375Q145.74174 34.721874 145.74174 33.596874L145.74174 27.175L147.49174 27.175L147.49174 32.925Q147.49174 34.3 147.60112 34.784374Q147.773 35.471874 148.30424 35.878124Q148.85112 36.26875 149.63237 36.26875Q150.42924 36.26875 151.11674 35.8625Q151.81987 35.45625 152.10112 34.76875Q152.398 34.065624 152.398 32.7375L152.398 27.175L154.148 27.175L154.148 37.55L152.56987 37.55ZM159.61674 35.971874L159.86674 37.534374Q159.13237 37.690624 158.53862 37.690624Q157.5855 37.690624 157.05424 37.39375Q156.53862 37.08125 156.31987 36.596874Q156.10112 36.096874 156.10112 34.51875L156.10112 28.55L154.81987 28.55L154.81987 27.175L156.10112 27.175L156.10112 24.6125L157.85112 23.55L157.85112 27.175L159.61674 27.175L159.61674 28.55L157.85112 28.55L157.85112 34.6125Q157.85112 35.3625 157.94487 35.58125Q158.03862 35.784374 158.24174 35.925Q158.4605 36.05 158.85112 36.05Q159.13237 36.05 159.61674 35.971874ZM161.78862 25.253124L161.78862 23.2375L163.55424 23.2375L163.55424 25.253124L161.78862 25.253124ZM161.78862 37.55L161.78862 27.175L163.55424 27.175L163.55424 37.55L161.78862 37.55ZM165.13237 32.3625Q165.13237 29.4875 166.72612 28.096874Q168.06987 26.940624 169.99174 26.940624Q172.13237 26.940624 173.47612 28.346874Q174.8355 29.753124 174.8355 32.221874Q174.8355 34.221874 174.24174 35.378124Q173.648 36.51875 172.49174 37.159374Q171.35112 37.784374 169.99174 37.784374Q167.80424 37.784374 166.4605 36.39375Q165.13237 34.9875 165.13237 32.3625ZM166.92924 32.3625Q166.92924 34.3625 167.78862 35.346874Q168.66362 36.33125 169.99174 36.33125Q171.30424 36.33125 172.16362 35.346874Q173.03862 34.346874 173.03862 32.3Q173.03862 30.378124 172.16362 29.39375Q171.28862 28.39375 169.99174 28.39375Q168.66362 28.39375 167.78862 29.39375Q166.92924 30.378124 166.92924 32.3625ZM176.773 37.55L176.773 27.175L178.36674 27.175L178.36674 28.659374Q179.50737 26.940624 181.66362 26.940624Q182.60112 26.940624 183.38237 27.284374Q184.17924 27.6125 184.56987 28.159374Q184.9605 28.70625 185.11674 29.45625Q185.2105 29.95625 185.2105 31.175L185.2105 37.55L183.44487 37.55L183.44487 31.2375Q183.44487 30.159374 183.24174 29.628124Q183.03862 29.096874 182.50737 28.784374Q181.99174 28.471874 181.28862 28.471874Q180.16362 28.471874 179.35112 29.190624Q178.53862 29.89375 178.53862 31.878124L178.53862 37.55L176.773 37.55ZM192.13237 32.3625Q192.13237 29.4875 193.72612 28.096874Q195.06987 26.940624 196.99174 26.940624Q199.13237 26.940624 200.47612 28.346874Q201.8355 29.753124 201.8355 32.221874Q201.8355 34.221874 201.24174 35.378124Q200.648 36.51875 199.49174 37.159374Q198.35112 37.784374 196.99174 37.784374Q194.80424 37.784374 193.4605 36.39375Q192.13237 34.9875 192.13237 32.3625ZM193.92924 32.3625Q193.92924 34.3625 194.78862 35.346874Q195.66362 36.33125 196.99174 36.33125Q198.30424 36.33125 199.16362 35.346874Q200.03862 34.346874 200.03862 32.3Q200.03862 30.378124 199.16362 29.39375Q198.28862 28.39375 196.99174 28.39375Q195.66362 28.39375 194.78862 29.39375Q193.92924 30.378124 193.92924 32.3625ZM204.19487 37.55L204.19487 28.55L202.648 28.55L202.648 27.175L204.19487 27.175L204.19487 26.08125Q204.19487 25.034374 204.38237 24.51875Q204.63237 23.83125 205.273 23.409374Q205.91362 22.9875 207.06987 22.9875Q207.81987 22.9875 208.7105 23.159374L208.44487 24.690624Q207.898 24.596874 207.41362 24.596874Q206.61674 24.596874 206.273 24.940624Q205.94487 25.284374 205.94487 26.221874L205.94487 27.175L207.97612 27.175L207.97612 28.55L205.94487 28.55L205.94487 37.55L204.19487 37.55ZM215.06987 34.45625L216.81987 34.175Q216.9605 35.221874 217.63237 35.784374Q218.30424 36.33125 219.50737 36.33125Q220.7105 36.33125 221.28862 35.846874Q221.88237 35.346874 221.88237 34.690624Q221.88237 34.096874 221.36674 33.753124Q221.00737 33.51875 219.56987 33.159374Q217.63237 32.659374 216.88237 32.315624Q216.148 31.95625 215.75737 31.33125Q215.36674 30.690624 215.36674 29.925Q215.36674 29.2375 215.67924 28.64375Q216.00737 28.05 216.55424 27.659374Q216.9605 27.3625 217.66362 27.159374Q218.38237 26.940624 219.19487 26.940624Q220.41362 26.940624 221.3355 27.3Q222.25737 27.64375 222.69487 28.253124Q223.13237 28.846874 223.30424 29.846874L221.5855 30.08125Q221.4605 29.284374 220.898 28.846874Q220.3355 28.39375 219.31987 28.39375Q218.10112 28.39375 217.5855 28.8Q217.06987 29.190624 217.06987 29.721874Q217.06987 30.065624 217.28862 30.346874Q217.49174 30.628124 217.9605 30.815624Q218.22612 30.909374 219.50737 31.253124Q221.38237 31.753124 222.11674 32.08125Q222.85112 32.39375 223.273 33.003124Q223.69487 33.596874 223.69487 34.503124Q223.69487 35.378124 223.17924 36.159374Q222.66362 36.940624 221.69487 37.3625Q220.72612 37.784374 219.50737 37.784374Q217.49174 37.784374 216.42924 36.940624Q215.36674 36.096874 215.06987 34.45625ZM232.56987 37.55L232.56987 36.01875Q231.36674 37.784374 229.28862 37.784374Q228.36674 37.784374 227.56987 37.440624Q226.773 37.08125 226.38237 36.55Q226.00737 36.01875 225.85112 35.2375Q225.74174 34.721874 225.74174 33.596874L225.74174 27.175L227.49174 27.175L227.49174 32.925Q227.49174 34.3 227.60112 34.784374Q227.773 35.471874 228.30424 35.878124Q228.85112 36.26875 229.63237 36.26875Q230.42924 36.26875 231.11674 35.8625Q231.81987 35.45625 232.10112 34.76875Q232.398 34.065624 232.398 32.7375L232.398 27.175L234.148 27.175L234.148 37.55L232.56987 37.55ZM242.55424 33.753124L244.273 33.971874Q243.99174 35.76875 242.81987 36.784374Q241.66362 37.784374 239.9605 37.784374Q237.8355 37.784374 236.53862 36.39375Q235.24174 35.003124 235.24174 32.409374Q235.24174 30.721874 235.78862 29.471874Q236.35112 28.20625 237.49174 27.58125Q238.63237 26.940624 239.97612 26.940624Q241.66362 26.940624 242.72612 27.8Q243.80424 28.659374 244.11674 30.221874L242.398 30.4875Q242.16362 29.440624 241.53862 28.925Q240.91362 28.39375 240.03862 28.39375Q238.7105 28.39375 237.88237 29.346874Q237.05424 30.3 237.05424 32.346874Q237.05424 34.440624 237.85112 35.39375Q238.648 36.33125 239.94487 36.33125Q240.97612 36.33125 241.66362 35.70625Q242.36674 35.065624 242.55424 33.753124ZM252.55424 33.753124L254.273 33.971874Q253.99174 35.76875 252.81987 36.784374Q251.66362 37.784374 249.9605 37.784374Q247.8355 37.784374 246.53862 36.39375Q245.24174 35.003124 245.24174 32.409374Q245.24174 30.721874 245.78862 29.471874Q246.35112 28.20625 247.49174 27.58125Q248.63237 26.940624 249.97612 26.940624Q251.66362 26.940624 252.72612 27.8Q253.80424 28.659374 254.11674 30.221874L252.398 30.4875Q252.16362 29.440624 251.53862 28.925Q250.91362 28.39375 250.03862 28.39375Q248.7105 28.39375 247.88237 29.346874Q247.05424 30.3 247.05424 32.346874Q247.05424 34.440624 247.85112 35.39375Q248.648 36.33125 249.94487 36.33125Q250.97612 36.33125 251.66362 35.70625Q252.36674 35.065624 252.55424 33.753124ZM262.8824 34.20625L264.6949 34.440624Q264.273 36.01875 263.10114 36.909374Q261.9449 37.784374 260.1324 37.784374Q257.86676 37.784374 256.523 36.39375Q255.19487 34.9875 255.19487 32.45625Q255.19487 29.83125 256.53864 28.39375Q257.8824 26.940624 260.03864 26.940624Q262.11676 26.940624 263.42926 28.3625Q264.7574 29.76875 264.7574 32.346874Q264.7574 32.503124 264.74176 32.815624L257.0074 32.815624Q257.10114 34.51875 257.97614 35.425Q258.85114 36.33125 260.148 36.33125Q261.11676 36.33125 261.78864 35.83125Q262.47614 35.315624 262.8824 34.20625ZM257.10114 31.3625L262.898 31.3625Q262.78864 30.065624 262.24176 29.409374Q261.398 28.39375 260.05426 28.39375Q258.85114 28.39375 258.023 29.20625Q257.1949 30.003124 257.10114 31.3625ZM266.0699 34.45625L267.8199 34.175Q267.9605 35.221874 268.6324 35.784374Q269.30426 36.33125 270.5074 36.33125Q271.7105 36.33125 272.28864 35.846874Q272.8824 35.346874 272.8824 34.690624Q272.8824 34.096874 272.36676 33.753124Q272.0074 33.51875 270.5699 33.159374Q268.6324 32.659374 267.8824 32.315624Q267.148 31.95625 266.7574 31.33125Q266.36676 30.690624 266.36676 29.925Q266.36676 29.2375 266.67926 28.64375Q267.0074 28.05 267.55426 27.659374Q267.9605 27.3625 268.66364 27.159374Q269.3824 26.940624 270.1949 26.940624Q271.41364 26.940624 272.3355 27.3Q273.2574 27.64375 273.6949 28.253124Q274.1324 28.846874 274.30426 29.846874L272.5855 30.08125Q272.4605 29.284374 271.898 28.846874Q271.3355 28.39375 270.3199 28.39375Q269.10114 28.39375 268.5855 28.8Q268.0699 29.190624 268.0699 29.721874Q268.0699 30.065624 268.28864 30.346874Q268.49176 30.628124 268.9605 30.815624Q269.22614 30.909374 270.5074 31.253124Q272.3824 31.753124 273.11676 32.08125Q273.85114 32.39375 274.273 33.003124Q274.6949 33.596874 274.6949 34.503124Q274.6949 35.378124 274.17926 36.159374Q273.66364 36.940624 272.6949 37.3625Q271.72614 37.784374 270.5074 37.784374Q268.49176 37.784374 267.42926 36.940624Q266.36676 36.096874 266.0699 34.45625ZM276.0699 34.45625L277.8199 34.175Q277.9605 35.221874 278.6324 35.784374Q279.30426 36.33125 280.5074 36.33125Q281.7105 36.33125 282.28864 35.846874Q282.8824 35.346874 282.8824 34.690624Q282.8824 34.096874 282.36676 33.753124Q282.0074 33.51875 280.5699 33.159374Q278.6324 32.659374 277.8824 32.315624Q277.148 31.95625 276.7574 31.33125Q276.36676 30.690624 276.36676 29.925Q276.36676 29.2375 276.67926 28.64375Q277.0074 28.05 277.55426 27.659374Q277.9605 27.3625 278.66364 27.159374Q279.3824 26.940624 280.1949 26.940624Q281.41364 26.940624 282.3355 27.3Q283.2574 27.64375 283.6949 28.253124Q284.1324 28.846874 284.30426 29.846874L282.5855 30.08125Q282.4605 29.284374 281.898 28.846874Q281.3355 28.39375 280.3199 28.39375Q279.10114 28.39375 278.5855 28.8Q278.0699 29.190624 278.0699 29.721874Q278.0699 30.065624 278.28864 30.346874Q278.49176 30.628124 278.9605 30.815624Q279.22614 30.909374 280.5074 31.253124Q282.3824 31.753124 283.11676 32.08125Q283.85114 32.39375 284.273 33.003124Q284.6949 33.596874 284.6949 34.503124Q284.6949 35.378124 284.17926 36.159374Q283.66364 36.940624 282.6949 37.3625Q281.72614 37.784374 280.5074 37.784374Q278.49176 37.784374 277.42926 36.940624Q276.36676 36.096874 276.0699 34.45625ZM292.7574 37.55L292.7574 27.175L294.3355 27.175L294.3355 28.753124Q294.9449 27.64375 295.4605 27.3Q295.97614 26.940624 296.5855 26.940624Q297.47614 26.940624 298.398 27.503124L297.78864 29.14375Q297.148 28.753124 296.5074 28.753124Q295.92926 28.753124 295.4605 29.1125Q295.0074 29.45625 294.80426 30.065624Q294.523 31.003124 294.523 32.1125L294.523 37.55L292.7574 37.55ZM306.55426 36.26875Q305.5699 37.096874 304.66364 37.440624Q303.7574 37.784374 302.72614 37.784374Q301.023 37.784374 300.10114 36.95625Q299.17926 36.1125 299.17926 34.815624Q299.17926 34.05 299.523 33.425Q299.8824 32.8 300.4449 32.425Q301.0074 32.034374 301.7105 31.83125Q302.22614 31.70625 303.273 31.565624Q305.398 31.315624 306.398 30.971874Q306.41364 30.6125 306.41364 30.503124Q306.41364 29.440624 305.91364 28.9875Q305.24176 28.39375 303.91364 28.39375Q302.66364 28.39375 302.0699 28.83125Q301.49176 29.26875 301.2105 30.378124L299.49176 30.14375Q299.72614 29.034374 300.2574 28.3625Q300.78864 27.675 301.80426 27.315624Q302.8199 26.940624 304.16364 26.940624Q305.49176 26.940624 306.3199 27.253124Q307.148 27.565624 307.53864 28.05Q307.92926 28.51875 308.0855 29.2375Q308.17926 29.690624 308.17926 30.8625L308.17926 33.20625Q308.17926 35.659374 308.28864 36.315624Q308.398 36.95625 308.74176 37.55L306.898 37.55Q306.6324 37.003124 306.55426 36.26875ZM306.398 32.346874Q305.4449 32.7375 303.523 33.003124Q302.4449 33.159374 301.99176 33.3625Q301.55426 33.55 301.30426 33.925Q301.05426 34.3 301.05426 34.76875Q301.05426 35.471874 301.5855 35.940624Q302.11676 36.409374 303.148 36.409374Q304.16364 36.409374 304.9449 35.971874Q305.74176 35.51875 306.11676 34.753124Q306.398 34.14375 306.398 32.9875L306.398 32.346874ZM314.61676 35.971874L314.86676 37.534374Q314.1324 37.690624 313.53864 37.690624Q312.5855 37.690624 312.05426 37.39375Q311.53864 37.08125 311.3199 36.596874Q311.10114 36.096874 311.10114 34.51875L311.10114 28.55L309.8199 28.55L309.8199 27.175L311.10114 27.175L311.10114 24.6125L312.85114 23.55L312.85114 27.175L314.61676 27.175L314.61676 28.55L312.85114 28.55L312.85114 34.6125Q312.85114 35.3625 312.9449 35.58125Q313.03864 35.784374 313.24176 35.925Q313.4605 36.05 313.85114 36.05Q314.1324 36.05 314.61676 35.971874ZM323.8824 34.20625L325.6949 34.440624Q325.273 36.01875 324.10114 36.909374Q322.9449 37.784374 321.1324 37.784374Q318.86676 37.784374 317.523 36.39375Q316.1949 34.9875 316.1949 32.45625Q316.1949 29.83125 317.53864 28.39375Q318.8824 26.940624 321.03864 26.940624Q323.11676 26.940624 324.42926 28.3625Q325.7574 29.76875 325.7574 32.346874Q325.7574 32.503124 325.74176 32.815624L318.0074 32.815624Q318.10114 34.51875 318.97614 35.425Q319.85114 36.33125 321.148 36.33125Q322.11676 36.33125 322.78864 35.83125Q323.47614 35.315624 323.8824 34.20625ZM318.10114 31.3625L323.898 31.3625Q323.78864 30.065624 323.24176 29.409374Q322.398 28.39375 321.05426 28.39375Q319.85114 28.39375 319.023 29.20625Q318.1949 30.003124 318.10114 31.3625ZM327.0699 34.45625L328.8199 34.175Q328.9605 35.221874 329.6324 35.784374Q330.30426 36.33125 331.5074 36.33125Q332.7105 36.33125 333.28864 35.846874Q333.8824 35.346874 333.8824 34.690624Q333.8824 34.096874 333.36676 33.753124Q333.0074 33.51875 331.5699 33.159374Q329.6324 32.659374 328.8824 32.315624Q328.148 31.95625 327.7574 31.33125Q327.36676 30.690624 327.36676 29.925Q327.36676 29.2375 327.67926 28.64375Q328.0074 28.05 328.55426 27.659374Q328.9605 27.3625 329.66364 27.159374Q330.3824 26.940624 331.1949 26.940624Q332.41364 26.940624 333.3355 27.3Q334.2574 27.64375 334.6949 28.253124Q335.1324 28.846874 335.30426 29.846874L333.5855 30.08125Q333.4605 29.284374 332.898 28.846874Q332.3355 28.39375 331.3199 28.39375Q330.10114 28.39375 329.5855 28.8Q329.0699 29.190624 329.0699 29.721874Q329.0699 30.065624 329.28864 30.346874Q329.49176 30.628124 329.9605 30.815624Q330.22614 30.909374 331.5074 31.253124Q333.3824 31.753124 334.11676 32.08125Q334.85114 32.39375 335.273 33.003124Q335.6949 33.596874 335.6949 34.503124Q335.6949 35.378124 335.17926 36.159374Q334.66364 36.940624 333.6949 37.3625Q332.72614 37.784374 331.5074 37.784374Q329.49176 37.784374 328.42926 36.940624Q327.36676 36.096874 327.0699 34.45625Z" fill-rule="nonzero"/><path fill="#757575" d="M15.398 61.55L13.773 61.55L13.773 47.2375L15.523 47.2375L15.523 52.346874Q16.647999 50.940624 18.366749 50.940624Q19.319874 50.940624 20.179249 51.33125Q21.038624 51.721874 21.585499 52.425Q22.132374 53.1125 22.444874 54.096874Q22.757374 55.08125 22.757374 56.20625Q22.757374 58.878124 21.444874 60.33125Q20.132374 61.784374 18.288624 61.784374Q16.444874 61.784374 15.398 60.253124L15.398 61.55ZM15.382375 56.284374Q15.382375 58.14375 15.882375 58.9875Q16.726124 60.33125 18.132374 60.33125Q19.288624 60.33125 20.116749 59.33125Q20.960499 58.33125 20.960499 56.346874Q20.960499 54.315624 20.147999 53.3625Q19.351124 52.39375 18.210499 52.39375Q17.054249 52.39375 16.210499 53.39375Q15.382375 54.39375 15.382375 56.284374ZM31.882374 58.20625L33.694874 58.440624Q33.273 60.01875 32.101124 60.909374Q30.944874 61.784374 29.132374 61.784374Q26.866749 61.784374 25.522999 60.39375Q24.194874 58.9875 24.194874 56.45625Q24.194874 53.83125 25.538624 52.39375Q26.882374 50.940624 29.038624 50.940624Q31.116749 50.940624 32.42925 52.3625Q33.757374 53.76875 33.757374 56.346874Q33.757374 56.503124 33.74175 56.815624L26.007374 56.815624Q26.101124 58.51875 26.976124 59.425Q27.851124 60.33125 29.147999 60.33125Q30.116749 60.33125 30.788624 59.83125Q31.476124 59.315624 31.882374 58.20625ZM26.101124 55.3625L31.897999 55.3625Q31.788624 54.065624 31.241749 53.409374Q30.397999 52.39375 29.054249 52.39375Q27.851124 52.39375 27.022999 53.20625Q26.194874 54.003124 26.101124 55.3625ZM39.61675 59.971874L39.86675 61.534374Q39.132374 61.690624 38.538624 61.690624Q37.5855 61.690624 37.05425 61.39375Q36.538624 61.08125 36.319874 60.596874Q36.101124 60.096874 36.101124 58.51875L36.101124 52.55L34.819874 52.55L34.819874 51.175L36.101124 51.175L36.101124 48.6125L37.851124 47.55L37.851124 51.175L39.61675 51.175L39.61675 52.55L37.851124 52.55L37.851124 58.6125Q37.851124 59.3625 37.944874 59.58125Q38.038624 59.784374 38.24175 59.925Q38.4605 60.05 38.851124 60.05Q39.132374 60.05 39.61675 59.971874ZM43.694874 61.55L40.523 51.175L42.3355 51.175L43.99175 57.159374L44.601124 59.39375Q44.648 59.221874 45.132374 57.253124L46.788624 51.175L48.601124 51.175L50.148 57.190624L50.663624 59.175L51.257374 57.175L53.038624 51.175L54.74175 51.175L51.507374 61.55L49.67925 61.55L48.023 55.33125L47.632374 53.565624L45.523 61.55L43.694874 61.55ZM63.882374 58.20625L65.69487 58.440624Q65.272995 60.01875 64.10112 60.909374Q62.944874 61.784374 61.132374 61.784374Q58.86675 61.784374 57.523 60.39375Q56.194874 58.9875 56.194874 56.45625Q56.194874 53.83125 57.538624 52.39375Q58.882374 50.940624 61.038624 50.940624Q63.11675 50.940624 64.429245 52.3625Q65.75737 53.76875 65.75737 56.346874Q65.75737 56.503124 65.741745 56.815624L58.007374 56.815624Q58.101124 58.51875 58.976124 59.425Q59.851124 60.33125 61.148 60.33125Q62.11675 60.33125 62.788624 59.83125Q63.476124 59.315624 63.882374 58.20625ZM58.101124 55.3625L63.898 55.3625Q63.788624 54.065624 63.24175 53.409374Q62.398 52.39375 61.05425 52.39375Q59.851124 52.39375 59.023 53.20625Q58.194874 54.003124 58.101124 55.3625ZM74.88238 58.20625L76.69488 58.440624Q76.273 60.01875 75.10113 60.909374Q73.94488 61.784374 72.13238 61.784374Q69.86675 61.784374 68.523 60.39375Q67.19488 58.9875 67.19488 56.45625Q67.19488 53.83125 68.53863 52.39375Q69.88238 50.940624 72.03863 50.940624Q74.11675 50.940624 75.42925 52.3625Q76.75738 53.76875 76.75738 56.346874Q76.75738 56.503124 76.74175 56.815624L69.00738 56.815624Q69.10113 58.51875 69.97613 59.425Q70.85113 60.33125 72.148 60.33125Q73.11675 60.33125 73.78863 59.83125Q74.47613 59.315624 74.88238 58.20625ZM69.10113 55.3625L74.898 55.3625Q74.78863 54.065624 74.24175 53.409374Q73.398 52.39375 72.05425 52.39375Q70.85113 52.39375 70.023 53.20625Q69.19488 54.003124 69.10113 55.3625ZM78.773 61.55L78.773 51.175L80.36675 51.175L80.36675 52.659374Q81.50738 50.940624 83.66363 50.940624Q84.60113 50.940624 85.38238 51.284374Q86.17925 51.6125 86.56988 52.159374Q86.9605 52.70625 87.11675 53.45625Q87.2105 53.95625 87.2105 55.175L87.2105 61.55L85.44488 61.55L85.44488 55.2375Q85.44488 54.159374 85.24175 53.628124Q85.03863 53.096874 84.50738 52.784374Q83.99175 52.471874 83.28863 52.471874Q82.16363 52.471874 81.35113 53.190624Q80.53863 53.89375 80.53863 55.878124L80.53863 61.55L78.773 61.55ZM101.50738 61.55L101.50738 60.2375Q100.523 61.784374 98.60113 61.784374Q97.36675 61.784374 96.31988 61.096874Q95.28863 60.409374 94.7105 59.190624Q94.148 57.971874 94.148 56.378124Q94.148 54.815624 94.66363 53.55Q95.17925 52.284374 96.2105 51.6125Q97.25738 50.940624 98.523 50.940624Q99.4605 50.940624 100.19488 51.346874Q100.92925 51.7375 101.398 52.3625L101.398 47.2375L103.13238 47.2375L103.13238 61.55L101.50738 61.55ZM95.94488 56.378124Q95.94488 58.3625 96.78863 59.346874Q97.63238 60.33125 98.773 60.33125Q99.92925 60.33125 100.72613 59.39375Q101.53863 58.45625 101.53863 56.51875Q101.53863 54.39375 100.7105 53.39375Q99.898 52.39375 98.69488 52.39375Q97.523 52.39375 96.72613 53.3625Q95.94488 54.315624 95.94488 56.378124ZM105.78863 49.253124L105.78863 47.2375L107.55425 47.2375L107.55425 49.253124L105.78863 49.253124ZM105.78863 61.55L105.78863 51.175L107.55425 51.175L107.55425 61.55L105.78863 61.55ZM110.19488 61.55L110.19488 52.55L108.648 52.55L108.648 51.175L110.19488 51.175L110.19488 50.08125Q110.19488 49.034374 110.38238 48.51875Q110.63238 47.83125 111.273 47.409374Q111.91363 46.9875 113.06988 46.9875Q113.81988 46.9875 114.7105 47.159374L114.44488 48.690624Q113.898 48.596874 113.41363 48.596874Q112.61675 48.596874 112.273 48.940624Q111.94488 49.284374 111.94488 50.221874L111.94488 51.175L113.97613 51.175L113.97613 52.55L111.94488 52.55L111.94488 61.55L110.19488 61.55ZM116.19488 61.55L116.19488 52.55L114.648 52.55L114.648 51.175L116.19488 51.175L116.19488 50.08125Q116.19488 49.034374 116.38238 48.51875Q116.63238 47.83125 117.273 47.409374Q117.91363 46.9875 119.06988 46.9875Q119.81988 46.9875 120.7105 47.159374L120.44488 48.690624Q119.898 48.596874 119.41363 48.596874Q118.61675 48.596874 118.273 48.940624Q117.94488 49.284374 117.94488 50.221874L117.94488 51.175L119.97613 51.175L119.97613 52.55L117.94488 52.55L117.94488 61.55L116.19488 61.55ZM128.88239 58.20625L130.69489 58.440624Q130.27301 60.01875 129.10114 60.909374Q127.94488 61.784374 126.13238 61.784374Q123.86675 61.784374 122.523 60.39375Q121.19488 58.9875 121.19488 56.45625Q121.19488 53.83125 122.53863 52.39375Q123.88238 50.940624 126.03863 50.940624Q128.11676 50.940624 129.42926 52.3625Q130.75739 53.76875 130.75739 56.346874Q130.75739 56.503124 130.74176 56.815624L123.00738 56.815624Q123.10113 58.51875 123.97613 59.425Q124.85113 60.33125 126.148 60.33125Q127.11675 60.33125 127.78863 59.83125Q128.47614 59.315624 128.88239 58.20625ZM123.10113 55.3625L128.89801 55.3625Q128.78864 54.065624 128.24176 53.409374Q127.398 52.39375 126.05425 52.39375Q124.85113 52.39375 124.023 53.20625Q123.19488 54.003124 123.10113 55.3625ZM132.75737 61.55L132.75737 51.175L134.3355 51.175L134.3355 52.753124Q134.94487 51.64375 135.4605 51.3Q135.97612 50.940624 136.5855 50.940624Q137.47612 50.940624 138.398 51.503124L137.78862 53.14375Q137.148 52.753124 136.50737 52.753124Q135.92924 52.753124 135.4605 53.1125Q135.00737 53.45625 134.80424 54.065624Q134.523 55.003124 134.523 56.1125L134.523 61.55L132.75737 61.55ZM146.88237 58.20625L148.69487 58.440624Q148.273 60.01875 147.10112 60.909374Q145.94487 61.784374 144.13237 61.784374Q141.86674 61.784374 140.523 60.39375Q139.19487 58.9875 139.19487 56.45625Q139.19487 53.83125 140.53862 52.39375Q141.88237 50.940624 144.03862 50.940624Q146.11674 50.940624 147.42924 52.3625Q148.75737 53.76875 148.75737 56.346874Q148.75737 56.503124 148.74174 56.815624L141.00737 56.815624Q141.10112 58.51875 141.97612 59.425Q142.85112 60.33125 144.148 60.33125Q145.11674 60.33125 145.78862 59.83125Q146.47612 59.315624 146.88237 58.20625ZM141.10112 55.3625L146.898 55.3625Q146.78862 54.065624 146.24174 53.409374Q145.398 52.39375 144.05424 52.39375Q142.85112 52.39375 142.023 53.20625Q141.19487 54.003124 141.10112 55.3625ZM150.773 61.55L150.773 51.175L152.36674 51.175L152.36674 52.659374Q153.50737 50.940624 155.66362 50.940624Q156.60112 50.940624 157.38237 51.284374Q158.17924 51.6125 158.56987 52.159374Q158.9605 52.70625 159.11674 53.45625Q159.2105 53.95625 159.2105 55.175L159.2105 61.55L157.44487 61.55L157.44487 55.2375Q157.44487 54.159374 157.24174 53.628124Q157.03862 53.096874 156.50737 52.784374Q155.99174 52.471874 155.28862 52.471874Q154.16362 52.471874 153.35112 53.190624Q152.53862 53.89375 152.53862 55.878124L152.53862 61.55L150.773 61.55ZM164.61674 59.971874L164.86674 61.534374Q164.13237 61.690624 163.53862 61.690624Q162.5855 61.690624 162.05424 61.39375Q161.53862 61.08125 161.31987 60.596874Q161.10112 60.096874 161.10112 58.51875L161.10112 52.55L159.81987 52.55L159.81987 51.175L161.10112 51.175L161.10112 48.6125L162.85112 47.55L162.85112 51.175L164.61674 51.175L164.61674 52.55L162.85112 52.55L162.85112 58.6125Q162.85112 59.3625 162.94487 59.58125Q163.03862 59.784374 163.24174 59.925Q163.4605 60.05 163.85112 60.05Q164.13237 60.05 164.61674 59.971874ZM172.06987 58.45625L173.81987 58.175Q173.9605 59.221874 174.63237 59.784374Q175.30424 60.33125 176.50737 60.33125Q177.7105 60.33125 178.28862 59.846874Q178.88237 59.346874 178.88237 58.690624Q178.88237 58.096874 178.36674 57.753124Q178.00737 57.51875 176.56987 57.159374Q174.63237 56.659374 173.88237 56.315624Q173.148 55.95625 172.75737 55.33125Q172.36674 54.690624 172.36674 53.925Q172.36674 53.2375 172.67924 52.64375Q173.00737 52.05 173.55424 51.659374Q173.9605 51.3625 174.66362 51.159374Q175.38237 50.940624 176.19487 50.940624Q177.41362 50.940624 178.3355 51.3Q179.25737 51.64375 179.69487 52.253124Q180.13237 52.846874 180.30424 53.846874L178.5855 54.08125Q178.4605 53.284374 177.898 52.846874Q177.3355 52.39375 176.31987 52.39375Q175.10112 52.39375 174.5855 52.8Q174.06987 53.190624 174.06987 53.721874Q174.06987 54.065624 174.28862 54.346874Q174.49174 54.628124 174.9605 54.815624Q175.22612 54.909374 176.50737 55.253124Q178.38237 55.753124 179.11674 56.08125Q179.85112 56.39375 180.273 57.003124Q180.69487 57.596874 180.69487 58.503124Q180.69487 59.378124 180.17924 60.159374Q179.66362 60.940624 178.69487 61.3625Q177.72612 61.784374 176.50737 61.784374Q174.49174 61.784374 173.42924 60.940624Q172.36674 60.096874 172.06987 58.45625ZM189.88237 58.20625L191.69487 58.440624Q191.273 60.01875 190.10112 60.909374Q188.94487 61.784374 187.13237 61.784374Q184.86674 61.784374 183.523 60.39375Q182.19487 58.9875 182.19487 56.45625Q182.19487 53.83125 183.53862 52.39375Q184.88237 50.940624 187.03862 50.940624Q189.11674 50.940624 190.42924 52.3625Q191.75737 53.76875 191.75737 56.346874Q191.75737 56.503124 191.74174 56.815624L184.00737 56.815624Q184.10112 58.51875 184.97612 59.425Q185.85112 60.33125 187.148 60.33125Q188.11674 60.33125 188.78862 59.83125Q189.47612 59.315624 189.88237 58.20625ZM184.10112 55.3625L189.898 55.3625Q189.78862 54.065624 189.24174 53.409374Q188.398 52.39375 187.05424 52.39375Q185.85112 52.39375 185.023 53.20625Q184.19487 54.003124 184.10112 55.3625ZM192.60112 61.55L196.398 56.159374L192.898 51.175L195.0855 51.175L196.67924 53.6125Q197.13237 54.3 197.398 54.76875Q197.8355 54.128124 198.19487 53.628124L199.94487 51.175L202.03862 51.175L198.4605 56.065624L202.31987 61.55L200.16362 61.55L198.023 58.33125L197.4605 57.45625L194.74174 61.55L192.60112 61.55ZM209.88237 58.20625L211.69487 58.440624Q211.273 60.01875 210.10112 60.909374Q208.94487 61.784374 207.13237 61.784374Q204.86674 61.784374 203.523 60.39375Q202.19487 58.9875 202.19487 56.45625Q202.19487 53.83125 203.53862 52.39375Q204.88237 50.940624 207.03862 50.940624Q209.11674 50.940624 210.42924 52.3625Q211.75737 53.76875 211.75737 56.346874Q211.75737 56.503124 211.74174 56.815624L204.00737 56.815624Q204.10112 58.51875 204.97612 59.425Q205.85112 60.33125 207.148 60.33125Q208.11674 60.33125 208.78862 59.83125Q209.47612 59.315624 209.88237 58.20625ZM204.10112 55.3625L209.898 55.3625Q209.78862 54.065624 209.24174 53.409374Q208.398 52.39375 207.05424 52.39375Q205.85112 52.39375 205.023 53.20625Q204.19487 54.003124 204.10112 55.3625ZM213.06987 58.45625L214.81987 58.175Q214.9605 59.221874 215.63237 59.784374Q216.30424 60.33125 217.50737 60.33125Q218.7105 60.33125 219.28862 59.846874Q219.88237 59.346874 219.88237 58.690624Q219.88237 58.096874 219.36674 57.753124Q219.00737 57.51875 217.56987 57.159374Q215.63237 56.659374 214.88237 56.315624Q214.148 55.95625 213.75737 55.33125Q213.36674 54.690624 213.36674 53.925Q213.36674 53.2375 213.67924 52.64375Q214.00737 52.05 214.55424 51.659374Q214.9605 51.3625 215.66362 51.159374Q216.38237 50.940624 217.19487 50.940624Q218.41362 50.940624 219.3355 51.3Q220.25737 51.64375 220.69487 52.253124Q221.13237 52.846874 221.30424 53.846874L219.5855 54.08125Q219.4605 53.284374 218.898 52.846874Q218.3355 52.39375 217.31987 52.39375Q216.10112 52.39375 215.5855 52.8Q215.06987 53.190624 215.06987 53.721874Q215.06987 54.065624 215.28862 54.346874Q215.49174 54.628124 215.9605 54.815624Q216.22612 54.909374 217.50737 55.253124Q219.38237 55.753124 220.11674 56.08125Q220.85112 56.39375 221.273 57.003124Q221.69487 57.596874 221.69487 58.503124Q221.69487 59.378124 221.17924 60.159374Q220.66362 60.940624 219.69487 61.3625Q218.72612 61.784374 217.50737 61.784374Q215.49174 61.784374 214.42924 60.940624Q213.36674 60.096874 213.06987 58.45625Z" fill-rule="nonzero"/></svg>