<svg version="1.1" viewBox="0.0 0.0 264.0 367.0" fill="none" stroke="none" stroke-linecap="square" stroke-miterlimit="10" width="264" height="367" xmlns:xlink="http://www.w3.org/1999/xlink" xmlns="http://www.w3.org/2000/svg"><path fill="#ffffff" d="M0 0L264.0 0L264.0 367.0L0 367.0L0 0Z" fill-rule="nonzero"/><path stroke="#000000" stroke-width="1.0" stroke-linecap="butt" stroke-opacity="0.0" d="M35.5 305.5L242.5 305.5" fill-rule="nonzero"/><path stroke="#000000" stroke-width="1.0" stroke-linecap="butt" stroke-opacity="0.0" d="M35.5 261.5L242.5 261.5" fill-rule="nonzero"/><path stroke="#000000" stroke-width="1.0" stroke-linecap="butt" stroke-opacity="0.0" d="M35.5 218.5L242.5 218.5" fill-rule="nonzero"/><path stroke="#000000" stroke-width="1.0" stroke-linecap="butt" stroke-opacity="0.0" d="M35.5 175.5L242.5 175.5" fill-rule="nonzero"/><path stroke="#000000" stroke-width="1.0" stroke-linecap="butt" stroke-opacity="0.0" d="M35.5 132.5L242.5 132.5" fill-rule="nonzero"/><path stroke="#000000" stroke-width="1.0" stroke-linecap="butt" d="M242.5 326.5L35.5 326.5" fill-rule="nonzero"/><clipPath id="id_0"><path d="M35.31373 110.45541L242.09361 110.45541L242.09361 326.87692L35.31373 326.87692L35.31373 110.45541Z" clip-rule="nonzero"/></clipPath><path stroke="#5f9dd6" stroke-width="2.0" stroke-linecap="butt" clip-path="url(#id_0)" d="M35.31373 270.30432L52.545387 272.77155L69.77705 237.32169L87.008705 241.34714L104.24036 224.76924L121.472015 147.63661L138.70367 175.98784L155.93533 159.36667L173.16699 163.21896L190.39865 170.92357L207.63031 155.3845L224.86195 207.8018L242.09361 190.22838" fill-rule="nonzero"/><path stroke="#073763" stroke-width="2.0" stroke-linecap="butt" stroke-opacity="0.7019608" clip-path="url(#id_0)" d="M0 265.6938L242.09361 153.32256" fill-rule="nonzero"/><path fill="#5f9dd6" clip-path="url(#id_0)" d="M35.31373 270.30432C35.31373 270.30432 35.31373 270.30432 35.31373 270.30432C35.31373 270.30432 35.31373 270.30432 35.31373 270.30432C35.31373 270.30432 35.31373 270.30432 35.31373 270.30432C35.31373 270.30432 35.31373 270.30432 35.31373 270.30432Z" fill-rule="nonzero"/><path fill="#5f9dd6" clip-path="url(#id_0)" d="M52.545387 272.77155C52.545387 272.77155 52.545387 272.77155 52.545387 272.77155C52.545387 272.77155 52.545387 272.77155 52.545387 272.77155C52.545387 272.77155 52.545387 272.77155 52.545387 272.77155C52.545387 272.77155 52.545387 272.77155 52.545387 272.77155Z" fill-rule="nonzero"/><path fill="#5f9dd6" clip-path="url(#id_0)" d="M69.77705 237.32169C69.77705 237.32169 69.77705 237.32169 69.77705 237.32169C69.77705 237.32169 69.77705 237.32169 69.77705 237.32169C69.77705 237.32169 69.77705 237.32169 69.77705 237.32169C69.77705 237.32169 69.77705 237.32169 69.77705 237.32169Z" fill-rule="nonzero"/><path fill="#5f9dd6" clip-path="url(#id_0)" d="M87.008705 241.34714C87.008705 241.34714 87.008705 241.34714 87.008705 241.34714C87.008705 241.34714 87.008705 241.34714 87.008705 241.34714C87.008705 241.34714 87.008705 241.34714 87.008705 241.34714C87.008705 241.34714 87.008705 241.34714 87.008705 241.34714Z" fill-rule="nonzero"/><path fill="#5f9dd6" clip-path="url(#id_0)" d="M104.24036 224.76924C104.24036 224.76924 104.24036 224.76924 104.24036 224.76924C104.24036 224.76924 104.24036 224.76924 104.24036 224.76924C104.24036 224.76924 104.24036 224.76924 104.24036 224.76924C104.24036 224.76924 104.24036 224.76924 104.24036 224.76924Z" fill-rule="nonzero"/><path fill="#5f9dd6" clip-path="url(#id_0)" d="M121.472015 147.63661C121.472015 147.63661 121.472015 147.63661 121.472015 147.63661C121.472015 147.63661 121.472015 147.63661 121.472015 147.63661C121.472015 147.63661 121.472015 147.63661 121.472015 147.63661C121.472015 147.63661 121.472015 147.63661 121.472015 147.63661Z" fill-rule="nonzero"/><path fill="#5f9dd6" clip-path="url(#id_0)" d="M138.70367 175.98784C138.70367 175.98784 138.70367 175.98784 138.70367 175.98784C138.70367 175.98784 138.70367 175.98784 138.70367 175.98784C138.70367 175.98784 138.70367 175.98784 138.70367 175.98784C138.70367 175.98784 138.70367 175.98784 138.70367 175.98784Z" fill-rule="nonzero"/><path fill="#5f9dd6" clip-path="url(#id_0)" d="M155.93533 159.36667C155.93533 159.36667 155.93533 159.36667 155.93533 159.36667C155.93533 159.36667 155.93533 159.36667 155.93533 159.36667C155.93533 159.36667 155.93533 159.36667 155.93533 159.36667C155.93533 159.36667 155.93533 159.36667 155.93533 159.36667Z" fill-rule="nonzero"/><path fill="#5f9dd6" clip-path="url(#id_0)" d="M173.16699 163.21896C173.16699 163.21896 173.16699 163.21896 173.16699 163.21896C173.16699 163.21896 173.16699 163.21896 173.16699 163.21896C173.16699 163.21896 173.16699 163.21896 173.16699 163.21896C173.16699 163.21896 173.16699 163.21896 173.16699 163.21896Z" fill-rule="nonzero"/><path fill="#5f9dd6" clip-path="url(#id_0)" d="M190.39865 170.92357C190.39865 170.92357 190.39865 170.92357 190.39865 170.92357C190.39865 170.92357 190.39865 170.92357 190.39865 170.92357C190.39865 170.92357 190.39865 170.92357 190.39865 170.92357C190.39865 170.92357 190.39865 170.92357 190.39865 170.92357Z" fill-rule="nonzero"/><path fill="#5f9dd6" clip-path="url(#id_0)" d="M207.63031 155.3845C207.63031 155.3845 207.63031 155.3845 207.63031 155.3845C207.63031 155.3845 207.63031 155.3845 207.63031 155.3845C207.63031 155.3845 207.63031 155.3845 207.63031 155.3845C207.63031 155.3845 207.63031 155.3845 207.63031 155.3845Z" fill-rule="nonzero"/><path fill="#5f9dd6" clip-path="url(#id_0)" d="M224.86195 207.8018C224.86195 207.8018 224.86195 207.8018 224.86195 207.8018C224.86195 207.8018 224.86195 207.8018 224.86195 207.8018C224.86195 207.8018 224.86195 207.8018 224.86195 207.8018C224.86195 207.8018 224.86195 207.8018 224.86195 207.8018Z" fill-rule="nonzero"/><path fill="#5f9dd6" clip-path="url(#id_0)" d="M242.09361 190.22838C242.09361 190.22838 242.09361 190.22838 242.09361 190.22838C242.09361 190.22838 242.09361 190.22838 242.09361 190.22838C242.09361 190.22838 242.09361 190.22838 242.09361 190.22838C242.09361 190.22838 242.09361 190.22838 242.09361 190.22838Z" fill-rule="nonzero"/><path stroke="#000000" stroke-width="1.0" stroke-linecap="butt" d="M35.5 332.5L35.5 320.5" fill-rule="nonzero"/><path stroke="#000000" stroke-width="1.0" stroke-linecap="butt" d="M242.5 332.5L242.5 320.5" fill-rule="nonzero"/><path stroke="#ffffff" stroke-width="3.0" stroke-linejoin="round" stroke-linecap="round" d="M47.01153 291.17154L45.933407 291.17154L45.933407 283.9528L43.745907 284.74966L43.745907 283.7653L46.85528 282.5934L47.01153 282.5934L47.01153 291.17154ZM52.027157 286.37466L52.839657 286.37466Q53.620907 286.35904 54.058407 285.9684Q54.495907 285.5778 54.495907 284.9059Q54.495907 283.4059 52.995907 283.4059Q52.29278 283.4059 51.870907 283.81216Q51.464657 284.2184 51.464657 284.87466L50.370907 284.87466Q50.370907 283.85904 51.10528 283.18716Q51.85528 282.5153 52.995907 282.5153Q54.19903 282.5153 54.88653 283.1559Q55.57403 283.79654 55.57403 284.93716Q55.57403 285.49966 55.214657 286.0153Q54.85528 286.5309 54.23028 286.79654Q54.933407 287.0153 55.308407 287.5309Q55.69903 288.04654 55.69903 288.79654Q55.69903 289.93716 54.94903 290.62466Q54.19903 291.29654 52.995907 291.29654Q51.808407 291.29654 51.04278 290.6403Q50.29278 289.98404 50.29278 288.92154L51.38653 288.92154Q51.38653 289.5934 51.82403 289.99966Q52.26153 290.4059 53.01153 290.4059Q53.79278 290.4059 54.19903 289.99966Q54.620907 289.5778 54.620907 288.81216Q54.620907 288.0778 54.16778 287.68716Q53.714657 287.2809 52.839657 287.2653L52.027157 287.2653L52.027157 286.37466ZM57.35528 284.2809Q57.35528 283.5153 57.839657 283.0153Q58.339657 282.5153 59.10528 282.5153Q59.88653 282.5153 60.370907 283.0153Q60.85528 283.5153 60.85528 284.31216L60.85528 284.73404Q60.85528 285.49966 60.35528 285.99966Q59.870907 286.48404 59.120907 286.48404Q58.35528 286.48404 57.85528 285.99966Q57.35528 285.49966 57.35528 284.68716L57.35528 284.2809ZM58.16778 284.73404Q58.16778 285.18716 58.41778 285.48404Q58.683407 285.7809 59.120907 285.7809Q59.54278 285.7809 59.79278 285.49966Q60.04278 285.2028 60.04278 284.7028L60.04278 284.2809Q60.04278 283.8278 59.79278 283.5309Q59.54278 283.2184 59.10528 283.2184Q58.66778 283.2184 58.41778 283.5309Q58.16778 283.8278 58.16778 284.29654L58.16778 284.73404ZM61.51153 289.0778Q61.51153 288.31216 61.995907 287.8278Q62.495907 287.3278 63.26153 287.3278Q64.02716 287.3278 64.511536 287.8278Q65.011536 288.31216 65.011536 289.12466L65.011536 289.5309Q65.011536 290.29654 64.52716 290.79654Q64.042786 291.29654 63.277157 291.29654Q62.51153 291.29654 62.01153 290.81216Q61.51153 290.31216 61.51153 289.49966L61.51153 289.0778ZM62.32403 289.5309Q62.32403 289.99966 62.57403 290.29654Q62.839657 290.5934 63.277157 290.5934Q63.69903 290.5934 63.94903 290.31216Q64.199036 290.0153 64.199036 289.5153L64.199036 289.0778Q64.199036 288.60904 63.933407 288.3278Q63.683407 288.0309 63.26153 288.0309Q62.839657 288.0309 62.57403 288.3278Q62.32403 288.60904 62.32403 289.10904L62.32403 289.5309ZM59.370907 290.5309L58.745907 290.1403L62.91778 283.4684L63.527157 283.85904L59.370907 290.5309Z" fill-rule="nonzero"/><path fill="#5f9dd6" d="M47.01153 291.17154L45.933407 291.17154L45.933407 283.9528L43.745907 284.74966L43.745907 283.7653L46.85528 282.5934L47.01153 282.5934L47.01153 291.17154ZM52.027157 286.37466L52.839657 286.37466Q53.620907 286.35904 54.058407 285.9684Q54.495907 285.5778 54.495907 284.9059Q54.495907 283.4059 52.995907 283.4059Q52.29278 283.4059 51.870907 283.81216Q51.464657 284.2184 51.464657 284.87466L50.370907 284.87466Q50.370907 283.85904 51.10528 283.18716Q51.85528 282.5153 52.995907 282.5153Q54.19903 282.5153 54.88653 283.1559Q55.57403 283.79654 55.57403 284.93716Q55.57403 285.49966 55.214657 286.0153Q54.85528 286.5309 54.23028 286.79654Q54.933407 287.0153 55.308407 287.5309Q55.69903 288.04654 55.69903 288.79654Q55.69903 289.93716 54.94903 290.62466Q54.19903 291.29654 52.995907 291.29654Q51.808407 291.29654 51.04278 290.6403Q50.29278 289.98404 50.29278 288.92154L51.38653 288.92154Q51.38653 289.5934 51.82403 289.99966Q52.26153 290.4059 53.01153 290.4059Q53.79278 290.4059 54.19903 289.99966Q54.620907 289.5778 54.620907 288.81216Q54.620907 288.0778 54.16778 287.68716Q53.714657 287.2809 52.839657 287.2653L52.027157 287.2653L52.027157 286.37466ZM57.35528 284.2809Q57.35528 283.5153 57.839657 283.0153Q58.339657 282.5153 59.10528 282.5153Q59.88653 282.5153 60.370907 283.0153Q60.85528 283.5153 60.85528 284.31216L60.85528 284.73404Q60.85528 285.49966 60.35528 285.99966Q59.870907 286.48404 59.120907 286.48404Q58.35528 286.48404 57.85528 285.99966Q57.35528 285.49966 57.35528 284.68716L57.35528 284.2809ZM58.16778 284.73404Q58.16778 285.18716 58.41778 285.48404Q58.683407 285.7809 59.120907 285.7809Q59.54278 285.7809 59.79278 285.49966Q60.04278 285.2028 60.04278 284.7028L60.04278 284.2809Q60.04278 283.8278 59.79278 283.5309Q59.54278 283.2184 59.10528 283.2184Q58.66778 283.2184 58.41778 283.5309Q58.16778 283.8278 58.16778 284.29654L58.16778 284.73404ZM61.51153 289.0778Q61.51153 288.31216 61.995907 287.8278Q62.495907 287.3278 63.26153 287.3278Q64.02716 287.3278 64.511536 287.8278Q65.011536 288.31216 65.011536 289.12466L65.011536 289.5309Q65.011536 290.29654 64.52716 290.79654Q64.042786 291.29654 63.277157 291.29654Q62.51153 291.29654 62.01153 290.81216Q61.51153 290.31216 61.51153 289.49966L61.51153 289.0778ZM62.32403 289.5309Q62.32403 289.99966 62.57403 290.29654Q62.839657 290.5934 63.277157 290.5934Q63.69903 290.5934 63.94903 290.31216Q64.199036 290.0153 64.199036 289.5153L64.199036 289.0778Q64.199036 288.60904 63.933407 288.3278Q63.683407 288.0309 63.26153 288.0309Q62.839657 288.0309 62.57403 288.3278Q62.32403 288.60904 62.32403 289.10904L62.32403 289.5309ZM59.370907 290.5309L58.745907 290.1403L62.91778 283.4684L63.527157 283.85904L59.370907 290.5309Z" fill-rule="nonzero"/><path stroke="#ffffff" stroke-width="3.0" stroke-linejoin="round" stroke-linecap="round" d="M114.03669 137.3743L115.22419 137.3743L115.22419 138.2493L114.03669 138.2493L114.03669 140.23367L112.958565 140.23367L112.958565 138.2493L109.06794 138.2493L109.06794 137.60867L112.88044 131.70242L114.03669 131.70242L114.03669 137.3743ZM110.302315 137.3743L112.958565 137.3743L112.958565 133.1868L112.81794 133.42117L110.302315 137.3743ZM120.021065 140.23367L118.94294 140.23367L118.94294 133.01492L116.75544 133.8118L116.75544 132.82742L119.864815 131.65555L120.021065 131.65555L120.021065 140.23367ZM123.364815 133.34305Q123.364815 132.57742 123.84919 132.07742Q124.34919 131.57742 125.114815 131.57742Q125.896065 131.57742 126.38044 132.07742Q126.864815 132.57742 126.864815 133.3743L126.864815 133.79617Q126.864815 134.5618 126.364815 135.0618Q125.88044 135.54617 125.13044 135.54617Q124.364815 135.54617 123.864815 135.0618Q123.364815 134.5618 123.364815 133.7493L123.364815 133.34305ZM124.177315 133.79617Q124.177315 134.2493 124.427315 134.54617Q124.69294 134.84305 125.13044 134.84305Q125.552315 134.84305 125.802315 134.5618Q126.052315 134.26492 126.052315 133.76492L126.052315 133.34305Q126.052315 132.88992 125.802315 132.59305Q125.552315 132.28055 125.114815 132.28055Q124.677315 132.28055 124.427315 132.59305Q124.177315 132.88992 124.177315 133.35867L124.177315 133.79617ZM127.521065 138.13992Q127.521065 137.3743 128.00543 136.88992Q128.50543 136.38992 129.27106 136.38992Q130.03668 136.38992 130.52106 136.88992Q131.02106 137.3743 131.02106 138.1868L131.02106 138.59305Q131.02106 139.35867 130.53668 139.85867Q130.0523 140.35867 129.28668 140.35867Q128.52106 140.35867 128.02106 139.8743Q127.521065 139.3743 127.521065 138.5618L127.521065 138.13992ZM128.33356 138.59305Q128.33356 139.0618 128.58356 139.35867Q128.84918 139.65555 129.28668 139.65555Q129.70856 139.65555 129.95856 139.3743Q130.20856 139.07742 130.20856 138.57742L130.20856 138.13992Q130.20856 137.67117 129.94293 137.38992Q129.69293 137.09305 129.27106 137.09305Q128.84918 137.09305 128.58356 137.38992Q128.33356 137.67117 128.33356 138.17117L128.33356 138.59305ZM125.38044 139.59305L124.75544 139.20242L128.9273 132.53055L129.53668 132.92117L125.38044 139.59305Z" fill-rule="nonzero"/><path fill="#5f9dd6" d="M114.03669 137.3743L115.22419 137.3743L115.22419 138.2493L114.03669 138.2493L114.03669 140.23367L112.958565 140.23367L112.958565 138.2493L109.06794 138.2493L109.06794 137.60867L112.88044 131.70242L114.03669 131.70242L114.03669 137.3743ZM110.302315 137.3743L112.958565 137.3743L112.958565 133.1868L112.81794 133.42117L110.302315 137.3743ZM120.021065 140.23367L118.94294 140.23367L118.94294 133.01492L116.75544 133.8118L116.75544 132.82742L119.864815 131.65555L120.021065 131.65555L120.021065 140.23367ZM123.364815 133.34305Q123.364815 132.57742 123.84919 132.07742Q124.34919 131.57742 125.114815 131.57742Q125.896065 131.57742 126.38044 132.07742Q126.864815 132.57742 126.864815 133.3743L126.864815 133.79617Q126.864815 134.5618 126.364815 135.0618Q125.88044 135.54617 125.13044 135.54617Q124.364815 135.54617 123.864815 135.0618Q123.364815 134.5618 123.364815 133.7493L123.364815 133.34305ZM124.177315 133.79617Q124.177315 134.2493 124.427315 134.54617Q124.69294 134.84305 125.13044 134.84305Q125.552315 134.84305 125.802315 134.5618Q126.052315 134.26492 126.052315 133.76492L126.052315 133.34305Q126.052315 132.88992 125.802315 132.59305Q125.552315 132.28055 125.114815 132.28055Q124.677315 132.28055 124.427315 132.59305Q124.177315 132.88992 124.177315 133.35867L124.177315 133.79617ZM127.521065 138.13992Q127.521065 137.3743 128.00543 136.88992Q128.50543 136.38992 129.27106 136.38992Q130.03668 136.38992 130.52106 136.88992Q131.02106 137.3743 131.02106 138.1868L131.02106 138.59305Q131.02106 139.35867 130.53668 139.85867Q130.0523 140.35867 129.28668 140.35867Q128.52106 140.35867 128.02106 139.8743Q127.521065 139.3743 127.521065 138.5618L127.521065 138.13992ZM128.33356 138.59305Q128.33356 139.0618 128.58356 139.35867Q128.84918 139.65555 129.28668 139.65555Q129.70856 139.65555 129.95856 139.3743Q130.20856 139.07742 130.20856 138.57742L130.20856 138.13992Q130.20856 137.67117 129.94293 137.38992Q129.69293 137.09305 129.27106 137.09305Q128.84918 137.09305 128.58356 137.38992Q128.33356 137.67117 128.33356 138.17117L128.33356 138.59305ZM125.38044 139.59305L124.75544 139.20242L128.9273 132.53055L129.53668 132.92117L125.38044 139.59305Z" fill-rule="nonzero"/><path fill="#ffffff" d="M24.56373 326.75192Q24.56373 326.00192 24.71998 325.53317Q24.87623 325.06442 25.18873 324.81442Q25.50123 324.56442 25.96998 324.56442Q26.31373 324.56442 26.56373 324.70505Q26.829355 324.84567 27.00123 325.1113Q27.173105 325.3613 27.266855 325.75192Q27.360605 326.12692 27.360605 326.75192Q27.360605 327.51755 27.204355 327.9863Q27.048105 328.43942 26.735605 328.70505Q26.43873 328.95505 25.96998 328.95505Q25.34498 328.95505 24.985605 328.50192Q24.56373 327.97067 24.56373 326.75192ZM25.110605 326.75192Q25.110605 327.81442 25.34498 328.1738Q25.59498 328.51755 25.96998 328.51755Q26.329355 328.51755 26.579355 328.1738Q26.829355 327.81442 26.829355 326.75192Q26.829355 325.70505 26.579355 325.3613Q26.329355 325.00192 25.954355 325.00192Q25.59498 325.00192 25.37623 325.31442Q25.110605 325.70505 25.110605 326.75192ZM27.65748 325.6113Q27.65748 325.15817 27.891855 324.83005Q28.12623 324.50192 28.56373 324.50192Q28.96998 324.50192 29.235605 324.7988Q29.50123 325.08005 29.50123 325.64255Q29.50123 326.18942 29.235605 326.4863Q28.96998 326.78317 28.56373 326.78317Q28.18873 326.78317 27.923105 326.50192Q27.65748 326.20505 27.65748 325.6113ZM28.579355 324.87692Q28.37623 324.87692 28.25123 325.0488Q28.12623 325.20505 28.12623 325.65817Q28.12623 326.08005 28.25123 326.25192Q28.391855 326.40817 28.579355 326.40817Q28.78248 326.40817 28.90748 326.25192Q29.03248 326.08005 29.03248 325.62692Q29.03248 325.20505 28.90748 325.0488Q28.78248 324.87692 28.579355 324.87692ZM28.579355 329.03317L30.93873 324.50192L31.360605 324.50192L29.016855 329.03317L28.579355 329.03317ZM30.43873 327.8613Q30.43873 327.40817 30.673105 327.09567Q30.90748 326.76755 31.34498 326.76755Q31.75123 326.76755 32.016853 327.06442Q32.28248 327.34567 32.28248 327.90817Q32.28248 328.43942 32.016853 328.7363Q31.75123 329.03317 31.34498 329.03317Q30.954355 329.03317 30.68873 328.75192Q30.43873 328.45505 30.43873 327.8613ZM31.360605 327.12692Q31.15748 327.12692 31.03248 327.2988Q30.90748 327.47067 30.90748 327.9238Q30.90748 328.33005 31.03248 328.50192Q31.15748 328.6738 31.360605 328.6738Q31.56373 328.6738 31.68873 328.50192Q31.81373 328.33005 31.81373 327.87692Q31.81373 327.47067 31.68873 327.2988Q31.56373 327.12692 31.360605 327.12692Z" fill-rule="nonzero"/><path fill="#ffffff" d="M23.548105 285.59262L23.016855 285.59262L23.016855 282.23325Q22.829355 282.42075 22.516855 282.60825Q22.21998 282.78012 21.96998 282.87387L21.96998 282.35825Q22.40748 282.15512 22.735605 281.85825Q23.079355 281.56137 23.204355 281.28012L23.548105 281.28012L23.548105 285.59262ZM24.56373 283.46762Q24.56373 282.71762 24.71998 282.24887Q24.87623 281.78012 25.18873 281.53012Q25.50123 281.28012 25.96998 281.28012Q26.31373 281.28012 26.56373 281.42075Q26.829355 281.56137 27.00123 281.827Q27.173105 282.077 27.266855 282.46762Q27.360605 282.84262 27.360605 283.46762Q27.360605 284.23325 27.204355 284.702Q27.048105 285.15512 26.735605 285.42075Q26.43873 285.67075 25.96998 285.67075Q25.34498 285.67075 24.985605 285.21762Q24.56373 284.68637 24.56373 283.46762ZM25.110605 283.46762Q25.110605 284.53012 25.34498 284.8895Q25.59498 285.23325 25.96998 285.23325Q26.329355 285.23325 26.579355 284.8895Q26.829355 284.53012 26.829355 283.46762Q26.829355 282.42075 26.579355 282.077Q26.329355 281.71762 25.954355 281.71762Q25.59498 281.71762 25.37623 282.03012Q25.110605 282.42075 25.110605 283.46762ZM27.65748 282.327Q27.65748 281.87387 27.891855 281.54575Q28.12623 281.21762 28.56373 281.21762Q28.96998 281.21762 29.235605 281.5145Q29.50123 281.79575 29.50123 282.35825Q29.50123 282.90512 29.235605 283.202Q28.96998 283.49887 28.56373 283.49887Q28.18873 283.49887 27.923105 283.21762Q27.65748 282.92075 27.65748 282.327ZM28.579355 281.59262Q28.37623 281.59262 28.25123 281.7645Q28.12623 281.92075 28.12623 282.37387Q28.12623 282.79575 28.25123 282.96762Q28.391855 283.12387 28.579355 283.12387Q28.78248 283.12387 28.90748 282.96762Q29.03248 282.79575 29.03248 282.34262Q29.03248 281.92075 28.90748 281.7645Q28.78248 281.59262 28.579355 281.59262ZM28.579355 285.74887L30.93873 281.21762L31.360605 281.21762L29.016855 285.74887L28.579355 285.74887ZM30.43873 284.577Q30.43873 284.12387 30.673105 283.81137Q30.90748 283.48325 31.34498 283.48325Q31.75123 283.48325 32.016853 283.78012Q32.28248 284.06137 32.28248 284.62387Q32.28248 285.15512 32.016853 285.452Q31.75123 285.74887 31.34498 285.74887Q30.954355 285.74887 30.68873 285.46762Q30.43873 285.17075 30.43873 284.577ZM31.360605 283.84262Q31.15748 283.84262 31.03248 284.0145Q30.90748 284.18637 30.90748 284.6395Q30.90748 285.04575 31.03248 285.21762Q31.15748 285.3895 31.360605 285.3895Q31.56373 285.3895 31.68873 285.21762Q31.81373 285.04575 31.81373 284.59262Q31.81373 284.18637 31.68873 284.0145Q31.56373 283.84262 31.360605 283.84262Z" fill-rule="nonzero"/><path fill="#ffffff" d="M24.329355 241.8083L24.329355 242.3083L21.50123 242.3083Q21.485605 242.1208 21.56373 241.94893Q21.673105 241.65205 21.90748 241.3708Q22.141855 241.08955 22.59498 240.71455Q23.298105 240.15205 23.53248 239.82393Q23.78248 239.48018 23.78248 239.1833Q23.78248 238.85518 23.56373 238.65205Q23.34498 238.4333 22.985605 238.4333Q22.59498 238.4333 22.360605 238.66768Q22.141855 238.88643 22.141855 239.29268L21.59498 239.23018Q21.65748 238.63643 22.016855 238.32393Q22.37623 237.9958 22.985605 237.9958Q23.610605 237.9958 23.96998 238.33955Q24.329355 238.6833 24.329355 239.1833Q24.329355 239.44893 24.21998 239.69893Q24.110605 239.94893 23.860605 240.23018Q23.62623 240.4958 23.06373 240.98018Q22.579355 241.3708 22.43873 241.51143Q22.31373 241.65205 22.235605 241.8083L24.329355 241.8083ZM24.56373 240.1833Q24.56373 239.4333 24.71998 238.96455Q24.87623 238.4958 25.18873 238.2458Q25.50123 237.9958 25.96998 237.9958Q26.31373 237.9958 26.56373 238.13643Q26.829355 238.27705 27.00123 238.54268Q27.173105 238.79268 27.266855 239.1833Q27.360605 239.5583 27.360605 240.1833Q27.360605 240.94893 27.204355 241.41768Q27.048105 241.8708 26.735605 242.13643Q26.43873 242.38643 25.96998 242.38643Q25.34498 242.38643 24.985605 241.9333Q24.56373 241.40205 24.56373 240.1833ZM25.110605 240.1833Q25.110605 241.2458 25.34498 241.60518Q25.59498 241.94893 25.96998 241.94893Q26.329355 241.94893 26.579355 241.60518Q26.829355 241.2458 26.829355 240.1833Q26.829355 239.13643 26.579355 238.79268Q26.329355 238.4333 25.954355 238.4333Q25.59498 238.4333 25.37623 238.7458Q25.110605 239.13643 25.110605 240.1833ZM27.65748 239.04268Q27.65748 238.58955 27.891855 238.26143Q28.12623 237.9333 28.56373 237.9333Q28.96998 237.9333 29.235605 238.23018Q29.50123 238.51143 29.50123 239.07393Q29.50123 239.6208 29.235605 239.91768Q28.96998 240.21455 28.56373 240.21455Q28.18873 240.21455 27.923105 239.9333Q27.65748 239.63643 27.65748 239.04268ZM28.579355 238.3083Q28.37623 238.3083 28.25123 238.48018Q28.12623 238.63643 28.12623 239.08955Q28.12623 239.51143 28.25123 239.6833Q28.391855 239.83955 28.579355 239.83955Q28.78248 239.83955 28.90748 239.6833Q29.03248 239.51143 29.03248 239.0583Q29.03248 238.63643 28.90748 238.48018Q28.78248 238.3083 28.579355 238.3083ZM28.579355 242.46455L30.93873 237.9333L31.360605 237.9333L29.016855 242.46455L28.579355 242.46455ZM30.43873 241.29268Q30.43873 240.83955 30.673105 240.52705Q30.90748 240.19893 31.34498 240.19893Q31.75123 240.19893 32.016853 240.4958Q32.28248 240.77705 32.28248 241.33955Q32.28248 241.8708 32.016853 242.16768Q31.75123 242.46455 31.34498 242.46455Q30.954355 242.46455 30.68873 242.1833Q30.43873 241.88643 30.43873 241.29268ZM31.360605 240.5583Q31.15748 240.5583 31.03248 240.73018Q30.90748 240.90205 30.90748 241.35518Q30.90748 241.76143 31.03248 241.9333Q31.15748 242.10518 31.360605 242.10518Q31.56373 242.10518 31.68873 241.9333Q31.81373 241.76143 31.81373 241.3083Q31.81373 240.90205 31.68873 240.73018Q31.56373 240.5583 31.360605 240.5583Z" fill-rule="nonzero"/><path fill="#ffffff" d="M21.56373 197.88338L22.09498 197.82088Q22.18873 198.274 22.40748 198.47713Q22.62623 198.66463 22.93873 198.66463Q23.31373 198.66463 23.56373 198.41463Q23.81373 198.149 23.81373 197.774Q23.81373 197.399 23.579355 197.16463Q23.34498 196.93025 22.985605 196.93025Q22.829355 196.93025 22.610605 196.99275L22.65748 196.524Q22.71998 196.53963 22.75123 196.53963Q23.079355 196.53963 23.34498 196.36775Q23.62623 196.18025 23.62623 195.82088Q23.62623 195.524 23.423105 195.3365Q23.235605 195.149 22.923105 195.149Q22.610605 195.149 22.40748 195.3365Q22.204355 195.524 22.141855 195.91463L21.62623 195.82088Q21.71998 195.28963 22.06373 195.00838Q22.40748 194.7115 22.90748 194.7115Q23.266855 194.7115 23.56373 194.86775Q23.860605 195.00838 24.016855 195.274Q24.173105 195.53963 24.173105 195.82088Q24.173105 196.10213 24.016855 196.3365Q23.87623 196.55525 23.579355 196.69588Q23.954355 196.78963 24.15748 197.07088Q24.37623 197.3365 24.37623 197.75838Q24.37623 198.32088 23.96998 198.7115Q23.56373 199.10213 22.93873 199.10213Q22.360605 199.10213 21.985605 198.774Q21.62623 198.43025 21.56373 197.88338ZM24.56373 196.899Q24.56373 196.149 24.71998 195.68025Q24.87623 195.2115 25.18873 194.9615Q25.50123 194.7115 25.96998 194.7115Q26.31373 194.7115 26.56373 194.85213Q26.829355 194.99275 27.00123 195.25838Q27.173105 195.50838 27.266855 195.899Q27.360605 196.274 27.360605 196.899Q27.360605 197.66463 27.204355 198.13338Q27.048105 198.5865 26.735605 198.85213Q26.43873 199.10213 25.96998 199.10213Q25.34498 199.10213 24.985605 198.649Q24.56373 198.11775 24.56373 196.899ZM25.110605 196.899Q25.110605 197.9615 25.34498 198.32088Q25.59498 198.66463 25.96998 198.66463Q26.329355 198.66463 26.579355 198.32088Q26.829355 197.9615 26.829355 196.899Q26.829355 195.85213 26.579355 195.50838Q26.329355 195.149 25.954355 195.149Q25.59498 195.149 25.37623 195.4615Q25.110605 195.85213 25.110605 196.899ZM27.65748 195.75838Q27.65748 195.30525 27.891855 194.97713Q28.12623 194.649 28.56373 194.649Q28.96998 194.649 29.235605 194.94588Q29.50123 195.22713 29.50123 195.78963Q29.50123 196.3365 29.235605 196.63338Q28.96998 196.93025 28.56373 196.93025Q28.18873 196.93025 27.923105 196.649Q27.65748 196.35213 27.65748 195.75838ZM28.579355 195.024Q28.37623 195.024 28.25123 195.19588Q28.12623 195.35213 28.12623 195.80525Q28.12623 196.22713 28.25123 196.399Q28.391855 196.55525 28.579355 196.55525Q28.78248 196.55525 28.90748 196.399Q29.03248 196.22713 29.03248 195.774Q29.03248 195.35213 28.90748 195.19588Q28.78248 195.024 28.579355 195.024ZM28.579355 199.18025L30.93873 194.649L31.360605 194.649L29.016855 199.18025L28.579355 199.18025ZM30.43873 198.00838Q30.43873 197.55525 30.673105 197.24275Q30.90748 196.91463 31.34498 196.91463Q31.75123 196.91463 32.016853 197.2115Q32.28248 197.49275 32.28248 198.05525Q32.28248 198.5865 32.016853 198.88338Q31.75123 199.18025 31.34498 199.18025Q30.954355 199.18025 30.68873 198.899Q30.43873 198.60213 30.43873 198.00838ZM31.360605 197.274Q31.15748 197.274 31.03248 197.44588Q30.90748 197.61775 30.90748 198.07088Q30.90748 198.47713 31.03248 198.649Q31.15748 198.82088 31.360605 198.82088Q31.56373 198.82088 31.68873 198.649Q31.81373 198.47713 31.81373 198.024Q31.81373 197.61775 31.68873 197.44588Q31.56373 197.274 31.360605 197.274Z" fill-rule="nonzero"/><path fill="#ffffff" d="M23.25123 155.7397L23.25123 154.70845L21.391855 154.70845L21.391855 154.22408L23.34498 151.44283L23.78248 151.44283L23.78248 154.22408L24.360605 154.22408L24.360605 154.70845L23.78248 154.70845L23.78248 155.7397L23.25123 155.7397ZM23.25123 154.22408L23.25123 152.28658L21.90748 154.22408L23.25123 154.22408ZM24.56373 153.6147Q24.56373 152.8647 24.71998 152.39595Q24.87623 151.9272 25.18873 151.6772Q25.50123 151.4272 25.96998 151.4272Q26.31373 151.4272 26.56373 151.56783Q26.829355 151.70845 27.00123 151.97408Q27.173105 152.22408 27.266855 152.6147Q27.360605 152.9897 27.360605 153.6147Q27.360605 154.38033 27.204355 154.84908Q27.048105 155.3022 26.735605 155.56783Q26.43873 155.81783 25.96998 155.81783Q25.34498 155.81783 24.985605 155.3647Q24.56373 154.83345 24.56373 153.6147ZM25.110605 153.6147Q25.110605 154.6772 25.34498 155.03658Q25.59498 155.38033 25.96998 155.38033Q26.329355 155.38033 26.579355 155.03658Q26.829355 154.6772 26.829355 153.6147Q26.829355 152.56783 26.579355 152.22408Q26.329355 151.8647 25.954355 151.8647Q25.59498 151.8647 25.37623 152.1772Q25.110605 152.56783 25.110605 153.6147ZM27.65748 152.47408Q27.65748 152.02095 27.891855 151.69283Q28.12623 151.3647 28.56373 151.3647Q28.96998 151.3647 29.235605 151.66158Q29.50123 151.94283 29.50123 152.50533Q29.50123 153.0522 29.235605 153.34908Q28.96998 153.64595 28.56373 153.64595Q28.18873 153.64595 27.923105 153.3647Q27.65748 153.06783 27.65748 152.47408ZM28.579355 151.7397Q28.37623 151.7397 28.25123 151.91158Q28.12623 152.06783 28.12623 152.52095Q28.12623 152.94283 28.25123 153.1147Q28.391855 153.27095 28.579355 153.27095Q28.78248 153.27095 28.90748 153.1147Q29.03248 152.94283 29.03248 152.4897Q29.03248 152.06783 28.90748 151.91158Q28.78248 151.7397 28.579355 151.7397ZM28.579355 155.89595L30.93873 151.3647L31.360605 151.3647L29.016855 155.89595L28.579355 155.89595ZM30.43873 154.72408Q30.43873 154.27095 30.673105 153.95845Q30.90748 153.63033 31.34498 153.63033Q31.75123 153.63033 32.016853 153.9272Q32.28248 154.20845 32.28248 154.77095Q32.28248 155.3022 32.016853 155.59908Q31.75123 155.89595 31.34498 155.89595Q30.954355 155.89595 30.68873 155.6147Q30.43873 155.31783 30.43873 154.72408ZM31.360605 153.9897Q31.15748 153.9897 31.03248 154.16158Q30.90748 154.33345 30.90748 154.78658Q30.90748 155.19283 31.03248 155.3647Q31.15748 155.53658 31.360605 155.53658Q31.56373 155.53658 31.68873 155.3647Q31.81373 155.19283 31.81373 154.7397Q31.81373 154.33345 31.68873 154.16158Q31.56373 153.9897 31.360605 153.9897Z" fill-rule="nonzero"/><path fill="#ffffff" d="M21.56373 111.33041L22.110605 111.28353Q22.173105 111.68978 22.391855 111.89291Q22.62623 112.09603 22.93873 112.09603Q23.329355 112.09603 23.579355 111.81478Q23.84498 111.51791 23.84498 111.04916Q23.84498 110.59603 23.59498 110.34603Q23.34498 110.08041 22.93873 110.08041Q22.673105 110.08041 22.46998 110.18978Q22.266855 110.29916 22.15748 110.48666L21.65748 110.42416L22.079355 108.22103L24.204355 108.22103L24.204355 108.72103L22.50123 108.72103L22.266855 109.87728Q22.65748 109.61166 23.079355 109.61166Q23.641855 109.61166 24.016855 110.00228Q24.40748 110.39291 24.40748 111.00228Q24.40748 111.58041 24.06373 112.00228Q23.65748 112.53353 22.93873 112.53353Q22.360605 112.53353 21.985605 112.20541Q21.610605 111.87728 21.56373 111.33041ZM24.56373 110.33041Q24.56373 109.58041 24.71998 109.11166Q24.87623 108.64291 25.18873 108.39291Q25.50123 108.14291 25.96998 108.14291Q26.31373 108.14291 26.56373 108.28353Q26.829355 108.42416 27.00123 108.68978Q27.173105 108.93978 27.266855 109.33041Q27.360605 109.70541 27.360605 110.33041Q27.360605 111.09603 27.204355 111.56478Q27.048105 112.01791 26.735605 112.28353Q26.43873 112.53353 25.96998 112.53353Q25.34498 112.53353 24.985605 112.08041Q24.56373 111.54916 24.56373 110.33041ZM25.110605 110.33041Q25.110605 111.39291 25.34498 111.75228Q25.59498 112.09603 25.96998 112.09603Q26.329355 112.09603 26.579355 111.75228Q26.829355 111.39291 26.829355 110.33041Q26.829355 109.28353 26.579355 108.93978Q26.329355 108.58041 25.954355 108.58041Q25.59498 108.58041 25.37623 108.89291Q25.110605 109.28353 25.110605 110.33041ZM27.65748 109.18978Q27.65748 108.73666 27.891855 108.40853Q28.12623 108.08041 28.56373 108.08041Q28.96998 108.08041 29.235605 108.37728Q29.50123 108.65853 29.50123 109.22103Q29.50123 109.76791 29.235605 110.06478Q28.96998 110.36166 28.56373 110.36166Q28.18873 110.36166 27.923105 110.08041Q27.65748 109.78353 27.65748 109.18978ZM28.579355 108.45541Q28.37623 108.45541 28.25123 108.62728Q28.12623 108.78353 28.12623 109.23666Q28.12623 109.65853 28.25123 109.83041Q28.391855 109.98666 28.579355 109.98666Q28.78248 109.98666 28.90748 109.83041Q29.03248 109.65853 29.03248 109.20541Q29.03248 108.78353 28.90748 108.62728Q28.78248 108.45541 28.579355 108.45541ZM28.579355 112.61166L30.93873 108.08041L31.360605 108.08041L29.016855 112.61166L28.579355 112.61166ZM30.43873 111.43978Q30.43873 110.98666 30.673105 110.67416Q30.90748 110.34603 31.34498 110.34603Q31.75123 110.34603 32.016853 110.64291Q32.28248 110.92416 32.28248 111.48666Q32.28248 112.01791 32.016853 112.31478Q31.75123 112.61166 31.34498 112.61166Q30.954355 112.61166 30.68873 112.33041Q30.43873 112.03353 30.43873 111.43978ZM31.360605 110.70541Q31.15748 110.70541 31.03248 110.87728Q30.90748 111.04916 30.90748 111.50228Q30.90748 111.90853 31.03248 112.08041Q31.15748 112.25228 31.360605 112.25228Q31.56373 112.25228 31.68873 112.08041Q31.81373 111.90853 31.81373 111.45541Q31.81373 111.04916 31.68873 110.87728Q31.56373 110.70541 31.360605 110.70541Z" fill-rule="nonzero"/><path fill="#000000" d="M27.360605 348.8613L27.360605 349.87692L21.673105 349.87692Q21.673105 349.50192 21.798105 349.14255Q22.016855 348.56442 22.485605 348.00192Q22.96998 347.43942 23.87623 346.70505Q25.28248 345.5488 25.766855 344.87692Q26.266855 344.20505 26.266855 343.6113Q26.266855 342.9863 25.81373 342.56442Q25.360605 342.12692 24.641855 342.12692Q23.87623 342.12692 23.423105 342.58005Q22.96998 343.03317 22.954355 343.84567L21.87623 343.7363Q21.985605 342.51755 22.704355 341.89255Q23.43873 341.25192 24.673105 341.25192Q25.90748 341.25192 26.62623 341.93942Q27.34498 342.62692 27.34498 343.64255Q27.34498 344.15817 27.12623 344.65817Q26.923105 345.14255 26.423105 345.70505Q25.93873 346.25192 24.81373 347.20505Q23.860605 348.00192 23.579355 348.2988Q23.31373 348.58005 23.141855 348.8613L27.360605 348.8613ZM28.81373 345.64255Q28.81373 344.1113 29.12623 343.18942Q29.43873 342.25192 30.048105 341.75192Q30.673105 341.25192 31.610605 341.25192Q32.298103 341.25192 32.81373 341.53317Q33.34498 341.81442 33.68873 342.34567Q34.03248 342.8613 34.21998 343.6113Q34.40748 344.3613 34.40748 345.64255Q34.40748 347.15817 34.09498 348.08005Q33.798103 349.00192 33.173103 349.51755Q32.56373 350.01755 31.610605 350.01755Q30.37623 350.01755 29.65748 349.12692Q28.81373 348.06442 28.81373 345.64255ZM29.891855 345.64255Q29.891855 347.75192 30.391855 348.45505Q30.891855 349.15817 31.610605 349.15817Q32.34498 349.15817 32.829353 348.45505Q33.329353 347.75192 33.329353 345.64255Q33.329353 343.51755 32.829353 342.83005Q32.34498 342.12692 31.59498 342.12692Q30.87623 342.12692 30.43873 342.7363Q29.891855 343.51755 29.891855 345.64255ZM39.78248 349.87692L38.735603 349.87692L38.735603 343.15817Q38.34498 343.51755 37.71998 343.89255Q37.110603 344.25192 36.62623 344.4238L36.62623 343.40817Q37.50123 342.9863 38.15748 342.40817Q38.829353 341.81442 39.110603 341.25192L39.78248 341.25192L39.78248 349.87692ZM42.81373 345.64255Q42.81373 344.1113 43.12623 343.18942Q43.43873 342.25192 44.048103 341.75192Q44.673103 341.25192 45.610603 341.25192Q46.298103 341.25192 46.81373 341.53317Q47.34498 341.81442 47.68873 342.34567Q48.03248 342.8613 48.21998 343.6113Q48.40748 344.3613 48.40748 345.64255Q48.40748 347.15817 48.09498 348.08005Q47.798103 349.00192 47.173103 349.51755Q46.56373 350.01755 45.610603 350.01755Q44.37623 350.01755 43.65748 349.12692Q42.81373 348.06442 42.81373 345.64255ZM43.891853 345.64255Q43.891853 347.75192 44.391853 348.45505Q44.891853 349.15817 45.610603 349.15817Q46.34498 349.15817 46.829353 348.45505Q47.329353 347.75192 47.329353 345.64255Q47.329353 343.51755 46.829353 342.83005Q46.34498 342.12692 45.59498 342.12692Q44.87623 342.12692 44.43873 342.7363Q43.891853 343.51755 43.891853 345.64255Z" fill-rule="nonzero"/><path fill="#000000" d="M234.14049 348.8613L234.14049 349.87692L228.45299 349.87692Q228.45299 349.50192 228.57799 349.14255Q228.79674 348.56442 229.26549 348.00192Q229.74986 347.43942 230.65611 346.70505Q232.06236 345.5488 232.54674 344.87692Q233.04674 344.20505 233.04674 343.6113Q233.04674 342.9863 232.59361 342.56442Q232.14049 342.12692 231.42174 342.12692Q230.65611 342.12692 230.20299 342.58005Q229.74986 343.03317 229.73424 343.84567L228.65611 343.7363Q228.76549 342.51755 229.48424 341.89255Q230.21861 341.25192 231.45299 341.25192Q232.68736 341.25192 233.40611 341.93942Q234.12486 342.62692 234.12486 343.64255Q234.12486 344.15817 233.90611 344.65817Q233.70299 345.14255 233.20299 345.70505Q232.71861 346.25192 231.59361 347.20505Q230.64049 348.00192 230.35924 348.2988Q230.09361 348.58005 229.92174 348.8613L234.14049 348.8613ZM235.59361 345.64255Q235.59361 344.1113 235.90611 343.18942Q236.21861 342.25192 236.82799 341.75192Q237.45299 341.25192 238.39049 341.25192Q239.07799 341.25192 239.59361 341.53317Q240.12486 341.81442 240.46861 342.34567Q240.81236 342.8613 240.99986 343.6113Q241.18736 344.3613 241.18736 345.64255Q241.18736 347.15817 240.87486 348.08005Q240.57799 349.00192 239.95299 349.51755Q239.34361 350.01755 238.39049 350.01755Q237.15611 350.01755 236.43736 349.12692Q235.59361 348.06442 235.59361 345.64255ZM236.67174 345.64255Q236.67174 347.75192 237.17174 348.45505Q237.67174 349.15817 238.39049 349.15817Q239.12486 349.15817 239.60924 348.45505Q240.10924 347.75192 240.10924 345.64255Q240.10924 343.51755 239.60924 342.83005Q239.12486 342.12692 238.37486 342.12692Q237.65611 342.12692 237.21861 342.7363Q236.67174 343.51755 236.67174 345.64255ZM248.14049 348.8613L248.14049 349.87692L242.45299 349.87692Q242.45299 349.50192 242.57799 349.14255Q242.79674 348.56442 243.26549 348.00192Q243.74986 347.43942 244.65611 346.70505Q246.06236 345.5488 246.54674 344.87692Q247.04674 344.20505 247.04674 343.6113Q247.04674 342.9863 246.59361 342.56442Q246.14049 342.12692 245.42174 342.12692Q244.65611 342.12692 244.20299 342.58005Q243.74986 343.03317 243.73424 343.84567L242.65611 343.7363Q242.76549 342.51755 243.48424 341.89255Q244.21861 341.25192 245.45299 341.25192Q246.68736 341.25192 247.40611 341.93942Q248.12486 342.62692 248.12486 343.64255Q248.12486 344.15817 247.90611 344.65817Q247.70299 345.14255 247.20299 345.70505Q246.71861 346.25192 245.59361 347.20505Q244.64049 348.00192 244.35924 348.2988Q244.09361 348.58005 243.92174 348.8613L248.14049 348.8613ZM255.14049 348.8613L255.14049 349.87692L249.45299 349.87692Q249.45299 349.50192 249.57799 349.14255Q249.79674 348.56442 250.26549 348.00192Q250.74986 347.43942 251.65611 346.70505Q253.06236 345.5488 253.54674 344.87692Q254.04674 344.20505 254.04674 343.6113Q254.04674 342.9863 253.59361 342.56442Q253.14049 342.12692 252.42174 342.12692Q251.65611 342.12692 251.20299 342.58005Q250.74986 343.03317 250.73424 343.84567L249.65611 343.7363Q249.76549 342.51755 250.48424 341.89255Q251.21861 341.25192 252.45299 341.25192Q253.68736 341.25192 254.40611 341.93942Q255.12486 342.62692 255.12486 343.64255Q255.12486 344.15817 254.90611 344.65817Q254.70299 345.14255 254.20299 345.70505Q253.71861 346.25192 252.59361 347.20505Q251.64049 348.00192 251.35924 348.2988Q251.09361 348.58005 250.92174 348.8613L255.14049 348.8613Z" fill-rule="nonzero"/><path stroke="#5f9dd6" stroke-width="4.0" stroke-linecap="butt" d="M13.869192 49.0L25.869192 49.0" fill-rule="nonzero"/><path fill="#1a1a1a" d="M33.853565 53.0L37.15044 44.40625L38.36919 44.40625L41.884815 53.0L40.603565 53.0L39.58794 50.390625L36.009815 50.390625L35.05669 53.0L33.853565 53.0ZM36.33794 49.46875L39.24419 49.46875L38.353565 47.09375Q37.93169 46.015625 37.74419 45.3125Q37.572315 46.140625 37.27544 46.953125L36.33794 49.46875ZM45.697315 53.0L45.697315 52.21875Q45.103565 53.140625 43.96294 53.140625Q43.21294 53.140625 42.58794 52.734375Q41.96294 52.3125 41.61919 51.578125Q41.27544 50.84375 41.27544 49.890625Q41.27544 48.96875 41.58794 48.203125Q41.90044 47.4375 42.52544 47.046875Q43.15044 46.640625 43.916065 46.640625Q44.478565 46.640625 44.916065 46.875Q45.353565 47.109375 45.634815 47.484375L45.634815 44.40625L46.68169 44.40625L46.68169 53.0L45.697315 53.0ZM42.36919 49.890625Q42.36919 51.09375 42.86919 51.6875Q43.36919 52.265625 44.05669 52.265625Q44.74419 52.265625 45.228565 51.703125Q45.71294 51.140625 45.71294 49.984375Q45.71294 48.703125 45.21294 48.109375Q44.728565 47.515625 44.009815 47.515625Q43.30669 47.515625 42.83794 48.09375Q42.36919 48.65625 42.36919 49.890625ZM48.65044 45.640625L48.65044 44.40625L49.71294 44.40625L49.71294 45.640625L48.65044 45.640625ZM47.322315 55.421875L47.509815 54.515625Q47.83794 54.59375 48.009815 54.59375Q48.33794 54.59375 48.49419 54.375Q48.65044 54.171875 48.65044 53.3125L48.65044 46.78125L49.71294 46.78125L49.71294 53.34375Q49.71294 54.484375 49.416065 54.9375Q49.02544 55.53125 48.15044 55.53125Q47.71294 55.53125 47.322315 55.421875ZM51.27544 49.890625Q51.27544 48.15625 52.228565 47.328125Q53.02544 46.640625 54.18169 46.640625Q55.46294 46.640625 56.27544 47.484375Q57.103565 48.3125 57.103565 49.796875Q57.103565 51.0 56.74419 51.6875Q56.384815 52.375 55.68169 52.765625Q54.99419 53.140625 54.18169 53.140625Q52.884815 53.140625 52.072315 52.3125Q51.27544 51.46875 51.27544 49.890625ZM52.353565 49.890625Q52.353565 51.078125 52.86919 51.671875Q53.40044 52.265625 54.18169 52.265625Q54.978565 52.265625 55.49419 51.671875Q56.009815 51.078125 56.009815 49.859375Q56.009815 48.703125 55.478565 48.109375Q54.96294 47.515625 54.18169 47.515625Q53.40044 47.515625 52.86919 48.109375Q52.353565 48.6875 52.353565 49.890625ZM62.74419 53.0L62.74419 52.078125Q62.009815 53.140625 60.759815 53.140625Q60.21294 53.140625 59.728565 52.9375Q59.259815 52.71875 59.02544 52.40625Q58.791065 52.078125 58.697315 51.609375Q58.634815 51.3125 58.634815 50.625L58.634815 46.78125L59.697315 46.78125L59.697315 50.234375Q59.697315 51.046875 59.759815 51.34375Q59.853565 51.75 60.166065 52.0Q60.49419 52.234375 60.978565 52.234375Q61.447315 52.234375 61.853565 52.0Q62.27544 51.75 62.447315 51.328125Q62.634815 50.90625 62.634815 50.109375L62.634815 46.78125L63.68169 46.78125L63.68169 53.0L62.74419 53.0ZM65.65044 53.0L65.65044 46.78125L66.60356 46.78125L66.60356 47.71875Q66.96294 47.0625 67.25981 46.859375Q67.57231 46.640625 67.94731 46.640625Q68.47856 46.640625 69.02544 46.96875L68.66606 47.953125Q68.27544 47.71875 67.90044 47.71875Q67.54106 47.71875 67.25981 47.9375Q66.99419 48.140625 66.88481 48.515625Q66.69731 49.078125 66.69731 49.734375L66.69731 53.0L65.65044 53.0ZM69.66606 53.0L69.66606 46.78125L70.60356 46.78125L70.60356 47.65625Q71.29106 46.640625 72.58794 46.640625Q73.15044 46.640625 73.61919 46.84375Q74.10356 47.046875 74.33794 47.375Q74.57231 47.703125 74.66606 48.140625Q74.71294 48.4375 74.71294 49.171875L74.71294 53.0L73.66606 53.0L73.66606 49.21875Q73.66606 48.5625 73.54106 48.25Q73.41606 47.9375 73.10356 47.75Q72.79106 47.546875 72.36919 47.546875Q71.69731 47.546875 71.19731 47.984375Q70.71294 48.40625 70.71294 49.59375L70.71294 53.0L69.66606 53.0ZM76.66606 53.0L76.66606 46.78125L77.60356 46.78125L77.60356 47.65625Q77.90044 47.1875 78.38481 46.921875Q78.86919 46.640625 79.49419 46.640625Q80.18169 46.640625 80.61919 46.921875Q81.07231 47.203125 81.24419 47.71875Q81.99419 46.640625 83.16606 46.640625Q84.10356 46.640625 84.58794 47.15625Q85.08794 47.65625 85.08794 48.734375L85.08794 53.0L84.04106 53.0L84.04106 49.078125Q84.04106 48.453125 83.93169 48.171875Q83.83794 47.890625 83.57231 47.71875Q83.30669 47.546875 82.93169 47.546875Q82.27544 47.546875 81.83794 47.984375Q81.41606 48.421875 81.41606 49.390625L81.41606 53.0L80.35356 53.0L80.35356 48.953125Q80.35356 48.25 80.08794 47.90625Q79.83794 47.546875 79.25981 47.546875Q78.80669 47.546875 78.43169 47.78125Q78.05669 48.015625 77.88481 48.46875Q77.71294 48.921875 77.71294 49.765625L77.71294 53.0L76.66606 53.0ZM91.91606 51.0L93.00981 51.125Q92.75981 52.078125 92.05669 52.609375Q91.35356 53.140625 90.27544 53.140625Q88.91606 53.140625 88.10356 52.296875Q87.30669 51.453125 87.30669 49.9375Q87.30669 48.375 88.11919 47.515625Q88.93169 46.640625 90.21294 46.640625Q91.46294 46.640625 92.24419 47.484375Q93.04106 48.328125 93.04106 49.875Q93.04106 49.96875 93.04106 50.15625L88.40044 50.15625Q88.46294 51.1875 88.97856 51.734375Q89.49419 52.265625 90.27544 52.265625Q90.85356 52.265625 91.25981 51.96875Q91.68169 51.65625 91.91606 51.0ZM88.46294 49.296875L91.93169 49.296875Q91.86919 48.5 91.54106 48.109375Q91.02544 47.5 90.22856 47.5Q89.49419 47.5 88.99419 47.984375Q88.50981 48.46875 88.46294 49.296875ZM94.66606 53.0L94.66606 46.78125L95.60356 46.78125L95.60356 47.65625Q96.29106 46.640625 97.58794 46.640625Q98.15044 46.640625 98.61919 46.84375Q99.10356 47.046875 99.33794 47.375Q99.57231 47.703125 99.66606 48.140625Q99.71294 48.4375 99.71294 49.171875L99.71294 53.0L98.66606 53.0L98.66606 49.21875Q98.66606 48.5625 98.54106 48.25Q98.41606 47.9375 98.10356 47.75Q97.79106 47.546875 97.36919 47.546875Q96.69731 47.546875 96.19731 47.984375Q95.71294 48.40625 95.71294 49.59375L95.71294 53.0L94.66606 53.0ZM103.96294 52.0625L104.11919 52.984375Q103.66606 53.078125 103.32231 53.078125Q102.74419 53.078125 102.43169 52.90625Q102.11919 52.71875 101.97856 52.421875Q101.85356 52.125 101.85356 51.171875L101.85356 47.59375L101.08794 47.59375L101.08794 46.78125L101.85356 46.78125L101.85356 45.234375L102.90044 44.609375L102.90044 46.78125L103.96294 46.78125L103.96294 47.59375L102.90044 47.59375L102.90044 51.234375Q102.90044 51.6875 102.94731 51.8125Q103.00981 51.9375 103.13481 52.015625Q103.25981 52.09375 103.49419 52.09375Q103.68169 52.09375 103.96294 52.0625ZM107.65044 53.0L107.65044 46.78125L108.60356 46.78125L108.60356 47.71875Q108.96294 47.0625 109.25981 46.859375Q109.57231 46.640625 109.94731 46.640625Q110.47856 46.640625 111.02544 46.96875L110.66606 47.953125Q110.27544 47.71875 109.90044 47.71875Q109.54106 47.71875 109.25981 47.9375Q108.99419 48.140625 108.88481 48.515625Q108.69731 49.078125 108.69731 49.734375L108.69731 53.0L107.65044 53.0ZM115.72856 52.234375Q115.13481 52.734375 114.58794 52.9375Q114.05669 53.140625 113.43169 53.140625Q112.40044 53.140625 111.85356 52.640625Q111.30669 52.140625 111.30669 51.359375Q111.30669 50.90625 111.50981 50.53125Q111.71294 50.140625 112.05669 49.921875Q112.40044 49.6875 112.82231 49.578125Q113.11919 49.484375 113.75981 49.40625Q115.02544 49.265625 115.63481 49.046875Q115.63481 48.828125 115.63481 48.78125Q115.63481 48.125 115.33794 47.859375Q114.93169 47.515625 114.13481 47.515625Q113.40044 47.515625 113.04106 47.78125Q112.68169 48.03125 112.50981 48.6875L111.47856 48.546875Q111.61919 47.890625 111.94731 47.484375Q112.27544 47.078125 112.88481 46.859375Q113.49419 46.640625 114.29106 46.640625Q115.08794 46.640625 115.58794 46.828125Q116.08794 47.015625 116.32231 47.296875Q116.55669 47.578125 116.65044 48.015625Q116.69731 48.28125 116.69731 48.984375L116.69731 50.390625Q116.69731 51.859375 116.75981 52.25Q116.83794 52.640625 117.04106 53.0L115.93169 53.0Q115.77544 52.671875 115.72856 52.234375ZM115.63481 49.875Q115.05669 50.109375 113.91606 50.28125Q113.25981 50.375 112.99419 50.5Q112.72856 50.609375 112.57231 50.828125Q112.43169 51.046875 112.43169 51.328125Q112.43169 51.75 112.74419 52.03125Q113.07231 52.3125 113.68169 52.3125Q114.29106 52.3125 114.75981 52.046875Q115.24419 51.78125 115.46294 51.3125Q115.63481 50.953125 115.63481 50.265625L115.63481 49.875ZM120.96294 52.0625L121.11919 52.984375Q120.66606 53.078125 120.32231 53.078125Q119.74419 53.078125 119.43169 52.90625Q119.11919 52.71875 118.97856 52.421875Q118.85356 52.125 118.85356 51.171875L118.85356 47.59375L118.08794 47.59375L118.08794 46.78125L118.85356 46.78125L118.85356 45.234375L119.90044 44.609375L119.90044 46.78125L120.96294 46.78125L120.96294 47.59375L119.90044 47.59375L119.90044 51.234375Q119.90044 51.6875 119.94731 51.8125Q120.00981 51.9375 120.13481 52.015625Q120.25981 52.09375 120.49419 52.09375Q120.68169 52.09375 120.96294 52.0625ZM125.91606 51.0L127.00981 51.125Q126.75981 52.078125 126.05669 52.609375Q125.35356 53.140625 124.27544 53.140625Q122.91606 53.140625 122.10356 52.296875Q121.30669 51.453125 121.30669 49.9375Q121.30669 48.375 122.11919 47.515625Q122.93169 46.640625 124.21294 46.640625Q125.46294 46.640625 126.24419 47.484375Q127.04106 48.328125 127.04106 49.875Q127.04106 49.96875 127.04106 50.15625L122.40044 50.15625Q122.46294 51.1875 122.97856 51.734375Q123.49419 52.265625 124.27544 52.265625Q124.85356 52.265625 125.25981 51.96875Q125.68169 51.65625 125.91606 51.0ZM122.46294 49.296875L125.93169 49.296875Q125.86919 48.5 125.54106 48.109375Q125.02544 47.5 124.22856 47.5Q123.49419 47.5 122.99419 47.984375Q122.50981 48.46875 122.46294 49.296875ZM131.66606 55.390625L131.66606 46.78125L132.61919 46.78125L132.61919 47.578125Q132.96294 47.109375 133.38481 46.875Q133.82231 46.640625 134.43169 46.640625Q135.22856 46.640625 135.83794 47.046875Q136.44731 47.453125 136.74419 48.203125Q137.05669 48.953125 137.05669 49.84375Q137.05669 50.796875 136.71294 51.5625Q136.38481 52.328125 135.72856 52.734375Q135.07231 53.140625 134.35356 53.140625Q133.82231 53.140625 133.40044 52.921875Q132.97856 52.6875 132.71294 52.359375L132.71294 55.390625L131.66606 55.390625ZM132.61919 49.921875Q132.61919 51.125 133.10356 51.703125Q133.58794 52.265625 134.27544 52.265625Q134.97856 52.265625 135.47856 51.671875Q135.97856 51.078125 135.97856 49.828125Q135.97856 48.640625 135.49419 48.0625Q135.00981 47.46875 134.32231 47.46875Q133.65044 47.46875 133.13481 48.09375Q132.61919 48.71875 132.61919 49.921875ZM142.91606 51.0L144.00981 51.125Q143.75981 52.078125 143.05669 52.609375Q142.35356 53.140625 141.27544 53.140625Q139.91606 53.140625 139.10356 52.296875Q138.30669 51.453125 138.30669 49.9375Q138.30669 48.375 139.11919 47.515625Q139.93169 46.640625 141.21294 46.640625Q142.46294 46.640625 143.24419 47.484375Q144.04106 48.328125 144.04106 49.875Q144.04106 49.96875 144.04106 50.15625L139.40044 50.15625Q139.46294 51.1875 139.97856 51.734375Q140.49419 52.265625 141.27544 52.265625Q141.85356 52.265625 142.25981 51.96875Q142.68169 51.65625 142.91606 51.0ZM139.46294 49.296875L142.93169 49.296875Q142.86919 48.5 142.54106 48.109375Q142.02544 47.5 141.22856 47.5Q140.49419 47.5 139.99419 47.984375Q139.50981 48.46875 139.46294 49.296875ZM145.65044 53.0L145.65044 46.78125L146.60356 46.78125L146.60356 47.71875Q146.96294 47.0625 147.25981 46.859375Q147.57231 46.640625 147.94731 46.640625Q148.47856 46.640625 149.02544 46.96875L148.66606 47.953125Q148.27544 47.71875 147.90044 47.71875Q147.54106 47.71875 147.25981 47.9375Q146.99419 48.140625 146.88481 48.515625Q146.69731 49.078125 146.69731 49.734375L146.69731 53.0L145.65044 53.0ZM149.66606 45.625L149.66606 44.40625L150.72856 44.40625L150.72856 45.625L149.66606 45.625ZM149.66606 53.0L149.66606 46.78125L150.72856 46.78125L150.72856 53.0L149.66606 53.0ZM152.27544 49.890625Q152.27544 48.15625 153.22856 47.328125Q154.02544 46.640625 155.18169 46.640625Q156.46294 46.640625 157.27544 47.484375Q158.10356 48.3125 158.10356 49.796875Q158.10356 51.0 157.74419 51.6875Q157.38481 52.375 156.68169 52.765625Q155.99419 53.140625 155.18169 53.140625Q153.88481 53.140625 153.07231 52.3125Q152.27544 51.46875 152.27544 49.890625ZM153.35356 49.890625Q153.35356 51.078125 153.86919 51.671875Q154.40044 52.265625 155.18169 52.265625Q155.97856 52.265625 156.49419 51.671875Q157.00981 51.078125 157.00981 49.859375Q157.00981 48.703125 156.47856 48.109375Q155.96294 47.515625 155.18169 47.515625Q154.40044 47.515625 153.86919 48.109375Q153.35356 48.6875 153.35356 49.890625ZM163.69731 53.0L163.69731 52.21875Q163.10356 53.140625 161.96294 53.140625Q161.21294 53.140625 160.58794 52.734375Q159.96294 52.3125 159.61919 51.578125Q159.27544 50.84375 159.27544 49.890625Q159.27544 48.96875 159.58794 48.203125Q159.90044 47.4375 160.52544 47.046875Q161.15044 46.640625 161.91606 46.640625Q162.47856 46.640625 162.91606 46.875Q163.35356 47.109375 163.63481 47.484375L163.63481 44.40625L164.68169 44.40625L164.68169 53.0L163.69731 53.0ZM160.36919 49.890625Q160.36919 51.09375 160.86919 51.6875Q161.36919 52.265625 162.05669 52.265625Q162.74419 52.265625 163.22856 51.703125Q163.71294 51.140625 163.71294 49.984375Q163.71294 48.703125 163.21294 48.109375Q162.72856 47.515625 162.00981 47.515625Q161.30669 47.515625 160.83794 48.09375Q160.36919 48.65625 160.36919 49.890625ZM174.91606 51.984375L174.91606 53.0L169.22856 53.0Q169.22856 52.625 169.35356 52.265625Q169.57231 51.6875 170.04106 51.125Q170.52544 50.5625 171.43169 49.828125Q172.83794 48.671875 173.32231 48.0Q173.82231 47.328125 173.82231 46.734375Q173.82231 46.109375 173.36919 45.6875Q172.91606 45.25 172.19731 45.25Q171.43169 45.25 170.97856 45.703125Q170.52544 46.15625 170.50981 46.96875L169.43169 46.859375Q169.54106 45.640625 170.25981 45.015625Q170.99419 44.375 172.22856 44.375Q173.46294 44.375 174.18169 45.0625Q174.90044 45.75 174.90044 46.765625Q174.90044 47.28125 174.68169 47.78125Q174.47856 48.265625 173.97856 48.828125Q173.49419 49.375 172.36919 50.328125Q171.41606 51.125 171.13481 51.421875Q170.86919 51.703125 170.69731 51.984375L174.91606 51.984375ZM176.36919 48.765625Q176.36919 47.234375 176.68169 46.3125Q176.99419 45.375 177.60356 44.875Q178.22856 44.375 179.16606 44.375Q179.85356 44.375 180.36919 44.65625Q180.90044 44.9375 181.24419 45.46875Q181.58794 45.984375 181.77544 46.734375Q181.96294 47.484375 181.96294 48.765625Q181.96294 50.28125 181.65044 51.203125Q181.35356 52.125 180.72856 52.640625Q180.11919 53.140625 179.16606 53.140625Q177.93169 53.140625 177.21294 52.25Q176.36919 51.1875 176.36919 48.765625ZM177.44731 48.765625Q177.44731 50.875 177.94731 51.578125Q178.44731 52.28125 179.16606 52.28125Q179.90044 52.28125 180.38481 51.578125Q180.88481 50.875 180.88481 48.765625Q180.88481 46.640625 180.38481 45.953125Q179.90044 45.25 179.15044 45.25Q178.43169 45.25 177.99419 45.859375Q177.44731 46.640625 177.44731 48.765625ZM187.33794 53.0L186.29106 53.0L186.29106 46.28125Q185.90044 46.640625 185.27544 47.015625Q184.66606 47.375 184.18169 47.546875L184.18169 46.53125Q185.05669 46.109375 185.71294 45.53125Q186.38481 44.9375 186.66606 44.375L187.33794 44.375L187.33794 53.0ZM190.36919 48.765625Q190.36919 47.234375 190.68169 46.3125Q190.99419 45.375 191.60356 44.875Q192.22856 44.375 193.16606 44.375Q193.85356 44.375 194.36919 44.65625Q194.90044 44.9375 195.24419 45.46875Q195.58794 45.984375 195.77544 46.734375Q195.96294 47.484375 195.96294 48.765625Q195.96294 50.28125 195.65044 51.203125Q195.35356 52.125 194.72856 52.640625Q194.11919 53.140625 193.16606 53.140625Q191.93169 53.140625 191.21294 52.25Q190.36919 51.1875 190.36919 48.765625ZM191.44731 48.765625Q191.44731 50.875 191.94731 51.578125Q192.44731 52.28125 193.16606 52.28125Q193.90044 52.28125 194.38481 51.578125Q194.88481 50.875 194.88481 48.765625Q194.88481 46.640625 194.38481 45.953125Q193.90044 45.25 193.15044 45.25Q192.43169 45.25 191.99419 45.859375Q191.44731 46.640625 191.44731 48.765625ZM200.24419 50.421875L200.24419 49.359375L203.49419 49.359375L203.49419 50.421875L200.24419 50.421875ZM212.91606 51.984375L212.91606 53.0L207.22856 53.0Q207.22856 52.625 207.35356 52.265625Q207.57231 51.6875 208.04106 51.125Q208.52544 50.5625 209.43169 49.828125Q210.83794 48.671875 211.32231 48.0Q211.82231 47.328125 211.82231 46.734375Q211.82231 46.109375 211.36919 45.6875Q210.91606 45.25 210.19731 45.25Q209.43169 45.25 208.97856 45.703125Q208.52544 46.15625 208.50981 46.96875L207.43169 46.859375Q207.54106 45.640625 208.25981 45.015625Q208.99419 44.375 210.22856 44.375Q211.46294 44.375 212.18169 45.0625Q212.90044 45.75 212.90044 46.765625Q212.90044 47.28125 212.68169 47.78125Q212.47856 48.265625 211.97856 48.828125Q211.49419 49.375 210.36919 50.328125Q209.41606 51.125 209.13481 51.421875Q208.86919 51.703125 208.69731 51.984375L212.91606 51.984375ZM214.36919 48.765625Q214.36919 47.234375 214.68169 46.3125Q214.99419 45.375 215.60356 44.875Q216.22856 44.375 217.16606 44.375Q217.85356 44.375 218.36919 44.65625Q218.90044 44.9375 219.24419 45.46875Q219.58794 45.984375 219.77544 46.734375Q219.96294 47.484375 219.96294 48.765625Q219.96294 50.28125 219.65044 51.203125Q219.35356 52.125 218.72856 52.640625Q218.11919 53.140625 217.16606 53.140625Q215.93169 53.140625 215.21294 52.25Q214.36919 51.1875 214.36919 48.765625ZM215.44731 48.765625Q215.44731 50.875 215.94731 51.578125Q216.44731 52.28125 217.16606 52.28125Q217.90044 52.28125 218.38481 51.578125Q218.88481 50.875 218.88481 48.765625Q218.88481 46.640625 218.38481 45.953125Q217.90044 45.25 217.15044 45.25Q216.43169 45.25 215.99419 45.859375Q215.44731 46.640625 215.44731 48.765625ZM226.91606 51.984375L226.91606 53.0L221.22856 53.0Q221.22856 52.625 221.35356 52.265625Q221.57231 51.6875 222.04106 51.125Q222.52544 50.5625 223.43169 49.828125Q224.83794 48.671875 225.32231 48.0Q225.82231 47.328125 225.82231 46.734375Q225.82231 46.109375 225.36919 45.6875Q224.91606 45.25 224.19731 45.25Q223.43169 45.25 222.97856 45.703125Q222.52544 46.15625 222.50981 46.96875L221.43169 46.859375Q221.54106 45.640625 222.25981 45.015625Q222.99419 44.375 224.22856 44.375Q225.46294 44.375 226.18169 45.0625Q226.90044 45.75 226.90044 46.765625Q226.90044 47.28125 226.68169 47.78125Q226.47856 48.265625 225.97856 48.828125Q225.49419 49.375 224.36919 50.328125Q223.41606 51.125 223.13481 51.421875Q222.86919 51.703125 222.69731 51.984375L226.91606 51.984375ZM233.91606 51.984375L233.91606 53.0L228.22856 53.0Q228.22856 52.625 228.35356 52.265625Q228.57231 51.6875 229.04106 51.125Q229.52544 50.5625 230.43169 49.828125Q231.83794 48.671875 232.32231 48.0Q232.82231 47.328125 232.82231 46.734375Q232.82231 46.109375 232.36919 45.6875Q231.91606 45.25 231.19731 45.25Q230.43169 45.25 229.97856 45.703125Q229.52544 46.15625 229.50981 46.96875L228.43169 46.859375Q228.54106 45.640625 229.25981 45.015625Q229.99419 44.375 231.22856 44.375Q232.46294 44.375 233.18169 45.0625Q233.90044 45.75 233.90044 46.765625Q233.90044 47.28125 233.68169 47.78125Q233.47856 48.265625 232.97856 48.828125Q232.49419 49.375 231.36919 50.328125Q230.41606 51.125 230.13481 51.421875Q229.86919 51.703125 229.69731 51.984375L233.91606 51.984375Z" fill-rule="nonzero"/><path stroke="#073763" stroke-width="4.0" stroke-linecap="butt" stroke-opacity="0.7019608" d="M37.669193 67.0L49.669193 67.0" fill-rule="nonzero"/><path fill="#1a1a1a" d="M60.77857 71.0L60.77857 63.421875L57.950443 63.421875L57.950443 62.40625L64.76294 62.40625L64.76294 63.421875L61.919193 63.421875L61.919193 71.0L60.77857 71.0ZM65.45044 71.0L65.45044 64.78125L66.403564 64.78125L66.403564 65.71875Q66.76294 65.0625 67.059814 64.859375Q67.372314 64.640625 67.747314 64.640625Q68.278564 64.640625 68.82544 64.96875L68.466064 65.953125Q68.07544 65.71875 67.70044 65.71875Q67.341064 65.71875 67.059814 65.9375Q66.79419 66.140625 66.684814 66.515625Q66.497314 67.078125 66.497314 67.734375L66.497314 71.0L65.45044 71.0ZM73.716064 69.0L74.809814 69.125Q74.559814 70.078125 73.85669 70.609375Q73.153564 71.140625 72.07544 71.140625Q70.716064 71.140625 69.903564 70.296875Q69.10669 69.453125 69.10669 67.9375Q69.10669 66.375 69.91919 65.515625Q70.73169 64.640625 72.01294 64.640625Q73.26294 64.640625 74.04419 65.484375Q74.841064 66.328125 74.841064 67.875Q74.841064 67.96875 74.841064 68.15625L70.20044 68.15625Q70.26294 69.1875 70.778564 69.734375Q71.29419 70.265625 72.07544 70.265625Q72.653564 70.265625 73.059814 69.96875Q73.48169 69.65625 73.716064 69.0ZM70.26294 67.296875L73.73169 67.296875Q73.66919 66.5 73.341064 66.109375Q72.82544 65.5 72.028564 65.5Q71.29419 65.5 70.79419 65.984375Q70.309814 66.46875 70.26294 67.296875ZM76.466064 71.0L76.466064 64.78125L77.403564 64.78125L77.403564 65.65625Q78.091064 64.640625 79.38794 64.640625Q79.95044 64.640625 80.41919 64.84375Q80.903564 65.046875 81.13794 65.375Q81.372314 65.703125 81.466064 66.140625Q81.51294 66.4375 81.51294 67.171875L81.51294 71.0L80.466064 71.0L80.466064 67.21875Q80.466064 66.5625 80.341064 66.25Q80.216064 65.9375 79.903564 65.75Q79.591064 65.546875 79.16919 65.546875Q78.497314 65.546875 77.997314 65.984375Q77.51294 66.40625 77.51294 67.59375L77.51294 71.0L76.466064 71.0ZM87.497314 71.0L87.497314 70.21875Q86.903564 71.140625 85.76294 71.140625Q85.01294 71.140625 84.38794 70.734375Q83.76294 70.3125 83.41919 69.578125Q83.07544 68.84375 83.07544 67.890625Q83.07544 66.96875 83.38794 66.203125Q83.70044 65.4375 84.32544 65.046875Q84.95044 64.640625 85.716064 64.640625Q86.278564 64.640625 86.716064 64.875Q87.153564 65.109375 87.434814 65.484375L87.434814 62.40625L88.48169 62.40625L88.48169 71.0L87.497314 71.0ZM84.16919 67.890625Q84.16919 69.09375 84.66919 69.6875Q85.16919 70.265625 85.85669 70.265625Q86.54419 70.265625 87.028564 69.703125Q87.51294 69.140625 87.51294 67.984375Q87.51294 66.703125 87.01294 66.109375Q86.528564 65.515625 85.809814 65.515625Q85.10669 65.515625 84.63794 66.09375Q84.16919 66.65625 84.16919 67.890625ZM93.07544 67.890625Q93.07544 66.15625 94.028564 65.328125Q94.82544 64.640625 95.98169 64.640625Q97.26294 64.640625 98.07544 65.484375Q98.903564 66.3125 98.903564 67.796875Q98.903564 69.0 98.54419 69.6875Q98.184814 70.375 97.48169 70.765625Q96.79419 71.140625 95.98169 71.140625Q94.684814 71.140625 93.872314 70.3125Q93.07544 69.46875 93.07544 67.890625ZM94.153564 67.890625Q94.153564 69.078125 94.66919 69.671875Q95.20044 70.265625 95.98169 70.265625Q96.778564 70.265625 97.29419 69.671875Q97.809814 69.078125 97.809814 67.859375Q97.809814 66.703125 97.278564 66.109375Q96.76294 65.515625 95.98169 65.515625Q95.20044 65.515625 94.66919 66.109375Q94.153564 66.6875 94.153564 67.890625ZM100.716064 71.0L100.716064 65.59375L99.778564 65.59375L99.778564 64.78125L100.716064 64.78125L100.716064 64.109375Q100.716064 63.484375 100.82544 63.1875Q100.98169 62.765625 101.35669 62.515625Q101.747314 62.265625 102.434814 62.265625Q102.88794 62.265625 103.41919 62.375L103.26294 63.28125Q102.934814 63.234375 102.63794 63.234375Q102.153564 63.234375 101.95044 63.4375Q101.76294 63.640625 101.76294 64.203125L101.76294 64.78125L102.98169 64.78125L102.98169 65.59375L101.76294 65.59375L101.76294 71.0L100.716064 71.0ZM106.45044 71.0L106.45044 64.78125L107.403564 64.78125L107.403564 65.71875Q107.76294 65.0625 108.059814 64.859375Q108.372314 64.640625 108.747314 64.640625Q109.278564 64.640625 109.82544 64.96875L109.466064 65.953125Q109.07544 65.71875 108.70044 65.71875Q108.341064 65.71875 108.059814 65.9375Q107.79419 66.140625 107.684814 66.515625Q107.497314 67.078125 107.497314 67.734375L107.497314 71.0L106.45044 71.0ZM114.716064 69.0L115.809814 69.125Q115.559814 70.078125 114.85669 70.609375Q114.153564 71.140625 113.07544 71.140625Q111.716064 71.140625 110.903564 70.296875Q110.10669 69.453125 110.10669 67.9375Q110.10669 66.375 110.91919 65.515625Q111.73169 64.640625 113.01294 64.640625Q114.26294 64.640625 115.04419 65.484375Q115.841064 66.328125 115.841064 67.875Q115.841064 67.96875 115.841064 68.15625L111.20044 68.15625Q111.26294 69.1875 111.778564 69.734375Q112.29419 70.265625 113.07544 70.265625Q113.653564 70.265625 114.059814 69.96875Q114.48169 69.65625 114.716064 69.0ZM111.26294 67.296875L114.73169 67.296875Q114.66919 66.5 114.341064 66.109375Q113.82544 65.5 113.028564 65.5Q112.29419 65.5 111.79419 65.984375Q111.309814 66.46875 111.26294 67.296875ZM117.716064 71.0L117.716064 65.59375L116.778564 65.59375L116.778564 64.78125L117.716064 64.78125L117.716064 64.109375Q117.716064 63.484375 117.82544 63.1875Q117.98169 62.765625 118.35669 62.515625Q118.747314 62.265625 119.434814 62.265625Q119.88794 62.265625 120.41919 62.375L120.26294 63.28125Q119.934814 63.234375 119.63794 63.234375Q119.153564 63.234375 118.95044 63.4375Q118.76294 63.640625 118.76294 64.203125L118.76294 64.78125L119.98169 64.78125L119.98169 65.59375L118.76294 65.59375L118.76294 71.0L117.716064 71.0ZM124.54419 71.0L124.54419 70.078125Q123.809814 71.140625 122.559814 71.140625Q122.01294 71.140625 121.528564 70.9375Q121.059814 70.71875 120.82544 70.40625Q120.591064 70.078125 120.497314 69.609375Q120.434814 69.3125 120.434814 68.625L120.434814 64.78125L121.497314 64.78125L121.497314 68.234375Q121.497314 69.046875 121.559814 69.34375Q121.653564 69.75 121.966064 70.0Q122.29419 70.234375 122.778564 70.234375Q123.247314 70.234375 123.653564 70.0Q124.07544 69.75 124.247314 69.328125Q124.434814 68.90625 124.434814 68.109375L124.434814 64.78125L125.48169 64.78125L125.48169 71.0L124.54419 71.0ZM127.04419 69.140625L128.07544 68.984375Q128.16919 69.609375 128.55981 69.9375Q128.96606 70.265625 129.70044 70.265625Q130.41919 70.265625 130.76294 69.984375Q131.12231 69.6875 131.12231 69.28125Q131.12231 68.921875 130.80981 68.71875Q130.59106 68.578125 129.73169 68.359375Q128.57544 68.0625 128.12231 67.859375Q127.684814 67.640625 127.45044 67.265625Q127.216064 66.890625 127.216064 66.421875Q127.216064 66.015625 127.403564 65.65625Q127.591064 65.296875 127.91919 65.0625Q128.16919 64.890625 128.59106 64.765625Q129.01294 64.640625 129.51294 64.640625Q130.23169 64.640625 130.77856 64.859375Q131.34106 65.0625 131.60669 65.421875Q131.87231 65.78125 131.96606 66.375L130.93481 66.515625Q130.87231 66.046875 130.52856 65.78125Q130.20044 65.5 129.57544 65.5Q128.85669 65.5 128.54419 65.75Q128.23169 65.984375 128.23169 66.3125Q128.23169 66.515625 128.35669 66.671875Q128.49731 66.84375 128.76294 66.953125Q128.91919 67.015625 129.70044 67.21875Q130.82544 67.53125 131.26294 67.71875Q131.70044 67.90625 131.95044 68.265625Q132.20044 68.625 132.20044 69.171875Q132.20044 69.703125 131.88794 70.171875Q131.59106 70.625 131.01294 70.890625Q130.43481 71.140625 129.70044 71.140625Q128.48169 71.140625 127.841064 70.640625Q127.216064 70.125 127.04419 69.140625ZM138.52856 70.234375Q137.93481 70.734375 137.38794 70.9375Q136.85669 71.140625 136.23169 71.140625Q135.20044 71.140625 134.65356 70.640625Q134.10669 70.140625 134.10669 69.359375Q134.10669 68.90625 134.30981 68.53125Q134.51294 68.140625 134.85669 67.921875Q135.20044 67.6875 135.62231 67.578125Q135.91919 67.484375 136.55981 67.40625Q137.82544 67.265625 138.43481 67.046875Q138.43481 66.828125 138.43481 66.78125Q138.43481 66.125 138.13794 65.859375Q137.73169 65.515625 136.93481 65.515625Q136.20044 65.515625 135.84106 65.78125Q135.48169 66.03125 135.30981 66.6875L134.27856 66.546875Q134.41919 65.890625 134.74731 65.484375Q135.07544 65.078125 135.68481 64.859375Q136.29419 64.640625 137.09106 64.640625Q137.88794 64.640625 138.38794 64.828125Q138.88794 65.015625 139.12231 65.296875Q139.35669 65.578125 139.45044 66.015625Q139.49731 66.28125 139.49731 66.984375L139.49731 68.390625Q139.49731 69.859375 139.55981 70.25Q139.63794 70.640625 139.84106 71.0L138.73169 71.0Q138.57544 70.671875 138.52856 70.234375ZM138.43481 67.875Q137.85669 68.109375 136.71606 68.28125Q136.05981 68.375 135.79419 68.5Q135.52856 68.609375 135.37231 68.828125Q135.23169 69.046875 135.23169 69.328125Q135.23169 69.75 135.54419 70.03125Q135.87231 70.3125 136.48169 70.3125Q137.09106 70.3125 137.55981 70.046875Q138.04419 69.78125 138.26294 69.3125Q138.43481 68.953125 138.43481 68.265625L138.43481 67.875ZM141.43481 71.0L141.43481 62.40625L142.49731 62.40625L142.49731 71.0L141.43481 71.0ZM147.45044 71.0L147.45044 64.78125L148.40356 64.78125L148.40356 65.71875Q148.76294 65.0625 149.05981 64.859375Q149.37231 64.640625 149.74731 64.640625Q150.27856 64.640625 150.82544 64.96875L150.46606 65.953125Q150.07544 65.71875 149.70044 65.71875Q149.34106 65.71875 149.05981 65.9375Q148.79419 66.140625 148.68481 66.515625Q148.49731 67.078125 148.49731 67.734375L148.49731 71.0L147.45044 71.0ZM155.52856 70.234375Q154.93481 70.734375 154.38794 70.9375Q153.85669 71.140625 153.23169 71.140625Q152.20044 71.140625 151.65356 70.640625Q151.10669 70.140625 151.10669 69.359375Q151.10669 68.90625 151.30981 68.53125Q151.51294 68.140625 151.85669 67.921875Q152.20044 67.6875 152.62231 67.578125Q152.91919 67.484375 153.55981 67.40625Q154.82544 67.265625 155.43481 67.046875Q155.43481 66.828125 155.43481 66.78125Q155.43481 66.125 155.13794 65.859375Q154.73169 65.515625 153.93481 65.515625Q153.20044 65.515625 152.84106 65.78125Q152.48169 66.03125 152.30981 66.6875L151.27856 66.546875Q151.41919 65.890625 151.74731 65.484375Q152.07544 65.078125 152.68481 64.859375Q153.29419 64.640625 154.09106 64.640625Q154.88794 64.640625 155.38794 64.828125Q155.88794 65.015625 156.12231 65.296875Q156.35669 65.578125 156.45044 66.015625Q156.49731 66.28125 156.49731 66.984375L156.49731 68.390625Q156.49731 69.859375 156.55981 70.25Q156.63794 70.640625 156.84106 71.0L155.73169 71.0Q155.57544 70.671875 155.52856 70.234375ZM155.43481 67.875Q154.85669 68.109375 153.71606 68.28125Q153.05981 68.375 152.79419 68.5Q152.52856 68.609375 152.37231 68.828125Q152.23169 69.046875 152.23169 69.328125Q152.23169 69.75 152.54419 70.03125Q152.87231 70.3125 153.48169 70.3125Q154.09106 70.3125 154.55981 70.046875Q155.04419 69.78125 155.26294 69.3125Q155.43481 68.953125 155.43481 68.265625L155.43481 67.875ZM160.76294 70.0625L160.91919 70.984375Q160.46606 71.078125 160.12231 71.078125Q159.54419 71.078125 159.23169 70.90625Q158.91919 70.71875 158.77856 70.421875Q158.65356 70.125 158.65356 69.171875L158.65356 65.59375L157.88794 65.59375L157.88794 64.78125L158.65356 64.78125L158.65356 63.234375L159.70044 62.609375L159.70044 64.78125L160.76294 64.78125L160.76294 65.59375L159.70044 65.59375L159.70044 69.234375Q159.70044 69.6875 159.74731 69.8125Q159.80981 69.9375 159.93481 70.015625Q160.05981 70.09375 160.29419 70.09375Q160.48169 70.09375 160.76294 70.0625ZM165.71606 69.0L166.80981 69.125Q166.55981 70.078125 165.85669 70.609375Q165.15356 71.140625 164.07544 71.140625Q162.71606 71.140625 161.90356 70.296875Q161.10669 69.453125 161.10669 67.9375Q161.10669 66.375 161.91919 65.515625Q162.73169 64.640625 164.01294 64.640625Q165.26294 64.640625 166.04419 65.484375Q166.84106 66.328125 166.84106 67.875Q166.84106 67.96875 166.84106 68.15625L162.20044 68.15625Q162.26294 69.1875 162.77856 69.734375Q163.29419 70.265625 164.07544 70.265625Q164.65356 70.265625 165.05981 69.96875Q165.48169 69.65625 165.71606 69.0ZM162.26294 67.296875L165.73169 67.296875Q165.66919 66.5 165.34106 66.109375Q164.82544 65.5 164.02856 65.5Q163.29419 65.5 162.79419 65.984375Q162.30981 66.46875 162.26294 67.296875ZM171.60669 71.0L171.60669 62.40625L175.41919 62.40625Q176.57544 62.40625 177.16919 62.640625Q177.76294 62.875 178.12231 63.46875Q178.48169 64.046875 178.48169 64.75Q178.48169 65.671875 177.88794 66.296875Q177.29419 66.921875 176.05981 67.09375Q176.51294 67.3125 176.74731 67.515625Q177.24731 67.96875 177.68481 68.65625L179.18481 71.0L177.74731 71.0L176.62231 69.21875Q176.12231 68.4375 175.79419 68.03125Q175.48169 67.625 175.21606 67.46875Q174.96606 67.296875 174.70044 67.21875Q174.51294 67.1875 174.07544 67.1875L172.74731 67.1875L172.74731 71.0L171.60669 71.0ZM172.74731 66.203125L175.20044 66.203125Q175.96606 66.203125 176.40356 66.046875Q176.85669 65.875 177.07544 65.53125Q177.30981 65.171875 177.30981 64.75Q177.30981 64.140625 176.85669 63.75Q176.41919 63.359375 175.46606 63.359375L172.74731 63.359375L172.74731 66.203125ZM179.80981 66.703125Q179.85669 66.375 180.09106 66.03125Q180.46606 65.53125 181.30981 64.921875Q182.15356 64.3125 182.30981 64.125Q182.52856 63.890625 182.52856 63.640625Q182.52856 63.359375 182.30981 63.1875Q182.10669 63.0 181.71606 63.0Q181.32544 63.0 181.13794 63.140625Q180.95044 63.265625 180.82544 63.65625L179.93481 63.5625Q180.10669 62.921875 180.52856 62.609375Q180.95044 62.296875 181.73169 62.296875Q182.62231 62.296875 183.02856 62.65625Q183.45044 63.0 183.45044 63.5Q183.45044 63.984375 183.09106 64.421875Q182.84106 64.75 181.90356 65.421875Q181.40356 65.78125 181.20044 66.0L183.46606 66.0L183.46606 66.703125L179.80981 66.703125ZM193.01294 65.953125L187.34106 65.953125L187.34106 64.96875L193.01294 64.96875L193.01294 65.953125ZM193.01294 68.5625L187.34106 68.5625L187.34106 67.578125L193.01294 67.578125L193.01294 68.5625ZM197.16919 66.765625Q197.16919 65.234375 197.48169 64.3125Q197.79419 63.375 198.40356 62.875Q199.02856 62.375 199.96606 62.375Q200.65356 62.375 201.16919 62.65625Q201.70044 62.9375 202.04419 63.46875Q202.38794 63.984375 202.57544 64.734375Q202.76294 65.484375 202.76294 66.765625Q202.76294 68.28125 202.45044 69.203125Q202.15356 70.125 201.52856 70.640625Q200.91919 71.140625 199.96606 71.140625Q198.73169 71.140625 198.01294 70.25Q197.16919 69.1875 197.16919 66.765625ZM198.24731 66.765625Q198.24731 68.875 198.74731 69.578125Q199.24731 70.28125 199.96606 70.28125Q200.70044 70.28125 201.18481 69.578125Q201.68481 68.875 201.68481 66.765625Q201.68481 64.640625 201.18481 63.953125Q200.70044 63.25 199.95044 63.25Q199.23169 63.25 198.79419 63.859375Q198.24731 64.640625 198.24731 66.765625ZM204.73169 71.0L204.73169 69.796875L205.93481 69.796875L205.93481 71.0Q205.93481 71.65625 205.70044 72.0625Q205.46606 72.484375 204.96606 72.703125L204.66919 72.25Q204.99731 72.109375 205.15356 71.8125Q205.30981 71.53125 205.34106 71.0L204.73169 71.0ZM207.16919 68.75L208.27856 68.65625Q208.40356 69.46875 208.84106 69.875Q209.29419 70.28125 209.93481 70.28125Q210.68481 70.28125 211.21606 69.703125Q211.74731 69.125 211.74731 68.1875Q211.74731 67.28125 211.23169 66.765625Q210.73169 66.234375 209.90356 66.234375Q209.40356 66.234375 208.98169 66.46875Q208.57544 66.703125 208.34106 67.0625L207.35669 66.9375L208.18481 62.53125L212.46606 62.53125L212.46606 63.53125L209.02856 63.53125L208.57544 65.84375Q209.34106 65.296875 210.18481 65.296875Q211.30981 65.296875 212.07544 66.078125Q212.85669 66.859375 212.85669 68.09375Q212.85669 69.25 212.18481 70.109375Q211.35669 71.140625 209.93481 71.140625Q208.76294 71.140625 208.01294 70.484375Q207.27856 69.828125 207.16919 68.75ZM214.16919 66.765625Q214.16919 65.234375 214.48169 64.3125Q214.79419 63.375 215.40356 62.875Q216.02856 62.375 216.96606 62.375Q217.65356 62.375 218.16919 62.65625Q218.70044 62.9375 219.04419 63.46875Q219.38794 63.984375 219.57544 64.734375Q219.76294 65.484375 219.76294 66.765625Q219.76294 68.28125 219.45044 69.203125Q219.15356 70.125 218.52856 70.640625Q217.91919 71.140625 216.96606 71.140625Q215.73169 71.140625 215.01294 70.25Q214.16919 69.1875 214.16919 66.765625ZM215.24731 66.765625Q215.24731 68.875 215.74731 69.578125Q216.24731 70.28125 216.96606 70.28125Q217.70044 70.28125 218.18481 69.578125Q218.68481 68.875 218.68481 66.765625Q218.68481 64.640625 218.18481 63.953125Q217.70044 63.25 216.95044 63.25Q216.23169 63.25 215.79419 63.859375Q215.24731 64.640625 215.24731 66.765625ZM225.13794 71.0L224.09106 71.0L224.09106 64.28125Q223.70044 64.640625 223.07544 65.015625Q222.46606 65.375 221.98169 65.546875L221.98169 64.53125Q222.85669 64.109375 223.51294 63.53125Q224.18481 62.9375 224.46606 62.375L225.13794 62.375L225.13794 71.0Z" fill-rule="nonzero"/><path fill="#757575" d="M14.778125 32.2L14.778125 17.8875L21.121876 17.8875Q23.028126 17.8875 24.028126 18.278126Q25.028126 18.653126 25.621876 19.6375Q26.215626 20.60625 26.215626 21.79375Q26.215626 23.309376 25.23125 24.35625Q24.246876 25.403126 22.184376 25.684376Q22.934376 26.04375 23.325 26.403126Q24.153126 27.153126 24.903126 28.309376L27.3875 32.2L25.0125 32.2L23.10625 29.215626Q22.278126 27.934376 21.746876 27.246876Q21.215626 26.559376 20.778126 26.29375Q20.35625 26.0125 19.91875 25.903126Q19.590626 25.840626 18.871876 25.840626L16.66875 25.840626L16.66875 32.2L14.778125 32.2ZM16.66875 24.2L20.746876 24.2Q22.04375 24.2 22.7625 23.934376Q23.496876 23.66875 23.871876 23.075Q24.2625 22.48125 24.2625 21.79375Q24.2625 20.778126 23.528126 20.121876Q22.79375 19.465626 21.2 19.465626L16.66875 19.465626L16.66875 24.2ZM35.621876 28.85625L37.434376 29.090626Q37.0125 30.66875 35.840626 31.559376Q34.684376 32.434376 32.871876 32.434376Q30.60625 32.434376 29.2625 31.04375Q27.934376 29.6375 27.934376 27.10625Q27.934376 24.48125 29.278126 23.04375Q30.621876 21.590626 32.778126 21.590626Q34.85625 21.590626 36.16875 23.0125Q37.496876 24.41875 37.496876 26.996876Q37.496876 27.153126 37.48125 27.465626L29.746876 27.465626Q29.840626 29.16875 30.715626 30.075Q31.590626 30.98125 32.8875 30.98125Q33.85625 30.98125 34.528126 30.48125Q35.215626 29.965626 35.621876 28.85625ZM29.840626 26.0125L35.6375 26.0125Q35.528126 24.715626 34.98125 24.059376Q34.1375 23.04375 32.79375 23.04375Q31.590626 23.04375 30.7625 23.85625Q29.934376 24.653126 29.840626 26.0125ZM39.934376 32.2L39.934376 23.2L38.3875 23.2L38.3875 21.825L39.934376 21.825L39.934376 20.73125Q39.934376 19.684376 40.121876 19.16875Q40.371876 18.48125 41.0125 18.059376Q41.653126 17.6375 42.809376 17.6375Q43.559376 17.6375 44.45 17.809376L44.184376 19.340626Q43.6375 19.246876 43.153126 19.246876Q42.35625 19.246876 42.0125 19.590626Q41.684376 19.934376 41.684376 20.871876L41.684376 21.825L43.715626 21.825L43.715626 23.2L41.684376 23.2L41.684376 32.2L39.934376 32.2ZM52.309376 32.2L52.309376 30.66875Q51.10625 32.434376 49.028126 32.434376Q48.10625 32.434376 47.309376 32.090626Q46.5125 31.73125 46.121876 31.2Q45.746876 30.66875 45.590626 29.8875Q45.48125 29.371876 45.48125 28.246876L45.48125 21.825L47.23125 21.825L47.23125 27.575Q47.23125 28.95 47.340626 29.434376Q47.5125 30.121876 48.04375 30.528126Q48.590626 30.91875 49.371876 30.91875Q50.16875 30.91875 50.85625 30.5125Q51.559376 30.10625 51.840626 29.41875Q52.1375 28.715626 52.1375 27.3875L52.1375 21.825L53.8875 21.825L53.8875 32.2L52.309376 32.2ZM54.809376 29.10625L56.559376 28.825Q56.7 29.871876 57.371876 30.434376Q58.04375 30.98125 59.246876 30.98125Q60.45 30.98125 61.028126 30.496876Q61.621876 29.996876 61.621876 29.340626Q61.621876 28.746876 61.10625 28.403126Q60.746876 28.16875 59.309376 27.809376Q57.371876 27.309376 56.621876 26.965626Q55.8875 26.60625 55.496876 25.98125Q55.10625 25.340626 55.10625 24.575Q55.10625 23.8875 55.41875 23.29375Q55.746876 22.7 56.29375 22.309376Q56.7 22.0125 57.403126 21.809376Q58.121876 21.590626 58.934376 21.590626Q60.153126 21.590626 61.075 21.95Q61.996876 22.29375 62.434376 22.903126Q62.871876 23.496876 63.04375 24.496876L61.325 24.73125Q61.2 23.934376 60.6375 23.496876Q60.075 23.04375 59.059376 23.04375Q57.840626 23.04375 57.325 23.45Q56.809376 23.840626 56.809376 24.371876Q56.809376 24.715626 57.028126 24.996876Q57.23125 25.278126 57.7 25.465626Q57.965626 25.559376 59.246876 25.903126Q61.121876 26.403126 61.85625 26.73125Q62.590626 27.04375 63.0125 27.653126Q63.434376 28.246876 63.434376 29.153126Q63.434376 30.028126 62.91875 30.809376Q62.403126 31.590626 61.434376 32.0125Q60.465626 32.434376 59.246876 32.434376Q57.23125 32.434376 56.16875 31.590626Q55.10625 30.746876 54.809376 29.10625ZM72.29375 30.91875Q71.30937 31.746876 70.40312 32.090626Q69.49687 32.434376 68.46562 32.434376Q66.7625 32.434376 65.84062 31.60625Q64.91875 30.7625 64.91875 29.465626Q64.91875 28.7 65.2625 28.075Q65.62187 27.45 66.18437 27.075Q66.74687 26.684376 67.45 26.48125Q67.96562 26.35625 69.0125 26.215626Q71.1375 25.965626 72.1375 25.621876Q72.15312 25.2625 72.15312 25.153126Q72.15312 24.090626 71.65312 23.6375Q70.98125 23.04375 69.65312 23.04375Q68.40312 23.04375 67.80937 23.48125Q67.23125 23.91875 66.95 25.028126L65.23125 24.79375Q65.46562 23.684376 65.99687 23.0125Q66.52812 22.325 67.54375 21.965626Q68.55937 21.590626 69.90312 21.590626Q71.23125 21.590626 72.05937 21.903126Q72.8875 22.215626 73.27812 22.7Q73.66875 23.16875 73.825 23.8875Q73.91875 24.340626 73.91875 25.5125L73.91875 27.85625Q73.91875 30.309376 74.02812 30.965626Q74.1375 31.60625 74.48125 32.2L72.6375 32.2Q72.37187 31.653126 72.29375 30.91875ZM72.1375 26.996876Q71.18437 27.3875 69.2625 27.653126Q68.18437 27.809376 67.73125 28.0125Q67.29375 28.2 67.04375 28.575Q66.79375 28.95 66.79375 29.41875Q66.79375 30.121876 67.325 30.590626Q67.85625 31.059376 68.8875 31.059376Q69.90312 31.059376 70.68437 30.621876Q71.48125 30.16875 71.85625 29.403126Q72.1375 28.79375 72.1375 27.6375L72.1375 26.996876ZM76.48125 32.2L76.48125 17.8875L78.23125 17.8875L78.23125 32.2L76.48125 32.2ZM86.49687 32.2L86.49687 21.825L88.075 21.825L88.075 23.403126Q88.68437 22.29375 89.2 21.95Q89.71562 21.590626 90.325 21.590626Q91.21562 21.590626 92.1375 22.153126L91.52812 23.79375Q90.8875 23.403126 90.24687 23.403126Q89.66875 23.403126 89.2 23.7625Q88.74687 24.10625 88.54375 24.715626Q88.2625 25.653126 88.2625 26.7625L88.2625 32.2L86.49687 32.2ZM100.29375 30.91875Q99.30937 31.746876 98.40312 32.090626Q97.49687 32.434376 96.46562 32.434376Q94.7625 32.434376 93.84062 31.60625Q92.91875 30.7625 92.91875 29.465626Q92.91875 28.7 93.2625 28.075Q93.62187 27.45 94.18437 27.075Q94.74687 26.684376 95.45 26.48125Q95.96562 26.35625 97.0125 26.215626Q99.1375 25.965626 100.1375 25.621876Q100.15312 25.2625 100.15312 25.153126Q100.15312 24.090626 99.65312 23.6375Q98.98125 23.04375 97.65312 23.04375Q96.40312 23.04375 95.80937 23.48125Q95.23125 23.91875 94.95 25.028126L93.23125 24.79375Q93.46562 23.684376 93.99687 23.0125Q94.52812 22.325 95.54375 21.965626Q96.55937 21.590626 97.90312 21.590626Q99.23125 21.590626 100.05937 21.903126Q100.8875 22.215626 101.27812 22.7Q101.66875 23.16875 101.825 23.8875Q101.91875 24.340626 101.91875 25.5125L101.91875 27.85625Q101.91875 30.309376 102.02812 30.965626Q102.1375 31.60625 102.48125 32.2L100.6375 32.2Q100.37187 31.653126 100.29375 30.91875ZM100.1375 26.996876Q99.18437 27.3875 97.2625 27.653126Q96.18437 27.809376 95.73125 28.0125Q95.29375 28.2 95.04375 28.575Q94.79375 28.95 94.79375 29.41875Q94.79375 30.121876 95.325 30.590626Q95.85625 31.059376 96.8875 31.059376Q97.90312 31.059376 98.68437 30.621876Q99.48125 30.16875 99.85625 29.403126Q100.1375 28.79375 100.1375 27.6375L100.1375 26.996876ZM108.35625 30.621876L108.60625 32.184376Q107.87187 32.340626 107.27812 32.340626Q106.325 32.340626 105.79375 32.04375Q105.27812 31.73125 105.05937 31.246876Q104.84062 30.746876 104.84062 29.16875L104.84062 23.2L103.55937 23.2L103.55937 21.825L104.84062 21.825L104.84062 19.2625L106.59062 18.2L106.59062 21.825L108.35625 21.825L108.35625 23.2L106.59062 23.2L106.59062 29.2625Q106.59062 30.0125 106.68437 30.23125Q106.77812 30.434376 106.98125 30.575Q107.2 30.7 107.59062 30.7Q107.87187 30.7 108.35625 30.621876ZM117.62187 28.85625L119.43437 29.090626Q119.0125 30.66875 117.84062 31.559376Q116.68437 32.434376 114.87187 32.434376Q112.60625 32.434376 111.2625 31.04375Q109.93437 29.6375 109.93437 27.10625Q109.93437 24.48125 111.27812 23.04375Q112.62187 21.590626 114.77812 21.590626Q116.85625 21.590626 118.16875 23.0125Q119.49687 24.41875 119.49687 26.996876Q119.49687 27.153126 119.48125 27.465626L111.74687 27.465626Q111.84062 29.16875 112.71562 30.075Q113.59062 30.98125 114.8875 30.98125Q115.85625 30.98125 116.52812 30.48125Q117.21562 29.965626 117.62187 28.85625ZM111.84062 26.0125L117.6375 26.0125Q117.52812 24.715626 116.98125 24.059376Q116.1375 23.04375 114.79375 23.04375Q113.59062 23.04375 112.7625 23.85625Q111.93437 24.653126 111.84062 26.0125ZM131.35625 30.621876L131.60625 32.184376Q130.87187 32.340626 130.27812 32.340626Q129.325 32.340626 128.79375 32.04375Q128.27812 31.73125 128.05937 31.246876Q127.84062 30.746876 127.84062 29.16875L127.84062 23.2L126.55937 23.2L126.55937 21.825L127.84062 21.825L127.84062 19.2625L129.59062 18.2L129.59062 21.825L131.35625 21.825L131.35625 23.2L129.59062 23.2L129.59062 29.2625Q129.59062 30.0125 129.68437 30.23125Q129.77812 30.434376 129.98125 30.575Q130.2 30.7 130.59062 30.7Q130.87187 30.7 131.35625 30.621876ZM133.49687 32.2L133.49687 21.825L135.075 21.825L135.075 23.403126Q135.68437 22.29375 136.2 21.95Q136.71562 21.590626 137.325 21.590626Q138.21562 21.590626 139.1375 22.153126L138.52812 23.79375Q137.8875 23.403126 137.24687 23.403126Q136.66875 23.403126 136.2 23.7625Q135.74687 24.10625 135.54375 24.715626Q135.2625 25.653126 135.2625 26.7625L135.2625 32.2L133.49687 32.2ZM147.62187 28.85625L149.43437 29.090626Q149.0125 30.66875 147.84062 31.559376Q146.68437 32.434376 144.87187 32.434376Q142.60625 32.434376 141.2625 31.04375Q139.93437 29.6375 139.93437 27.10625Q139.93437 24.48125 141.27812 23.04375Q142.62187 21.590626 144.77812 21.590626Q146.85625 21.590626 148.16875 23.0125Q149.49687 24.41875 149.49687 26.996876Q149.49687 27.153126 149.48125 27.465626L141.74687 27.465626Q141.84062 29.16875 142.71562 30.075Q143.59062 30.98125 144.8875 30.98125Q145.85625 30.98125 146.52812 30.48125Q147.21562 29.965626 147.62187 28.85625ZM141.84062 26.0125L147.6375 26.0125Q147.52812 24.715626 146.98125 24.059376Q146.1375 23.04375 144.79375 23.04375Q143.59062 23.04375 142.7625 23.85625Q141.93437 24.653126 141.84062 26.0125ZM151.5125 32.2L151.5125 21.825L153.10625 21.825L153.10625 23.309376Q154.24687 21.590626 156.40312 21.590626Q157.34062 21.590626 158.12187 21.934376Q158.91875 22.2625 159.30937 22.809376Q159.7 23.35625 159.85625 24.10625Q159.95 24.60625 159.95 25.825L159.95 32.2L158.18437 32.2L158.18437 25.8875Q158.18437 24.809376 157.98125 24.278126Q157.77812 23.746876 157.24687 23.434376Q156.73125 23.121876 156.02812 23.121876Q154.90312 23.121876 154.09062 23.840626Q153.27812 24.54375 153.27812 26.528126L153.27812 32.2L151.5125 32.2ZM168.24687 32.2L168.24687 30.8875Q167.2625 32.434376 165.34062 32.434376Q164.10625 32.434376 163.05937 31.746876Q162.02812 31.059376 161.45 29.840626Q160.8875 28.621876 160.8875 27.028126Q160.8875 25.465626 161.40312 24.2Q161.91875 22.934376 162.95 22.2625Q163.99687 21.590626 165.2625 21.590626Q166.2 21.590626 166.93437 21.996876Q167.66875 22.3875 168.1375 23.0125L168.1375 17.8875L169.87187 17.8875L169.87187 32.2L168.24687 32.2ZM162.68437 27.028126Q162.68437 29.0125 163.52812 29.996876Q164.37187 30.98125 165.5125 30.98125Q166.66875 30.98125 167.46562 30.04375Q168.27812 29.10625 168.27812 27.16875Q168.27812 25.04375 167.45 24.04375Q166.6375 23.04375 165.43437 23.04375Q164.2625 23.04375 163.46562 24.0125Q162.68437 24.965626 162.68437 27.028126Z" fill-rule="nonzero"/></svg>