<svg version="1.1" viewBox="0.0 0.0 264.0 367.0" fill="none" stroke="none" stroke-linecap="square" stroke-miterlimit="10" width="264" height="367" xmlns:xlink="http://www.w3.org/1999/xlink" xmlns="http://www.w3.org/2000/svg"><path fill="#ffffff" d="M0 0L264.0 0L264.0 367.0L0 367.0L0 0Z" fill-rule="nonzero"/><path stroke="#000000" stroke-width="1.0" stroke-linecap="butt" stroke-opacity="0.0" d="M35.5 290.5L242.5 290.5" fill-rule="nonzero"/><path stroke="#000000" stroke-width="1.0" stroke-linecap="butt" stroke-opacity="0.0" d="M35.5 218.5L242.5 218.5" fill-rule="nonzero"/><path stroke="#000000" stroke-width="1.0" stroke-linecap="butt" stroke-opacity="0.0" d="M35.5 146.5L242.5 146.5" fill-rule="nonzero"/><path stroke="#eeeeee" stroke-width="1.0" stroke-linecap="butt" d="M35.31373 129.80424L35.31373 145.80424" fill-rule="nonzero"/><path stroke="#000000" stroke-width="1.0" stroke-linecap="butt" d="M242.5 326.5L35.5 326.5" fill-rule="nonzero"/><clipPath id="id_0"><path d="M35.31373 110.45541L242.09361 110.45541L242.09361 326.87692L35.31373 326.87692L35.31373 110.45541Z" clip-rule="nonzero"/></clipPath><path stroke="#5f9dd6" stroke-width="2.0" stroke-linecap="butt" clip-path="url(#id_0)" d="M35.31373 145.80424L52.545387 138.12129L69.77705 187.10469L87.008705 184.07478L104.24036 195.11229L121.472015 228.69368L138.70367 207.41223L155.93533 218.66615L173.16699 218.34152L190.39865 211.59639L207.63031 226.85411L224.86195 167.0857L242.09361 189.91817" fill-rule="nonzero"/><path stroke="#073763" stroke-width="2.0" stroke-linecap="butt" stroke-opacity="0.7019608" clip-path="url(#id_0)" d="M0 163.34656L242.09361 216.41751" fill-rule="nonzero"/><path fill="#5f9dd6" clip-path="url(#id_0)" d="M35.31373 145.80424C35.31373 145.80424 35.31373 145.80424 35.31373 145.80424C35.31373 145.80424 35.31373 145.80424 35.31373 145.80424C35.31373 145.80424 35.31373 145.80424 35.31373 145.80424C35.31373 145.80424 35.31373 145.80424 35.31373 145.80424Z" fill-rule="nonzero"/><path fill="#5f9dd6" clip-path="url(#id_0)" d="M52.545387 138.12129C52.545387 138.12129 52.545387 138.12129 52.545387 138.12129C52.545387 138.12129 52.545387 138.12129 52.545387 138.12129C52.545387 138.12129 52.545387 138.12129 52.545387 138.12129C52.545387 138.12129 52.545387 138.12129 52.545387 138.12129Z" fill-rule="nonzero"/><path fill="#5f9dd6" clip-path="url(#id_0)" d="M69.77705 187.10469C69.77705 187.10469 69.77705 187.10469 69.77705 187.10469C69.77705 187.10469 69.77705 187.10469 69.77705 187.10469C69.77705 187.10469 69.77705 187.10469 69.77705 187.10469C69.77705 187.10469 69.77705 187.10469 69.77705 187.10469Z" fill-rule="nonzero"/><path fill="#5f9dd6" clip-path="url(#id_0)" d="M87.008705 184.07478C87.008705 184.07478 87.008705 184.07478 87.008705 184.07478C87.008705 184.07478 87.008705 184.07478 87.008705 184.07478C87.008705 184.07478 87.008705 184.07478 87.008705 184.07478C87.008705 184.07478 87.008705 184.07478 87.008705 184.07478Z" fill-rule="nonzero"/><path fill="#5f9dd6" clip-path="url(#id_0)" d="M104.24036 195.11229C104.24036 195.11229 104.24036 195.11229 104.24036 195.11229C104.24036 195.11229 104.24036 195.11229 104.24036 195.11229C104.24036 195.11229 104.24036 195.11229 104.24036 195.11229C104.24036 195.11229 104.24036 195.11229 104.24036 195.11229Z" fill-rule="nonzero"/><path fill="#5f9dd6" clip-path="url(#id_0)" d="M121.472015 228.69368C121.472015 228.69368 121.472015 228.69368 121.472015 228.69368C121.472015 228.69368 121.472015 228.69368 121.472015 228.69368C121.472015 228.69368 121.472015 228.69368 121.472015 228.69368C121.472015 228.69368 121.472015 228.69368 121.472015 228.69368Z" fill-rule="nonzero"/><path fill="#5f9dd6" clip-path="url(#id_0)" d="M138.70367 207.41223C138.70367 207.41223 138.70367 207.41223 138.70367 207.41223C138.70367 207.41223 138.70367 207.41223 138.70367 207.41223C138.70367 207.41223 138.70367 207.41223 138.70367 207.41223C138.70367 207.41223 138.70367 207.41223 138.70367 207.41223Z" fill-rule="nonzero"/><path fill="#5f9dd6" clip-path="url(#id_0)" d="M155.93533 218.66615C155.93533 218.66615 155.93533 218.66615 155.93533 218.66615C155.93533 218.66615 155.93533 218.66615 155.93533 218.66615C155.93533 218.66615 155.93533 218.66615 155.93533 218.66615C155.93533 218.66615 155.93533 218.66615 155.93533 218.66615Z" fill-rule="nonzero"/><path fill="#5f9dd6" clip-path="url(#id_0)" d="M173.16699 218.34152C173.16699 218.34152 173.16699 218.34152 173.16699 218.34152C173.16699 218.34152 173.16699 218.34152 173.16699 218.34152C173.16699 218.34152 173.16699 218.34152 173.16699 218.34152C173.16699 218.34152 173.16699 218.34152 173.16699 218.34152Z" fill-rule="nonzero"/><path fill="#5f9dd6" clip-path="url(#id_0)" d="M190.39865 211.59639C190.39865 211.59639 190.39865 211.59639 190.39865 211.59639C190.39865 211.59639 190.39865 211.59639 190.39865 211.59639C190.39865 211.59639 190.39865 211.59639 190.39865 211.59639C190.39865 211.59639 190.39865 211.59639 190.39865 211.59639Z" fill-rule="nonzero"/><path fill="#5f9dd6" clip-path="url(#id_0)" d="M207.63031 226.85411C207.63031 226.85411 207.63031 226.85411 207.63031 226.85411C207.63031 226.85411 207.63031 226.85411 207.63031 226.85411C207.63031 226.85411 207.63031 226.85411 207.63031 226.85411C207.63031 226.85411 207.63031 226.85411 207.63031 226.85411Z" fill-rule="nonzero"/><path fill="#5f9dd6" clip-path="url(#id_0)" d="M224.86195 167.0857C224.86195 167.0857 224.86195 167.0857 224.86195 167.0857C224.86195 167.0857 224.86195 167.0857 224.86195 167.0857C224.86195 167.0857 224.86195 167.0857 224.86195 167.0857C224.86195 167.0857 224.86195 167.0857 224.86195 167.0857Z" fill-rule="nonzero"/><path fill="#5f9dd6" clip-path="url(#id_0)" d="M242.09361 189.91817C242.09361 189.91817 242.09361 189.91817 242.09361 189.91817C242.09361 189.91817 242.09361 189.91817 242.09361 189.91817C242.09361 189.91817 242.09361 189.91817 242.09361 189.91817C242.09361 189.91817 242.09361 189.91817 242.09361 189.91817Z" fill-rule="nonzero"/><path stroke="#000000" stroke-width="1.0" stroke-linecap="butt" d="M35.5 332.5L35.5 320.5" fill-rule="nonzero"/><path stroke="#000000" stroke-width="1.0" stroke-linecap="butt" d="M242.5 332.5L242.5 320.5" fill-rule="nonzero"/><path stroke="#ffffff" stroke-width="3.0" stroke-linejoin="round" stroke-linecap="round" d="M25.016855 123.523L25.454355 119.273L29.829355 119.273L29.829355 120.273L26.37623 120.273L26.110605 122.60113Q26.75123 122.22613 27.548105 122.22613Q28.704355 122.22613 29.391855 123.00738Q30.079355 123.773 30.079355 125.0855Q30.079355 126.398 29.360605 127.16363Q28.65748 127.92925 27.37623 127.92925Q26.25123 127.92925 25.53248 127.30425Q24.81373 126.66363 24.71998 125.55425L25.735605 125.55425Q25.84498 126.28863 26.266855 126.66363Q26.68873 127.03863 27.37623 127.03863Q28.12623 127.03863 28.56373 126.523Q29.00123 126.00738 29.00123 125.10113Q29.00123 124.24175 28.53248 123.72613Q28.06373 123.2105 27.28248 123.2105Q26.579355 123.2105 26.173105 123.50738L25.891855 123.74175L25.016855 123.523ZM36.87623 124.16363Q36.87623 126.06988 36.21998 127.00738Q35.579353 127.92925 34.18873 127.92925Q32.829353 127.92925 32.173103 127.023Q31.516855 126.11675 31.485605 124.30425L31.485605 122.86675Q31.485605 120.97613 32.12623 120.06988Q32.78248 119.148 34.173103 119.148Q35.548103 119.148 36.204353 120.03863Q36.860603 120.91363 36.87623 122.75738L36.87623 124.16363ZM35.78248 122.67925Q35.78248 121.30425 35.391853 120.67925Q35.016853 120.03863 34.173103 120.03863Q33.34498 120.03863 32.954353 120.67925Q32.579353 121.30425 32.579353 122.60113L32.579353 124.3355Q32.579353 125.7105 32.96998 126.38238Q33.37623 127.03863 34.18873 127.03863Q34.985603 127.03863 35.37623 126.41363Q35.766853 125.78863 35.78248 124.4605L35.78248 122.67925ZM38.423103 120.91363Q38.423103 120.148 38.90748 119.648Q39.40748 119.148 40.173103 119.148Q40.954353 119.148 41.43873 119.648Q41.923103 120.148 41.923103 120.94488L41.923103 121.36675Q41.923103 122.13238 41.423103 122.63238Q40.93873 123.11675 40.18873 123.11675Q39.423103 123.11675 38.923103 122.63238Q38.423103 122.13238 38.423103 121.31988L38.423103 120.91363ZM39.235603 121.36675Q39.235603 121.81988 39.485603 122.11675Q39.75123 122.41363 40.18873 122.41363Q40.610603 122.41363 40.860603 122.13238Q41.110603 121.8355 41.110603 121.3355L41.110603 120.91363Q41.110603 120.4605 40.860603 120.16363Q40.610603 119.85113 40.173103 119.85113Q39.735603 119.85113 39.485603 120.16363Q39.235603 120.4605 39.235603 120.92925L39.235603 121.36675ZM42.579353 125.7105Q42.579353 124.94488 43.06373 124.4605Q43.56373 123.9605 44.329353 123.9605Q45.09498 123.9605 45.579353 124.4605Q46.079353 124.94488 46.079353 125.75738L46.079353 126.16363Q46.079353 126.92925 45.59498 127.42925Q45.110603 127.92925 44.34498 127.92925Q43.579353 127.92925 43.079353 127.44488Q42.579353 126.94488 42.579353 126.13238L42.579353 125.7105ZM43.391853 126.16363Q43.391853 126.63238 43.641853 126.92925Q43.90748 127.22613 44.34498 127.22613Q44.766853 127.22613 45.016853 126.94488Q45.266853 126.648 45.266853 126.148L45.266853 125.7105Q45.266853 125.24175 45.00123 124.9605Q44.75123 124.66363 44.329353 124.66363Q43.90748 124.66363 43.641853 124.9605Q43.391853 125.24175 43.391853 125.74175L43.391853 126.16363ZM40.43873 127.16363L39.81373 126.773L43.985603 120.10113L44.59498 120.49175L40.43873 127.16363Z" fill-rule="nonzero"/><path fill="#5f9dd6" d="M25.016855 123.523L25.454355 119.273L29.829355 119.273L29.829355 120.273L26.37623 120.273L26.110605 122.60113Q26.75123 122.22613 27.548105 122.22613Q28.704355 122.22613 29.391855 123.00738Q30.079355 123.773 30.079355 125.0855Q30.079355 126.398 29.360605 127.16363Q28.65748 127.92925 27.37623 127.92925Q26.25123 127.92925 25.53248 127.30425Q24.81373 126.66363 24.71998 125.55425L25.735605 125.55425Q25.84498 126.28863 26.266855 126.66363Q26.68873 127.03863 27.37623 127.03863Q28.12623 127.03863 28.56373 126.523Q29.00123 126.00738 29.00123 125.10113Q29.00123 124.24175 28.53248 123.72613Q28.06373 123.2105 27.28248 123.2105Q26.579355 123.2105 26.173105 123.50738L25.891855 123.74175L25.016855 123.523ZM36.87623 124.16363Q36.87623 126.06988 36.21998 127.00738Q35.579353 127.92925 34.18873 127.92925Q32.829353 127.92925 32.173103 127.023Q31.516855 126.11675 31.485605 124.30425L31.485605 122.86675Q31.485605 120.97613 32.12623 120.06988Q32.78248 119.148 34.173103 119.148Q35.548103 119.148 36.204353 120.03863Q36.860603 120.91363 36.87623 122.75738L36.87623 124.16363ZM35.78248 122.67925Q35.78248 121.30425 35.391853 120.67925Q35.016853 120.03863 34.173103 120.03863Q33.34498 120.03863 32.954353 120.67925Q32.579353 121.30425 32.579353 122.60113L32.579353 124.3355Q32.579353 125.7105 32.96998 126.38238Q33.37623 127.03863 34.18873 127.03863Q34.985603 127.03863 35.37623 126.41363Q35.766853 125.78863 35.78248 124.4605L35.78248 122.67925ZM38.423103 120.91363Q38.423103 120.148 38.90748 119.648Q39.40748 119.148 40.173103 119.148Q40.954353 119.148 41.43873 119.648Q41.923103 120.148 41.923103 120.94488L41.923103 121.36675Q41.923103 122.13238 41.423103 122.63238Q40.93873 123.11675 40.18873 123.11675Q39.423103 123.11675 38.923103 122.63238Q38.423103 122.13238 38.423103 121.31988L38.423103 120.91363ZM39.235603 121.36675Q39.235603 121.81988 39.485603 122.11675Q39.75123 122.41363 40.18873 122.41363Q40.610603 122.41363 40.860603 122.13238Q41.110603 121.8355 41.110603 121.3355L41.110603 120.91363Q41.110603 120.4605 40.860603 120.16363Q40.610603 119.85113 40.173103 119.85113Q39.735603 119.85113 39.485603 120.16363Q39.235603 120.4605 39.235603 120.92925L39.235603 121.36675ZM42.579353 125.7105Q42.579353 124.94488 43.06373 124.4605Q43.56373 123.9605 44.329353 123.9605Q45.09498 123.9605 45.579353 124.4605Q46.079353 124.94488 46.079353 125.75738L46.079353 126.16363Q46.079353 126.92925 45.59498 127.42925Q45.110603 127.92925 44.34498 127.92925Q43.579353 127.92925 43.079353 127.44488Q42.579353 126.94488 42.579353 126.13238L42.579353 125.7105ZM43.391853 126.16363Q43.391853 126.63238 43.641853 126.92925Q43.90748 127.22613 44.34498 127.22613Q44.766853 127.22613 45.016853 126.94488Q45.266853 126.648 45.266853 126.148L45.266853 125.7105Q45.266853 125.24175 45.00123 124.9605Q44.75123 124.66363 44.329353 124.66363Q43.90748 124.66363 43.641853 124.9605Q43.391853 125.24175 43.391853 125.74175L43.391853 126.16363ZM40.43873 127.16363L39.81373 126.773L43.985603 120.10113L44.59498 120.49175L40.43873 127.16363Z" fill-rule="nonzero"/><path stroke="#ffffff" stroke-width="3.0" stroke-linejoin="round" stroke-linecap="round" d="M116.38564 246.90034L110.79189 246.90034L110.79189 246.1191L113.74502 242.83784Q114.40127 242.08784 114.65127 241.63472Q114.90127 241.16597 114.90127 240.66597Q114.90127 239.9941 114.49502 239.57222Q114.10439 239.13472 113.41689 239.13472Q112.62002 239.13472 112.16689 239.60347Q111.71377 240.0566 111.71377 240.88472L110.63564 240.88472Q110.63564 239.69722 111.38564 238.97847Q112.15127 238.2441 113.41689 238.2441Q114.62002 238.2441 115.30752 238.8691Q115.99502 239.4941 115.99502 240.54097Q115.99502 241.79097 114.38564 243.54097L112.10439 246.00972L116.38564 246.00972L116.38564 246.90034ZM123.30752 238.97847L119.77627 246.90034L118.63564 246.90034L122.15127 239.25972L117.54189 239.25972L117.54189 238.3691L123.30752 238.3691L123.30752 238.97847ZM124.69814 240.00972Q124.69814 239.2441 125.18252 238.7441Q125.68252 238.2441 126.44814 238.2441Q127.22939 238.2441 127.71377 238.7441Q128.19815 239.2441 128.19815 240.04097L128.19815 240.46284Q128.19815 241.22847 127.69814 241.72847Q127.21377 242.21284 126.46377 242.21284Q125.69814 242.21284 125.19814 241.72847Q124.69814 241.22847 124.69814 240.41597L124.69814 240.00972ZM125.51064 240.46284Q125.51064 240.91597 125.76064 241.21284Q126.02627 241.50972 126.46377 241.50972Q126.88564 241.50972 127.13564 241.22847Q127.38564 240.9316 127.38564 240.4316L127.38564 240.00972Q127.38564 239.5566 127.13564 239.25972Q126.88564 238.94722 126.44814 238.94722Q126.01064 238.94722 125.76064 239.25972Q125.51064 239.5566 125.51064 240.02534L125.51064 240.46284ZM128.8544 244.8066Q128.8544 244.04097 129.33878 243.5566Q129.83878 243.0566 130.6044 243.0566Q131.37003 243.0566 131.8544 243.5566Q132.3544 244.04097 132.3544 244.85347L132.3544 245.25972Q132.3544 246.02534 131.87003 246.52534Q131.38565 247.02534 130.62003 247.02534Q129.8544 247.02534 129.3544 246.54097Q128.8544 246.04097 128.8544 245.22847L128.8544 244.8066ZM129.6669 245.25972Q129.6669 245.72847 129.9169 246.02534Q130.18253 246.32222 130.62003 246.32222Q131.0419 246.32222 131.2919 246.04097Q131.5419 245.7441 131.5419 245.2441L131.5419 244.8066Q131.5419 244.33784 131.27628 244.0566Q131.02628 243.75972 130.6044 243.75972Q130.18253 243.75972 129.9169 244.0566Q129.6669 244.33784 129.6669 244.83784L129.6669 245.25972ZM126.71377 246.25972L126.08877 245.8691L130.26065 239.19722L130.87003 239.58784L126.71377 246.25972Z" fill-rule="nonzero"/><path fill="#5f9dd6" d="M116.38564 246.90034L110.79189 246.90034L110.79189 246.1191L113.74502 242.83784Q114.40127 242.08784 114.65127 241.63472Q114.90127 241.16597 114.90127 240.66597Q114.90127 239.9941 114.49502 239.57222Q114.10439 239.13472 113.41689 239.13472Q112.62002 239.13472 112.16689 239.60347Q111.71377 240.0566 111.71377 240.88472L110.63564 240.88472Q110.63564 239.69722 111.38564 238.97847Q112.15127 238.2441 113.41689 238.2441Q114.62002 238.2441 115.30752 238.8691Q115.99502 239.4941 115.99502 240.54097Q115.99502 241.79097 114.38564 243.54097L112.10439 246.00972L116.38564 246.00972L116.38564 246.90034ZM123.30752 238.97847L119.77627 246.90034L118.63564 246.90034L122.15127 239.25972L117.54189 239.25972L117.54189 238.3691L123.30752 238.3691L123.30752 238.97847ZM124.69814 240.00972Q124.69814 239.2441 125.18252 238.7441Q125.68252 238.2441 126.44814 238.2441Q127.22939 238.2441 127.71377 238.7441Q128.19815 239.2441 128.19815 240.04097L128.19815 240.46284Q128.19815 241.22847 127.69814 241.72847Q127.21377 242.21284 126.46377 242.21284Q125.69814 242.21284 125.19814 241.72847Q124.69814 241.22847 124.69814 240.41597L124.69814 240.00972ZM125.51064 240.46284Q125.51064 240.91597 125.76064 241.21284Q126.02627 241.50972 126.46377 241.50972Q126.88564 241.50972 127.13564 241.22847Q127.38564 240.9316 127.38564 240.4316L127.38564 240.00972Q127.38564 239.5566 127.13564 239.25972Q126.88564 238.94722 126.44814 238.94722Q126.01064 238.94722 125.76064 239.25972Q125.51064 239.5566 125.51064 240.02534L125.51064 240.46284ZM128.8544 244.8066Q128.8544 244.04097 129.33878 243.5566Q129.83878 243.0566 130.6044 243.0566Q131.37003 243.0566 131.8544 243.5566Q132.3544 244.04097 132.3544 244.85347L132.3544 245.25972Q132.3544 246.02534 131.87003 246.52534Q131.38565 247.02534 130.62003 247.02534Q129.8544 247.02534 129.3544 246.54097Q128.8544 246.04097 128.8544 245.22847L128.8544 244.8066ZM129.6669 245.25972Q129.6669 245.72847 129.9169 246.02534Q130.18253 246.32222 130.62003 246.32222Q131.0419 246.32222 131.2919 246.04097Q131.5419 245.7441 131.5419 245.2441L131.5419 244.8066Q131.5419 244.33784 131.27628 244.0566Q131.02628 243.75972 130.6044 243.75972Q130.18253 243.75972 129.9169 244.0566Q129.6669 244.33784 129.6669 244.83784L129.6669 245.25972ZM126.71377 246.25972L126.08877 245.8691L130.26065 239.19722L130.87003 239.58784L126.71377 246.25972Z" fill-rule="nonzero"/><path fill="#ffffff" d="M24.56373 326.75192Q24.56373 326.00192 24.71998 325.53317Q24.87623 325.06442 25.18873 324.81442Q25.50123 324.56442 25.96998 324.56442Q26.31373 324.56442 26.56373 324.70505Q26.829355 324.84567 27.00123 325.1113Q27.173105 325.3613 27.266855 325.75192Q27.360605 326.12692 27.360605 326.75192Q27.360605 327.51755 27.204355 327.9863Q27.048105 328.43942 26.735605 328.70505Q26.43873 328.95505 25.96998 328.95505Q25.34498 328.95505 24.985605 328.50192Q24.56373 327.97067 24.56373 326.75192ZM25.110605 326.75192Q25.110605 327.81442 25.34498 328.1738Q25.59498 328.51755 25.96998 328.51755Q26.329355 328.51755 26.579355 328.1738Q26.829355 327.81442 26.829355 326.75192Q26.829355 325.70505 26.579355 325.3613Q26.329355 325.00192 25.954355 325.00192Q25.59498 325.00192 25.37623 325.31442Q25.110605 325.70505 25.110605 326.75192ZM27.65748 325.6113Q27.65748 325.15817 27.891855 324.83005Q28.12623 324.50192 28.56373 324.50192Q28.96998 324.50192 29.235605 324.7988Q29.50123 325.08005 29.50123 325.64255Q29.50123 326.18942 29.235605 326.4863Q28.96998 326.78317 28.56373 326.78317Q28.18873 326.78317 27.923105 326.50192Q27.65748 326.20505 27.65748 325.6113ZM28.579355 324.87692Q28.37623 324.87692 28.25123 325.0488Q28.12623 325.20505 28.12623 325.65817Q28.12623 326.08005 28.25123 326.25192Q28.391855 326.40817 28.579355 326.40817Q28.78248 326.40817 28.90748 326.25192Q29.03248 326.08005 29.03248 325.62692Q29.03248 325.20505 28.90748 325.0488Q28.78248 324.87692 28.579355 324.87692ZM28.579355 329.03317L30.93873 324.50192L31.360605 324.50192L29.016855 329.03317L28.579355 329.03317ZM30.43873 327.8613Q30.43873 327.40817 30.673105 327.09567Q30.90748 326.76755 31.34498 326.76755Q31.75123 326.76755 32.016853 327.06442Q32.28248 327.34567 32.28248 327.90817Q32.28248 328.43942 32.016853 328.7363Q31.75123 329.03317 31.34498 329.03317Q30.954355 329.03317 30.68873 328.75192Q30.43873 328.45505 30.43873 327.8613ZM31.360605 327.12692Q31.15748 327.12692 31.03248 327.2988Q30.90748 327.47067 30.90748 327.9238Q30.90748 328.33005 31.03248 328.50192Q31.15748 328.6738 31.360605 328.6738Q31.56373 328.6738 31.68873 328.50192Q31.81373 328.33005 31.81373 327.87692Q31.81373 327.47067 31.68873 327.2988Q31.56373 327.12692 31.360605 327.12692Z" fill-rule="nonzero"/><path fill="#ffffff" d="M24.329355 256.23642L24.329355 256.73642L21.50123 256.73642Q21.485605 256.54892 21.56373 256.37704Q21.673105 256.08017 21.90748 255.79892Q22.141855 255.51767 22.59498 255.14267Q23.298105 254.58017 23.53248 254.25204Q23.78248 253.9083 23.78248 253.61142Q23.78248 253.2833 23.56373 253.08017Q23.34498 252.86142 22.985605 252.86142Q22.59498 252.86142 22.360605 253.0958Q22.141855 253.31454 22.141855 253.7208L21.59498 253.6583Q21.65748 253.06454 22.016855 252.75204Q22.37623 252.42392 22.985605 252.42392Q23.610605 252.42392 23.96998 252.76767Q24.329355 253.11142 24.329355 253.61142Q24.329355 253.87704 24.21998 254.12704Q24.110605 254.37704 23.860605 254.6583Q23.62623 254.92392 23.06373 255.4083Q22.579355 255.79892 22.43873 255.93954Q22.31373 256.08017 22.235605 256.23642L24.329355 256.23642ZM24.56373 254.61142Q24.56373 253.86142 24.71998 253.39267Q24.87623 252.92392 25.18873 252.67392Q25.50123 252.42392 25.96998 252.42392Q26.31373 252.42392 26.56373 252.56454Q26.829355 252.70517 27.00123 252.9708Q27.173105 253.2208 27.266855 253.61142Q27.360605 253.98642 27.360605 254.61142Q27.360605 255.37704 27.204355 255.8458Q27.048105 256.29892 26.735605 256.56454Q26.43873 256.81454 25.96998 256.81454Q25.34498 256.81454 24.985605 256.36142Q24.56373 255.83017 24.56373 254.61142ZM25.110605 254.61142Q25.110605 255.67392 25.34498 256.0333Q25.59498 256.37704 25.96998 256.37704Q26.329355 256.37704 26.579355 256.0333Q26.829355 255.67392 26.829355 254.61142Q26.829355 253.56454 26.579355 253.2208Q26.329355 252.86142 25.954355 252.86142Q25.59498 252.86142 25.37623 253.17392Q25.110605 253.56454 25.110605 254.61142ZM27.65748 253.4708Q27.65748 253.01767 27.891855 252.68954Q28.12623 252.36142 28.56373 252.36142Q28.96998 252.36142 29.235605 252.6583Q29.50123 252.93954 29.50123 253.50204Q29.50123 254.04892 29.235605 254.3458Q28.96998 254.64267 28.56373 254.64267Q28.18873 254.64267 27.923105 254.36142Q27.65748 254.06454 27.65748 253.4708ZM28.579355 252.73642Q28.37623 252.73642 28.25123 252.9083Q28.12623 253.06454 28.12623 253.51767Q28.12623 253.93954 28.25123 254.11142Q28.391855 254.26767 28.579355 254.26767Q28.78248 254.26767 28.90748 254.11142Q29.03248 253.93954 29.03248 253.48642Q29.03248 253.06454 28.90748 252.9083Q28.78248 252.73642 28.579355 252.73642ZM28.579355 256.89267L30.93873 252.36142L31.360605 252.36142L29.016855 256.89267L28.579355 256.89267ZM30.43873 255.7208Q30.43873 255.26767 30.673105 254.95517Q30.90748 254.62704 31.34498 254.62704Q31.75123 254.62704 32.016853 254.92392Q32.28248 255.20517 32.28248 255.76767Q32.28248 256.29892 32.016853 256.5958Q31.75123 256.89267 31.34498 256.89267Q30.954355 256.89267 30.68873 256.61142Q30.43873 256.31454 30.43873 255.7208ZM31.360605 254.98642Q31.15748 254.98642 31.03248 255.1583Q30.90748 255.33017 30.90748 255.7833Q30.90748 256.18954 31.03248 256.36142Q31.15748 256.5333 31.360605 256.5333Q31.56373 256.5333 31.68873 256.36142Q31.81373 256.18954 31.81373 255.73642Q31.81373 255.33017 31.68873 255.1583Q31.56373 254.98642 31.360605 254.98642Z" fill-rule="nonzero"/><path fill="#ffffff" d="M23.25123 184.5959L23.25123 183.56465L21.391855 183.56465L21.391855 183.08028L23.34498 180.29903L23.78248 180.29903L23.78248 183.08028L24.360605 183.08028L24.360605 183.56465L23.78248 183.56465L23.78248 184.5959L23.25123 184.5959ZM23.25123 183.08028L23.25123 181.14278L21.90748 183.08028L23.25123 183.08028ZM24.56373 182.4709Q24.56373 181.7209 24.71998 181.25215Q24.87623 180.7834 25.18873 180.5334Q25.50123 180.2834 25.96998 180.2834Q26.31373 180.2834 26.56373 180.42403Q26.829355 180.56465 27.00123 180.83028Q27.173105 181.08028 27.266855 181.4709Q27.360605 181.8459 27.360605 182.4709Q27.360605 183.23653 27.204355 183.70528Q27.048105 184.1584 26.735605 184.42403Q26.43873 184.67403 25.96998 184.67403Q25.34498 184.67403 24.985605 184.2209Q24.56373 183.68965 24.56373 182.4709ZM25.110605 182.4709Q25.110605 183.5334 25.34498 183.89278Q25.59498 184.23653 25.96998 184.23653Q26.329355 184.23653 26.579355 183.89278Q26.829355 183.5334 26.829355 182.4709Q26.829355 181.42403 26.579355 181.08028Q26.329355 180.7209 25.954355 180.7209Q25.59498 180.7209 25.37623 181.0334Q25.110605 181.42403 25.110605 182.4709ZM27.65748 181.33028Q27.65748 180.87715 27.891855 180.54903Q28.12623 180.2209 28.56373 180.2209Q28.96998 180.2209 29.235605 180.51778Q29.50123 180.79903 29.50123 181.36153Q29.50123 181.9084 29.235605 182.20528Q28.96998 182.50215 28.56373 182.50215Q28.18873 182.50215 27.923105 182.2209Q27.65748 181.92403 27.65748 181.33028ZM28.579355 180.5959Q28.37623 180.5959 28.25123 180.76778Q28.12623 180.92403 28.12623 181.37715Q28.12623 181.79903 28.25123 181.9709Q28.391855 182.12715 28.579355 182.12715Q28.78248 182.12715 28.90748 181.9709Q29.03248 181.79903 29.03248 181.3459Q29.03248 180.92403 28.90748 180.76778Q28.78248 180.5959 28.579355 180.5959ZM28.579355 184.75215L30.93873 180.2209L31.360605 180.2209L29.016855 184.75215L28.579355 184.75215ZM30.43873 183.58028Q30.43873 183.12715 30.673105 182.81465Q30.90748 182.48653 31.34498 182.48653Q31.75123 182.48653 32.016853 182.7834Q32.28248 183.06465 32.28248 183.62715Q32.28248 184.1584 32.016853 184.45528Q31.75123 184.75215 31.34498 184.75215Q30.954355 184.75215 30.68873 184.4709Q30.43873 184.17403 30.43873 183.58028ZM31.360605 182.8459Q31.15748 182.8459 31.03248 183.01778Q30.90748 183.18965 30.90748 183.64278Q30.90748 184.04903 31.03248 184.2209Q31.15748 184.39278 31.360605 184.39278Q31.56373 184.39278 31.68873 184.2209Q31.81373 184.04903 31.81373 183.5959Q31.81373 183.18965 31.68873 183.01778Q31.56373 182.8459 31.360605 182.8459Z" fill-rule="nonzero"/><path fill="#ffffff" d="M24.298105 109.20541L23.78248 109.25228Q23.704355 108.93978 23.579355 108.79916Q23.360605 108.58041 23.048105 108.58041Q22.798105 108.58041 22.610605 108.72103Q22.360605 108.89291 22.204355 109.25228Q22.06373 109.59603 22.06373 110.23666Q22.25123 109.95541 22.516855 109.81478Q22.798105 109.67416 23.110605 109.67416Q23.641855 109.67416 24.00123 110.06478Q24.37623 110.43978 24.37623 111.06478Q24.37623 111.47103 24.204355 111.81478Q24.03248 112.15853 23.71998 112.34603Q23.423105 112.53353 23.03248 112.53353Q22.37623 112.53353 21.954355 112.04916Q21.53248 111.56478 21.53248 110.43978Q21.53248 109.20541 22.00123 108.62728Q22.40748 108.14291 23.079355 108.14291Q23.59498 108.14291 23.90748 108.42416Q24.235605 108.70541 24.298105 109.20541ZM22.141855 111.06478Q22.141855 111.33041 22.25123 111.58041Q22.37623 111.83041 22.579355 111.97103Q22.798105 112.09603 23.016855 112.09603Q23.360605 112.09603 23.59498 111.83041Q23.829355 111.54916 23.829355 111.09603Q23.829355 110.64291 23.59498 110.39291Q23.360605 110.12728 23.00123 110.12728Q22.641855 110.12728 22.391855 110.39291Q22.141855 110.64291 22.141855 111.06478ZM24.56373 110.33041Q24.56373 109.58041 24.71998 109.11166Q24.87623 108.64291 25.18873 108.39291Q25.50123 108.14291 25.96998 108.14291Q26.31373 108.14291 26.56373 108.28353Q26.829355 108.42416 27.00123 108.68978Q27.173105 108.93978 27.266855 109.33041Q27.360605 109.70541 27.360605 110.33041Q27.360605 111.09603 27.204355 111.56478Q27.048105 112.01791 26.735605 112.28353Q26.43873 112.53353 25.96998 112.53353Q25.34498 112.53353 24.985605 112.08041Q24.56373 111.54916 24.56373 110.33041ZM25.110605 110.33041Q25.110605 111.39291 25.34498 111.75228Q25.59498 112.09603 25.96998 112.09603Q26.329355 112.09603 26.579355 111.75228Q26.829355 111.39291 26.829355 110.33041Q26.829355 109.28353 26.579355 108.93978Q26.329355 108.58041 25.954355 108.58041Q25.59498 108.58041 25.37623 108.89291Q25.110605 109.28353 25.110605 110.33041ZM27.65748 109.18978Q27.65748 108.73666 27.891855 108.40853Q28.12623 108.08041 28.56373 108.08041Q28.96998 108.08041 29.235605 108.37728Q29.50123 108.65853 29.50123 109.22103Q29.50123 109.76791 29.235605 110.06478Q28.96998 110.36166 28.56373 110.36166Q28.18873 110.36166 27.923105 110.08041Q27.65748 109.78353 27.65748 109.18978ZM28.579355 108.45541Q28.37623 108.45541 28.25123 108.62728Q28.12623 108.78353 28.12623 109.23666Q28.12623 109.65853 28.25123 109.83041Q28.391855 109.98666 28.579355 109.98666Q28.78248 109.98666 28.90748 109.83041Q29.03248 109.65853 29.03248 109.20541Q29.03248 108.78353 28.90748 108.62728Q28.78248 108.45541 28.579355 108.45541ZM28.579355 112.61166L30.93873 108.08041L31.360605 108.08041L29.016855 112.61166L28.579355 112.61166ZM30.43873 111.43978Q30.43873 110.98666 30.673105 110.67416Q30.90748 110.34603 31.34498 110.34603Q31.75123 110.34603 32.016853 110.64291Q32.28248 110.92416 32.28248 111.48666Q32.28248 112.01791 32.016853 112.31478Q31.75123 112.61166 31.34498 112.61166Q30.954355 112.61166 30.68873 112.33041Q30.43873 112.03353 30.43873 111.43978ZM31.360605 110.70541Q31.15748 110.70541 31.03248 110.87728Q30.90748 111.04916 30.90748 111.50228Q30.90748 111.90853 31.03248 112.08041Q31.15748 112.25228 31.360605 112.25228Q31.56373 112.25228 31.68873 112.08041Q31.81373 111.90853 31.81373 111.45541Q31.81373 111.04916 31.68873 110.87728Q31.56373 110.70541 31.360605 110.70541Z" fill-rule="nonzero"/><path fill="#000000" d="M27.360605 348.8613L27.360605 349.87692L21.673105 349.87692Q21.673105 349.50192 21.798105 349.14255Q22.016855 348.56442 22.485605 348.00192Q22.96998 347.43942 23.87623 346.70505Q25.28248 345.5488 25.766855 344.87692Q26.266855 344.20505 26.266855 343.6113Q26.266855 342.9863 25.81373 342.56442Q25.360605 342.12692 24.641855 342.12692Q23.87623 342.12692 23.423105 342.58005Q22.96998 343.03317 22.954355 343.84567L21.87623 343.7363Q21.985605 342.51755 22.704355 341.89255Q23.43873 341.25192 24.673105 341.25192Q25.90748 341.25192 26.62623 341.93942Q27.34498 342.62692 27.34498 343.64255Q27.34498 344.15817 27.12623 344.65817Q26.923105 345.14255 26.423105 345.70505Q25.93873 346.25192 24.81373 347.20505Q23.860605 348.00192 23.579355 348.2988Q23.31373 348.58005 23.141855 348.8613L27.360605 348.8613ZM28.81373 345.64255Q28.81373 344.1113 29.12623 343.18942Q29.43873 342.25192 30.048105 341.75192Q30.673105 341.25192 31.610605 341.25192Q32.298103 341.25192 32.81373 341.53317Q33.34498 341.81442 33.68873 342.34567Q34.03248 342.8613 34.21998 343.6113Q34.40748 344.3613 34.40748 345.64255Q34.40748 347.15817 34.09498 348.08005Q33.798103 349.00192 33.173103 349.51755Q32.56373 350.01755 31.610605 350.01755Q30.37623 350.01755 29.65748 349.12692Q28.81373 348.06442 28.81373 345.64255ZM29.891855 345.64255Q29.891855 347.75192 30.391855 348.45505Q30.891855 349.15817 31.610605 349.15817Q32.34498 349.15817 32.829353 348.45505Q33.329353 347.75192 33.329353 345.64255Q33.329353 343.51755 32.829353 342.83005Q32.34498 342.12692 31.59498 342.12692Q30.87623 342.12692 30.43873 342.7363Q29.891855 343.51755 29.891855 345.64255ZM39.78248 349.87692L38.735603 349.87692L38.735603 343.15817Q38.34498 343.51755 37.71998 343.89255Q37.110603 344.25192 36.62623 344.4238L36.62623 343.40817Q37.50123 342.9863 38.15748 342.40817Q38.829353 341.81442 39.110603 341.25192L39.78248 341.25192L39.78248 349.87692ZM42.81373 345.64255Q42.81373 344.1113 43.12623 343.18942Q43.43873 342.25192 44.048103 341.75192Q44.673103 341.25192 45.610603 341.25192Q46.298103 341.25192 46.81373 341.53317Q47.34498 341.81442 47.68873 342.34567Q48.03248 342.8613 48.21998 343.6113Q48.40748 344.3613 48.40748 345.64255Q48.40748 347.15817 48.09498 348.08005Q47.798103 349.00192 47.173103 349.51755Q46.56373 350.01755 45.610603 350.01755Q44.37623 350.01755 43.65748 349.12692Q42.81373 348.06442 42.81373 345.64255ZM43.891853 345.64255Q43.891853 347.75192 44.391853 348.45505Q44.891853 349.15817 45.610603 349.15817Q46.34498 349.15817 46.829353 348.45505Q47.329353 347.75192 47.329353 345.64255Q47.329353 343.51755 46.829353 342.83005Q46.34498 342.12692 45.59498 342.12692Q44.87623 342.12692 44.43873 342.7363Q43.891853 343.51755 43.891853 345.64255Z" fill-rule="nonzero"/><path fill="#000000" d="M234.14049 348.8613L234.14049 349.87692L228.45299 349.87692Q228.45299 349.50192 228.57799 349.14255Q228.79674 348.56442 229.26549 348.00192Q229.74986 347.43942 230.65611 346.70505Q232.06236 345.5488 232.54674 344.87692Q233.04674 344.20505 233.04674 343.6113Q233.04674 342.9863 232.59361 342.56442Q232.14049 342.12692 231.42174 342.12692Q230.65611 342.12692 230.20299 342.58005Q229.74986 343.03317 229.73424 343.84567L228.65611 343.7363Q228.76549 342.51755 229.48424 341.89255Q230.21861 341.25192 231.45299 341.25192Q232.68736 341.25192 233.40611 341.93942Q234.12486 342.62692 234.12486 343.64255Q234.12486 344.15817 233.90611 344.65817Q233.70299 345.14255 233.20299 345.70505Q232.71861 346.25192 231.59361 347.20505Q230.64049 348.00192 230.35924 348.2988Q230.09361 348.58005 229.92174 348.8613L234.14049 348.8613ZM235.59361 345.64255Q235.59361 344.1113 235.90611 343.18942Q236.21861 342.25192 236.82799 341.75192Q237.45299 341.25192 238.39049 341.25192Q239.07799 341.25192 239.59361 341.53317Q240.12486 341.81442 240.46861 342.34567Q240.81236 342.8613 240.99986 343.6113Q241.18736 344.3613 241.18736 345.64255Q241.18736 347.15817 240.87486 348.08005Q240.57799 349.00192 239.95299 349.51755Q239.34361 350.01755 238.39049 350.01755Q237.15611 350.01755 236.43736 349.12692Q235.59361 348.06442 235.59361 345.64255ZM236.67174 345.64255Q236.67174 347.75192 237.17174 348.45505Q237.67174 349.15817 238.39049 349.15817Q239.12486 349.15817 239.60924 348.45505Q240.10924 347.75192 240.10924 345.64255Q240.10924 343.51755 239.60924 342.83005Q239.12486 342.12692 238.37486 342.12692Q237.65611 342.12692 237.21861 342.7363Q236.67174 343.51755 236.67174 345.64255ZM248.14049 348.8613L248.14049 349.87692L242.45299 349.87692Q242.45299 349.50192 242.57799 349.14255Q242.79674 348.56442 243.26549 348.00192Q243.74986 347.43942 244.65611 346.70505Q246.06236 345.5488 246.54674 344.87692Q247.04674 344.20505 247.04674 343.6113Q247.04674 342.9863 246.59361 342.56442Q246.14049 342.12692 245.42174 342.12692Q244.65611 342.12692 244.20299 342.58005Q243.74986 343.03317 243.73424 343.84567L242.65611 343.7363Q242.76549 342.51755 243.48424 341.89255Q244.21861 341.25192 245.45299 341.25192Q246.68736 341.25192 247.40611 341.93942Q248.12486 342.62692 248.12486 343.64255Q248.12486 344.15817 247.90611 344.65817Q247.70299 345.14255 247.20299 345.70505Q246.71861 346.25192 245.59361 347.20505Q244.64049 348.00192 244.35924 348.2988Q244.09361 348.58005 243.92174 348.8613L248.14049 348.8613ZM255.14049 348.8613L255.14049 349.87692L249.45299 349.87692Q249.45299 349.50192 249.57799 349.14255Q249.79674 348.56442 250.26549 348.00192Q250.74986 347.43942 251.65611 346.70505Q253.06236 345.5488 253.54674 344.87692Q254.04674 344.20505 254.04674 343.6113Q254.04674 342.9863 253.59361 342.56442Q253.14049 342.12692 252.42174 342.12692Q251.65611 342.12692 251.20299 342.58005Q250.74986 343.03317 250.73424 343.84567L249.65611 343.7363Q249.76549 342.51755 250.48424 341.89255Q251.21861 341.25192 252.45299 341.25192Q253.68736 341.25192 254.40611 341.93942Q255.12486 342.62692 255.12486 343.64255Q255.12486 344.15817 254.90611 344.65817Q254.70299 345.14255 254.20299 345.70505Q253.71861 346.25192 252.59361 347.20505Q251.64049 348.00192 251.35924 348.2988Q251.09361 348.58005 250.92174 348.8613L255.14049 348.8613Z" fill-rule="nonzero"/><path stroke="#5f9dd6" stroke-width="4.0" stroke-linecap="butt" d="M13.869192 49.0L25.869192 49.0" fill-rule="nonzero"/><path fill="#1a1a1a" d="M34.416065 50.234375L35.478565 50.140625Q35.55669 50.796875 35.83794 51.203125Q36.11919 51.609375 36.697315 51.875Q37.291065 52.125 38.02544 52.125Q38.666065 52.125 39.166065 51.9375Q39.666065 51.734375 39.90044 51.40625Q40.15044 51.0625 40.15044 50.671875Q40.15044 50.265625 39.916065 49.96875Q39.68169 49.65625 39.15044 49.453125Q38.791065 49.3125 37.603565 49.03125Q36.43169 48.75 35.96294 48.5Q35.33794 48.171875 35.041065 47.703125Q34.74419 47.21875 34.74419 46.625Q34.74419 45.984375 35.103565 45.421875Q35.478565 44.84375 36.18169 44.5625Q36.90044 44.265625 37.759815 44.265625Q38.71294 44.265625 39.447315 44.578125Q40.18169 44.875 40.572315 45.484375Q40.96294 46.078125 40.99419 46.828125L39.90044 46.90625Q39.80669 46.09375 39.291065 45.6875Q38.791065 45.265625 37.80669 45.265625Q36.77544 45.265625 36.30669 45.640625Q35.83794 46.015625 35.83794 46.546875Q35.83794 47.015625 36.166065 47.3125Q36.49419 47.609375 37.86919 47.921875Q39.259815 48.234375 39.77544 48.46875Q40.52544 48.828125 40.884815 49.359375Q41.24419 49.875 41.24419 50.578125Q41.24419 51.265625 40.853565 51.875Q40.46294 52.46875 39.728565 52.8125Q38.99419 53.140625 38.072315 53.140625Q36.90044 53.140625 36.103565 52.8125Q35.322315 52.46875 34.86919 51.78125Q34.43169 51.09375 34.416065 50.234375ZM46.74419 53.0L46.74419 52.078125Q46.009815 53.140625 44.759815 53.140625Q44.21294 53.140625 43.728565 52.9375Q43.259815 52.71875 43.02544 52.40625Q42.791065 52.078125 42.697315 51.609375Q42.634815 51.3125 42.634815 50.625L42.634815 46.78125L43.697315 46.78125L43.697315 50.234375Q43.697315 51.046875 43.759815 51.34375Q43.853565 51.75 44.166065 52.0Q44.49419 52.234375 44.978565 52.234375Q45.447315 52.234375 45.853565 52.0Q46.27544 51.75 46.447315 51.328125Q46.634815 50.90625 46.634815 50.109375L46.634815 46.78125L47.68169 46.78125L47.68169 53.0L46.74419 53.0ZM53.728565 50.71875L54.759815 50.859375Q54.58794 51.921875 53.884815 52.53125Q53.18169 53.140625 52.166065 53.140625Q50.884815 53.140625 50.103565 52.3125Q49.33794 51.46875 49.33794 49.90625Q49.33794 48.90625 49.666065 48.15625Q50.009815 47.390625 50.68169 47.015625Q51.36919 46.640625 52.18169 46.640625Q53.18169 46.640625 53.822315 47.15625Q54.478565 47.65625 54.666065 48.609375L53.634815 48.765625Q53.49419 48.140625 53.11919 47.828125Q52.74419 47.5 52.21294 47.5Q51.416065 47.5 50.916065 48.078125Q50.416065 48.640625 50.416065 49.875Q50.416065 51.140625 50.90044 51.703125Q51.384815 52.265625 52.15044 52.265625Q52.77544 52.265625 53.18169 51.890625Q53.603565 51.515625 53.728565 50.71875ZM59.728565 50.71875L60.759815 50.859375Q60.58794 51.921875 59.884815 52.53125Q59.18169 53.140625 58.166065 53.140625Q56.884815 53.140625 56.103565 52.3125Q55.33794 51.46875 55.33794 49.90625Q55.33794 48.90625 55.666065 48.15625Q56.009815 47.390625 56.68169 47.015625Q57.36919 46.640625 58.18169 46.640625Q59.18169 46.640625 59.822315 47.15625Q60.478565 47.65625 60.666065 48.609375L59.634815 48.765625Q59.49419 48.140625 59.11919 47.828125Q58.74419 47.5 58.21294 47.5Q57.416065 47.5 56.916065 48.078125Q56.416065 48.640625 56.416065 49.875Q56.416065 51.140625 56.90044 51.703125Q57.384815 52.265625 58.15044 52.265625Q58.77544 52.265625 59.18169 51.890625Q59.603565 51.515625 59.728565 50.71875ZM65.91606 51.0L67.00981 51.125Q66.75981 52.078125 66.05669 52.609375Q65.35356 53.140625 64.27544 53.140625Q62.916065 53.140625 62.103565 52.296875Q61.30669 51.453125 61.30669 49.9375Q61.30669 48.375 62.11919 47.515625Q62.93169 46.640625 64.21294 46.640625Q65.46294 46.640625 66.24419 47.484375Q67.04106 48.328125 67.04106 49.875Q67.04106 49.96875 67.04106 50.15625L62.40044 50.15625Q62.46294 51.1875 62.978565 51.734375Q63.49419 52.265625 64.27544 52.265625Q64.85356 52.265625 65.25981 51.96875Q65.68169 51.65625 65.91606 51.0ZM62.46294 49.296875L65.93169 49.296875Q65.86919 48.5 65.54106 48.109375Q65.02544 47.5 64.22856 47.5Q63.49419 47.5 62.99419 47.984375Q62.509815 48.46875 62.46294 49.296875ZM68.24419 51.140625L69.27544 50.984375Q69.36919 51.609375 69.75981 51.9375Q70.16606 52.265625 70.90044 52.265625Q71.61919 52.265625 71.96294 51.984375Q72.32231 51.6875 72.32231 51.28125Q72.32231 50.921875 72.00981 50.71875Q71.79106 50.578125 70.93169 50.359375Q69.77544 50.0625 69.32231 49.859375Q68.88481 49.640625 68.65044 49.265625Q68.41606 48.890625 68.41606 48.421875Q68.41606 48.015625 68.60356 47.65625Q68.79106 47.296875 69.11919 47.0625Q69.36919 46.890625 69.79106 46.765625Q70.21294 46.640625 70.71294 46.640625Q71.43169 46.640625 71.97856 46.859375Q72.54106 47.0625 72.80669 47.421875Q73.07231 47.78125 73.16606 48.375L72.13481 48.515625Q72.07231 48.046875 71.72856 47.78125Q71.40044 47.5 70.77544 47.5Q70.05669 47.5 69.74419 47.75Q69.43169 47.984375 69.43169 48.3125Q69.43169 48.515625 69.55669 48.671875Q69.69731 48.84375 69.96294 48.953125Q70.11919 49.015625 70.90044 49.21875Q72.02544 49.53125 72.46294 49.71875Q72.90044 49.90625 73.15044 50.265625Q73.40044 50.625 73.40044 51.171875Q73.40044 51.703125 73.08794 52.171875Q72.79106 52.625 72.21294 52.890625Q71.63481 53.140625 70.90044 53.140625Q69.68169 53.140625 69.04106 52.640625Q68.41606 52.125 68.24419 51.140625ZM75.24419 51.140625L76.27544 50.984375Q76.36919 51.609375 76.75981 51.9375Q77.16606 52.265625 77.90044 52.265625Q78.61919 52.265625 78.96294 51.984375Q79.32231 51.6875 79.32231 51.28125Q79.32231 50.921875 79.00981 50.71875Q78.79106 50.578125 77.93169 50.359375Q76.77544 50.0625 76.32231 49.859375Q75.88481 49.640625 75.65044 49.265625Q75.41606 48.890625 75.41606 48.421875Q75.41606 48.015625 75.60356 47.65625Q75.79106 47.296875 76.11919 47.0625Q76.36919 46.890625 76.79106 46.765625Q77.21294 46.640625 77.71294 46.640625Q78.43169 46.640625 78.97856 46.859375Q79.54106 47.0625 79.80669 47.421875Q80.07231 47.78125 80.16606 48.375L79.13481 48.515625Q79.07231 48.046875 78.72856 47.78125Q78.40044 47.5 77.77544 47.5Q77.05669 47.5 76.74419 47.75Q76.43169 47.984375 76.43169 48.3125Q76.43169 48.515625 76.55669 48.671875Q76.69731 48.84375 76.96294 48.953125Q77.11919 49.015625 77.90044 49.21875Q79.02544 49.53125 79.46294 49.71875Q79.90044 49.90625 80.15044 50.265625Q80.40044 50.625 80.40044 51.171875Q80.40044 51.703125 80.08794 52.171875Q79.79106 52.625 79.21294 52.890625Q78.63481 53.140625 77.90044 53.140625Q76.68169 53.140625 76.04106 52.640625Q75.41606 52.125 75.24419 51.140625ZM85.65044 53.0L85.65044 46.78125L86.60356 46.78125L86.60356 47.71875Q86.96294 47.0625 87.25981 46.859375Q87.57231 46.640625 87.94731 46.640625Q88.47856 46.640625 89.02544 46.96875L88.66606 47.953125Q88.27544 47.71875 87.90044 47.71875Q87.54106 47.71875 87.25981 47.9375Q86.99419 48.140625 86.88481 48.515625Q86.69731 49.078125 86.69731 49.734375L86.69731 53.0L85.65044 53.0ZM93.72856 52.234375Q93.13481 52.734375 92.58794 52.9375Q92.05669 53.140625 91.43169 53.140625Q90.40044 53.140625 89.85356 52.640625Q89.30669 52.140625 89.30669 51.359375Q89.30669 50.90625 89.50981 50.53125Q89.71294 50.140625 90.05669 49.921875Q90.40044 49.6875 90.82231 49.578125Q91.11919 49.484375 91.75981 49.40625Q93.02544 49.265625 93.63481 49.046875Q93.63481 48.828125 93.63481 48.78125Q93.63481 48.125 93.33794 47.859375Q92.93169 47.515625 92.13481 47.515625Q91.40044 47.515625 91.04106 47.78125Q90.68169 48.03125 90.50981 48.6875L89.47856 48.546875Q89.61919 47.890625 89.94731 47.484375Q90.27544 47.078125 90.88481 46.859375Q91.49419 46.640625 92.29106 46.640625Q93.08794 46.640625 93.58794 46.828125Q94.08794 47.015625 94.32231 47.296875Q94.55669 47.578125 94.65044 48.015625Q94.69731 48.28125 94.69731 48.984375L94.69731 50.390625Q94.69731 51.859375 94.75981 52.25Q94.83794 52.640625 95.04106 53.0L93.93169 53.0Q93.77544 52.671875 93.72856 52.234375ZM93.63481 49.875Q93.05669 50.109375 91.91606 50.28125Q91.25981 50.375 90.99419 50.5Q90.72856 50.609375 90.57231 50.828125Q90.43169 51.046875 90.43169 51.328125Q90.43169 51.75 90.74419 52.03125Q91.07231 52.3125 91.68169 52.3125Q92.29106 52.3125 92.75981 52.046875Q93.24419 51.78125 93.46294 51.3125Q93.63481 50.953125 93.63481 50.265625L93.63481 49.875ZM98.96294 52.0625L99.11919 52.984375Q98.66606 53.078125 98.32231 53.078125Q97.74419 53.078125 97.43169 52.90625Q97.11919 52.71875 96.97856 52.421875Q96.85356 52.125 96.85356 51.171875L96.85356 47.59375L96.08794 47.59375L96.08794 46.78125L96.85356 46.78125L96.85356 45.234375L97.90044 44.609375L97.90044 46.78125L98.96294 46.78125L98.96294 47.59375L97.90044 47.59375L97.90044 51.234375Q97.90044 51.6875 97.94731 51.8125Q98.00981 51.9375 98.13481 52.015625Q98.25981 52.09375 98.49419 52.09375Q98.68169 52.09375 98.96294 52.0625ZM103.91606 51.0L105.00981 51.125Q104.75981 52.078125 104.05669 52.609375Q103.35356 53.140625 102.27544 53.140625Q100.91606 53.140625 100.10356 52.296875Q99.30669 51.453125 99.30669 49.9375Q99.30669 48.375 100.11919 47.515625Q100.93169 46.640625 102.21294 46.640625Q103.46294 46.640625 104.24419 47.484375Q105.04106 48.328125 105.04106 49.875Q105.04106 49.96875 105.04106 50.15625L100.40044 50.15625Q100.46294 51.1875 100.97856 51.734375Q101.49419 52.265625 102.27544 52.265625Q102.85356 52.265625 103.25981 51.96875Q103.68169 51.65625 103.91606 51.0ZM100.46294 49.296875L103.93169 49.296875Q103.86919 48.5 103.54106 48.109375Q103.02544 47.5 102.22856 47.5Q101.49419 47.5 100.99419 47.984375Q100.50981 48.46875 100.46294 49.296875ZM109.66606 55.390625L109.66606 46.78125L110.61919 46.78125L110.61919 47.578125Q110.96294 47.109375 111.38481 46.875Q111.82231 46.640625 112.43169 46.640625Q113.22856 46.640625 113.83794 47.046875Q114.44731 47.453125 114.74419 48.203125Q115.05669 48.953125 115.05669 49.84375Q115.05669 50.796875 114.71294 51.5625Q114.38481 52.328125 113.72856 52.734375Q113.07231 53.140625 112.35356 53.140625Q111.82231 53.140625 111.40044 52.921875Q110.97856 52.6875 110.71294 52.359375L110.71294 55.390625L109.66606 55.390625ZM110.61919 49.921875Q110.61919 51.125 111.10356 51.703125Q111.58794 52.265625 112.27544 52.265625Q112.97856 52.265625 113.47856 51.671875Q113.97856 51.078125 113.97856 49.828125Q113.97856 48.640625 113.49419 48.0625Q113.00981 47.46875 112.32231 47.46875Q111.65044 47.46875 111.13481 48.09375Q110.61919 48.71875 110.61919 49.921875ZM120.91606 51.0L122.00981 51.125Q121.75981 52.078125 121.05669 52.609375Q120.35356 53.140625 119.27544 53.140625Q117.91606 53.140625 117.10356 52.296875Q116.30669 51.453125 116.30669 49.9375Q116.30669 48.375 117.11919 47.515625Q117.93169 46.640625 119.21294 46.640625Q120.46294 46.640625 121.24419 47.484375Q122.04106 48.328125 122.04106 49.875Q122.04106 49.96875 122.04106 50.15625L117.40044 50.15625Q117.46294 51.1875 117.97856 51.734375Q118.49419 52.265625 119.27544 52.265625Q119.85356 52.265625 120.25981 51.96875Q120.68169 51.65625 120.91606 51.0ZM117.46294 49.296875L120.93169 49.296875Q120.86919 48.5 120.54106 48.109375Q120.02544 47.5 119.22856 47.5Q118.49419 47.5 117.99419 47.984375Q117.50981 48.46875 117.46294 49.296875ZM123.65044 53.0L123.65044 46.78125L124.60356 46.78125L124.60356 47.71875Q124.96294 47.0625 125.25981 46.859375Q125.57231 46.640625 125.94731 46.640625Q126.47856 46.640625 127.02544 46.96875L126.66606 47.953125Q126.27544 47.71875 125.90044 47.71875Q125.54106 47.71875 125.25981 47.9375Q124.99419 48.140625 124.88481 48.515625Q124.69731 49.078125 124.69731 49.734375L124.69731 53.0L123.65044 53.0ZM127.66606 45.625L127.66606 44.40625L128.72856 44.40625L128.72856 45.625L127.66606 45.625ZM127.66606 53.0L127.66606 46.78125L128.72856 46.78125L128.72856 53.0L127.66606 53.0ZM130.27544 49.890625Q130.27544 48.15625 131.22856 47.328125Q132.02544 46.640625 133.18169 46.640625Q134.46294 46.640625 135.27544 47.484375Q136.10356 48.3125 136.10356 49.796875Q136.10356 51.0 135.74419 51.6875Q135.38481 52.375 134.68169 52.765625Q133.99419 53.140625 133.18169 53.140625Q131.88481 53.140625 131.07231 52.3125Q130.27544 51.46875 130.27544 49.890625ZM131.35356 49.890625Q131.35356 51.078125 131.86919 51.671875Q132.40044 52.265625 133.18169 52.265625Q133.97856 52.265625 134.49419 51.671875Q135.00981 51.078125 135.00981 49.859375Q135.00981 48.703125 134.47856 48.109375Q133.96294 47.515625 133.18169 47.515625Q132.40044 47.515625 131.86919 48.109375Q131.35356 48.6875 131.35356 49.890625ZM141.69731 53.0L141.69731 52.21875Q141.10356 53.140625 139.96294 53.140625Q139.21294 53.140625 138.58794 52.734375Q137.96294 52.3125 137.61919 51.578125Q137.27544 50.84375 137.27544 49.890625Q137.27544 48.96875 137.58794 48.203125Q137.90044 47.4375 138.52544 47.046875Q139.15044 46.640625 139.91606 46.640625Q140.47856 46.640625 140.91606 46.875Q141.35356 47.109375 141.63481 47.484375L141.63481 44.40625L142.68169 44.40625L142.68169 53.0L141.69731 53.0ZM138.36919 49.890625Q138.36919 51.09375 138.86919 51.6875Q139.36919 52.265625 140.05669 52.265625Q140.74419 52.265625 141.22856 51.703125Q141.71294 51.140625 141.71294 49.984375Q141.71294 48.703125 141.21294 48.109375Q140.72856 47.515625 140.00981 47.515625Q139.30669 47.515625 138.83794 48.09375Q138.36919 48.65625 138.36919 49.890625ZM152.91606 51.984375L152.91606 53.0L147.22856 53.0Q147.22856 52.625 147.35356 52.265625Q147.57231 51.6875 148.04106 51.125Q148.52544 50.5625 149.43169 49.828125Q150.83794 48.671875 151.32231 48.0Q151.82231 47.328125 151.82231 46.734375Q151.82231 46.109375 151.36919 45.6875Q150.91606 45.25 150.19731 45.25Q149.43169 45.25 148.97856 45.703125Q148.52544 46.15625 148.50981 46.96875L147.43169 46.859375Q147.54106 45.640625 148.25981 45.015625Q148.99419 44.375 150.22856 44.375Q151.46294 44.375 152.18169 45.0625Q152.90044 45.75 152.90044 46.765625Q152.90044 47.28125 152.68169 47.78125Q152.47856 48.265625 151.97856 48.828125Q151.49419 49.375 150.36919 50.328125Q149.41606 51.125 149.13481 51.421875Q148.86919 51.703125 148.69731 51.984375L152.91606 51.984375ZM154.36919 48.765625Q154.36919 47.234375 154.68169 46.3125Q154.99419 45.375 155.60356 44.875Q156.22856 44.375 157.16606 44.375Q157.85356 44.375 158.36919 44.65625Q158.90044 44.9375 159.24419 45.46875Q159.58794 45.984375 159.77544 46.734375Q159.96294 47.484375 159.96294 48.765625Q159.96294 50.28125 159.65044 51.203125Q159.35356 52.125 158.72856 52.640625Q158.11919 53.140625 157.16606 53.140625Q155.93169 53.140625 155.21294 52.25Q154.36919 51.1875 154.36919 48.765625ZM155.44731 48.765625Q155.44731 50.875 155.94731 51.578125Q156.44731 52.28125 157.16606 52.28125Q157.90044 52.28125 158.38481 51.578125Q158.88481 50.875 158.88481 48.765625Q158.88481 46.640625 158.38481 45.953125Q157.90044 45.25 157.15044 45.25Q156.43169 45.25 155.99419 45.859375Q155.44731 46.640625 155.44731 48.765625ZM165.33794 53.0L164.29106 53.0L164.29106 46.28125Q163.90044 46.640625 163.27544 47.015625Q162.66606 47.375 162.18169 47.546875L162.18169 46.53125Q163.05669 46.109375 163.71294 45.53125Q164.38481 44.9375 164.66606 44.375L165.33794 44.375L165.33794 53.0ZM168.36919 48.765625Q168.36919 47.234375 168.68169 46.3125Q168.99419 45.375 169.60356 44.875Q170.22856 44.375 171.16606 44.375Q171.85356 44.375 172.36919 44.65625Q172.90044 44.9375 173.24419 45.46875Q173.58794 45.984375 173.77544 46.734375Q173.96294 47.484375 173.96294 48.765625Q173.96294 50.28125 173.65044 51.203125Q173.35356 52.125 172.72856 52.640625Q172.11919 53.140625 171.16606 53.140625Q169.93169 53.140625 169.21294 52.25Q168.36919 51.1875 168.36919 48.765625ZM169.44731 48.765625Q169.44731 50.875 169.94731 51.578125Q170.44731 52.28125 171.16606 52.28125Q171.90044 52.28125 172.38481 51.578125Q172.88481 50.875 172.88481 48.765625Q172.88481 46.640625 172.38481 45.953125Q171.90044 45.25 171.15044 45.25Q170.43169 45.25 169.99419 45.859375Q169.44731 46.640625 169.44731 48.765625ZM178.24419 50.421875L178.24419 49.359375L181.49419 49.359375L181.49419 50.421875L178.24419 50.421875ZM190.91606 51.984375L190.91606 53.0L185.22856 53.0Q185.22856 52.625 185.35356 52.265625Q185.57231 51.6875 186.04106 51.125Q186.52544 50.5625 187.43169 49.828125Q188.83794 48.671875 189.32231 48.0Q189.82231 47.328125 189.82231 46.734375Q189.82231 46.109375 189.36919 45.6875Q188.91606 45.25 188.19731 45.25Q187.43169 45.25 186.97856 45.703125Q186.52544 46.15625 186.50981 46.96875L185.43169 46.859375Q185.54106 45.640625 186.25981 45.015625Q186.99419 44.375 188.22856 44.375Q189.46294 44.375 190.18169 45.0625Q190.90044 45.75 190.90044 46.765625Q190.90044 47.28125 190.68169 47.78125Q190.47856 48.265625 189.97856 48.828125Q189.49419 49.375 188.36919 50.328125Q187.41606 51.125 187.13481 51.421875Q186.86919 51.703125 186.69731 51.984375L190.91606 51.984375ZM192.36919 48.765625Q192.36919 47.234375 192.68169 46.3125Q192.99419 45.375 193.60356 44.875Q194.22856 44.375 195.16606 44.375Q195.85356 44.375 196.36919 44.65625Q196.90044 44.9375 197.24419 45.46875Q197.58794 45.984375 197.77544 46.734375Q197.96294 47.484375 197.96294 48.765625Q197.96294 50.28125 197.65044 51.203125Q197.35356 52.125 196.72856 52.640625Q196.11919 53.140625 195.16606 53.140625Q193.93169 53.140625 193.21294 52.25Q192.36919 51.1875 192.36919 48.765625ZM193.44731 48.765625Q193.44731 50.875 193.94731 51.578125Q194.44731 52.28125 195.16606 52.28125Q195.90044 52.28125 196.38481 51.578125Q196.88481 50.875 196.88481 48.765625Q196.88481 46.640625 196.38481 45.953125Q195.90044 45.25 195.15044 45.25Q194.43169 45.25 193.99419 45.859375Q193.44731 46.640625 193.44731 48.765625ZM204.91606 51.984375L204.91606 53.0L199.22856 53.0Q199.22856 52.625 199.35356 52.265625Q199.57231 51.6875 200.04106 51.125Q200.52544 50.5625 201.43169 49.828125Q202.83794 48.671875 203.32231 48.0Q203.82231 47.328125 203.82231 46.734375Q203.82231 46.109375 203.36919 45.6875Q202.91606 45.25 202.19731 45.25Q201.43169 45.25 200.97856 45.703125Q200.52544 46.15625 200.50981 46.96875L199.43169 46.859375Q199.54106 45.640625 200.25981 45.015625Q200.99419 44.375 202.22856 44.375Q203.46294 44.375 204.18169 45.0625Q204.90044 45.75 204.90044 46.765625Q204.90044 47.28125 204.68169 47.78125Q204.47856 48.265625 203.97856 48.828125Q203.49419 49.375 202.36919 50.328125Q201.41606 51.125 201.13481 51.421875Q200.86919 51.703125 200.69731 51.984375L204.91606 51.984375ZM211.91606 51.984375L211.91606 53.0L206.22856 53.0Q206.22856 52.625 206.35356 52.265625Q206.57231 51.6875 207.04106 51.125Q207.52544 50.5625 208.43169 49.828125Q209.83794 48.671875 210.32231 48.0Q210.82231 47.328125 210.82231 46.734375Q210.82231 46.109375 210.36919 45.6875Q209.91606 45.25 209.19731 45.25Q208.43169 45.25 207.97856 45.703125Q207.52544 46.15625 207.50981 46.96875L206.43169 46.859375Q206.54106 45.640625 207.25981 45.015625Q207.99419 44.375 209.22856 44.375Q210.46294 44.375 211.18169 45.0625Q211.90044 45.75 211.90044 46.765625Q211.90044 47.28125 211.68169 47.78125Q211.47856 48.265625 210.97856 48.828125Q210.49419 49.375 209.36919 50.328125Q208.41606 51.125 208.13481 51.421875Q207.86919 51.703125 207.69731 51.984375L211.91606 51.984375Z" fill-rule="nonzero"/><path stroke="#073763" stroke-width="4.0" stroke-linecap="butt" stroke-opacity="0.7019608" d="M33.169193 67.0L45.169193 67.0" fill-rule="nonzero"/><path fill="#1a1a1a" d="M56.27857 71.0L56.27857 63.421875L53.450443 63.421875L53.450443 62.40625L60.262943 62.40625L60.262943 63.421875L57.419193 63.421875L57.419193 71.0L56.27857 71.0ZM60.950443 71.0L60.950443 64.78125L61.90357 64.78125L61.90357 65.71875Q62.262943 65.0625 62.55982 64.859375Q62.87232 64.640625 63.24732 64.640625Q63.77857 64.640625 64.32544 64.96875L63.96607 65.953125Q63.575443 65.71875 63.200443 65.71875Q62.84107 65.71875 62.55982 65.9375Q62.294193 66.140625 62.18482 66.515625Q61.99732 67.078125 61.99732 67.734375L61.99732 71.0L60.950443 71.0ZM69.216064 69.0L70.309814 69.125Q70.059814 70.078125 69.35669 70.609375Q68.653564 71.140625 67.57544 71.140625Q66.216064 71.140625 65.403564 70.296875Q64.60669 69.453125 64.60669 67.9375Q64.60669 66.375 65.41919 65.515625Q66.23169 64.640625 67.51294 64.640625Q68.76294 64.640625 69.54419 65.484375Q70.341064 66.328125 70.341064 67.875Q70.341064 67.96875 70.341064 68.15625L65.70044 68.15625Q65.76294 69.1875 66.278564 69.734375Q66.79419 70.265625 67.57544 70.265625Q68.153564 70.265625 68.559814 69.96875Q68.98169 69.65625 69.216064 69.0ZM65.76294 67.296875L69.23169 67.296875Q69.16919 66.5 68.841064 66.109375Q68.32544 65.5 67.528564 65.5Q66.79419 65.5 66.29419 65.984375Q65.809814 66.46875 65.76294 67.296875ZM71.966064 71.0L71.966064 64.78125L72.903564 64.78125L72.903564 65.65625Q73.591064 64.640625 74.88794 64.640625Q75.45044 64.640625 75.91919 64.84375Q76.403564 65.046875 76.63794 65.375Q76.872314 65.703125 76.966064 66.140625Q77.01294 66.4375 77.01294 67.171875L77.01294 71.0L75.966064 71.0L75.966064 67.21875Q75.966064 66.5625 75.841064 66.25Q75.716064 65.9375 75.403564 65.75Q75.091064 65.546875 74.66919 65.546875Q73.997314 65.546875 73.497314 65.984375Q73.01294 66.40625 73.01294 67.59375L73.01294 71.0L71.966064 71.0ZM82.997314 71.0L82.997314 70.21875Q82.403564 71.140625 81.26294 71.140625Q80.51294 71.140625 79.88794 70.734375Q79.26294 70.3125 78.91919 69.578125Q78.57544 68.84375 78.57544 67.890625Q78.57544 66.96875 78.88794 66.203125Q79.20044 65.4375 79.82544 65.046875Q80.45044 64.640625 81.216064 64.640625Q81.778564 64.640625 82.216064 64.875Q82.653564 65.109375 82.934814 65.484375L82.934814 62.40625L83.98169 62.40625L83.98169 71.0L82.997314 71.0ZM79.66919 67.890625Q79.66919 69.09375 80.16919 69.6875Q80.66919 70.265625 81.35669 70.265625Q82.04419 70.265625 82.528564 69.703125Q83.01294 69.140625 83.01294 67.984375Q83.01294 66.703125 82.51294 66.109375Q82.028564 65.515625 81.309814 65.515625Q80.60669 65.515625 80.13794 66.09375Q79.66919 66.65625 79.66919 67.890625ZM88.57544 67.890625Q88.57544 66.15625 89.528564 65.328125Q90.32544 64.640625 91.48169 64.640625Q92.76294 64.640625 93.57544 65.484375Q94.403564 66.3125 94.403564 67.796875Q94.403564 69.0 94.04419 69.6875Q93.684814 70.375 92.98169 70.765625Q92.29419 71.140625 91.48169 71.140625Q90.184814 71.140625 89.372314 70.3125Q88.57544 69.46875 88.57544 67.890625ZM89.653564 67.890625Q89.653564 69.078125 90.16919 69.671875Q90.70044 70.265625 91.48169 70.265625Q92.278564 70.265625 92.79419 69.671875Q93.309814 69.078125 93.309814 67.859375Q93.309814 66.703125 92.778564 66.109375Q92.26294 65.515625 91.48169 65.515625Q90.70044 65.515625 90.16919 66.109375Q89.653564 66.6875 89.653564 67.890625ZM96.216064 71.0L96.216064 65.59375L95.278564 65.59375L95.278564 64.78125L96.216064 64.78125L96.216064 64.109375Q96.216064 63.484375 96.32544 63.1875Q96.48169 62.765625 96.85669 62.515625Q97.247314 62.265625 97.934814 62.265625Q98.38794 62.265625 98.91919 62.375L98.76294 63.28125Q98.434814 63.234375 98.13794 63.234375Q97.653564 63.234375 97.45044 63.4375Q97.26294 63.640625 97.26294 64.203125L97.26294 64.78125L98.48169 64.78125L98.48169 65.59375L97.26294 65.59375L97.26294 71.0L96.216064 71.0ZM101.54419 69.140625L102.57544 68.984375Q102.66919 69.609375 103.059814 69.9375Q103.466064 70.265625 104.20044 70.265625Q104.91919 70.265625 105.26294 69.984375Q105.622314 69.6875 105.622314 69.28125Q105.622314 68.921875 105.309814 68.71875Q105.091064 68.578125 104.23169 68.359375Q103.07544 68.0625 102.622314 67.859375Q102.184814 67.640625 101.95044 67.265625Q101.716064 66.890625 101.716064 66.421875Q101.716064 66.015625 101.903564 65.65625Q102.091064 65.296875 102.41919 65.0625Q102.66919 64.890625 103.091064 64.765625Q103.51294 64.640625 104.01294 64.640625Q104.73169 64.640625 105.278564 64.859375Q105.841064 65.0625 106.10669 65.421875Q106.372314 65.78125 106.466064 66.375L105.434814 66.515625Q105.372314 66.046875 105.028564 65.78125Q104.70044 65.5 104.07544 65.5Q103.35669 65.5 103.04419 65.75Q102.73169 65.984375 102.73169 66.3125Q102.73169 66.515625 102.85669 66.671875Q102.997314 66.84375 103.26294 66.953125Q103.41919 67.015625 104.20044 67.21875Q105.32544 67.53125 105.76294 67.71875Q106.20044 67.90625 106.45044 68.265625Q106.70044 68.625 106.70044 69.171875Q106.70044 69.703125 106.38794 70.171875Q106.091064 70.625 105.51294 70.890625Q104.934814 71.140625 104.20044 71.140625Q102.98169 71.140625 102.341064 70.640625Q101.716064 70.125 101.54419 69.140625ZM113.04419 71.0L113.04419 70.078125Q112.309814 71.140625 111.059814 71.140625Q110.51294 71.140625 110.028564 70.9375Q109.559814 70.71875 109.32544 70.40625Q109.091064 70.078125 108.997314 69.609375Q108.934814 69.3125 108.934814 68.625L108.934814 64.78125L109.997314 64.78125L109.997314 68.234375Q109.997314 69.046875 110.059814 69.34375Q110.153564 69.75 110.466064 70.0Q110.79419 70.234375 111.278564 70.234375Q111.747314 70.234375 112.153564 70.0Q112.57544 69.75 112.747314 69.328125Q112.934814 68.90625 112.934814 68.109375L112.934814 64.78125L113.98169 64.78125L113.98169 71.0L113.04419 71.0ZM120.028564 68.71875L121.059814 68.859375Q120.88794 69.921875 120.184814 70.53125Q119.48169 71.140625 118.466064 71.140625Q117.184814 71.140625 116.403564 70.3125Q115.63794 69.46875 115.63794 67.90625Q115.63794 66.90625 115.966064 66.15625Q116.309814 65.390625 116.98169 65.015625Q117.66919 64.640625 118.48169 64.640625Q119.48169 64.640625 120.122314 65.15625Q120.778564 65.65625 120.966064 66.609375L119.934814 66.765625Q119.79419 66.140625 119.41919 65.828125Q119.04419 65.5 118.51294 65.5Q117.716064 65.5 117.216064 66.078125Q116.716064 66.640625 116.716064 67.875Q116.716064 69.140625 117.20044 69.703125Q117.684814 70.265625 118.45044 70.265625Q119.07544 70.265625 119.48169 69.890625Q119.903564 69.515625 120.028564 68.71875ZM126.028564 68.71875L127.059814 68.859375Q126.88794 69.921875 126.184814 70.53125Q125.48169 71.140625 124.466064 71.140625Q123.184814 71.140625 122.403564 70.3125Q121.63794 69.46875 121.63794 67.90625Q121.63794 66.90625 121.966064 66.15625Q122.309814 65.390625 122.98169 65.015625Q123.66919 64.640625 124.48169 64.640625Q125.48169 64.640625 126.122314 65.15625Q126.778564 65.65625 126.966064 66.609375L125.934814 66.765625Q125.79419 66.140625 125.41919 65.828125Q125.04419 65.5 124.51294 65.5Q123.716064 65.5 123.216064 66.078125Q122.716064 66.640625 122.716064 67.875Q122.716064 69.140625 123.20044 69.703125Q123.684814 70.265625 124.45044 70.265625Q125.07544 70.265625 125.48169 69.890625Q125.903564 69.515625 126.028564 68.71875ZM132.21606 69.0L133.30981 69.125Q133.05981 70.078125 132.35669 70.609375Q131.65356 71.140625 130.57544 71.140625Q129.21606 71.140625 128.40356 70.296875Q127.60669 69.453125 127.60669 67.9375Q127.60669 66.375 128.41919 65.515625Q129.23169 64.640625 130.51294 64.640625Q131.76294 64.640625 132.54419 65.484375Q133.34106 66.328125 133.34106 67.875Q133.34106 67.96875 133.34106 68.15625L128.70044 68.15625Q128.76294 69.1875 129.27856 69.734375Q129.79419 70.265625 130.57544 70.265625Q131.15356 70.265625 131.55981 69.96875Q131.98169 69.65625 132.21606 69.0ZM128.76294 67.296875L132.23169 67.296875Q132.16919 66.5 131.84106 66.109375Q131.32544 65.5 130.52856 65.5Q129.79419 65.5 129.29419 65.984375Q128.80981 66.46875 128.76294 67.296875ZM134.54419 69.140625L135.57544 68.984375Q135.66919 69.609375 136.05981 69.9375Q136.46606 70.265625 137.20044 70.265625Q137.91919 70.265625 138.26294 69.984375Q138.62231 69.6875 138.62231 69.28125Q138.62231 68.921875 138.30981 68.71875Q138.09106 68.578125 137.23169 68.359375Q136.07544 68.0625 135.62231 67.859375Q135.18481 67.640625 134.95044 67.265625Q134.71606 66.890625 134.71606 66.421875Q134.71606 66.015625 134.90356 65.65625Q135.09106 65.296875 135.41919 65.0625Q135.66919 64.890625 136.09106 64.765625Q136.51294 64.640625 137.01294 64.640625Q137.73169 64.640625 138.27856 64.859375Q138.84106 65.0625 139.10669 65.421875Q139.37231 65.78125 139.46606 66.375L138.43481 66.515625Q138.37231 66.046875 138.02856 65.78125Q137.70044 65.5 137.07544 65.5Q136.35669 65.5 136.04419 65.75Q135.73169 65.984375 135.73169 66.3125Q135.73169 66.515625 135.85669 66.671875Q135.99731 66.84375 136.26294 66.953125Q136.41919 67.015625 137.20044 67.21875Q138.32544 67.53125 138.76294 67.71875Q139.20044 67.90625 139.45044 68.265625Q139.70044 68.625 139.70044 69.171875Q139.70044 69.703125 139.38794 70.171875Q139.09106 70.625 138.51294 70.890625Q137.93481 71.140625 137.20044 71.140625Q135.98169 71.140625 135.34106 70.640625Q134.71606 70.125 134.54419 69.140625ZM141.54419 69.140625L142.57544 68.984375Q142.66919 69.609375 143.05981 69.9375Q143.46606 70.265625 144.20044 70.265625Q144.91919 70.265625 145.26294 69.984375Q145.62231 69.6875 145.62231 69.28125Q145.62231 68.921875 145.30981 68.71875Q145.09106 68.578125 144.23169 68.359375Q143.07544 68.0625 142.62231 67.859375Q142.18481 67.640625 141.95044 67.265625Q141.71606 66.890625 141.71606 66.421875Q141.71606 66.015625 141.90356 65.65625Q142.09106 65.296875 142.41919 65.0625Q142.66919 64.890625 143.09106 64.765625Q143.51294 64.640625 144.01294 64.640625Q144.73169 64.640625 145.27856 64.859375Q145.84106 65.0625 146.10669 65.421875Q146.37231 65.78125 146.46606 66.375L145.43481 66.515625Q145.37231 66.046875 145.02856 65.78125Q144.70044 65.5 144.07544 65.5Q143.35669 65.5 143.04419 65.75Q142.73169 65.984375 142.73169 66.3125Q142.73169 66.515625 142.85669 66.671875Q142.99731 66.84375 143.26294 66.953125Q143.41919 67.015625 144.20044 67.21875Q145.32544 67.53125 145.76294 67.71875Q146.20044 67.90625 146.45044 68.265625Q146.70044 68.625 146.70044 69.171875Q146.70044 69.703125 146.38794 70.171875Q146.09106 70.625 145.51294 70.890625Q144.93481 71.140625 144.20044 71.140625Q142.98169 71.140625 142.34106 70.640625Q141.71606 70.125 141.54419 69.140625ZM151.95044 71.0L151.95044 64.78125L152.90356 64.78125L152.90356 65.71875Q153.26294 65.0625 153.55981 64.859375Q153.87231 64.640625 154.24731 64.640625Q154.77856 64.640625 155.32544 64.96875L154.96606 65.953125Q154.57544 65.71875 154.20044 65.71875Q153.84106 65.71875 153.55981 65.9375Q153.29419 66.140625 153.18481 66.515625Q152.99731 67.078125 152.99731 67.734375L152.99731 71.0L151.95044 71.0ZM160.02856 70.234375Q159.43481 70.734375 158.88794 70.9375Q158.35669 71.140625 157.73169 71.140625Q156.70044 71.140625 156.15356 70.640625Q155.60669 70.140625 155.60669 69.359375Q155.60669 68.90625 155.80981 68.53125Q156.01294 68.140625 156.35669 67.921875Q156.70044 67.6875 157.12231 67.578125Q157.41919 67.484375 158.05981 67.40625Q159.32544 67.265625 159.93481 67.046875Q159.93481 66.828125 159.93481 66.78125Q159.93481 66.125 159.63794 65.859375Q159.23169 65.515625 158.43481 65.515625Q157.70044 65.515625 157.34106 65.78125Q156.98169 66.03125 156.80981 66.6875L155.77856 66.546875Q155.91919 65.890625 156.24731 65.484375Q156.57544 65.078125 157.18481 64.859375Q157.79419 64.640625 158.59106 64.640625Q159.38794 64.640625 159.88794 64.828125Q160.38794 65.015625 160.62231 65.296875Q160.85669 65.578125 160.95044 66.015625Q160.99731 66.28125 160.99731 66.984375L160.99731 68.390625Q160.99731 69.859375 161.05981 70.25Q161.13794 70.640625 161.34106 71.0L160.23169 71.0Q160.07544 70.671875 160.02856 70.234375ZM159.93481 67.875Q159.35669 68.109375 158.21606 68.28125Q157.55981 68.375 157.29419 68.5Q157.02856 68.609375 156.87231 68.828125Q156.73169 69.046875 156.73169 69.328125Q156.73169 69.75 157.04419 70.03125Q157.37231 70.3125 157.98169 70.3125Q158.59106 70.3125 159.05981 70.046875Q159.54419 69.78125 159.76294 69.3125Q159.93481 68.953125 159.93481 68.265625L159.93481 67.875ZM165.26294 70.0625L165.41919 70.984375Q164.96606 71.078125 164.62231 71.078125Q164.04419 71.078125 163.73169 70.90625Q163.41919 70.71875 163.27856 70.421875Q163.15356 70.125 163.15356 69.171875L163.15356 65.59375L162.38794 65.59375L162.38794 64.78125L163.15356 64.78125L163.15356 63.234375L164.20044 62.609375L164.20044 64.78125L165.26294 64.78125L165.26294 65.59375L164.20044 65.59375L164.20044 69.234375Q164.20044 69.6875 164.24731 69.8125Q164.30981 69.9375 164.43481 70.015625Q164.55981 70.09375 164.79419 70.09375Q164.98169 70.09375 165.26294 70.0625ZM170.21606 69.0L171.30981 69.125Q171.05981 70.078125 170.35669 70.609375Q169.65356 71.140625 168.57544 71.140625Q167.21606 71.140625 166.40356 70.296875Q165.60669 69.453125 165.60669 67.9375Q165.60669 66.375 166.41919 65.515625Q167.23169 64.640625 168.51294 64.640625Q169.76294 64.640625 170.54419 65.484375Q171.34106 66.328125 171.34106 67.875Q171.34106 67.96875 171.34106 68.15625L166.70044 68.15625Q166.76294 69.1875 167.27856 69.734375Q167.79419 70.265625 168.57544 70.265625Q169.15356 70.265625 169.55981 69.96875Q169.98169 69.65625 170.21606 69.0ZM166.76294 67.296875L170.23169 67.296875Q170.16919 66.5 169.84106 66.109375Q169.32544 65.5 168.52856 65.5Q167.79419 65.5 167.29419 65.984375Q166.80981 66.46875 166.76294 67.296875ZM176.10669 71.0L176.10669 62.40625L179.91919 62.40625Q181.07544 62.40625 181.66919 62.640625Q182.26294 62.875 182.62231 63.46875Q182.98169 64.046875 182.98169 64.75Q182.98169 65.671875 182.38794 66.296875Q181.79419 66.921875 180.55981 67.09375Q181.01294 67.3125 181.24731 67.515625Q181.74731 67.96875 182.18481 68.65625L183.68481 71.0L182.24731 71.0L181.12231 69.21875Q180.62231 68.4375 180.29419 68.03125Q179.98169 67.625 179.71606 67.46875Q179.46606 67.296875 179.20044 67.21875Q179.01294 67.1875 178.57544 67.1875L177.24731 67.1875L177.24731 71.0L176.10669 71.0ZM177.24731 66.203125L179.70044 66.203125Q180.46606 66.203125 180.90356 66.046875Q181.35669 65.875 181.57544 65.53125Q181.80981 65.171875 181.80981 64.75Q181.80981 64.140625 181.35669 63.75Q180.91919 63.359375 179.96606 63.359375L177.24731 63.359375L177.24731 66.203125ZM184.30981 66.703125Q184.35669 66.375 184.59106 66.03125Q184.96606 65.53125 185.80981 64.921875Q186.65356 64.3125 186.80981 64.125Q187.02856 63.890625 187.02856 63.640625Q187.02856 63.359375 186.80981 63.1875Q186.60669 63.0 186.21606 63.0Q185.82544 63.0 185.63794 63.140625Q185.45044 63.265625 185.32544 63.65625L184.43481 63.5625Q184.60669 62.921875 185.02856 62.609375Q185.45044 62.296875 186.23169 62.296875Q187.12231 62.296875 187.52856 62.65625Q187.95044 63.0 187.95044 63.5Q187.95044 63.984375 187.59106 64.421875Q187.34106 64.75 186.40356 65.421875Q185.90356 65.78125 185.70044 66.0L187.96606 66.0L187.96606 66.703125L184.30981 66.703125ZM197.51294 65.953125L191.84106 65.953125L191.84106 64.96875L197.51294 64.96875L197.51294 65.953125ZM197.51294 68.5625L191.84106 68.5625L191.84106 67.578125L197.51294 67.578125L197.51294 68.5625ZM201.66919 66.765625Q201.66919 65.234375 201.98169 64.3125Q202.29419 63.375 202.90356 62.875Q203.52856 62.375 204.46606 62.375Q205.15356 62.375 205.66919 62.65625Q206.20044 62.9375 206.54419 63.46875Q206.88794 63.984375 207.07544 64.734375Q207.26294 65.484375 207.26294 66.765625Q207.26294 68.28125 206.95044 69.203125Q206.65356 70.125 206.02856 70.640625Q205.41919 71.140625 204.46606 71.140625Q203.23169 71.140625 202.51294 70.25Q201.66919 69.1875 201.66919 66.765625ZM202.74731 66.765625Q202.74731 68.875 203.24731 69.578125Q203.74731 70.28125 204.46606 70.28125Q205.20044 70.28125 205.68481 69.578125Q206.18481 68.875 206.18481 66.765625Q206.18481 64.640625 205.68481 63.953125Q205.20044 63.25 204.45044 63.25Q203.73169 63.25 203.29419 63.859375Q202.74731 64.640625 202.74731 66.765625ZM209.23169 71.0L209.23169 69.796875L210.43481 69.796875L210.43481 71.0Q210.43481 71.65625 210.20044 72.0625Q209.96606 72.484375 209.46606 72.703125L209.16919 72.25Q209.49731 72.109375 209.65356 71.8125Q209.80981 71.53125 209.84106 71.0L209.23169 71.0ZM217.21606 69.984375L217.21606 71.0L211.52856 71.0Q211.52856 70.625 211.65356 70.265625Q211.87231 69.6875 212.34106 69.125Q212.82544 68.5625 213.73169 67.828125Q215.13794 66.671875 215.62231 66.0Q216.12231 65.328125 216.12231 64.734375Q216.12231 64.109375 215.66919 63.6875Q215.21606 63.25 214.49731 63.25Q213.73169 63.25 213.27856 63.703125Q212.82544 64.15625 212.80981 64.96875L211.73169 64.859375Q211.84106 63.640625 212.55981 63.015625Q213.29419 62.375 214.52856 62.375Q215.76294 62.375 216.48169 63.0625Q217.20044 63.75 217.20044 64.765625Q217.20044 65.28125 216.98169 65.78125Q216.77856 66.265625 216.27856 66.828125Q215.79419 67.375 214.66919 68.328125Q213.71606 69.125 213.43481 69.421875Q213.16919 69.703125 212.99731 69.984375L217.21606 69.984375ZM218.66919 68.75L219.77856 68.65625Q219.90356 69.46875 220.34106 69.875Q220.79419 70.28125 221.43481 70.28125Q222.18481 70.28125 222.71606 69.703125Q223.24731 69.125 223.24731 68.1875Q223.24731 67.28125 222.73169 66.765625Q222.23169 66.234375 221.40356 66.234375Q220.90356 66.234375 220.48169 66.46875Q220.07544 66.703125 219.84106 67.0625L218.85669 66.9375L219.68481 62.53125L223.96606 62.53125L223.96606 63.53125L220.52856 63.53125L220.07544 65.84375Q220.84106 65.296875 221.68481 65.296875Q222.80981 65.296875 223.57544 66.078125Q224.35669 66.859375 224.35669 68.09375Q224.35669 69.25 223.68481 70.109375Q222.85669 71.140625 221.43481 71.140625Q220.26294 71.140625 219.51294 70.484375Q218.77856 69.828125 218.66919 68.75ZM231.21606 69.984375L231.21606 71.0L225.52856 71.0Q225.52856 70.625 225.65356 70.265625Q225.87231 69.6875 226.34106 69.125Q226.82544 68.5625 227.73169 67.828125Q229.13794 66.671875 229.62231 66.0Q230.12231 65.328125 230.12231 64.734375Q230.12231 64.109375 229.66919 63.6875Q229.21606 63.25 228.49731 63.25Q227.73169 63.25 227.27856 63.703125Q226.82544 64.15625 226.80981 64.96875L225.73169 64.859375Q225.84106 63.640625 226.55981 63.015625Q227.29419 62.375 228.52856 62.375Q229.76294 62.375 230.48169 63.0625Q231.20044 63.75 231.20044 64.765625Q231.20044 65.28125 230.98169 65.78125Q230.77856 66.265625 230.27856 66.828125Q229.79419 67.375 228.66919 68.328125Q227.71606 69.125 227.43481 69.421875Q227.16919 69.703125 226.99731 69.984375L231.21606 69.984375Z" fill-rule="nonzero"/><path fill="#757575" d="M14.10625 27.60625L15.8875 27.45Q16.0125 28.5125 16.465626 29.2Q16.934376 29.8875 17.903126 30.325Q18.8875 30.746876 20.121876 30.746876Q21.2 30.746876 22.028126 30.434376Q22.85625 30.10625 23.2625 29.54375Q23.66875 28.98125 23.66875 28.309376Q23.66875 27.6375 23.278126 27.1375Q22.8875 26.6375 21.996876 26.29375Q21.41875 26.059376 19.434376 25.590626Q17.465626 25.121876 16.684376 24.7Q15.653125 24.16875 15.153125 23.371876Q14.653125 22.575 14.653125 21.590626Q14.653125 20.496876 15.2625 19.559376Q15.871875 18.621876 17.059376 18.1375Q18.246876 17.6375 19.684376 17.6375Q21.278126 17.6375 22.496876 18.153126Q23.715626 18.66875 24.35625 19.66875Q25.0125 20.653126 25.059376 21.91875L23.246876 22.059376Q23.10625 20.7 22.2625 20.0125Q21.41875 19.309376 19.7625 19.309376Q18.04375 19.309376 17.246876 19.95Q16.465626 20.575 16.465626 21.45Q16.465626 22.23125 17.028126 22.73125Q17.575 23.23125 19.8875 23.746876Q22.2 24.2625 23.059376 24.653126Q24.309376 25.23125 24.903126 26.121876Q25.496876 26.996876 25.496876 28.153126Q25.496876 29.29375 24.840626 30.309376Q24.184376 31.325 22.95 31.8875Q21.73125 32.45 20.2 32.45Q18.2625 32.45 16.95 31.8875Q15.6375 31.309376 14.8875 30.16875Q14.1375 29.028126 14.10625 27.60625ZM34.309376 32.2L34.309376 30.66875Q33.10625 32.434376 31.028126 32.434376Q30.10625 32.434376 29.309376 32.090626Q28.5125 31.73125 28.121876 31.2Q27.746876 30.66875 27.590626 29.8875Q27.48125 29.371876 27.48125 28.246876L27.48125 21.825L29.23125 21.825L29.23125 27.575Q29.23125 28.95 29.340626 29.434376Q29.5125 30.121876 30.04375 30.528126Q30.590626 30.91875 31.371876 30.91875Q32.16875 30.91875 32.85625 30.5125Q33.559376 30.10625 33.840626 29.41875Q34.1375 28.715626 34.1375 27.3875L34.1375 21.825L35.8875 21.825L35.8875 32.2L34.309376 32.2ZM44.29375 28.403126L46.0125 28.621876Q45.73125 30.41875 44.559376 31.434376Q43.403126 32.434376 41.7 32.434376Q39.575 32.434376 38.278126 31.04375Q36.98125 29.653126 36.98125 27.059376Q36.98125 25.371876 37.528126 24.121876Q38.090626 22.85625 39.23125 22.23125Q40.371876 21.590626 41.715626 21.590626Q43.403126 21.590626 44.465626 22.45Q45.54375 23.309376 45.85625 24.871876L44.1375 25.1375Q43.903126 24.090626 43.278126 23.575Q42.653126 23.04375 41.778126 23.04375Q40.45 23.04375 39.621876 23.996876Q38.79375 24.95 38.79375 26.996876Q38.79375 29.090626 39.590626 30.04375Q40.3875 30.98125 41.684376 30.98125Q42.715626 30.98125 43.403126 30.35625Q44.10625 29.715626 44.29375 28.403126ZM54.29375 28.403126L56.0125 28.621876Q55.73125 30.41875 54.559376 31.434376Q53.403126 32.434376 51.7 32.434376Q49.575 32.434376 48.278126 31.04375Q46.98125 29.653126 46.98125 27.059376Q46.98125 25.371876 47.528126 24.121876Q48.090626 22.85625 49.23125 22.23125Q50.371876 21.590626 51.715626 21.590626Q53.403126 21.590626 54.465626 22.45Q55.54375 23.309376 55.85625 24.871876L54.1375 25.1375Q53.903126 24.090626 53.278126 23.575Q52.653126 23.04375 51.778126 23.04375Q50.45 23.04375 49.621876 23.996876Q48.79375 24.95 48.79375 26.996876Q48.79375 29.090626 49.590626 30.04375Q50.3875 30.98125 51.684376 30.98125Q52.715626 30.98125 53.403126 30.35625Q54.10625 29.715626 54.29375 28.403126ZM64.62187 28.85625L66.43437 29.090626Q66.0125 30.66875 64.84062 31.559376Q63.684376 32.434376 61.871876 32.434376Q59.60625 32.434376 58.2625 31.04375Q56.934376 29.6375 56.934376 27.10625Q56.934376 24.48125 58.278126 23.04375Q59.621876 21.590626 61.778126 21.590626Q63.85625 21.590626 65.16875 23.0125Q66.49687 24.41875 66.49687 26.996876Q66.49687 27.153126 66.48125 27.465626L58.746876 27.465626Q58.840626 29.16875 59.715626 30.075Q60.590626 30.98125 61.8875 30.98125Q62.85625 30.98125 63.528126 30.48125Q64.21562 29.965626 64.62187 28.85625ZM58.840626 26.0125L64.6375 26.0125Q64.52812 24.715626 63.98125 24.059376Q63.1375 23.04375 61.79375 23.04375Q60.590626 23.04375 59.7625 23.85625Q58.934376 24.653126 58.840626 26.0125ZM67.80937 29.10625L69.55937 28.825Q69.7 29.871876 70.37187 30.434376Q71.04375 30.98125 72.24687 30.98125Q73.45 30.98125 74.02812 30.496876Q74.62187 29.996876 74.62187 29.340626Q74.62187 28.746876 74.10625 28.403126Q73.74687 28.16875 72.30937 27.809376Q70.37187 27.309376 69.62187 26.965626Q68.8875 26.60625 68.49687 25.98125Q68.10625 25.340626 68.10625 24.575Q68.10625 23.8875 68.41875 23.29375Q68.74687 22.7 69.29375 22.309376Q69.7 22.0125 70.40312 21.809376Q71.12187 21.590626 71.93437 21.590626Q73.15312 21.590626 74.075 21.95Q74.99687 22.29375 75.43437 22.903126Q75.87187 23.496876 76.04375 24.496876L74.325 24.73125Q74.2 23.934376 73.6375 23.496876Q73.075 23.04375 72.05937 23.04375Q70.84062 23.04375 70.325 23.45Q69.80937 23.840626 69.80937 24.371876Q69.80937 24.715626 70.02812 24.996876Q70.23125 25.278126 70.7 25.465626Q70.96562 25.559376 72.24687 25.903126Q74.12187 26.403126 74.85625 26.73125Q75.59062 27.04375 76.0125 27.653126Q76.43437 28.246876 76.43437 29.153126Q76.43437 30.028126 75.91875 30.809376Q75.40312 31.590626 74.43437 32.0125Q73.46562 32.434376 72.24687 32.434376Q70.23125 32.434376 69.16875 31.590626Q68.10625 30.746876 67.80937 29.10625ZM77.80937 29.10625L79.55937 28.825Q79.7 29.871876 80.37187 30.434376Q81.04375 30.98125 82.24687 30.98125Q83.45 30.98125 84.02812 30.496876Q84.62187 29.996876 84.62187 29.340626Q84.62187 28.746876 84.10625 28.403126Q83.74687 28.16875 82.30937 27.809376Q80.37187 27.309376 79.62187 26.965626Q78.8875 26.60625 78.49687 25.98125Q78.10625 25.340626 78.10625 24.575Q78.10625 23.8875 78.41875 23.29375Q78.74687 22.7 79.29375 22.309376Q79.7 22.0125 80.40312 21.809376Q81.12187 21.590626 81.93437 21.590626Q83.15312 21.590626 84.075 21.95Q84.99687 22.29375 85.43437 22.903126Q85.87187 23.496876 86.04375 24.496876L84.325 24.73125Q84.2 23.934376 83.6375 23.496876Q83.075 23.04375 82.05937 23.04375Q80.84062 23.04375 80.325 23.45Q79.80937 23.840626 79.80937 24.371876Q79.80937 24.715626 80.02812 24.996876Q80.23125 25.278126 80.7 25.465626Q80.96562 25.559376 82.24687 25.903126Q84.12187 26.403126 84.85625 26.73125Q85.59062 27.04375 86.0125 27.653126Q86.43437 28.246876 86.43437 29.153126Q86.43437 30.028126 85.91875 30.809376Q85.40312 31.590626 84.43437 32.0125Q83.46562 32.434376 82.24687 32.434376Q80.23125 32.434376 79.16875 31.590626Q78.10625 30.746876 77.80937 29.10625ZM94.49687 32.2L94.49687 21.825L96.075 21.825L96.075 23.403126Q96.68437 22.29375 97.2 21.95Q97.71562 21.590626 98.325 21.590626Q99.21562 21.590626 100.1375 22.153126L99.52812 23.79375Q98.8875 23.403126 98.24687 23.403126Q97.66875 23.403126 97.2 23.7625Q96.74687 24.10625 96.54375 24.715626Q96.2625 25.653126 96.2625 26.7625L96.2625 32.2L94.49687 32.2ZM108.29375 30.91875Q107.30937 31.746876 106.40312 32.090626Q105.49687 32.434376 104.46562 32.434376Q102.7625 32.434376 101.84062 31.60625Q100.91875 30.7625 100.91875 29.465626Q100.91875 28.7 101.2625 28.075Q101.62187 27.45 102.18437 27.075Q102.74687 26.684376 103.45 26.48125Q103.96562 26.35625 105.0125 26.215626Q107.1375 25.965626 108.1375 25.621876Q108.15312 25.2625 108.15312 25.153126Q108.15312 24.090626 107.65312 23.6375Q106.98125 23.04375 105.65312 23.04375Q104.40312 23.04375 103.80937 23.48125Q103.23125 23.91875 102.95 25.028126L101.23125 24.79375Q101.46562 23.684376 101.99687 23.0125Q102.52812 22.325 103.54375 21.965626Q104.55937 21.590626 105.90312 21.590626Q107.23125 21.590626 108.05937 21.903126Q108.8875 22.215626 109.27812 22.7Q109.66875 23.16875 109.825 23.8875Q109.91875 24.340626 109.91875 25.5125L109.91875 27.85625Q109.91875 30.309376 110.02812 30.965626Q110.1375 31.60625 110.48125 32.2L108.6375 32.2Q108.37187 31.653126 108.29375 30.91875ZM108.1375 26.996876Q107.18437 27.3875 105.2625 27.653126Q104.18437 27.809376 103.73125 28.0125Q103.29375 28.2 103.04375 28.575Q102.79375 28.95 102.79375 29.41875Q102.79375 30.121876 103.325 30.590626Q103.85625 31.059376 104.8875 31.059376Q105.90312 31.059376 106.68437 30.621876Q107.48125 30.16875 107.85625 29.403126Q108.1375 28.79375 108.1375 27.6375L108.1375 26.996876ZM116.35625 30.621876L116.60625 32.184376Q115.87187 32.340626 115.27812 32.340626Q114.325 32.340626 113.79375 32.04375Q113.27812 31.73125 113.05937 31.246876Q112.84062 30.746876 112.84062 29.16875L112.84062 23.2L111.55937 23.2L111.55937 21.825L112.84062 21.825L112.84062 19.2625L114.59062 18.2L114.59062 21.825L116.35625 21.825L116.35625 23.2L114.59062 23.2L114.59062 29.2625Q114.59062 30.0125 114.68437 30.23125Q114.77812 30.434376 114.98125 30.575Q115.2 30.7 115.59062 30.7Q115.87187 30.7 116.35625 30.621876ZM125.62187 28.85625L127.43437 29.090626Q127.0125 30.66875 125.84062 31.559376Q124.68437 32.434376 122.87187 32.434376Q120.60625 32.434376 119.2625 31.04375Q117.93437 29.6375 117.93437 27.10625Q117.93437 24.48125 119.27812 23.04375Q120.62187 21.590626 122.77812 21.590626Q124.85625 21.590626 126.16875 23.0125Q127.49687 24.41875 127.49687 26.996876Q127.49687 27.153126 127.48125 27.465626L119.74687 27.465626Q119.84062 29.16875 120.71562 30.075Q121.59062 30.98125 122.8875 30.98125Q123.85625 30.98125 124.52812 30.48125Q125.21562 29.965626 125.62187 28.85625ZM119.84062 26.0125L125.6375 26.0125Q125.52812 24.715626 124.98125 24.059376Q124.1375 23.04375 122.79375 23.04375Q121.59062 23.04375 120.7625 23.85625Q119.93437 24.653126 119.84062 26.0125ZM139.35625 30.621876L139.60625 32.184376Q138.87187 32.340626 138.27812 32.340626Q137.325 32.340626 136.79375 32.04375Q136.27812 31.73125 136.05937 31.246876Q135.84062 30.746876 135.84062 29.16875L135.84062 23.2L134.55937 23.2L134.55937 21.825L135.84062 21.825L135.84062 19.2625L137.59062 18.2L137.59062 21.825L139.35625 21.825L139.35625 23.2L137.59062 23.2L137.59062 29.2625Q137.59062 30.0125 137.68437 30.23125Q137.77812 30.434376 137.98125 30.575Q138.2 30.7 138.59062 30.7Q138.87187 30.7 139.35625 30.621876ZM141.49687 32.2L141.49687 21.825L143.075 21.825L143.075 23.403126Q143.68437 22.29375 144.2 21.95Q144.71562 21.590626 145.325 21.590626Q146.21562 21.590626 147.1375 22.153126L146.52812 23.79375Q145.8875 23.403126 145.24687 23.403126Q144.66875 23.403126 144.2 23.7625Q143.74687 24.10625 143.54375 24.715626Q143.2625 25.653126 143.2625 26.7625L143.2625 32.2L141.49687 32.2ZM155.62187 28.85625L157.43437 29.090626Q157.0125 30.66875 155.84062 31.559376Q154.68437 32.434376 152.87187 32.434376Q150.60625 32.434376 149.2625 31.04375Q147.93437 29.6375 147.93437 27.10625Q147.93437 24.48125 149.27812 23.04375Q150.62187 21.590626 152.77812 21.590626Q154.85625 21.590626 156.16875 23.0125Q157.49687 24.41875 157.49687 26.996876Q157.49687 27.153126 157.48125 27.465626L149.74687 27.465626Q149.84062 29.16875 150.71562 30.075Q151.59062 30.98125 152.8875 30.98125Q153.85625 30.98125 154.52812 30.48125Q155.21562 29.965626 155.62187 28.85625ZM149.84062 26.0125L155.6375 26.0125Q155.52812 24.715626 154.98125 24.059376Q154.1375 23.04375 152.79375 23.04375Q151.59062 23.04375 150.7625 23.85625Q149.93437 24.653126 149.84062 26.0125ZM159.5125 32.2L159.5125 21.825L161.10625 21.825L161.10625 23.309376Q162.24687 21.590626 164.40312 21.590626Q165.34062 21.590626 166.12187 21.934376Q166.91875 22.2625 167.30937 22.809376Q167.7 23.35625 167.85625 24.10625Q167.95 24.60625 167.95 25.825L167.95 32.2L166.18437 32.2L166.18437 25.8875Q166.18437 24.809376 165.98125 24.278126Q165.77812 23.746876 165.24687 23.434376Q164.73125 23.121876 164.02812 23.121876Q162.90312 23.121876 162.09062 23.840626Q161.27812 24.54375 161.27812 26.528126L161.27812 32.2L159.5125 32.2ZM176.24687 32.2L176.24687 30.8875Q175.2625 32.434376 173.34062 32.434376Q172.10625 32.434376 171.05937 31.746876Q170.02812 31.059376 169.45 29.840626Q168.8875 28.621876 168.8875 27.028126Q168.8875 25.465626 169.40312 24.2Q169.91875 22.934376 170.95 22.2625Q171.99687 21.590626 173.2625 21.590626Q174.2 21.590626 174.93437 21.996876Q175.66875 22.3875 176.1375 23.0125L176.1375 17.8875L177.87187 17.8875L177.87187 32.2L176.24687 32.2ZM170.68437 27.028126Q170.68437 29.0125 171.52812 29.996876Q172.37187 30.98125 173.5125 30.98125Q174.66875 30.98125 175.46562 30.04375Q176.27812 29.10625 176.27812 27.16875Q176.27812 25.04375 175.45 24.04375Q174.6375 23.04375 173.43437 23.04375Q172.2625 23.04375 171.46562 24.0125Q170.68437 24.965626 170.68437 27.028126Z" fill-rule="nonzero"/></svg>